<svg width="14" height="14" viewBox="0 0 14 14" fill="none" xmlns="http://www.w3.org/2000/svg">
<path fill-rule="evenodd" clip-rule="evenodd" d="M4.2975 9.50006C4.21413 9.50006 4.13951 9.55178 4.11024 9.62984L2.96806 12.6756C2.8711 12.9342 2.58289 13.0652 2.32433 12.9683C2.06577 12.8713 1.93477 12.5831 2.03173 12.3245L5.96993 1.82265C6.32681 0.870965 7.67297 0.870966 8.02985 1.82265L11.9681 12.3245C12.065 12.5831 11.934 12.8713 11.6755 12.9683C11.4169 13.0652 11.1287 12.9342 11.0317 12.6756L9.88955 9.62984C9.86027 9.55178 9.78565 9.50006 9.70228 9.50006H4.2975ZM6.90626 2.17377C6.91722 2.14454 6.93097 2.13193 6.942 2.12472C6.95571 2.11576 6.97581 2.10889 6.99989 2.10889C7.02397 2.10889 7.04407 2.11576 7.05778 2.12472C7.06881 2.13193 7.08256 2.14454 7.09352 2.17377L9.41521 8.36495C9.43973 8.43032 9.3914 8.50006 9.32158 8.50006H4.6782C4.60838 8.50006 4.56005 8.43032 4.58457 8.36495L6.90626 2.17377Z" fill="#242E59"/>
</svg>
