<svg width="14" height="14" viewBox="0 0 14 14" fill="none" xmlns="http://www.w3.org/2000/svg">
<path fill-rule="evenodd" clip-rule="evenodd" d="M7 0C10.8634 0 14 3.1366 14 7C14 10.8634 10.8634 14 7 14C3.1366 14 0 10.8634 0 7C0 3.1366 3.1366 0 7 0ZM7 1C10.3115 1 13 3.68851 13 7C13 10.3115 10.3115 13 7 13C3.68851 13 1 10.3115 1 7C1 3.68851 3.68851 1 7 1ZM7.5 6.3C7.5 6.4105 7.5895 6.5 7.7 6.5H10.501C10.6333 6.5 10.7603 6.5526 10.8538 6.6461C10.9474 6.7397 11 6.8666 11 6.999V7.001C11 7.1334 10.9474 7.2603 10.8538 7.3539C10.7603 7.4474 10.6333 7.5 10.501 7.5H7.7C7.5895 7.5 7.5 7.5895 7.5 7.7V10.501C7.5 10.6333 7.4474 10.7603 7.3539 10.8538C7.2603 10.9474 7.1334 11 7.001 11H6.999C6.8666 11 6.7397 10.9474 6.6461 10.8538C6.5526 10.7603 6.5 10.6333 6.5 10.501V7.7C6.5 7.5895 6.4105 7.5 6.3 7.5H3.499C3.3667 7.5 3.2397 7.4474 3.1462 7.3539C3.0526 7.2603 3 7.1334 3 7.001V6.999C3 6.8666 3.0526 6.7397 3.1462 6.6461C3.2397 6.5526 3.3667 6.5 3.499 6.5H6.3C6.4105 6.5 6.5 6.4105 6.5 6.3V3.499C6.5 3.3667 6.5526 3.2397 6.6461 3.1462C6.7397 3.0526 6.8666 3 6.999 3H7.001C7.1334 3 7.2603 3.0526 7.3539 3.1462C7.4474 3.2397 7.5 3.3667 7.5 3.499V6.3Z" fill="#313E75"/>
</svg>
