<svg width="14" height="14" viewBox="0 0 14 14" fill="none" xmlns="http://www.w3.org/2000/svg">
<path fill-rule="evenodd" clip-rule="evenodd" d="M7.5 14V12.9795C10.4143 12.7389 12.7389 10.4143 12.9795 7.5H14V6.5H12.9795C12.7389 3.58569 10.4143 1.26113 7.5 1.02055V0H6.5V1.02055C3.58569 1.26113 1.26113 3.58569 1.02055 6.5H0V7.5H1.02055C1.26113 10.4143 3.58569 12.7389 6.5 12.9795V14H7.5ZM2.02481 7.5C2.26006 9.85866 4.14134 11.7399 6.5 11.9752V9.44982C5.52154 9.2506 4.7494 8.47846 4.55018 7.5H2.02481ZM5.06309 7.5C5.2651 8.28392 5.93086 8.88221 6.75 8.9845V7.5H5.06309ZM7.25 8.9845C8.06914 8.88221 8.7349 8.28392 8.93691 7.5H7.25V8.9845ZM9.44982 7.5C9.2506 8.47846 8.47846 9.2506 7.5 9.44982V11.9752C9.85866 11.7399 11.7399 9.85866 11.9752 7.5H9.44982ZM2.02481 6.5H4.55018C4.7494 5.52154 5.52154 4.7494 6.5 4.55018V2.02481C4.14134 2.26006 2.26006 4.14134 2.02481 6.5ZM6.75 6.5V5.0155C5.93086 5.11779 5.2651 5.71608 5.06309 6.5H6.75ZM7.25 5.0155V6.5H8.93691C8.7349 5.71608 8.06914 5.11779 7.25 5.0155ZM9.44982 6.5H11.9752C11.7399 4.14134 9.85866 2.26006 7.5 2.02481V4.55018C8.47846 4.7494 9.2506 5.52154 9.44982 6.5Z" fill="#313E75"/>
</svg>
