<svg width="14" height="14" viewBox="0 0 14 14" fill="none" xmlns="http://www.w3.org/2000/svg">
<path fill-rule="evenodd" clip-rule="evenodd" d="M3.1501 7.8824C2.9848 8.0154 2.8077 8.2095 2.7562 8.4563C2.6863 8.7935 2.7417 9.2157 3.067 9.5468C3.4611 9.9482 4.06 10.0581 4.3187 10.077C5.0215 10.1278 5.7705 9.7793 6.3351 9.3819C6.5563 9.2257 6.9352 8.9122 7.2974 8.4286C6.4857 8.0095 5.4726 7.546 4.3894 7.5914C3.8361 7.6145 3.4398 7.7292 3.1501 7.8824ZM13.443 9.7355C13.8013 8.8946 14 7.9703 14 7C14 3.1403 10.8601 0 7 0C3.1399 0 0 3.1403 0 7C0 10.8601 3.1399 14 7 14C9.3295 14 11.3954 12.8554 12.6688 11.0999C11.4657 10.5019 9.4829 9.5176 8.2615 8.922C7.6787 9.5863 6.8171 10.2522 5.8438 10.542C5.2324 10.7237 4.6812 10.7931 4.1048 10.6753C3.5341 10.5585 3.1138 10.2912 2.8688 10.0234C2.744 9.8868 2.6007 9.713 2.4969 9.5063C2.5066 9.5325 2.5133 9.548 2.5133 9.548C2.5133 9.548 2.4537 9.4452 2.408 9.2814C2.3846 9.2023 2.3687 9.1198 2.3623 9.0333C2.3575 8.9767 2.3563 8.9171 2.3596 8.855C2.3545 8.7497 2.3587 8.6393 2.3824 8.526C2.4396 8.2493 2.5577 7.927 2.8633 7.6279C3.5341 6.9711 4.4325 6.9358 4.8979 6.9386C5.5873 6.9425 6.7851 7.2441 7.7938 7.6008C8.0732 7.0058 8.2524 6.3694 8.368 5.9451H4.1741V5.4917H6.3277V4.5847H3.7207V4.1312H6.3277V3.2246C6.3277 3.1001 6.3524 2.9978 6.5544 2.9978H7.5746V4.1312H10.4087V4.5847H7.5746V5.4917H9.8417C9.8417 5.4917 9.6141 6.7608 8.9022 8.0117C10.482 8.5759 12.7047 9.4452 13.443 9.7355Z" fill="#242E59"/>
</svg>
