<svg width="14" height="14" viewBox="0 0 14 14" fill="none" xmlns="http://www.w3.org/2000/svg">
<path fill-rule="evenodd" clip-rule="evenodd" d="M12.913 10.7423C11.6736 12.6998 9.4874 14 7 14C3.1366 14 0 10.8634 0 7C0 3.1366 3.1366 0 7 0C10.8634 0 14 3.1366 14 7C14 8.3754 13.6025 9.6587 12.9151 10.7391L12.9148 10.7432L12.913 10.7423ZM12.9733 8.8418C13.1531 8.2608 13.25 7.6416 13.25 7C13.25 3.5505 10.4495 0.75 7 0.75C3.5505 0.75 0.75 3.5505 0.75 7C0.75 10.4495 3.5505 13.25 7 13.25C9.1866 13.25 11.1124 12.1247 12.2284 10.4211C11.202 9.9416 9.3471 9.0669 8.8299 8.7848C8.7605 8.747 8.7329 8.7277 8.651 8.697C7.5952 9.9507 6.0585 10.9622 3.6831 10.4344C3.3531 10.5004 1.2416 8.5208 3.4851 6.9372C3.749 6.8053 4.7388 6.0134 8.104 7.3331C8.3643 6.8127 8.7528 5.6508 8.7639 5.5516H4.2109V5.1557H6.4544V4.2318H3.8151V3.8359H6.4544V2.4502H7.7741V3.8359H10.6775V4.2318H7.7741V5.1557H10.2155C10.2155 5.1557 9.9516 6.4093 9.2257 7.729C10.5496 8.1703 12.3554 8.7924 12.9733 8.8418ZM7.5101 8.3229C5.8605 10.4344 3.881 9.7746 3.5511 9.6426C2.7593 9.4446 2.4953 7.9929 3.4851 7.5311C5.1346 7.0033 6.5864 7.597 7.6421 8.125C7.5761 8.2569 7.5101 8.3229 7.5101 8.3229Z" fill="#242E59"/>
</svg>
