<svg width="14" height="14" viewBox="0 0 14 14" fill="none" xmlns="http://www.w3.org/2000/svg">
<path fill-rule="evenodd" clip-rule="evenodd" d="M13 2C13.5523 2 14 1.55228 14 1C14 0.447715 13.5523 0 13 0C12.4477 0 12 0.447715 12 1C12 1.14673 12.0316 1.28609 12.0884 1.41162L9.41162 4.08838C9.28609 4.0316 9.14673 4 9 4C8.81855 4 8.64839 4.04833 8.50169 4.13281L5.99267 2.8783C5.93263 2.38341 5.51109 2 5 2C4.44772 2 4 2.44772 4 3C4 3.07917 4.0092 3.15619 4.02659 3.23006L1.49336 5.12998C1.34779 5.04725 1.17941 5 1 5C0.447715 5 0 5.44772 0 6C0 6.55228 0.447715 7 1 7C1.55228 7 2 6.55228 2 6L4.71974 3.9602C4.80866 3.98611 4.90271 4 5 4C5.22515 4 5.43292 3.92559 5.60006 3.80003L8 5C8 5.55228 8.44771 6 9 6C9.55229 6 10 5.55228 10 5C10 4.97224 9.99887 4.94475 9.99665 4.91756L12.9176 1.99665C12.9447 1.99887 12.9722 2 13 2ZM12 6C12 5.44772 12.4477 5 13 5C13.5523 5 14 5.44772 14 6V13C14 13.5523 13.5523 14 13 14C12.4477 14 12 13.5523 12 13V6ZM4 8C4 7.44772 4.44772 7 5 7C5.55228 7 6 7.44772 6 8V13C6 13.5523 5.55228 14 5 14C4.44772 14 4 13.5523 4 13V8ZM0 11C0 10.4477 0.447715 10 1 10C1.55228 10 2 10.4477 2 11V13C2 13.5523 1.55228 14 1 14C0.447715 14 0 13.5523 0 13V11ZM9 8C8.44771 8 8 8.44772 8 9V13C8 13.5523 8.44771 14 9 14C9.55229 14 10 13.5523 10 13V9C10 8.44772 9.55229 8 9 8Z" fill="#242E59"/>
</svg>
