<svg width="14" height="14" viewBox="0 0 14 14" fill="none" xmlns="http://www.w3.org/2000/svg">
<rect y="10" width="2" height="4" rx="1" fill="#313E75"/>
<rect x="4" y="7" width="2" height="7" rx="1" fill="#313E75"/>
<rect x="8" y="8" width="2" height="6" rx="1" fill="#313E75"/>
<rect x="12" y="5" width="2" height="9" rx="1" fill="#313E75"/>
<path d="M14 1C14 1.55228 13.5523 2 13 2C12.9722 2 12.9447 1.99887 12.9176 1.99665L9.99665 4.91756C9.99887 4.94475 10 4.97224 10 5C10 5.55228 9.55229 6 9 6C8.44771 6 8 5.55228 8 5L5.60006 3.80003C5.43292 3.92559 5.22515 4 5 4C4.90271 4 4.80866 3.98611 4.71974 3.9602L2 6C2 6.55228 1.55228 7 1 7C0.447715 7 0 6.55228 0 6C0 5.44772 0.447715 5 1 5C1.17941 5 1.34779 5.04725 1.49336 5.12998L4.02659 3.23006C4.0092 3.15619 4 3.07917 4 3C4 2.44772 4.44772 2 5 2C5.51109 2 5.93263 2.38341 5.99267 2.8783L8.50169 4.13281C8.64839 4.04833 8.81855 4 9 4C9.14673 4 9.28609 4.0316 9.41162 4.08838L12.0884 1.41162C12.0316 1.28609 12 1.14673 12 1C12 0.447715 12.4477 0 13 0C13.5523 0 14 0.447715 14 1Z" fill="#313E75"/>
</svg>
