<svg width="14" height="14" viewBox="0 0 14 14" fill="none" xmlns="http://www.w3.org/2000/svg">
<path fill-rule="evenodd" clip-rule="evenodd" d="M6.34995 11.2639V13.1439C6.34995 13.6169 5.96695 13.9999 5.49495 13.9999C5.02295 13.9999 4.63995 13.6169 4.63995 13.1439V11.2639H3.87995C3.70025 11.2658 3.53195 11.1979 3.40695 11.0749C3.28195 10.9519 3.21105 10.7836 3.20995 10.6039H3.21995C3.21995 10.6039 3.21995 5.68553 3.21995 4.62493C3.21995 4.51443 3.30945 4.42493 3.41995 4.42493C4.49185 4.42493 9.54805 4.42493 10.62 4.42493C10.7305 4.42493 10.82 4.51443 10.82 4.62493C10.82 5.68553 10.82 10.6039 10.82 10.6039C10.814 10.9689 10.5187 11.2623 10.15 11.2639H9.38995V13.1439C9.38995 13.6169 9.00695 13.9999 8.53495 13.9999C8.06195 13.9999 7.67995 13.6169 7.67995 13.1439V11.2639H6.34995ZM10.1711 5.27523C10.1711 5.16473 10.0816 5.07523 9.97105 5.07523C9.02895 5.07523 5.03995 5.07523 4.09775 5.07523C3.98735 5.07523 3.89775 5.16473 3.89775 5.27523C3.89775 6.13513 3.89775 9.51393 3.89775 10.3738C3.89775 10.4843 3.98735 10.5738 4.09775 10.5738C4.34945 10.5738 4.77905 10.5738 5.03065 10.5738C5.14115 10.5738 5.23065 10.6634 5.23065 10.7738C5.23065 11.3869 5.23065 13.1986 5.23065 13.1986C5.23065 13.2657 5.25735 13.33 5.30475 13.3775C5.35225 13.4249 5.41655 13.4516 5.48365 13.4516C5.48415 13.4516 5.48455 13.4516 5.48495 13.4516C5.55205 13.4516 5.61645 13.4249 5.66395 13.3775C5.71135 13.33 5.73805 13.2657 5.73805 13.1986C5.73805 13.1986 5.73805 11.3869 5.73805 10.7738C5.73805 10.6634 5.82755 10.5738 5.93795 10.5738C6.41165 10.5738 7.59735 10.5738 8.07095 10.5738C8.18135 10.5738 8.27095 10.6634 8.27095 10.7738C8.27095 11.3869 8.27095 13.1986 8.27095 13.1986C8.27095 13.2657 8.29755 13.33 8.34505 13.3775C8.39245 13.4249 8.45685 13.4516 8.52395 13.4516C8.52435 13.4516 8.52475 13.4516 8.52525 13.4516C8.59235 13.4516 8.65665 13.4249 8.70415 13.3775C8.75155 13.33 8.77825 13.2657 8.77825 13.1986C8.77825 13.1986 8.77825 11.3869 8.77825 10.7738C8.77825 10.6634 8.86775 10.5738 8.97825 10.5738C9.24285 10.5738 9.70645 10.5738 9.97105 10.5738C10.0815 10.5738 10.1711 10.4843 10.1711 10.3738C10.1711 9.51393 10.1711 6.13513 10.1711 5.27523ZM1.84995 4.40393C1.37895 4.40993 0.999952 4.79393 0.999952 5.26393V8.64393C0.996952 8.87293 1.08495 9.09193 1.24495 9.25593C1.40395 9.41893 1.62195 9.51093 1.84995 9.51393C2.07795 9.51093 2.29595 9.41893 2.45495 9.25593C2.61495 9.09193 2.70295 8.87293 2.69995 8.64393V5.26393C2.70295 5.03693 2.61495 4.81593 2.45495 4.65293C2.29595 4.48993 2.07795 4.39693 1.84995 4.39393V4.40393ZM12.14 4.40393C11.912 4.40693 11.694 4.50093 11.535 4.66393C11.375 4.82693 11.287 5.04693 11.29 5.27393V8.64393C11.29 9.11693 11.673 9.49993 12.144 9.49993C12.617 9.49993 13 9.11693 13 8.64393V5.26393C13.003 5.03693 12.915 4.81593 12.755 4.65293C12.596 4.48993 12.378 4.39693 12.15 4.39393L12.14 4.40393ZM12.3667 5.22253C12.3667 5.16873 12.3453 5.11703 12.3073 5.07903C12.2692 5.04093 12.2176 5.01953 12.1637 5.01953C12.1634 5.01953 12.1631 5.01953 12.1628 5.01953C12.109 5.01953 12.0573 5.04093 12.0193 5.07903C11.9812 5.11703 11.9598 5.16873 11.9598 5.22253C11.9598 5.89483 11.9598 8.04393 11.9598 8.71613C11.9598 8.77003 11.9812 8.82163 12.0193 8.85973C12.0573 8.89783 12.109 8.91913 12.1628 8.91913C12.1631 8.91913 12.1634 8.91913 12.1637 8.91913C12.2176 8.91913 12.2692 8.89783 12.3073 8.85973C12.3453 8.82163 12.3667 8.77003 12.3667 8.71613C12.3667 8.04393 12.3667 5.89483 12.3667 5.22253ZM2.04015 5.22253C2.04015 5.16873 2.01875 5.11703 1.98065 5.07903C1.94265 5.04093 1.89095 5.01953 1.83715 5.01953C1.83685 5.01953 1.83655 5.01953 1.83625 5.01953C1.78235 5.01953 1.73075 5.04093 1.69265 5.07903C1.65465 5.11703 1.63325 5.16873 1.63325 5.22253C1.63325 5.89483 1.63325 8.04393 1.63325 8.71613C1.63325 8.77003 1.65465 8.82163 1.69265 8.85973C1.73075 8.89783 1.78235 8.91913 1.83625 8.91913C1.83655 8.91913 1.83685 8.91913 1.83715 8.91913C1.89095 8.91913 1.94265 8.89783 1.98065 8.85973C2.01875 8.82163 2.04015 8.77003 2.04015 8.71613C2.04015 8.04393 2.04015 5.89483 2.04015 5.22253ZM10.7626 3.63013C10.7729 3.68793 10.7571 3.74733 10.7194 3.79233C10.6817 3.83733 10.626 3.86333 10.5673 3.86333C9.44015 3.86493 4.55715 3.86493 3.43185 3.86493C3.37255 3.86523 3.31625 3.83923 3.27795 3.79393C3.23975 3.74863 3.22355 3.68863 3.23385 3.63033C3.44455 2.55223 4.17815 1.64323 5.19995 1.21493L4.49995 0.214928C4.48095 0.165928 4.49295 0.110928 4.52995 0.0749277C4.57895 0.0319277 4.65095 0.0319277 4.69995 0.0749277L5.42995 1.13393C6.44295 0.742928 7.56595 0.742928 8.57995 1.13393L9.32995 0.0449277C9.37895 0.00292774 9.45095 0.00292774 9.49995 0.0449277C9.54795 0.0939277 9.54795 0.174928 9.49995 0.223928L8.80475 1.21713C9.82105 1.64653 10.5513 2.55303 10.7626 3.63013ZM9.75625 3.19403C9.78905 3.19423 9.81985 3.17843 9.83875 3.15163C9.85765 3.12483 9.86225 3.09053 9.85095 3.05973C9.47545 2.11783 8.34045 1.43273 6.99995 1.43273C5.65885 1.43273 4.52335 2.11843 4.15035 3.06033C4.13935 3.09073 4.14385 3.12453 4.16245 3.15093C4.18095 3.17743 4.21125 3.19313 4.24355 3.19313C5.03815 3.19403 8.96135 3.19403 9.75625 3.19403ZM5.62095 1.92933C5.83875 1.92933 6.01565 2.10613 6.01565 2.32403C6.01565 2.54183 5.83875 2.71863 5.62095 2.71863C5.40315 2.71863 5.22625 2.54183 5.22625 2.32403C5.22625 2.10613 5.40315 1.92933 5.62095 1.92933ZM8.37885 1.92933C8.59615 1.92933 8.77265 2.10573 8.77265 2.32313C8.77265 2.54043 8.59615 2.71683 8.37885 2.71683C8.16155 2.71683 7.98505 2.54043 7.98505 2.32313C7.98505 2.10573 8.16155 1.92933 8.37885 1.92933Z" fill="#242E59"/>
</svg>
