<svg width="14" height="14" viewBox="0 0 14 14" fill="none" xmlns="http://www.w3.org/2000/svg">
<mask id="mask0" mask-type="alpha" maskUnits="userSpaceOnUse" x="0" y="0" width="14" height="14">
<path d="M0 14H14V0H0V14Z" fill="white"/>
</mask>
<g mask="url(#mask0)">
<path fill-rule="evenodd" clip-rule="evenodd" d="M6.35007 11.264V13.144C6.35007 13.617 5.96707 14 5.49507 14C5.02307 14 4.64007 13.617 4.64007 13.144V11.264H3.88007C3.70037 11.2659 3.53207 11.198 3.40707 11.075C3.28207 10.952 3.21117 10.7837 3.21007 10.604H3.22007C3.22007 10.604 3.22007 5.68559 3.22007 4.62499C3.22007 4.51449 3.30957 4.42499 3.42007 4.42499C4.49197 4.42499 9.54817 4.42499 10.6201 4.42499C10.7306 4.42499 10.8201 4.51449 10.8201 4.62499C10.8201 5.68559 10.8201 10.604 10.8201 10.604C10.8141 10.969 10.5188 11.2624 10.1501 11.264H9.39007V13.144C9.39007 13.617 9.00707 14 8.53507 14C8.06207 14 7.68007 13.617 7.68007 13.144V11.264H6.35007ZM10.1712 5.27529C10.1712 5.16479 10.0817 5.07529 9.97117 5.07529C9.02907 5.07529 5.04007 5.07529 4.09787 5.07529C3.98747 5.07529 3.89787 5.16479 3.89787 5.27529C3.89787 6.13519 3.89787 9.51399 3.89787 10.3739C3.89787 10.4844 3.98747 10.5739 4.09787 10.5739C4.34957 10.5739 4.77917 10.5739 5.03077 10.5739C5.14127 10.5739 5.23077 10.6635 5.23077 10.7739C5.23077 11.387 5.23077 13.1987 5.23077 13.1987C5.23077 13.2658 5.25747 13.3301 5.30487 13.3776C5.35237 13.425 5.41667 13.4517 5.48377 13.4517C5.48427 13.4517 5.48467 13.4517 5.48507 13.4517C5.55217 13.4517 5.61657 13.425 5.66407 13.3776C5.71147 13.3301 5.73817 13.2658 5.73817 13.1987C5.73817 13.1987 5.73817 11.387 5.73817 10.7739C5.73817 10.6635 5.82767 10.5739 5.93807 10.5739C6.41177 10.5739 7.59747 10.5739 8.07107 10.5739C8.18147 10.5739 8.27107 10.6635 8.27107 10.7739C8.27107 11.387 8.27107 13.1987 8.27107 13.1987C8.27107 13.2658 8.29767 13.3301 8.34517 13.3776C8.39257 13.425 8.45697 13.4517 8.52407 13.4517C8.52447 13.4517 8.52487 13.4517 8.52537 13.4517C8.59247 13.4517 8.65677 13.425 8.70427 13.3776C8.75167 13.3301 8.77837 13.2658 8.77837 13.1987C8.77837 13.1987 8.77837 11.387 8.77837 10.7739C8.77837 10.6635 8.86787 10.5739 8.97837 10.5739C9.24297 10.5739 9.70657 10.5739 9.97117 10.5739C10.0816 10.5739 10.1712 10.4844 10.1712 10.3739C10.1712 9.51399 10.1712 6.13519 10.1712 5.27529ZM1.85007 4.40399C1.37907 4.40999 1.00007 4.79399 1.00007 5.26399V8.64399C0.997074 8.87299 1.08507 9.09199 1.24507 9.25599C1.40407 9.41899 1.62207 9.51099 1.85007 9.51399C2.07807 9.51099 2.29607 9.41899 2.45507 9.25599C2.61507 9.09199 2.70307 8.87299 2.70007 8.64399V5.26399C2.70307 5.03699 2.61507 4.81599 2.45507 4.65299C2.29607 4.48999 2.07807 4.39699 1.85007 4.39399V4.40399ZM12.1401 4.40399C11.9121 4.40699 11.6941 4.50099 11.5351 4.66399C11.3751 4.82699 11.2871 5.04699 11.2901 5.27399V8.64399C11.2901 9.11699 11.6731 9.49999 12.1441 9.49999C12.6171 9.49999 13.0001 9.11699 13.0001 8.64399V5.26399C13.0031 5.03699 12.9151 4.81599 12.7551 4.65299C12.5961 4.48999 12.3781 4.39699 12.1501 4.39399L12.1401 4.40399ZM12.3668 5.22259C12.3668 5.16879 12.3454 5.11709 12.3074 5.07909C12.2693 5.04099 12.2177 5.01959 12.1638 5.01959C12.1635 5.01959 12.1632 5.01959 12.1629 5.01959C12.1091 5.01959 12.0574 5.04099 12.0194 5.07909C11.9813 5.11709 11.9599 5.16879 11.9599 5.22259C11.9599 5.89489 11.9599 8.04399 11.9599 8.71619C11.9599 8.77009 11.9813 8.82169 12.0194 8.85979C12.0574 8.89789 12.1091 8.91919 12.1629 8.91919C12.1632 8.91919 12.1635 8.91919 12.1638 8.91919C12.2177 8.91919 12.2693 8.89789 12.3074 8.85979C12.3454 8.82169 12.3668 8.77009 12.3668 8.71619C12.3668 8.04399 12.3668 5.89489 12.3668 5.22259ZM2.04027 5.22259C2.04027 5.16879 2.01887 5.11709 1.98077 5.07909C1.94277 5.04099 1.89107 5.01959 1.83727 5.01959C1.83697 5.01959 1.83667 5.01959 1.83637 5.01959C1.78247 5.01959 1.73087 5.04099 1.69277 5.07909C1.65477 5.11709 1.63337 5.16879 1.63337 5.22259C1.63337 5.89489 1.63337 8.04399 1.63337 8.71619C1.63337 8.77009 1.65477 8.82169 1.69277 8.85979C1.73087 8.89789 1.78247 8.91919 1.83637 8.91919C1.83667 8.91919 1.83697 8.91919 1.83727 8.91919C1.89107 8.91919 1.94277 8.89789 1.98077 8.85979C2.01887 8.82169 2.04027 8.77009 2.04027 8.71619C2.04027 8.04399 2.04027 5.89489 2.04027 5.22259ZM10.7627 3.63019C10.773 3.68799 10.7572 3.74739 10.7195 3.79239C10.6818 3.83739 10.6261 3.86339 10.5674 3.86339C9.44027 3.86499 4.55727 3.86499 3.43197 3.86499C3.37267 3.86529 3.31637 3.83929 3.27807 3.79399C3.23987 3.74869 3.22367 3.68869 3.23397 3.63039C3.44467 2.55229 4.17827 1.64329 5.20007 1.21499L4.50007 0.214989C4.48107 0.165989 4.49307 0.110989 4.53007 0.0749888C4.57907 0.0319888 4.65107 0.0319888 4.70007 0.0749888L5.43007 1.13399C6.44307 0.742989 7.56607 0.742989 8.58007 1.13399L9.33007 0.0449888C9.37907 0.00298877 9.45107 0.00298877 9.50007 0.0449888C9.54807 0.0939888 9.54807 0.174989 9.50007 0.223989L8.80487 1.21719C9.82117 1.64659 10.5514 2.55309 10.7627 3.63019ZM9.75637 3.19409C9.78917 3.19429 9.81997 3.17849 9.83887 3.15169C9.85777 3.12489 9.86237 3.09059 9.85107 3.05979C9.47557 2.11789 8.34057 1.43279 7.00007 1.43279C5.65897 1.43279 4.52347 2.11849 4.15047 3.06039C4.13947 3.09079 4.14397 3.12459 4.16257 3.15099C4.18107 3.17749 4.21137 3.19319 4.24367 3.19319C5.03827 3.19409 8.96147 3.19409 9.75637 3.19409ZM5.62107 1.92939C5.83887 1.92939 6.01577 2.10619 6.01577 2.32409C6.01577 2.54189 5.83887 2.71869 5.62107 2.71869C5.40327 2.71869 5.22637 2.54189 5.22637 2.32409C5.22637 2.10619 5.40327 1.92939 5.62107 1.92939ZM8.37897 1.92939C8.59627 1.92939 8.77277 2.10579 8.77277 2.32319C8.77277 2.54049 8.59627 2.71689 8.37897 2.71689C8.16167 2.71689 7.98517 2.54049 7.98517 2.32319C7.98517 2.10579 8.16167 1.92939 8.37897 1.92939Z" fill="#313E75"/>
</g>
</svg>
