<svg width="14" height="14" viewBox="0 0 14 14" fill="none" xmlns="http://www.w3.org/2000/svg">
<path fill-rule="evenodd" clip-rule="evenodd" d="M12.5001 10.1446C12.2751 10.8316 11.9501 11.4826 11.5351 12.0746C11.0051 12.8946 10.4161 13.7526 9.50011 13.7526C8.58311 13.7526 8.30411 13.1936 7.28111 13.1936C6.25811 13.1936 5.90111 13.7526 5.05311 13.7526C4.20411 13.7526 3.49011 12.8556 2.92011 12.0366C1.76311 10.3676 0.87511 7.29856 2.06211 5.28356C2.63011 4.26256 3.69311 3.61856 4.86011 3.58456C5.72811 3.58456 6.55811 4.17356 7.07911 4.17356C7.59911 4.17356 8.62211 3.44056 9.67411 3.55556C10.6381 3.59556 11.5321 4.07156 12.1041 4.84856C11.2311 5.41256 10.6981 6.37556 10.6871 7.41556C10.6881 8.60656 11.4021 9.68056 12.5001 10.1446ZM8.97911 2.42756L8.98811 2.39856C8.49911 3.00556 7.76211 3.36056 6.98211 3.36356C6.92511 2.59756 7.18311 1.84056 7.69611 1.26956C8.20611 0.685559 8.92111 0.320559 9.69211 0.247559C9.75111 1.03956 9.49411 1.82356 8.97911 2.42756Z" fill="#242E59"/>
</svg>
