<svg width="14" height="14" viewBox="0 0 14 14" fill="none" xmlns="http://www.w3.org/2000/svg">
<path fill-rule="evenodd" clip-rule="evenodd" d="M8.7527 1.2154C8.718 1.6097 8.5033 1.9287 8.3973 2.0647C8.1945 2.3249 7.8892 2.5166 7.5908 2.5817C7.6188 2.1855 7.8696 1.848 7.9578 1.7407C8.1529 1.505 8.4584 1.3079 8.7527 1.2154ZM9.5465 4.2901C10.1511 4.2901 10.5846 4.4248 11.0937 4.9098C10.2805 5.5312 9.9459 6.6254 10.0198 7.676C10.096 8.7662 10.6534 9.8956 11.5827 10.3983C11.3964 10.7954 11.3059 10.9514 11.0284 11.3724C10.5449 12.111 9.99851 12.8627 9.31001 12.8697H9.29801C9.02201 12.8697 8.8457 12.7888 8.6016 12.677C8.2867 12.5327 7.8943 12.3529 7.2336 12.3529H7.2136C6.54901 12.3568 6.1497 12.5346 5.8289 12.6775C5.5778 12.7896 5.3962 12.8705 5.1172 12.8705H5.1001C4.3919 12.8651 3.7779 12.0672 3.3221 11.3724C1.8799 9.1764 1.8823 6.7878 2.6163 5.6558C3.16461 4.8137 4.0227 4.291 4.8553 4.291C5.2884 4.291 5.6398 4.4162 6.0122 4.5489C6.3798 4.6797 6.7599 4.8153 7.2047 4.8153C7.6267 4.8153 7.9665 4.6868 8.2949 4.5626C8.6491 4.4287 9.0159 4.2901 9.5465 4.2901ZM9.54661 0.25C8.82221 0.2991 7.977 0.7606 7.482 1.3592C7.033 1.9049 6.66241 2.713 6.8077 3.4983C6.8269 3.4989 6.8457 3.4991 6.8647 3.4991C7.6357 3.4991 8.4254 3.0362 8.8888 2.4416C9.3331 1.8725 9.66891 1.0709 9.54661 0.25ZM9.8145 3.4105C8.5943 3.4105 8.0799 3.9895 7.2328 3.9895C6.362 3.9895 5.69861 3.4115 4.6427 3.4115C3.60641 3.4115 2.5061 4.0405 1.8058 5.1161C0.825005 6.6287 0.991205 9.4736 2.5847 11.8999C3.15301 12.7662 3.9151 13.7422 4.9094 13.75H4.9315C5.7995 13.75 6.0545 13.1863 7.2453 13.1792H7.2648C8.4404 13.1792 8.6743 13.749 9.5406 13.749H9.55781C10.5529 13.7387 11.3561 12.6591 11.9235 11.7923C12.3331 11.1715 12.4853 10.8572 12.8029 10.1543C10.4995 9.2837 10.1278 6.0293 12.4081 4.7796C11.7131 3.9121 10.7365 3.4105 9.8146 3.4105H9.8145Z" fill="#242E59"/>
</svg>
