<svg width="14" height="14" viewBox="0 0 14 14" fill="none" xmlns="http://www.w3.org/2000/svg">
<path fill-rule="evenodd" clip-rule="evenodd" d="M14 1C14 0.4477 13.5523 0 13 0H1C0.4477 0 0.0001 0.4477 0 1V13C0.0001 13.5523 0.4477 13.9999 1 14H13C13.5523 13.9999 14 13.5523 14 13V1ZM13 1.5C13 1.3674 12.9473 1.2402 12.8536 1.1464C12.7598 1.0527 12.6326 1 12.5 1H1.5C1.3674 1 1.2402 1.0527 1.1464 1.1464C1.0527 1.2402 1 1.3674 1 1.5V12.5C1 12.6326 1.0527 12.7598 1.1464 12.8536C1.2402 12.9473 1.3674 13 1.5 13H12.5C12.6326 13 12.7598 12.9473 12.8536 12.8536C12.9473 12.7598 13 12.6326 13 12.5V1.5ZM11 9.5C11 9.2239 10.7761 9 10.5 9C9.0636 9 4.9364 9 3.5 9C3.2239 9 3 9.2239 3 9.5C3 9.7761 3.2239 10 3.5 10C4.9364 10 9.0636 10 10.5 10C10.7761 10 11 9.7761 11 9.5ZM11 7C11 6.7239 10.7761 6.5 10.5 6.5C9.0636 6.5 4.9364 6.5 3.5 6.5C3.2239 6.5 3 6.7239 3 7C3 7.2761 3.2239 7.5 3.5 7.5C4.9364 7.5 9.0636 7.5 10.5 7.5C10.7761 7.5 11 7.2761 11 7ZM11 4.5C11 4.2239 10.7761 4 10.5 4C9.0636 4 4.9364 4 3.5 4C3.2239 4 3 4.2239 3 4.5C3 4.7761 3.2239 5 3.5 5C4.9364 5 9.0636 5 10.5 5C10.7761 5 11 4.7761 11 4.5Z" fill="#242E59"/>
</svg>
