<svg width="14" height="14" viewBox="0 0 14 14" fill="none" xmlns="http://www.w3.org/2000/svg">
<path fill-rule="evenodd" clip-rule="evenodd" d="M6.29291 4.52509C6.29291 4.52509 6.46971 4.34829 6.64641 4.17159C6.74021 4.07779 6.86741 4.02509 7.00001 4.02509C7.13261 4.02509 7.25981 4.07779 7.35361 4.17159C7.53031 4.34829 7.70711 4.52509 7.70711 4.52509C7.70711 4.52509 11.1709 7.98889 12.3033 9.12129C12.4986 9.31659 12.4986 9.63319 12.3033 9.82839C12.3031 9.82869 12.3028 9.82889 12.3026 9.82909C12.1077 10.024 11.7918 10.024 11.5969 9.82909C10.6019 8.83409 7.80301 6.03519 7.14141 5.37369C7.10391 5.33619 7.05301 5.31509 7.00001 5.31509C6.94701 5.31509 6.89611 5.33619 6.85861 5.37369C6.19511 6.03709 3.38211 8.85009 2.39461 9.83759C2.20441 10.0278 1.89611 10.0278 1.70591 9.83759C1.70571 9.83739 1.70541 9.83709 1.70521 9.83689C1.50521 9.63699 1.50521 9.31279 1.70521 9.11279L6.29291 4.52509Z" fill="#242E59"/>
</svg>
