<svg width="14" height="14" viewBox="0 0 14 14" fill="none" xmlns="http://www.w3.org/2000/svg">
<path fill-rule="evenodd" clip-rule="evenodd" d="M1.70709 7.70711C1.70709 7.70711 1.53029 7.53031 1.35359 7.35361C1.25979 7.25981 1.20709 7.13261 1.20709 7.00001C1.20709 6.86741 1.25979 6.74021 1.35359 6.64641L6.30329 1.69671C6.49859 1.50141 6.81509 1.50141 7.01039 1.69671C7.01059 1.69691 7.01089 1.69721 7.01109 1.69741C7.20599 1.89231 7.20599 2.20821 7.01109 2.40311C6.01609 3.39811 3.21719 6.19701 2.55559 6.85861C2.51809 6.89611 2.49709 6.94701 2.49709 7.00001C2.49709 7.05301 2.51809 7.10391 2.55559 7.14141C3.21909 7.80491 6.03209 10.6179 7.01959 11.6054C7.20979 11.7956 7.20979 12.1039 7.01959 12.2941C7.01939 12.2943 7.01909 12.2946 7.01889 12.2948C6.81889 12.4948 6.49479 12.4948 6.29479 12.2948C5.15369 11.1537 1.70709 7.70711 1.70709 7.70711ZM7.34309 7.70711C7.34309 7.70711 7.16639 7.53031 6.98959 7.35361C6.89579 7.25981 6.84309 7.13261 6.84309 7.00001C6.84309 6.86741 6.89579 6.74021 6.98959 6.64641L11.9393 1.69671C12.1346 1.50141 12.4512 1.50141 12.6464 1.69671C12.6467 1.69691 12.6469 1.69721 12.6472 1.69741C12.842 1.89231 12.842 2.20821 12.6472 2.40311C11.6522 3.39811 8.85329 6.19701 8.19169 6.85861C8.15419 6.89611 8.13309 6.94701 8.13309 7.00001C8.13309 7.05301 8.15419 7.10391 8.19169 7.14141C8.85509 7.80491 11.6682 10.6179 12.6556 11.6054C12.8458 11.7956 12.8458 12.1039 12.6556 12.2941C12.6554 12.2943 12.6552 12.2946 12.6549 12.2948C12.455 12.4948 12.1308 12.4948 11.9309 12.2948C10.7897 11.1537 7.34309 7.70711 7.34309 7.70711Z" fill="#242E59"/>
</svg>
