<svg width="14" height="14" viewBox="0 0 14 14" fill="none" xmlns="http://www.w3.org/2000/svg">
<path fill-rule="evenodd" clip-rule="evenodd" d="M7.70711 9.47489C7.70711 9.47489 7.53031 9.65169 7.35361 9.82839C7.25981 9.92219 7.13261 9.97489 7.00001 9.97489C6.86741 9.97489 6.74021 9.92219 6.64641 9.82839C6.46971 9.65169 6.29291 9.47489 6.29291 9.47489C6.29291 9.47489 2.82911 6.01109 1.69671 4.87869C1.50141 4.68339 1.50141 4.36679 1.69671 4.17159C1.69691 4.17129 1.69721 4.17109 1.69741 4.17089C1.89231 3.97599 2.20821 3.97599 2.40311 4.17089C3.39811 5.16589 6.19701 7.96479 6.85861 8.62629C6.89611 8.66379 6.94701 8.68489 7.00001 8.68489C7.05301 8.68489 7.10391 8.66379 7.14141 8.62629C7.80101 7.96679 10.5848 5.18299 11.5877 4.18009C11.7877 3.98009 12.1118 3.98009 12.3118 4.18009C12.312 4.18029 12.3123 4.18049 12.3125 4.18079C12.5027 4.37089 12.5027 4.67929 12.3125 4.86949C11.1898 5.99219 7.70711 9.47489 7.70711 9.47489Z" fill="#242E59"/>
</svg>
