<svg width="14" height="14" viewBox="0 0 14 14" fill="none" xmlns="http://www.w3.org/2000/svg">
<path fill-rule="evenodd" clip-rule="evenodd" d="M4.4904 7.70711C4.4904 7.70711 4.3136 7.53031 4.1368 7.35361C4.0431 7.25981 3.9904 7.13261 3.9904 7.00001C3.9904 6.86741 4.0431 6.74021 4.1368 6.64641L9.0866 1.69671C9.2819 1.50141 9.5984 1.50141 9.7937 1.69671C9.7939 1.69691 9.7942 1.69721 9.7944 1.69741C9.9893 1.89231 9.9893 2.20821 9.7944 2.40311C8.7994 3.39811 6.0005 6.19701 5.3389 6.85861C5.3014 6.89611 5.2804 6.94701 5.2804 7.00001C5.2804 7.05301 5.3014 7.10391 5.3389 7.14141C6.0024 7.80491 8.8154 10.6179 9.8029 11.6054C9.9931 11.7956 9.9931 12.1039 9.8029 12.2941C9.8027 12.2943 9.8024 12.2946 9.8022 12.2948C9.6022 12.4948 9.2781 12.4948 9.0781 12.2948C7.937 11.1537 4.4904 7.70711 4.4904 7.70711Z" fill="#242E59"/>
</svg>
