<svg width="14" height="14" viewBox="0 0 14 14" fill="none" xmlns="http://www.w3.org/2000/svg">
<path fill-rule="evenodd" clip-rule="evenodd" d="M8.15689 12.0912C8.15689 12.0912 7.98009 12.2679 7.80339 12.4447C7.70959 12.5385 7.58239 12.5912 7.44979 12.5912C7.31719 12.5912 7.18999 12.5385 7.09619 12.4447C6.91949 12.2679 6.74269 12.0912 6.74269 12.0912C6.74269 12.0912 3.27889 8.62735 2.14649 7.49495C1.95119 7.29965 1.95119 6.98315 2.14649 6.78785C2.14669 6.78765 2.14699 6.78735 2.14719 6.78715C2.34209 6.59225 2.65799 6.59225 2.85289 6.78715C3.84789 7.78215 6.64679 10.581 7.30839 11.2426C7.34589 11.2802 7.39679 11.3012 7.44979 11.3012C7.50279 11.3012 7.55369 11.2802 7.59119 11.2426C8.25469 10.5792 11.0677 7.76615 12.0552 6.77865C12.2454 6.58845 12.5537 6.58845 12.7439 6.77865C12.7441 6.77885 12.7444 6.77915 12.7446 6.77935C12.9446 6.97935 12.9446 7.30345 12.7446 7.50345C11.6035 8.64455 8.15689 12.0912 8.15689 12.0912ZM8.15689 6.45515C8.15689 6.45515 7.98009 6.63185 7.80339 6.80865C7.70959 6.90245 7.58239 6.95515 7.44979 6.95515C7.31719 6.95515 7.18999 6.90245 7.09619 6.80865C6.91949 6.63185 6.74269 6.45515 6.74269 6.45515C6.74269 6.45515 3.27889 2.99135 2.14649 1.85895C1.95119 1.66365 1.95119 1.34705 2.14649 1.15185C2.14669 1.15155 2.14699 1.15135 2.14719 1.15105C2.34209 0.95625 2.65799 0.95625 2.85289 1.15105C3.84789 2.14605 6.64679 4.94495 7.30839 5.60655C7.34589 5.64405 7.39679 5.66515 7.44979 5.66515C7.50279 5.66515 7.55369 5.64405 7.59119 5.60655C8.25469 4.94315 11.0677 2.13005 12.0552 1.14265C12.2454 0.95245 12.5537 0.95245 12.7439 1.14265C12.7441 1.14285 12.7444 1.14305 12.7446 1.14335C12.9446 1.34325 12.9446 1.66745 12.7446 1.86735C11.6035 3.00855 8.15689 6.45515 8.15689 6.45515Z" fill="#242E59"/>
</svg>
