<svg width="14" height="14" viewBox="0 0 14 14" fill="none" xmlns="http://www.w3.org/2000/svg">
<path fill-rule="evenodd" clip-rule="evenodd" d="M9.4749 6.29288C9.4749 6.29288 9.65169 6.46968 9.82839 6.64638C9.92219 6.74018 9.9749 6.86738 9.9749 6.99998C9.9749 7.13258 9.92219 7.25978 9.82839 7.35358C9.65169 7.53028 9.4749 7.70708 9.4749 7.70708C9.4749 7.70708 6.01109 11.1709 4.87869 12.3033C4.68339 12.4986 4.36679 12.4986 4.17159 12.3033C4.17129 12.3031 4.17109 12.3028 4.17089 12.3026C3.97599 12.1077 3.97599 11.7918 4.17089 11.5969C5.16589 10.6019 7.9648 7.80298 8.6263 7.14138C8.66379 7.10388 8.6849 7.05298 8.6849 6.99998C8.6849 6.94698 8.66379 6.89608 8.6263 6.85858C7.9629 6.19508 5.14989 3.38208 4.16239 2.39458C3.97219 2.20438 3.97219 1.89608 4.16239 1.70588C4.16259 1.70568 4.16289 1.70538 4.16309 1.70518C4.36299 1.50518 4.68719 1.50518 4.88719 1.70518C6.0283 2.84628 9.4749 6.29288 9.4749 6.29288Z" fill="#242E59"/>
</svg>
