<svg width="14" height="14" viewBox="0 0 14 14" fill="none" xmlns="http://www.w3.org/2000/svg">
<path fill-rule="evenodd" clip-rule="evenodd" d="M12.2929 6.29288C12.2929 6.29288 12.4697 6.46968 12.6464 6.64638C12.7402 6.74018 12.7929 6.86738 12.7929 6.99998C12.7929 7.13258 12.7402 7.25978 12.6464 7.35358C12.4697 7.53028 12.2929 7.70708 12.2929 7.70708C12.2929 7.70708 8.82907 11.1709 7.69667 12.3033C7.50137 12.4986 7.18487 12.4986 6.98957 12.3033C6.98937 12.3031 6.98907 12.3028 6.98887 12.3026C6.79397 12.1077 6.79397 11.7918 6.98887 11.5969C7.98387 10.6019 10.7828 7.80298 11.4444 7.14138C11.4819 7.10388 11.5029 7.05298 11.5029 6.99998C11.5029 6.94698 11.4819 6.89608 11.4444 6.85858C10.7809 6.19508 7.96787 3.38208 6.98037 2.39458C6.79017 2.20438 6.79017 1.89608 6.98037 1.70588C6.98057 1.70568 6.98087 1.70538 6.98107 1.70518C7.18107 1.50518 7.50517 1.50518 7.70517 1.70518C8.84627 2.84628 12.2929 6.29288 12.2929 6.29288ZM6.65687 6.29288C6.65687 6.29288 6.83357 6.46968 7.01037 6.64638C7.10417 6.74018 7.15687 6.86738 7.15687 6.99998C7.15687 7.13258 7.10417 7.25978 7.01037 7.35358C6.83357 7.53028 6.65687 7.70708 6.65687 7.70708C6.65687 7.70708 3.19307 11.1709 2.06067 12.3033C1.86537 12.4986 1.54877 12.4986 1.35357 12.3033C1.35327 12.3031 1.35307 12.3028 1.35277 12.3026C1.15797 12.1077 1.15797 11.7918 1.35277 11.5969C2.34777 10.6019 5.14667 7.80298 5.80827 7.14138C5.84577 7.10388 5.86687 7.05298 5.86687 6.99998C5.86687 6.94698 5.84577 6.89608 5.80827 6.85858C5.14487 6.19508 2.33177 3.38208 1.34437 2.39458C1.15417 2.20438 1.15417 1.89608 1.34437 1.70588C1.34457 1.70568 1.34477 1.70538 1.34507 1.70518C1.54497 1.50518 1.86917 1.50518 2.06907 1.70518C3.21027 2.84628 6.65687 6.29288 6.65687 6.29288Z" fill="#242E59"/>
</svg>
