<svg width="14" height="14" viewBox="0 0 14 14" fill="none" xmlns="http://www.w3.org/2000/svg">
<path fill-rule="evenodd" clip-rule="evenodd" d="M0.5 0L0.5257 0.0007L0.5511 0.0026L0.5761 0.0058L0.6008 0.0102L0.625 0.0157L0.6487 0.0225L0.6719 0.0303L0.6946 0.0393L0.7168 0.0493L0.7383 0.0603L0.7593 0.0724L0.7796 0.0854L0.7992 0.0993L0.818 0.1142L0.8362 0.1299L0.8536 0.1464L0.8701 0.1638L0.8858 0.182L0.9007 0.2008L0.9146 0.2204L0.9276 0.2407L0.9397 0.2617L0.9507 0.2832L0.9607 0.3054L0.9697 0.3281L0.9775 0.3513L0.9843 0.375L0.9898 0.3992L0.9942 0.4239L0.9974 0.4489L0.9993 0.4743L1 0.5V13.5L0.9993 13.5257L0.9974 13.5511L0.9942 13.5761L0.9898 13.6008L0.9843 13.625L0.9775 13.6487L0.9697 13.6719L0.9607 13.6946L0.9507 13.7168L0.9397 13.7383L0.9276 13.7593L0.9146 13.7796L0.9007 13.7992L0.8858 13.818L0.8701 13.8362L0.8536 13.8536L0.8362 13.8701L0.818 13.8858L0.7992 13.9007L0.7796 13.9146L0.7593 13.9276L0.7383 13.9397L0.7168 13.9507L0.6946 13.9607L0.6719 13.9697L0.6487 13.9775L0.625 13.9843L0.6008 13.9898L0.5761 13.9942L0.5511 13.9974L0.5257 13.9993L0.5 14L0.4743 13.9993L0.4489 13.9974L0.4239 13.9942L0.3992 13.9898L0.375 13.9843L0.3513 13.9775L0.3281 13.9697L0.3054 13.9607L0.2832 13.9507L0.2617 13.9397L0.2407 13.9276L0.2204 13.9146L0.2008 13.9007L0.182 13.8858L0.1638 13.8701L0.1464 13.8536L0.1299 13.8362L0.1142 13.818L0.0993 13.7992L0.0854 13.7796L0.0724 13.7593L0.0603 13.7383L0.0493 13.7168L0.0393 13.6946L0.0303 13.6719L0.0225 13.6487L0.0157 13.625L0.0102 13.6008L0.0058 13.5761L0.0026 13.5511L0.0007 13.5257L0 13.5V0.5L0.0007 0.4743L0.0026 0.4489L0.0058 0.4239L0.0102 0.3992L0.0157 0.375L0.0225 0.3513L0.0303 0.3281L0.0393 0.3054L0.0493 0.2832L0.0603 0.2617L0.0724 0.2407L0.0854 0.2204L0.0993 0.2008L0.1142 0.182L0.1299 0.1638L0.1464 0.1464L0.1638 0.1299L0.182 0.1142L0.2008 0.0993L0.2204 0.0854L0.2407 0.0724L0.2617 0.0603L0.2832 0.0493L0.3054 0.0393L0.3281 0.0303L0.3513 0.0225L0.375 0.0157L0.3992 0.0102L0.4239 0.0058L0.4489 0.0026L0.4743 0.0007L0.5 0ZM7.5248 11.0006L7.5494 11.0024L7.5738 11.0055L7.598 11.0097L7.6219 11.0151L7.6454 11.0216L7.6686 11.0293L7.6913 11.0381L7.7136 11.0479L7.7354 11.0589L7.7567 11.0709L7.7774 11.084L7.7975 11.0981L7.8169 11.1132L7.8356 11.1293L7.8536 11.1464L7.8706 11.1644L7.8868 11.1831L7.9019 11.2025L7.916 11.2226L7.9291 11.2433L7.9411 11.2646L7.9521 11.2864L7.9619 11.3087L7.9707 11.3314L7.9784 11.3546L7.9849 11.3781L7.9903 11.402L7.9945 11.4262L7.9976 11.4506L7.9994 11.4752L8 11.5L7.9994 11.5248L7.9976 11.5494L7.9945 11.5738L7.9903 11.598L7.9849 11.6219L7.9784 11.6454L7.9707 11.6686L7.9619 11.6913L7.9521 11.7136L7.9411 11.7354L7.9291 11.7567L7.916 11.7774L7.9019 11.7975L7.8868 11.8169L7.8706 11.8356L7.8536 11.8536L7.8356 11.8707L7.8169 11.8868L7.7975 11.9019L7.7774 11.916L7.7567 11.9291L7.7354 11.9411L7.7136 11.9521L7.6913 11.9619L7.6686 11.9707L7.6454 11.9784L7.6219 11.9849L7.598 11.9903L7.5738 11.9945L7.5494 11.9976L7.5248 11.9994L7.5 12H2.5L2.4752 11.9994L2.4506 11.9976L2.4262 11.9945L2.402 11.9903L2.3781 11.9849L2.3546 11.9784L2.3314 11.9707L2.3087 11.9619L2.2864 11.9521L2.2646 11.9411L2.2433 11.9291L2.2226 11.916L2.2025 11.9019L2.1831 11.8868L2.1644 11.8707L2.1464 11.8536L2.1294 11.8356L2.1132 11.8169L2.0981 11.7975L2.084 11.7774L2.0709 11.7567L2.0589 11.7354L2.0479 11.7136L2.0381 11.6913L2.0293 11.6686L2.0216 11.6454L2.0151 11.6219L2.0097 11.598L2.0055 11.5738L2.0024 11.5494L2.0006 11.5248L2 11.5L2.0006 11.4752L2.0024 11.4506L2.0055 11.4262L2.0097 11.402L2.0151 11.3781L2.0216 11.3546L2.0293 11.3314L2.0381 11.3087L2.0479 11.2864L2.0589 11.2646L2.0709 11.2433L2.084 11.2226L2.0981 11.2025L2.1132 11.1831L2.1294 11.1644L2.1464 11.1464L2.1644 11.1293L2.1831 11.1132L2.2025 11.0981L2.2226 11.084L2.2433 11.0709L2.2646 11.0589L2.2864 11.0479L2.3087 11.0381L2.3314 11.0293L2.3546 11.0216L2.3781 11.0151L2.402 11.0097L2.4262 11.0055L2.4506 11.0024L2.4752 11.0006L2.5 11H7.5L7.5248 11.0006ZM11.5248 8.0006L11.5494 8.0024L11.5738 8.0055L11.598 8.0097L11.6219 8.0151L11.6454 8.0216L11.6686 8.0293L11.6913 8.0381L11.7136 8.0479L11.7354 8.0589L11.7567 8.0709L11.7774 8.084L11.7975 8.0981L11.8169 8.1132L11.8356 8.1293L11.8536 8.1464L11.8706 8.1644L11.8868 8.1831L11.9019 8.2025L11.916 8.2226L11.9291 8.2433L11.9411 8.2646L11.9521 8.2864L11.9619 8.3087L11.9707 8.3314L11.9784 8.3546L11.9849 8.3781L11.9903 8.402L11.9945 8.4262L11.9976 8.4506L11.9994 8.4752L12 8.5L11.9994 8.5248L11.9976 8.5494L11.9945 8.5738L11.9903 8.598L11.9849 8.6219L11.9784 8.6454L11.9707 8.6686L11.9619 8.6913L11.9521 8.7136L11.9411 8.7354L11.9291 8.7567L11.916 8.7774L11.9019 8.7975L11.8868 8.8169L11.8706 8.8356L11.8536 8.8536L11.8356 8.8707L11.8169 8.8868L11.7975 8.9019L11.7774 8.916L11.7567 8.9291L11.7354 8.9411L11.7136 8.9521L11.6913 8.9619L11.6686 8.9707L11.6454 8.9784L11.6219 8.9849L11.598 8.9903L11.5738 8.9945L11.5494 8.9976L11.5248 8.9994L11.5 9H2.5L2.4752 8.9994L2.4506 8.9976L2.4262 8.9945L2.402 8.9903L2.3781 8.9849L2.3546 8.9784L2.3314 8.9707L2.3087 8.9619L2.2864 8.9521L2.2646 8.9411L2.2433 8.9291L2.2226 8.916L2.2025 8.9019L2.1831 8.8868L2.1644 8.8707L2.1464 8.8536L2.1294 8.8356L2.1132 8.8169L2.0981 8.7975L2.084 8.7774L2.0709 8.7567L2.0589 8.7354L2.0479 8.7136L2.0381 8.6913L2.0293 8.6686L2.0216 8.6454L2.0151 8.6219L2.0097 8.598L2.0055 8.5738L2.0024 8.5494L2.0006 8.5248L2 8.5L2.0006 8.4752L2.0024 8.4506L2.0055 8.4262L2.0097 8.402L2.0151 8.3781L2.0216 8.3546L2.0293 8.3314L2.0381 8.3087L2.0479 8.2864L2.0589 8.2646L2.0709 8.2433L2.084 8.2226L2.0981 8.2025L2.1132 8.1831L2.1294 8.1644L2.1464 8.1464L2.1644 8.1293L2.1831 8.1132L2.2025 8.0981L2.2226 8.084L2.2433 8.0709L2.2646 8.0589L2.2864 8.0479L2.3087 8.0381L2.3314 8.0293L2.3546 8.0216L2.3781 8.0151L2.402 8.0097L2.4262 8.0055L2.4506 8.0024L2.4752 8.0006L2.5 8H11.5L11.5248 8.0006ZM9.5257 5.0007L9.5511 5.0026L9.5761 5.0058L9.6008 5.0102L9.625 5.0157L9.6487 5.0225L9.6719 5.0303L9.6946 5.0393L9.7168 5.0493L9.7383 5.0603L9.7593 5.0724L9.7796 5.0854L9.7992 5.0993L9.818 5.1142L9.8362 5.1299L9.8536 5.1464L9.8701 5.1638L9.8858 5.182L9.9007 5.2008L9.9146 5.2204L9.9276 5.2407L9.9397 5.2617L9.9507 5.2832L9.9607 5.3054L9.9697 5.3281L9.9775 5.3513L9.9843 5.375L9.9898 5.3992L9.9942 5.4239L9.9974 5.4489L9.9993 5.4743L10 5.5L9.9993 5.5257L9.9974 5.5511L9.9942 5.5761L9.9898 5.6008L9.9843 5.625L9.9775 5.6487L9.9697 5.6719L9.9607 5.6946L9.9507 5.7168L9.9397 5.7383L9.9276 5.7593L9.9146 5.7796L9.9007 5.7992L9.8858 5.818L9.8701 5.8362L9.8536 5.8536L9.8362 5.8701L9.818 5.8858L9.7992 5.9007L9.7796 5.9146L9.7593 5.9276L9.7383 5.9397L9.7168 5.9507L9.6946 5.9607L9.6719 5.9697L9.6487 5.9775L9.625 5.9843L9.6008 5.9898L9.5761 5.9942L9.5511 5.9974L9.5257 5.9993L9.5 6H2.5L2.4743 5.9993L2.4489 5.9974L2.4239 5.9942L2.3992 5.9898L2.375 5.9843L2.3513 5.9775L2.3281 5.9697L2.3054 5.9607L2.2832 5.9507L2.2617 5.9397L2.2407 5.9276L2.2204 5.9146L2.2008 5.9007L2.182 5.8858L2.1638 5.8701L2.1464 5.8536L2.1299 5.8362L2.1142 5.818L2.0993 5.7992L2.0854 5.7796L2.0724 5.7593L2.0603 5.7383L2.0493 5.7168L2.0393 5.6946L2.0303 5.6719L2.0225 5.6487L2.0157 5.625L2.0102 5.6008L2.0058 5.5761L2.0026 5.5511L2.0007 5.5257L2 5.5L2.0007 5.4743L2.0026 5.4489L2.0058 5.4239L2.0102 5.3992L2.0157 5.375L2.0225 5.3513L2.0303 5.3281L2.0393 5.3054L2.0493 5.2832L2.0603 5.2617L2.0724 5.2407L2.0854 5.2204L2.0993 5.2008L2.1142 5.182L2.1299 5.1638L2.1464 5.1464L2.1638 5.1299L2.182 5.1142L2.2008 5.0993L2.2204 5.0854L2.2407 5.0724L2.2617 5.0603L2.2832 5.0493L2.3054 5.0393L2.3281 5.0303L2.3513 5.0225L2.375 5.0157L2.3992 5.0102L2.4239 5.0058L2.4489 5.0026L2.4743 5.0007L2.5 5H9.5L9.5257 5.0007ZM13.5 2L13.5248 2.0006L13.5494 2.0024L13.5738 2.0055L13.598 2.0097L13.6219 2.0151L13.6454 2.0216L13.6686 2.0293L13.6913 2.0381L13.7136 2.0479L13.7354 2.0589L13.7567 2.0709L13.7774 2.084L13.7975 2.0981L13.8169 2.1132L13.8356 2.1293L13.8536 2.1464L13.8707 2.1644L13.8868 2.1831L13.9019 2.2025L13.916 2.2226L13.9291 2.2433L13.9411 2.2646L13.9521 2.2864L13.9619 2.3087L13.9707 2.3314L13.9784 2.3546L13.9849 2.3781L13.9903 2.402L13.9945 2.4262L13.9976 2.4506L13.9994 2.4752L14 2.5L13.9993 2.5257L13.9974 2.5511L13.9942 2.5761L13.9898 2.6008L13.9843 2.625L13.9775 2.6487L13.9697 2.6719L13.9607 2.6946L13.9507 2.7168L13.9397 2.7383L13.9276 2.7593L13.9146 2.7796L13.9007 2.7992L13.8858 2.818L13.8701 2.8362L13.8536 2.8536L13.8362 2.8701L13.818 2.8858L13.7992 2.9007L13.7796 2.9146L13.7593 2.9276L13.7383 2.9397L13.7168 2.9507L13.6946 2.9607L13.6719 2.9697L13.6487 2.9775L13.625 2.9843L13.6008 2.9898L13.5761 2.9942L13.5511 2.9974L13.5257 2.9993L13.5 3H2.5L2.4752 2.9994L2.4506 2.9976L2.4262 2.9945L2.402 2.9903L2.3781 2.9849L2.3546 2.9784L2.3314 2.9707L2.3087 2.9619L2.2864 2.9521L2.2646 2.9411L2.2433 2.9291L2.2226 2.916L2.2025 2.9019L2.1831 2.8868L2.1644 2.8707L2.1464 2.8536L2.1293 2.8356L2.1132 2.8169L2.0981 2.7975L2.084 2.7774L2.0709 2.7567L2.0589 2.7354L2.0479 2.7136L2.0381 2.6913L2.0293 2.6686L2.0216 2.6454L2.0151 2.6219L2.0097 2.598L2.0055 2.5738L2.0024 2.5494L2.0006 2.5248L2 2.5L2.0007 2.4743L2.0026 2.4489L2.0058 2.4239L2.0102 2.3992L2.0157 2.375L2.0225 2.3513L2.0303 2.3281L2.0393 2.3054L2.0493 2.2832L2.0603 2.2617L2.0724 2.2407L2.0854 2.2204L2.0993 2.2008L2.1142 2.182L2.1299 2.1638L2.1464 2.1464L2.1638 2.1299L2.182 2.1142L2.2008 2.0993L2.2204 2.0854L2.2407 2.0724L2.2617 2.0603L2.2832 2.0493L2.3054 2.0393L2.3281 2.0303L2.3513 2.0225L2.375 2.0157L2.3992 2.0102L2.4239 2.0058L2.4489 2.0026L2.4743 2.0007L2.5 2H13.5Z" fill="#242E59"/>
</svg>
