<svg width="14" height="14" viewBox="0 0 14 14" fill="none" xmlns="http://www.w3.org/2000/svg">
<path fill-rule="evenodd" clip-rule="evenodd" d="M1 2.04545C1 1.74421 1.24421 1.5 1.54545 1.5H12.4545C12.7558 1.5 13 1.74421 13 2.04545C13 2.3467 12.7558 2.59091 12.4545 2.59091H1.54545C1.24421 2.59091 1 2.3467 1 2.04545ZM1 7.50001C1 7.19876 1.24421 6.95456 1.54545 6.95456H12.4545C12.7558 6.95456 13 7.19876 13 7.50001C13 7.80126 12.7558 8.04546 12.4545 8.04546H1.54545C1.24421 8.04546 1 7.80126 1 7.50001ZM1.54545 12.4091C1.24421 12.4091 1 12.6533 1 12.9546C1 13.2558 1.24421 13.5 1.54545 13.5H12.4545C12.7558 13.5 13 13.2558 13 12.9546C13 12.6533 12.7558 12.4091 12.4545 12.4091H1.54545Z" fill="#242E59"/>
</svg>
