<svg width="14" height="14" viewBox="0 0 14 14" fill="none" xmlns="http://www.w3.org/2000/svg">
<path fill-rule="evenodd" clip-rule="evenodd" d="M2.5309 9.5371L2.64718 9.38959C2.85522 9.12528 2.96916 8.79792 2.96916 8.4609V5C2.96916 3.93914 3.39062 2.92175 4.14081 2.17157C4.89085 1.42145 5.90827 1 6.96916 1C8.03005 1 9.04751 1.42148 9.79755 2.17161C10.5477 2.92179 10.9692 3.93914 10.9692 5V8.4609C10.9692 8.79762 11.0826 9.12492 11.2911 9.38959L11.4074 9.5371H2.5309ZM12.4384 10.5371C12.6299 10.5371 12.8047 10.4277 12.8883 10.2553C12.9718 10.083 12.9496 9.878 12.831 9.7276L12.0765 8.7705C12.007 8.6823 11.9692 8.5732 11.9692 8.4609V5C11.9692 3.6739 11.4424 2.4022 10.5047 1.4645C9.56706 0.5268 8.29526 0 6.96916 0C5.64306 0 4.37126 0.5268 3.43366 1.4645C2.49596 2.4022 1.96916 3.6739 1.96916 5V8.4609C1.96916 8.5732 1.93136 8.6822 1.86186 8.7705L1.10736 9.7276C0.988761 9.878 0.966561 10.083 1.05006 10.2553C1.13366 10.4277 1.30846 10.5371 1.49996 10.5371H12.4384ZM8.959 11.541C8.9853 11.5673 9 11.6029 9 11.64V12C9 12.5304 8.7893 13.0391 8.4142 13.4142C8.0391 13.7893 7.5304 14 7 14C6.4696 14 5.9609 13.7893 5.5858 13.4142C5.2107 13.0391 5 12.5304 5 12V11.64C5 11.6029 5.0147 11.5673 5.041 11.541C5.0673 11.5148 5.1029 11.5 5.14 11.5H8.86C8.8971 11.5 8.9327 11.5148 8.959 11.541Z" fill="#242E59"/>
</svg>
