<svg width="14" height="14" viewBox="0 0 14 14" fill="none" xmlns="http://www.w3.org/2000/svg">
<path fill-rule="evenodd" clip-rule="evenodd" d="M9 11.64C9 11.6029 8.9853 11.5673 8.959 11.541C8.9327 11.5148 8.8971 11.5 8.86 11.5C8.2416 11.5 5.7584 11.5 5.14 11.5C5.1029 11.5 5.0673 11.5148 5.041 11.541C5.0147 11.5673 5 11.6029 5 11.64C5 11.7283 5 11.8532 5 12C5 12.5304 5.2107 13.0391 5.5858 13.4142C5.9609 13.7893 6.4696 14 7 14C7.5304 14 8.0391 13.7893 8.4142 13.4142C8.7893 13.0391 9 12.5304 9 12C9 11.8532 9 11.7283 9 11.64ZM1.8927 8.7705C1.9622 8.6822 2 8.5732 2 8.4609C2 7.7378 2 5 2 5C2 3.6739 2.5268 2.4022 3.4645 1.4645C4.4021 0.5268 5.6739 0 7 0C8.3261 0 9.5979 0.5268 10.5355 1.4645C11.4732 2.4022 12 3.6739 12 5C12 5 12 7.7378 12 8.4609C12 8.5732 12.0378 8.6823 12.1073 8.7705C12.2659 8.9716 12.575 9.3638 12.8618 9.7276C12.9804 9.878 13.0026 10.083 12.9191 10.2553C12.8355 10.4277 12.6607 10.5371 12.4692 10.5371C10.037 10.5371 3.963 10.5371 1.5308 10.5371C1.3393 10.5371 1.1645 10.4277 1.0809 10.2553C0.997399 10.083 1.0196 9.878 1.1382 9.7276C1.425 9.3638 1.7341 8.9716 1.8927 8.7705Z" fill="#242E59"/>
</svg>
