<svg width="14" height="14" viewBox="0 0 14 14" fill="none" xmlns="http://www.w3.org/2000/svg">
<path fill-rule="evenodd" clip-rule="evenodd" d="M14 1C14 0.4477 13.5523 0 13 0H1C0.4477 0 0.0001 0.4477 0 1V13C0.0001 13.5523 0.4477 13.9999 1 14H13C13.5523 13.9999 14 13.5523 14 13V1ZM13 1.5C13 1.3674 12.9473 1.2402 12.8536 1.1464C12.7598 1.0527 12.6326 1 12.5 1H1.5C1.3674 1 1.2402 1.0527 1.1464 1.1464C1.0527 1.2402 1 1.3674 1 1.5V12.5C1 12.6326 1.0527 12.7598 1.1464 12.8536C1.2402 12.9473 1.3674 13 1.5 13H12.5C12.6326 13 12.7598 12.9473 12.8536 12.8536C12.9473 12.7598 13 12.6326 13 12.5V1.5ZM6 5.5C6 5.3674 5.9473 5.2402 5.8536 5.1464C5.7598 5.0527 5.6326 5 5.5 5C4.7315 5 3.2685 5 2.5 5C2.3674 5 2.2402 5.0527 2.1464 5.1464C2.0527 5.2402 2 5.3674 2 5.5C2 6.2685 2 7.7315 2 8.5C2 8.6326 2.0527 8.7598 2.1464 8.8536C2.2402 8.9473 2.3674 9 2.5 9C3.2685 9 4.7315 9 5.5 9C5.6326 9 5.7598 8.9473 5.8536 8.8536C5.9473 8.7598 6 8.6326 6 8.5V5.5ZM12 5.5C12 5.3674 11.9473 5.2402 11.8536 5.1464C11.7598 5.0527 11.6326 5 11.5 5C10.7315 5 9.2685 5 8.5 5C8.3674 5 8.2402 5.0527 8.1464 5.1464C8.0527 5.2402 8 5.3674 8 5.5C8 6.2685 8 7.7315 8 8.5C8 8.6326 8.0527 8.7598 8.1464 8.8536C8.2402 8.9473 8.3674 9 8.5 9C9.2685 9 10.7315 9 11.5 9C11.6326 9 11.7598 8.9473 11.8536 8.8536C11.9473 8.7598 12 8.6326 12 8.5V5.5ZM11 6.2C11 6.0895 10.9105 6 10.8 6C10.4168 6 9.5832 6 9.2 6C9.0895 6 9 6.0895 9 6.2C9 6.5832 9 7.4168 9 7.8C9 7.9105 9.0895 8 9.2 8C9.5832 8 10.4168 8 10.8 8C10.9105 8 11 7.9105 11 7.8V6.2Z" fill="#242E59"/>
</svg>
