<svg width="14" height="14" viewBox="0 0 14 14" fill="none" xmlns="http://www.w3.org/2000/svg">
<path d="M10.5 7H12.5" stroke="#242E59" stroke-linecap="round"/>
<path d="M2.5 7H4.5" stroke="#242E59" stroke-linecap="round"/>
<path fill-rule="evenodd" clip-rule="evenodd" d="M4 3.5C4 3.22386 4.22386 3 4.5 3H10.5C10.7761 3 11 3.22386 11 3.5V10.5C11 10.7761 10.7761 11 10.5 11H4.5C4.22386 11 4 10.7761 4 10.5V3.5ZM5 4.25C5 4.11193 5.11193 4 5.25 4H5.75C5.88807 4 6 4.11193 6 4.25V9.75C6 9.88807 5.88807 10 5.75 10H5.25C5.11193 10 5 9.88807 5 9.75V4.25ZM7 9.75C7 9.88807 7.11193 10 7.25 10H9.75C9.88807 10 10 9.88807 10 9.75V4.25C10 4.11193 9.88807 4 9.75 4H7.25C7.11193 4 7 4.11193 7 4.25V9.75Z" fill="#242E59"/>
<path d="M2.5 8.5V5.5" stroke="#242E59" stroke-linecap="round"/>
<path d="M12.5 8.5V5.5" stroke="#242E59" stroke-linecap="round"/>
<rect width="1" height="14" rx="0.5" fill="#242E59"/>
</svg>
