<svg width="14" height="14" viewBox="0 0 14 14" fill="none" xmlns="http://www.w3.org/2000/svg">
<path fill-rule="evenodd" clip-rule="evenodd" d="M0 2C0 1.448 0.447 1 1 1H13C13.553 1 14 1.448 14 2V4V12C14 12.553 13.553 13 13 13H1C0.447 13 0 12.553 0 12V4V2ZM1 4V12H13V4H1ZM2 2C1.724 2 1.5 2.224 1.5 2.5C1.5 2.776 1.724 3 2 3C2.276 3 2.5 2.776 2.5 2.5C2.5 2.224 2.276 2 2 2ZM3.7998 2C3.5238 2 3.2998 2.224 3.2998 2.5C3.2998 2.776 3.5238 3 3.7998 3C4.0758 3 4.2998 2.776 4.2998 2.5C4.2998 2.224 4.0758 2 3.7998 2ZM5.59961 2C5.87561 2 6.09961 2.224 6.09961 2.5C6.09961 2.776 5.87561 3 5.59961 3C5.32461 3 5.09961 2.776 5.09961 2.5C5.09961 2.224 5.32461 2 5.59961 2Z" fill="#242E59"/>
</svg>
