<svg width="14" height="14" viewBox="0 0 14 14" fill="none" xmlns="http://www.w3.org/2000/svg">
<path fill-rule="evenodd" clip-rule="evenodd" d="M13 13H1C0.447 13 0 12.553 0 12V2C0 1.4478 0.4457 1.0013 1 1H13C13.3463 1.0008 13.6502 1.1754 13.8294 1.4406C13.8474 1.4673 13.8642 1.4949 13.8794 1.523L13.9215 1.6105C13.952 1.6827 13.9743 1.7593 13.9861 1.8402C13.9957 1.8923 14 1.9457 14 2V12C14 12.5516 13.5552 12.9978 13 13ZM1 12H13V4H1V12ZM8.918 6.1914C8.666 5.9514 8.365 5.7964 8.05 5.7224L8.056 5.9904C8.304 6.0594 8.539 6.1884 8.738 6.3784C9.387 6.9984 9.41 8.0244 8.792 8.6714C8.315 9.1704 7.598 9.2974 6.997 9.0484L6.766 8.9154L5.837 9.8874L6.025 10.0664C6.077 10.1164 6.079 10.1984 6.029 10.2504C5.98 10.3014 5.897 10.3034 5.846 10.2534L5.658 10.0754L5.3 10.4504C5.3 10.4504 5.022 10.4764 4.933 10.3924C4.834 10.2974 4.83 10.0024 4.83 10.0024L6.289 8.4744L6.152 8.2424C5.876 7.6534 5.97 6.9304 6.445 6.4314C6.612 6.2574 6.809 6.1294 7.02 6.0464L7.013 5.7724C6.734 5.8664 6.475 6.0264 6.258 6.2534C5.682 6.8564 5.587 7.7444 5.962 8.4414L4.5 9.9744C4.5 9.9744 4.537 10.4634 4.725 10.6434C4.912 10.8224 5.32 10.7564 5.32 10.7564L5.666 10.4424C5.822 10.5904 6.068 10.5854 6.217 10.4294C6.365 10.2734 6.359 10.0274 6.204 9.8794L6.807 9.2484C7.521 9.5904 8.402 9.4554 8.98 8.8514C9.697 8.0994 9.669 6.9094 8.918 6.1914ZM7.036 8.1621C7.373 8.4831 7.907 8.4721 8.228 8.1351C8.551 7.7981 8.538 7.2641 8.201 6.9421C7.864 6.6201 7.33 6.6331 7.009 6.9701C6.687 7.3071 6.699 7.8411 7.036 8.1621ZM8.041 7.9551C7.818 8.1881 7.449 8.1971 7.216 7.9751C7.119 7.8831 7.07 7.7641 7.052 7.6421C7.08 7.7051 7.12 7.7651 7.174 7.8161C7.399 8.0321 7.757 8.0231 7.973 7.7981C8.122 7.6421 8.156 7.4251 8.094 7.2331C8.242 7.4551 8.233 7.7541 8.041 7.9551ZM2.5 2.5C2.5 2.776 2.276 3 2 3C1.724 3 1.5 2.776 1.5 2.5C1.5 2.224 1.724 2 2 2C2.276 2 2.5 2.224 2.5 2.5ZM4.2998 2.5C4.2998 2.776 4.0758 3 3.7998 3C3.5238 3 3.2998 2.776 3.2998 2.5C3.2998 2.224 3.5238 2 3.7998 2C4.0758 2 4.2998 2.224 4.2998 2.5ZM6.09961 2.5C6.09961 2.776 5.87561 3 5.59961 3C5.32461 3 5.09961 2.776 5.09961 2.5C5.09961 2.224 5.32461 2 5.59961 2C5.87561 2 6.09961 2.224 6.09961 2.5Z" fill="#242E59"/>
</svg>
