<svg width="14" height="14" viewBox="0 0 14 14" fill="none" xmlns="http://www.w3.org/2000/svg">
<path fill-rule="evenodd" clip-rule="evenodd" d="M1 13C1 13 11.1139 13 13.5 13C13.6326 13 13.7598 13.0527 13.8536 13.1464C13.9473 13.2402 14 13.3674 14 13.5C14 13.7761 13.7761 13.9999 13.5 14C11.4632 14 3.7684 14 1 14C0.4477 13.9999 0.0001 13.5523 0 13C0 10.2316 0 2.5368 0 0.5C0.0001 0.2239 0.2239 0 0.5 0C0.6326 0 0.7598 0.0527 0.8536 0.1464C0.9473 0.2402 1 0.3674 1 0.5C1 2.8861 1 13 1 13ZM8 8C9.1038 8 10 8.8962 10 10C10 11.1038 9.1038 12 8 12C6.8962 12 6 11.1038 6 10C6 8.8962 6.8962 8 8 8ZM3.5 5C4.3279 5 5 5.6721 5 6.5C5 7.3279 4.3279 8 3.5 8C2.6721 8 2 7.3279 2 6.5C2 5.6721 2.6721 5 3.5 5ZM11 0C12.6557 0 14 1.3443 14 3C14 4.6557 12.6557 6 11 6C9.3443 6 8 4.6557 8 3C8 1.3443 9.3443 0 11 0Z" fill="#242E59"/>
</svg>
