<svg width="14" height="14" viewBox="0 0 14 14" fill="none" xmlns="http://www.w3.org/2000/svg">
<path fill-rule="evenodd" clip-rule="evenodd" d="M9.8596 2C9.9371 2 10 1.9371 10 1.8596C10 1.7117 10 1.5 10 1.5C10 1.224 10.224 1 10.5 1C10.776 1 11 1.224 11 1.5C11 1.5 11 1.7117 11 1.8596C11 1.9371 11.0629 2 11.1404 2C11.5976 2 13.0146 2 13.0146 2C13.5588 2 14 2.4412 14 2.9854C14 5.0741 14 9.9259 14 12.0146C14 12.5588 13.5588 12.9999 13.0146 13C10.444 13 3.556 13 0.9854 13C0.4412 12.9999 0.0001 12.5588 0 12.0146C0 9.9259 0 5.0741 0 2.9854C0.0001 2.4412 0.4412 2 0.9854 2C0.9854 2 2.4024 2 2.8596 2C2.9371 2 3 1.9371 3 1.8596C3 1.7117 3 1.5 3 1.5C3 1.224 3.224 1 3.5 1C3.776 1 4 1.224 4 1.5C4 1.5 4 1.7117 4 1.8596C4 1.9371 4.0629 2 4.1404 2C4.9532 2 9.0468 2 9.8596 2ZM1.5328 3.0455C1.2385 3.0455 1 3.284 1 3.5782C1 5.1759 1 9.915 1 11.5127C1 11.8069 1.2385 12.0455 1.5328 12.0455C3.5191 12.0455 10.4809 12.0455 12.4672 12.0455C12.7615 12.0455 13 11.8069 13 11.5127C13 9.915 13 5.1759 13 3.5782C13 3.284 12.7615 3.0455 12.4672 3.0455C12.4672 3.0455 11.5075 3.0455 11.1404 3.0455C11.1032 3.0454 11.0675 3.0602 11.0411 3.0866C11.0148 3.1129 11 3.1486 11 3.1859C11 3.3194 11 3.5 11 3.5C11 3.776 10.776 4 10.5 4C10.224 4 10 3.776 10 3.5C10 3.5 10 3.3194 10 3.1859C10 3.1083 9.9371 3.0455 9.8596 3.0455C9.0468 3.0455 4.9532 3.0455 4.1404 3.0455C4.0629 3.0455 4 3.1083 4 3.1859C4 3.3194 4 3.5 4 3.5C4 3.776 3.776 4 3.5 4C3.224 4 3 3.776 3 3.5C3 3.5 3 3.3194 3 3.1859C3 3.1486 2.9852 3.1129 2.9589 3.0866C2.9325 3.0602 2.8968 3.0454 2.8596 3.0455C2.4925 3.0455 1.5328 3.0455 1.5328 3.0455ZM4.5 10H3.5C3.224 10 3 9.776 3 9.5C3 9.224 3.224 9 3.5 9H4.5C4.776 9 5 9.224 5 9.5C5 9.7759 4.776 10 4.5 10ZM7.5 10H6.5C6.224 10 6 9.776 6 9.5C6 9.224 6.224 9 6.5 9H7.5C7.776 9 8 9.224 8 9.5C8 9.7759 7.776 10 7.5 10ZM10.5 10H9.5C9.224 10 9 9.776 9 9.5C9 9.224 9.224 9 9.5 9H10.5C10.776 9 11 9.224 11 9.5C11 9.7759 10.776 10 10.5 10ZM4.5 7.0001H3.5C3.224 7.0001 3 6.7761 3 6.5001C3 6.2242 3.224 6.0001 3.5 6.0001H4.5C4.776 6.0001 5 6.2242 5 6.5001C5 6.7761 4.776 7.0001 4.5 7.0001ZM7.5 7.0001H6.5C6.224 7.0001 6 6.7761 6 6.5001C6 6.2242 6.224 6.0001 6.5 6.0001H7.5C7.776 6.0001 8 6.2242 8 6.5001C8 6.7761 7.776 7.0001 7.5 7.0001ZM10.5 7.0001H9.5C9.224 7.0001 9 6.7761 9 6.5001C9 6.2242 9.224 6.0001 9.5 6.0001H10.5C10.776 6.0001 11 6.2242 11 6.5001C11 6.7761 10.776 7.0001 10.5 7.0001Z" fill="#242E59"/>
</svg>
