<svg width="14" height="14" viewBox="0 0 14 14" fill="none" xmlns="http://www.w3.org/2000/svg">
<path fill-rule="evenodd" clip-rule="evenodd" d="M2.51946 4.0844C2.5065 4.08625 2.49333 4.08715 2.48025 4.08725C1.10863 4.09787 0 5.21306 0 6.58718C0 7.96789 1.11929 9.08718 2.5 9.08718H4.23016C6.0426 9.08718 7.82096 9.57976 9.37512 10.5122L10.4855 11.1785C11.152 11.5784 12 11.0983 12 10.321V2.32823C12 1.73784 11.3994 1.33743 10.8544 1.5645L9.24543 2.23492C7.09048 3.13281 4.83052 3.75425 2.51946 4.0844ZM8.78279 3.53296C6.9327 4.15526 5.02242 4.58173 3.08333 4.80536C1.93274 4.80536 1 5.55833 1 6.48717C1 7.41602 1.93274 8.16899 3.08333 8.16899H4.539C6.04894 8.16899 7.53928 8.51093 8.8982 9.16914L10.282 9.83942C10.6141 10.0003 11 9.75837 11 9.38943V3.40332C11 3.10057 10.703 2.88709 10.416 2.98361L8.78279 3.53296Z" fill="#313E75"/>
<path fill-rule="evenodd" clip-rule="evenodd" d="M4 8.58719V4.08719H5V8.52485C5.31656 9.75821 5.8727 10.9174 6.63693 11.9364C6.78222 12.1301 6.74296 12.405 6.54924 12.5503L6.5 12.5872L6.45076 12.6241C6.25704 12.7694 5.98222 12.7301 5.83693 12.5364C4.98057 11.3946 4.36109 10.0931 4.01493 8.70846L4.5 8.58719H4Z" fill="#313E75"/>
<path fill-rule="evenodd" clip-rule="evenodd" d="M13.0002 9.5C12.7382 9.41268 12.5981 9.12979 12.6707 8.86337C13.0925 7.31613 13.0925 5.68387 12.6707 4.13664C12.5981 3.87022 12.7382 3.58733 13.0002 3.5C13.2622 3.41268 13.5466 3.55402 13.6208 3.82003C14.1092 5.57318 14.1092 7.42683 13.6208 9.17998C13.5466 9.44599 13.2622 9.58733 13.0002 9.5Z" fill="#313E75"/>
</svg>
