<svg width="14" height="14" viewBox="0 0 14 14" fill="none" xmlns="http://www.w3.org/2000/svg">
<path fill-rule="evenodd" clip-rule="evenodd" d="M2.51946 4.0844C2.5065 4.08625 2.49333 4.08715 2.48025 4.08725C1.10863 4.09787 0 5.21306 0 6.58718C0 7.96789 1.11929 9.08718 2.5 9.08718H4.11701C4.47668 10.3304 5.05909 11.4993 5.83693 12.5364C5.98222 12.7301 6.25704 12.7694 6.45076 12.6241L6.5 12.5872L6.54924 12.5503C6.74296 12.405 6.78222 12.1301 6.63693 11.9364C5.99945 11.0865 5.50676 10.1389 5.17714 9.13211C6.6579 9.27297 8.09282 9.74287 9.37512 10.5122L10.4855 11.1785C11.152 11.5784 12 11.0983 12 10.321V2.32823C12 1.73784 11.3994 1.33743 10.8544 1.5645L9.24543 2.23492C7.09048 3.13281 4.83052 3.75425 2.51946 4.0844ZM8.8982 9.16914C7.67779 8.57802 6.3514 8.24199 5 8.17962V4.51655C6.28159 4.27765 7.54565 3.94909 8.78279 3.53296L10.416 2.98361C10.703 2.88709 11 3.10057 11 3.40332V9.38943C11 9.75837 10.6141 10.0003 10.282 9.83942L8.8982 9.16914ZM4 8.16899V4.68422C3.69525 4.72964 3.38965 4.77003 3.08333 4.80536C1.93274 4.80536 1 5.55833 1 6.48717C1 7.41602 1.93274 8.16899 3.08333 8.16899H4ZM12.6707 8.86337C12.5981 9.12979 12.7382 9.41268 13.0002 9.5C13.2622 9.58733 13.5466 9.44599 13.6208 9.17998C14.1092 7.42683 14.1092 5.57318 13.6208 3.82003C13.5466 3.55402 13.2622 3.41268 13.0002 3.5C12.7382 3.58733 12.5981 3.87022 12.6707 4.13664C13.0925 5.68387 13.0925 7.31613 12.6707 8.86337Z" fill="#242E59"/>
</svg>
