<svg width="14" height="14" viewBox="0 0 14 14" fill="none" xmlns="http://www.w3.org/2000/svg">
<path fill-rule="evenodd" clip-rule="evenodd" d="M2 2H5V3.5C5 3.77614 5.22386 4 5.5 4C5.77614 4 6 3.77614 6 3.5V2C6 1.44772 5.55228 1 5 1H2C1.44772 1 1 1.44772 1 2V5C1 5.55228 1.44772 6 2 6H3.5C3.77614 6 4 5.77614 4 5.5C4 5.22386 3.77614 5 3.5 5H2L2 2ZM11 1.8851H8V2.90346C8 3.12804 7.83253 3.31839 7.61367 3.3687C7.30693 3.43919 7 3.21645 7 2.90171V1.8851C7 1.39627 7.44772 1 8 1H11C11.5523 1 12 1.39627 12 1.8851V3.22029C12 3.56687 11.6244 3.79015 11.3036 3.659C11.1259 3.58636 11 3.41581 11 3.22383V1.8851ZM3.3687 7.61367C3.43919 7.30693 3.21645 7 2.90171 7H1.8851C1.39627 7 1 7.44772 1 8V11C1 11.5523 1.39627 12 1.8851 12H3.22029C3.56687 12 3.79015 11.6244 3.659 11.3036C3.58636 11.1259 3.41581 11 3.22383 11H1.8851L1.8851 8H2.90346C3.12804 8 3.31839 7.83253 3.3687 7.61367ZM13.8023 8.1245L13.8664 8.30957C14.0285 8.74593 14.0435 9.22336 13.9091 9.66907L13.845 9.85414C13.8035 9.98221 13.6933 10.0759 13.5602 10.0962L12.8414 10.198C12.7891 10.2054 12.7452 10.2413 12.7273 10.2911C12.6789 10.426 12.6231 10.5581 12.5605 10.6869C12.5366 10.7354 12.542 10.7931 12.5744 10.8364L13.0118 11.413C13.081 11.5267 13.081 11.6695 13.0118 11.7831L12.9264 11.954C12.7197 12.3666 12.3849 12.7013 11.9721 12.9078L11.8012 12.9932C11.6874 13.0624 11.5446 13.0624 11.4309 12.9932C11.4309 12.9932 11.0213 12.6828 10.8533 12.5556C10.8104 12.5232 10.7531 12.5176 10.7049 12.5413C10.5759 12.6044 10.4435 12.6604 10.3085 12.7094C10.2587 12.7271 10.2228 12.7709 10.2151 12.8233L10.1134 13.5413C10.093 13.6744 9.9993 13.7845 9.87125 13.8261L9.6861 13.8901C9.24698 14.0366 8.77212 14.0366 8.33301 13.8901L8.14785 13.8261C8.01974 13.7845 7.92609 13.6744 7.90572 13.5413C7.90572 13.5413 7.83344 13.0309 7.80389 12.8233C7.79648 12.7708 7.76059 12.7267 7.71074 12.7089C7.57557 12.6604 7.44318 12.6044 7.314 12.5418C7.26593 12.5181 7.20867 12.5234 7.16573 12.5556L6.58825 12.9932C6.47452 13.0624 6.33166 13.0624 6.21793 12.9932L6.04702 12.9078C5.63418 12.7013 5.29933 12.3666 5.09274 11.954L5.00728 11.7831C4.93806 11.6695 4.93806 11.5267 5.00728 11.413L5.44468 10.8363C5.47737 10.7932 5.48292 10.7353 5.45907 10.6867C5.39604 10.5581 5.34014 10.426 5.29129 10.2914C5.27362 10.2415 5.2299 10.2056 5.1777 10.1979L4.45893 10.0962C4.32583 10.0759 4.21559 9.98221 4.17407 9.85414L4.10997 9.66907C3.96334 9.23021 3.96334 8.75557 4.10997 8.31664L4.17407 8.13157C4.21559 8.00357 4.32583 7.90993 4.45893 7.88957L5.15163 7.77514C5.20262 7.76671 5.24514 7.73121 5.26251 7.68243C5.31108 7.54686 5.3672 7.41414 5.43008 7.28457C5.45401 7.23614 5.44867 7.17836 5.41627 7.13514L4.97879 6.5585C4.90957 6.44486 4.90957 6.30207 4.97879 6.18836L5.06425 6.0175C5.27761 5.61436 5.61453 5.29007 6.02565 5.09221L6.19657 5.00679C6.3103 4.93757 6.45316 4.93757 6.56689 5.00679L7.14444 5.44436C7.18724 5.47679 7.24464 5.48236 7.29285 5.45871C7.42182 5.39557 7.55421 5.33957 7.68923 5.29064C7.73901 5.27293 7.77497 5.22914 7.78267 5.17671L7.88436 4.45871C7.90473 4.32564 7.99837 4.2155 8.12649 4.17393L8.31165 4.10993C8.75076 3.96336 9.22562 3.96336 9.66473 4.10993L9.84277 4.17393C9.97081 4.2155 10.0645 4.32564 10.0849 4.45871L10.1735 5.15379C10.1803 5.20714 10.2164 5.25214 10.2669 5.27021C10.4016 5.31857 10.5336 5.37436 10.6624 5.43686C10.7104 5.46057 10.7677 5.45529 10.8106 5.42307L11.3881 4.98543C11.5019 4.91621 11.6447 4.91621 11.7584 4.98543L11.9294 5.07086C12.3422 5.27736 12.677 5.612 12.8836 6.02464L12.9691 6.1955C13.0383 6.30914 13.0383 6.45193 12.9691 6.56564L12.5317 7.14236C12.499 7.18543 12.4935 7.24336 12.5173 7.29193C12.5803 7.42057 12.6362 7.55264 12.6851 7.68729C12.7028 7.73714 12.7465 7.77307 12.7987 7.78071L13.5175 7.8825C13.6506 7.90279 13.7608 7.9965 13.8023 8.1245ZM12.173 9.51247L12.946 9.39985C13.0202 9.14713 13.0179 8.87816 12.9393 8.62678L12.1664 8.51416C12.0514 8.49744 11.956 8.41666 11.9203 8.30591L11.8519 8.09365C11.8028 7.94712 11.7425 7.80455 11.6717 7.66712L11.5615 7.45787C11.5066 7.35367 11.5164 7.22708 11.5867 7.13265L12.052 6.50757C11.9274 6.26608 11.7319 6.0684 11.4916 5.94107L10.8611 6.4094C10.769 6.47781 10.6465 6.48858 10.5439 6.43735L10.3375 6.33429C10.2067 6.26187 10.0707 6.19947 9.93052 6.14765L9.71911 6.07963C9.6077 6.04379 9.52664 5.94722 9.5105 5.83106L9.40349 5.06139C9.1429 4.97954 8.86351 4.97954 8.60293 5.06139L8.5124 5.83266C8.49845 5.95143 8.41659 6.05115 8.30298 6.08773L8.0959 6.15433C7.94907 6.20309 7.8063 6.26321 7.66894 6.33429L7.43718 6.43628C7.33711 6.48035 7.22116 6.46731 7.1333 6.40204L6.49478 5.92776C6.25455 6.05509 6.05901 6.25277 5.93439 6.49419L6.41086 7.14322C6.4787 7.23571 6.48911 7.35856 6.43774 7.46114L6.33467 7.66712C6.26249 7.79786 6.20004 7.93375 6.14787 8.07365L6.07942 8.28591C6.04373 8.39666 5.94833 8.47745 5.83338 8.49416L5.06044 8.60678C4.97985 8.86499 4.97985 9.14165 5.06044 9.39985L5.83839 9.50779C5.95067 9.52337 6.04507 9.60021 6.08336 9.70721L6.15454 9.9063C6.20364 10.0529 6.26389 10.1955 6.33467 10.3328L6.44681 10.5495C6.50065 10.6534 6.49044 10.779 6.4206 10.8728L5.9544 11.4991C6.08016 11.7381 6.27556 11.9333 6.5148 12.0589L7.1453 11.5906C7.23737 11.5222 7.35992 11.5114 7.46246 11.5626L7.66894 11.6657C7.79963 11.7381 7.93572 11.8005 8.07589 11.8523L8.2873 11.9203C8.39872 11.9562 8.47977 12.0528 8.49592 12.1689L8.60293 12.9386C8.86351 13.0205 9.1429 13.0205 9.40349 12.9386L9.49402 12.1673C9.50796 12.0485 9.58982 11.9488 9.70343 11.9122L9.91051 11.8456C10.0573 11.7969 10.2001 11.7367 10.3375 11.6657L10.5558 11.5528C10.659 11.4995 10.7835 11.5096 10.8768 11.5789L11.505 12.0456C11.7442 11.92 11.9396 11.7248 12.0654 11.4858L11.5974 10.8571C11.5284 10.7645 11.5176 10.6409 11.5693 10.5376L11.6717 10.3328C11.7436 10.2042 11.806 10.0706 11.8585 9.93298L11.927 9.72072C11.9627 9.60998 12.0581 9.52919 12.173 9.51247ZM7.20782 8.98578C7.20782 8.00299 8.00493 7.20621 8.9882 7.20621C9.46035 7.20621 9.91321 7.39371 10.2471 7.72742C10.581 8.06114 10.7686 8.51378 10.7686 8.98578C10.7686 9.96856 9.97146 10.7653 8.9882 10.7653C8.00493 10.7653 7.20782 9.96856 7.20782 8.98578ZM7.91995 8.98577C7.91995 9.57542 8.39823 10.0535 8.98817 10.0535C9.57812 10.0535 10.0564 9.57542 10.0564 8.98577C10.0564 8.39606 9.57812 7.91806 8.98817 7.91806C8.39823 7.91806 7.91995 8.39606 7.91995 8.98577Z" fill="#242E59"/>
</svg>
