<svg width="14" height="14" viewBox="0 0 14 14" fill="none" xmlns="http://www.w3.org/2000/svg">
<path fill-rule="evenodd" clip-rule="evenodd" d="M5.5 8C5.6326 8 5.7598 8.0527 5.8536 8.1464C5.9473 8.2402 6 8.3674 6 8.5C6 9.63 6 12.37 6 13.5C6 13.6326 5.9473 13.7598 5.8536 13.8536C5.7598 13.9473 5.6326 14.0001 5.5 14C4.37 14 1.63 14 0.5 14C0.3674 14 0.2402 13.9473 0.1464 13.8536C0.0527001 13.7598 -9.98582e-05 13.6326 1.41787e-07 13.5C1.41787e-07 12.37 1.41787e-07 9.63 1.41787e-07 8.5C1.41787e-07 8.3674 0.0527001 8.2402 0.1464 8.1464C0.2402 8.0527 0.3674 8 0.5 8C1.63 8 4.37 8 5.5 8ZM13.5 8C13.6326 8 13.7598 8.0527 13.8536 8.1464C13.9473 8.2402 14 8.3674 14 8.5C14 9.63 14 12.37 14 13.5C14 13.6326 13.9473 13.7598 13.8536 13.8536C13.7598 13.9473 13.6326 14.0001 13.5 14C12.37 14 9.63 14 8.5 14C8.3674 14 8.2402 13.9473 8.1464 13.8536C8.0527 13.7598 8 13.6326 8 13.5C8 12.37 8 9.63 8 8.5C8 8.3674 8.0527 8.2402 8.1464 8.1464C8.2402 8.0527 8.3674 8 8.5 8C9.63 8 12.37 8 13.5 8ZM5 9.2C5 9.0895 4.9105 9 4.8 9C4.1172 9 1.8828 9 1.2 9C1.0895 9 1 9.0895 1 9.2C1 9.8828 1 12.1172 1 12.8C1 12.9105 1.0895 13 1.2 13C1.8828 13 4.1172 13 4.8 13C4.9105 13 5 12.9105 5 12.8C5 12.1172 5 9.8828 5 9.2ZM13 9.2C13 9.0895 12.9105 9 12.8 9C12.1172 9 9.8828 9 9.2 9C9.0895 9 9 9.0895 9 9.2C9 9.8828 9 12.1172 9 12.8C9 12.9105 9.0895 13 9.2 13C9.8828 13 12.1172 13 12.8 13C12.9105 13 13 12.9105 13 12.8C13 12.1172 13 9.8828 13 9.2ZM13.5 0C13.6326 0 13.7598 0.0527 13.8536 0.1464C13.9473 0.2402 14 0.3674 14 0.5C14 1.63 14 4.37 14 5.5C14 5.6326 13.9473 5.7598 13.8536 5.8536C13.7598 5.9473 13.6326 6 13.5 6C12.37 6 9.63 6 8.5 6C8.3674 6 8.2402 5.9473 8.1464 5.8536C8.0527 5.7598 8 5.6326 8 5.5C8 4.37 8 1.63 8 0.5C8 0.3674 8.0527 0.2402 8.1464 0.1464C8.2402 0.0527 8.3674 0 8.5 0C9.63 0 12.37 0 13.5 0ZM5.5 0C5.6326 0 5.7598 0.0527 5.8536 0.1464C5.9473 0.2402 6 0.3674 6 0.5C6 1.63 6 4.37 6 5.5C6 5.6326 5.9473 5.7598 5.8536 5.8536C5.7598 5.9473 5.6326 6 5.5 6C4.37 6 1.63 6 0.5 6C0.3674 6 0.2402 5.9473 0.1464 5.8536C0.0527001 5.7598 -9.98582e-05 5.6326 1.41787e-07 5.5C1.41787e-07 4.37 1.41787e-07 1.63 1.41787e-07 0.5C1.41787e-07 0.3674 0.0527001 0.2402 0.1464 0.1464C0.2402 0.0527 0.3674 0 0.5 0C1.63 0 4.37 0 5.5 0ZM13 1.25C13 1.1119 12.8881 1 12.75 1C12.0318 1 9.9682 1 9.25 1C9.1119 1 9 1.1119 9 1.25C9 1.9682 9 4.0318 9 4.75C9 4.8881 9.1119 5 9.25 5C9.9682 5 12.0318 5 12.75 5C12.8881 5 13 4.8881 13 4.75C13 4.0318 13 1.9682 13 1.25ZM5 1.2C5 1.0895 4.9105 1 4.8 1C4.1172 1 1.8828 1 1.2 1C1.0895 1 1 1.0895 1 1.2C1 1.8828 1 4.1172 1 4.8C1 4.9105 1.0895 5 1.2 5C1.8828 5 4.1172 5 4.8 5C4.9105 5 5 4.9105 5 4.8C5 4.1172 5 1.8828 5 1.2Z" fill="#313E75"/>
</svg>
