<svg width="14" height="14" viewBox="0 0 14 14" fill="none" xmlns="http://www.w3.org/2000/svg">
<path fill-rule="evenodd" clip-rule="evenodd" d="M9.5 4.5C9.5 4.6326 9.5527 4.7598 9.6464 4.8535C9.7402 4.9473 9.8674 5 10 5C10.7214 5 12.0696 5 13 5C13.5523 5 14 5.4477 14 6C14 7.7316 14 11.2684 14 13C14 13.5523 13.5523 13.9999 13 14C10.4229 14 3.5771 14 1 14C0.4477 13.9999 -9.99833e-05 13.5523 1.67453e-08 13C1.67453e-08 11.2684 1.67453e-08 7.7316 1.67453e-08 6C-9.99833e-05 5.4477 0.4477 5 1 5C1.9304 5 3.2786 5 4 5C4.1326 5 4.2598 4.9473 4.3536 4.8535C4.4473 4.7598 4.5 4.6326 4.5 4.5C4.5 3.6858 4.5 2.0584 4.5 1C4.5 0.7348 4.6054 0.4804 4.7929 0.2929C4.9804 0.1054 5.2348 0 5.5 0C6.3714 0 7.6286 0 8.5 0C8.7652 0 9.0196 0.1054 9.2071 0.2929C9.3946 0.4804 9.5 0.7348 9.5 1C9.5 2.0584 9.5 3.6858 9.5 4.5ZM13 9.5C13 9.3674 12.9473 9.2402 12.8536 9.1465C12.7598 9.0527 12.6326 9 12.5 9C10.5479 9 3.4521 9 1.5 9C1.3674 9 1.2402 9.0527 1.1464 9.1465C1.0527 9.2402 1 9.3674 1 9.5C1 10.2685 1 11.7315 1 12.5C1 12.6326 1.0527 12.7598 1.1464 12.8536C1.2402 12.9473 1.3674 13 1.5 13C1.9202 13 2.4991 13 2.8 13C2.9105 13 3 12.9105 3 12.8C3 12.4991 3 11.9202 3 11.5C3 11.3674 3.0527 11.2402 3.1464 11.1465C3.2402 11.0527 3.3674 11 3.5 11C3.6326 11 3.7598 11.0527 3.8536 11.1465C3.9473 11.2402 4 11.3674 4 11.5C4 11.9202 4 12.4991 4 12.8C4 12.9105 4.0896 13 4.2 13C4.6683 13 5.8317 13 6.3 13C6.4104 13 6.5 12.9105 6.5 12.8C6.5 12.3355 6.5 11.1719 6.5 10.5C6.5 10.3674 6.5527 10.2402 6.6464 10.1464C6.7402 10.0527 6.8674 10 7 10C7.1326 10 7.2598 10.0527 7.3536 10.1464C7.4473 10.2402 7.5 10.3674 7.5 10.5C7.5 11.1719 7.5 12.3355 7.5 12.8C7.5 12.9105 7.5896 13 7.7 13C8.1683 13 9.3317 13 9.8 13C9.9104 13 10 12.9105 10 12.8C10 12.4991 10 11.9202 10 11.5C10 11.3674 10.0527 11.2402 10.1464 11.1465C10.2402 11.0527 10.3674 11 10.5 11C10.6326 11 10.7598 11.0527 10.8536 11.1465C10.9473 11.2402 11 11.3674 11 11.5C11 11.9202 11 12.4991 11 12.8C11 12.9105 11.0895 13 11.2 13C11.5009 13 12.0798 13 12.5 13C12.6326 13 12.7598 12.9473 12.8536 12.8536C12.9473 12.7598 13 12.6326 13 12.5C13 11.7315 13 10.2685 13 9.5ZM13 6.5C13 6.3674 12.9473 6.2402 12.8536 6.1465C12.7598 6.0527 12.6326 6 12.5 6C10.5479 6 3.4521 6 1.5 6C1.3674 6 1.2402 6.0527 1.1464 6.1465C1.0527 6.2402 1 6.3674 1 6.5C1 6.8054 1 7.1946 1 7.5C1 7.6326 1.0527 7.7598 1.1464 7.8535C1.2402 7.9473 1.3674 8 1.5 8C3.4521 8 10.5479 8 12.5 8C12.6326 8 12.7598 7.9473 12.8536 7.8535C12.9473 7.7598 13 7.6326 13 7.5C13 7.1946 13 6.8054 13 6.5ZM6 1C5.8674 1 5.7402 1.0527 5.6464 1.1464C5.5527 1.2402 5.5 1.3674 5.5 1.5C5.5 2.2685 5.5 3.7315 5.5 4.5C5.5 4.6326 5.5527 4.7598 5.6464 4.8536C5.7402 4.9473 5.8674 5 6 5C6.5549 5 7.4451 5 8 5C8.1326 5 8.2598 4.9473 8.3536 4.8536C8.4473 4.7598 8.5 4.6326 8.5 4.5C8.5 3.7315 8.5 2.2685 8.5 1.5C8.5 1.3674 8.4473 1.2402 8.3536 1.1464C8.2598 1.0527 8.1326 1 8 1C7.4451 1 6.5549 1 6 1Z" fill="#242E59"/>
</svg>
