<svg width="14" height="14" viewBox="0 0 14 14" fill="none" xmlns="http://www.w3.org/2000/svg">
<path fill-rule="evenodd" clip-rule="evenodd" d="M7 0C3.134 0 0 3.134 0 7C0 10.866 3.134 14 7 14C10.866 14 14 10.866 14 7C14 3.134 10.866 0 7 0ZM7 1C10.309 1 13 3.691 13 7C13 10.309 10.309 13 7 13C3.691 13 1 10.309 1 7C1 3.691 3.691 1 7 1ZM6.49719 6.0076L7.31199 10.8601C7.31199 10.8601 7.91429 10.2233 8.41139 9.779L9.50449 11.2821C9.54849 11.3431 9.64449 11.3472 9.71759 11.2921L10.1845 10.9417C10.2582 10.8865 10.2822 10.792 10.2376 10.731L9.17429 9.269C9.72969 9.039 10.6445 8.7772 10.6445 8.7772L6.49719 6.0076ZM3.96863 9.16441L5.18173 8.25341C5.36923 8.11261 5.63543 8.15371 5.78003 8.35031C5.92513 8.54631 5.89373 8.82271 5.70633 8.96361L4.49323 9.87451C4.31033 10.0118 4.04233 9.96021 3.89723 9.76411C3.75213 9.56751 3.78523 9.30231 3.96863 9.16441ZM10.9079 4.49902C10.7628 4.30302 10.5005 4.25902 10.309 4.40282L9.10446 5.30782C8.91306 5.45162 8.87996 5.71742 9.02506 5.91352C9.17026 6.10952 9.43816 6.16112 9.62966 6.01742L10.8342 5.11232C11.0256 4.96852 11.053 4.69512 10.9079 4.49902ZM4.68351 3.47022C4.87551 3.32642 5.13711 3.37042 5.27941 3.56232L6.22171 4.83482C6.36401 5.02732 6.33031 5.29252 6.13881 5.43632C5.95941 5.57132 5.69371 5.53082 5.55141 5.33832L4.60921 4.06532C4.46691 3.87342 4.50401 3.60522 4.68351 3.47022ZM7.65882 5.07482C7.89252 5.11352 8.10732 4.95212 8.13762 4.71502L8.32682 3.17622C8.35702 2.93972 8.19302 2.71782 7.95592 2.67492C7.72222 2.63622 7.50742 2.79762 7.47712 3.03412L7.28742 4.57362C7.25822 4.81072 7.42222 5.03202 7.65882 5.07482ZM5.00168 6.29091C5.23138 6.33311 5.39548 6.55441 5.37258 6.79211C5.33488 7.03451 5.12348 7.19291 4.89368 7.15181L3.37548 6.89541C3.13378 6.86251 2.96978 6.64121 3.00468 6.39421C3.03088 6.16001 3.24178 6.00151 3.48348 6.03441L5.00168 6.29091Z" fill="#242E59"/>
</svg>
