<svg width="14" height="14" viewBox="0 0 14 14" fill="none" xmlns="http://www.w3.org/2000/svg">
<path fill-rule="evenodd" clip-rule="evenodd" d="M6.3212 2.0384C6.4226 2.0275 6.4996 1.9419 6.4996 1.8399C6.5 1.6604 6.5 1.3859 6.5 1.2C6.5 1.0895 6.4105 1 6.3 1C6.0082 1 5.5 1 5.5 1C5.224 1 5 0.776 5 0.5C5 0.2243 5.2236 0.0005 5.5 0H8.5C8.7764 0.0005 9 0.2243 9 0.5C9 0.7753 8.7771 0.9989 8.5 1C8.5 1 7.9918 1 7.7 1C7.5895 1 7.5 1.0895 7.5 1.2C7.5 1.3859 7.5 1.6604 7.5 1.8399C7.5005 1.9419 7.5775 2.0271 7.6788 2.0379C8.8508 2.1703 9.921 2.6406 10.7894 3.3493C10.8687 3.415 10.9849 3.4095 11.0577 3.3367C11.1211 3.2739 11.1945 3.2005 11.2471 3.148C11.2857 3.1093 11.2857 3.0466 11.2471 3.008C11.0512 2.8121 11.0512 2.4953 11.2463 2.3001C11.4413 2.1052 11.7578 2.105 11.9535 2.3001L12.6606 3.0073C12.8557 3.2029 12.8555 3.5194 12.6606 3.7144C12.4654 3.9095 12.1486 3.9095 11.9535 3.7144C11.9141 3.675 11.8514 3.675 11.8127 3.7136C11.7611 3.7653 11.6894 3.837 11.6273 3.8991C11.5543 3.9727 11.5496 4.0898 11.6165 4.169C12.4804 5.2087 13 6.5441 13 8C13 11.3115 10.3115 14 7 14C3.6885 14 1 11.3115 1 8C1 6.5463 1.5181 5.2127 2.3794 4.1745C2.4461 4.0953 2.4411 3.9782 2.3678 3.9049C2.3151 3.8515 2.2558 3.7922 2.211 3.7474C2.172 3.7084 2.1086 3.7084 2.0696 3.7474C1.8744 3.9426 1.5576 3.9426 1.3625 3.7474C1.1675 3.5525 1.1673 3.236 1.3625 3.0403L2.0696 2.3332C2.2652 2.1381 2.5817 2.1383 2.7767 2.3332C2.9718 2.5284 2.9718 2.8452 2.7767 3.0403C2.7376 3.0794 2.7376 3.1427 2.7767 3.1818C2.8222 3.2272 2.8826 3.2877 2.9365 3.3416C3.0096 3.4141 3.1259 3.4193 3.2051 3.3535C4.0748 2.6425 5.147 2.1705 6.3212 2.0384ZM7 3C9.7596 3 12 5.2404 12 8C12 10.7596 9.7596 13 7 13C4.2404 13 2 10.7596 2 8C2 5.2404 4.2404 3 7 3Z" fill="#242E59"/>
</svg>
