<svg width="14" height="14" viewBox="0 0 14 14" fill="none" xmlns="http://www.w3.org/2000/svg">
<path fill-rule="evenodd" clip-rule="evenodd" d="M6.58174 5.81576C6.81271 6.04685 7.18737 6.04685 7.41834 5.81576C8.5654 4.66871 11.6757 1.55855 11.6757 1.55855C11.887 1.34714 12.2302 1.34714 12.4415 1.55855C12.6529 1.76984 12.6529 2.11306 12.4415 2.32435C12.4415 2.32435 9.33131 5.43462 8.18425 6.58168C7.95317 6.81265 7.95317 7.18731 8.18425 7.41828C9.33131 8.56545 12.4415 11.6756 12.4415 11.6756C12.6529 11.8877 12.6527 12.2303 12.4415 12.4415C12.2302 12.6528 11.887 12.6528 11.6757 12.4415C11.6757 12.4415 8.5654 9.33125 7.41834 8.1842C7.18737 7.95311 6.81271 7.95311 6.58174 8.1842C5.43457 9.33125 2.32441 12.4415 2.32441 12.4415C2.11312 12.6528 1.7699 12.6528 1.5585 12.4415C1.3472 12.2301 1.3472 11.8869 1.5585 11.6756C1.5585 11.6756 4.66876 8.56545 5.81582 7.41828C6.04691 7.18731 6.04691 6.81265 5.81582 6.58168C4.66876 5.43462 1.5585 2.32435 1.5585 2.32435C1.3472 2.11306 1.3472 1.76984 1.5585 1.55855C1.76968 1.34736 2.11235 1.34714 2.32441 1.55855C2.32441 1.55855 5.43457 4.66871 6.58174 5.81576Z" fill="#242E59"/>
</svg>
