<svg xmlns="http://www.w3.org/2000/svg" xmlns:xlink="http://www.w3.org/1999/xlink" viewBox="0 0 14.04 14.04"><defs><style>.cls-1{fill:none;}.cls-2{clip-path:url(#clip-path);}.cls-3{fill:currentColor;}</style><clipPath id="clip-path" transform="translate(0 0.04)"><rect class="cls-1" width="14" height="14"/></clipPath></defs><g id="图层_2" data-name="图层 2"><g id="图层_1-2" data-name="图层 1"><g class="cls-2"><path class="cls-3" d="M13.69,2.48,11.52.31a1,1,0,0,0-.34-.26,1,1,0,0,0-.84,0A1,1,0,0,0,10,.31L4.15,6.2A.42.42,0,0,0,4,6.36a.48.48,0,0,0,0,.2V9.5a.51.51,0,0,0,.5.5H7.44a.48.48,0,0,0,.2,0,.42.42,0,0,0,.16-.11L13.69,4A1,1,0,0,0,14,3.66a1,1,0,0,0,0-.84A1,1,0,0,0,13.69,2.48ZM7.38,8.85A.66.66,0,0,1,7.21,9,.51.51,0,0,1,7,9H5.2A.21.21,0,0,1,5,8.8V7a.41.41,0,0,1,0-.19.36.36,0,0,1,.11-.16L8.67,3.09A.57.57,0,0,1,8.83,3a.5.5,0,0,1,.39,0,.57.57,0,0,1,.16.11L10.89,4.6a.36.36,0,0,1,.11.16.47.47,0,0,1,0,.38.36.36,0,0,1-.11.16Zm4.21-5-1.5-1.5A.57.57,0,0,1,10,2.19a.65.65,0,0,1,0-.19.65.65,0,0,1,0-.2.57.57,0,0,1,.11-.16l.31-.31a.51.51,0,0,1,.7,0l1.53,1.48a.57.57,0,0,1,.11.16.65.65,0,0,1,0,.2.65.65,0,0,1,0,.19.57.57,0,0,1-.11.16l-.33.33a.48.48,0,0,1-.16.12A.58.58,0,0,1,12,4a.32.32,0,0,1-.19,0,.59.59,0,0,1-.17-.1Z" transform="translate(0 0.04)"/><path class="cls-3" d="M9.5,9.5A.51.51,0,0,0,9,10v2.5a.51.51,0,0,1-.5.5h-7a.51.51,0,0,1-.5-.5v-7A.51.51,0,0,1,1.5,5H4a.5.5,0,0,0,.35-.85A.47.47,0,0,0,4,4H1a1,1,0,0,0-.71.29A1,1,0,0,0,0,5H0v8a1,1,0,0,0,.29.71A1,1,0,0,0,1,14H9a1,1,0,0,0,1-1V10a.51.51,0,0,0-.5-.5Z" transform="translate(0 0.04)"/></g></g></g></svg>