<svg width="14" height="14" viewBox="0 0 14 14" fill="none" xmlns="http://www.w3.org/2000/svg">
<path fill-rule="evenodd" clip-rule="evenodd" d="M13.5257 13.0007L13.5511 13.0026L13.5761 13.0058L13.6008 13.0102L13.625 13.0157L13.6487 13.0225L13.6719 13.0303L13.6946 13.0393L13.7168 13.0493L13.7383 13.0603L13.7593 13.0724L13.7796 13.0854L13.7992 13.0993L13.818 13.1142L13.8362 13.1299L13.8536 13.1464L13.8701 13.1638L13.8858 13.182L13.9007 13.2008L13.9146 13.2204L13.9276 13.2407L13.9397 13.2617L13.9507 13.2832L13.9607 13.3054L13.9697 13.3281L13.9775 13.3513L13.9843 13.375L13.9898 13.3992L13.9942 13.4239L13.9974 13.4489L13.9993 13.4743L14 13.5L13.9993 13.5257L13.9974 13.5511L13.9942 13.5761L13.9898 13.6008L13.9843 13.625L13.9775 13.6487L13.9697 13.6719L13.9607 13.6946L13.9507 13.7168L13.9397 13.7383L13.9276 13.7593L13.9146 13.7796L13.9007 13.7992L13.8858 13.818L13.8701 13.8362L13.8536 13.8536L13.8362 13.8701L13.818 13.8858L13.7992 13.9007L13.7796 13.9146L13.7593 13.9276L13.7383 13.9397L13.7168 13.9507L13.6946 13.9607L13.6719 13.9697L13.6487 13.9775L13.625 13.9843L13.6008 13.9898L13.5761 13.9942L13.5511 13.9974L13.5257 13.9993L13.5 14H0.5L0.4743 13.9993L0.4489 13.9974L0.4239 13.9942L0.3992 13.9898L0.375 13.9843L0.3513 13.9775L0.3281 13.9697L0.3054 13.9607L0.2832 13.9507L0.2617 13.9397L0.2407 13.9276L0.2204 13.9146L0.2008 13.9007L0.182 13.8858L0.1638 13.8701L0.1464 13.8536L0.1299 13.8362L0.1142 13.818L0.0993 13.7992L0.0854 13.7796L0.0724 13.7593L0.0603 13.7383L0.0493 13.7168L0.0393 13.6946L0.0303 13.6719L0.0225 13.6487L0.0157 13.625L0.0102 13.6008L0.0058 13.5761L0.0026 13.5511L0.0007 13.5257L0 13.5L0.0007 13.4743L0.0026 13.4489L0.0058 13.4239L0.0102 13.3992L0.0157 13.375L0.0225 13.3513L0.0303 13.3281L0.0393 13.3054L0.0493 13.2832L0.0603 13.2617L0.0724 13.2407L0.0854 13.2204L0.0993 13.2008L0.1142 13.182L0.1299 13.1638L0.1464 13.1464L0.1638 13.1299L0.182 13.1142L0.2008 13.0993L0.2204 13.0854L0.2407 13.0724L0.2617 13.0603L0.2832 13.0493L0.3054 13.0393L0.3281 13.0303L0.3513 13.0225L0.375 13.0157L0.3992 13.0102L0.4239 13.0058L0.4489 13.0026L0.4743 13.0007L0.5 13H13.5L13.5257 13.0007ZM5.5 4L5.5257 4.0007L5.5511 4.0026L5.5761 4.0058L5.6008 4.0102L5.625 4.0157L5.6487 4.0225L5.6719 4.0303L5.6946 4.0393L5.7168 4.0493L5.7383 4.0603L5.7593 4.0724L5.7796 4.0854L5.7992 4.0993L5.818 4.1142L5.8362 4.1299L5.8536 4.1464L5.8701 4.1638L5.8858 4.182L5.9007 4.2008L5.9146 4.2204L5.9276 4.2407L5.9397 4.2617L5.9507 4.2832L5.9607 4.3054L5.9697 4.3281L5.9775 4.3513L5.9843 4.375L5.9898 4.3992L5.9942 4.4239L5.9974 4.4489L5.9993 4.4743L6 4.5V11.5L5.9993 11.5257L5.9974 11.5511L5.9942 11.5761L5.9898 11.6008L5.9843 11.625L5.9775 11.6487L5.9697 11.6719L5.9607 11.6946L5.9507 11.7168L5.9397 11.7383L5.9276 11.7593L5.9146 11.7796L5.9007 11.7992L5.8858 11.818L5.8701 11.8362L5.8536 11.8536L5.8362 11.8701L5.818 11.8858L5.7992 11.9007L5.7796 11.9146L5.7593 11.9276L5.7383 11.9397L5.7168 11.9507L5.6946 11.9607L5.6719 11.9697L5.6487 11.9775L5.625 11.9843L5.6008 11.9898L5.5761 11.9942L5.5511 11.9974L5.5257 11.9993L5.5 12L5.4743 11.9993L5.4489 11.9974L5.4239 11.9942L5.3992 11.9898L5.375 11.9843L5.3513 11.9775L5.3281 11.9697L5.3054 11.9607L5.2832 11.9507L5.2617 11.9397L5.2407 11.9276L5.2204 11.9146L5.2008 11.9007L5.182 11.8858L5.1638 11.8701L5.1464 11.8536L5.1299 11.8362L5.1142 11.818L5.0993 11.7992L5.0854 11.7796L5.0724 11.7593L5.0603 11.7383L5.0493 11.7168L5.0393 11.6946L5.0303 11.6719L5.0225 11.6487L5.0157 11.625L5.0102 11.6008L5.0058 11.5761L5.0026 11.5511L5.0007 11.5257L5 11.5V4.5L5.0007 4.4743L5.0026 4.4489L5.0058 4.4239L5.0102 4.3992L5.0157 4.375L5.0225 4.3513L5.0303 4.3281L5.0393 4.3054L5.0493 4.2832L5.0603 4.2617L5.0724 4.2407L5.0854 4.2204L5.0993 4.2008L5.1142 4.182L5.1299 4.1638L5.1464 4.1464L5.1638 4.1299L5.182 4.1142L5.2008 4.0993L5.2204 4.0854L5.2407 4.0724L5.2617 4.0603L5.2832 4.0493L5.3054 4.0393L5.3281 4.0303L5.3513 4.0225L5.375 4.0157L5.3992 4.0102L5.4239 4.0058L5.4489 4.0026L5.4743 4.0007L5.5 4ZM8.5 2L8.5248 2.0006L8.5494 2.0024L8.5738 2.0055L8.598 2.0097L8.6219 2.0151L8.6454 2.0216L8.6686 2.0293L8.6913 2.0381L8.7136 2.0479L8.7354 2.0589L8.7567 2.0709L8.7774 2.084L8.7975 2.0981L8.8169 2.1132L8.8356 2.1294L8.8536 2.1464L8.8707 2.1644L8.8868 2.1831L8.9019 2.2025L8.916 2.2226L8.9291 2.2433L8.9411 2.2646L8.9521 2.2864L8.9619 2.3087L8.9707 2.3314L8.9784 2.3546L8.9849 2.3781L8.9903 2.402L8.9945 2.4262L8.9976 2.4506L8.9994 2.4752L9 2.5V11.5L8.9994 11.5248L8.9976 11.5494L8.9945 11.5738L8.9903 11.598L8.9849 11.6219L8.9784 11.6454L8.9707 11.6686L8.9619 11.6913L8.9521 11.7136L8.9411 11.7354L8.9291 11.7567L8.916 11.7774L8.9019 11.7975L8.8868 11.8169L8.8707 11.8356L8.8536 11.8536L8.8356 11.8706L8.8169 11.8868L8.7975 11.9019L8.7774 11.916L8.7567 11.9291L8.7354 11.9411L8.7136 11.9521L8.6913 11.9619L8.6686 11.9707L8.6454 11.9784L8.6219 11.9849L8.598 11.9903L8.5738 11.9945L8.5494 11.9976L8.5248 11.9994L8.5 12L8.4752 11.9994L8.4506 11.9976L8.4262 11.9945L8.402 11.9903L8.3781 11.9849L8.3546 11.9784L8.3314 11.9707L8.3087 11.9619L8.2864 11.9521L8.2646 11.9411L8.2433 11.9291L8.2226 11.916L8.2025 11.9019L8.1831 11.8868L8.1644 11.8706L8.1464 11.8536L8.1293 11.8356L8.1132 11.8169L8.0981 11.7975L8.084 11.7774L8.0709 11.7567L8.0589 11.7354L8.0479 11.7136L8.0381 11.6913L8.0293 11.6686L8.0216 11.6454L8.0151 11.6219L8.0097 11.598L8.0055 11.5738L8.0024 11.5494L8.0006 11.5248L8 11.5V2.5L8.0006 2.4752L8.0024 2.4506L8.0055 2.4262L8.0097 2.402L8.0151 2.3781L8.0216 2.3546L8.0293 2.3314L8.0381 2.3087L8.0479 2.2864L8.0589 2.2646L8.0709 2.2433L8.084 2.2226L8.0981 2.2025L8.1132 2.1831L8.1293 2.1644L8.1464 2.1464L8.1644 2.1294L8.1831 2.1132L8.2025 2.0981L8.2226 2.084L8.2433 2.0709L8.2646 2.0589L8.2864 2.0479L8.3087 2.0381L8.3314 2.0293L8.3546 2.0216L8.3781 2.0151L8.402 2.0097L8.4262 2.0055L8.4506 2.0024L8.4752 2.0006L8.5 2ZM11.5 6L11.5248 6.0006L11.5494 6.0024L11.5738 6.0055L11.598 6.0097L11.6219 6.0151L11.6454 6.0216L11.6686 6.0293L11.6913 6.0381L11.7136 6.0479L11.7354 6.0589L11.7567 6.0709L11.7774 6.084L11.7975 6.0981L11.8169 6.1132L11.8356 6.1294L11.8536 6.1464L11.8707 6.1644L11.8868 6.1831L11.9019 6.2025L11.916 6.2226L11.9291 6.2433L11.9411 6.2646L11.9521 6.2864L11.9619 6.3087L11.9707 6.3314L11.9784 6.3546L11.9849 6.3781L11.9903 6.402L11.9945 6.4262L11.9976 6.4506L11.9994 6.4752L12 6.5V11.5L11.9994 11.5248L11.9976 11.5494L11.9945 11.5738L11.9903 11.598L11.9849 11.6219L11.9784 11.6454L11.9707 11.6686L11.9619 11.6913L11.9521 11.7136L11.9411 11.7354L11.9291 11.7567L11.916 11.7774L11.9019 11.7975L11.8868 11.8169L11.8707 11.8356L11.8536 11.8536L11.8356 11.8706L11.8169 11.8868L11.7975 11.9019L11.7774 11.916L11.7567 11.9291L11.7354 11.9411L11.7136 11.9521L11.6913 11.9619L11.6686 11.9707L11.6454 11.9784L11.6219 11.9849L11.598 11.9903L11.5738 11.9945L11.5494 11.9976L11.5248 11.9994L11.5 12L11.4752 11.9994L11.4506 11.9976L11.4262 11.9945L11.402 11.9903L11.3781 11.9849L11.3546 11.9784L11.3314 11.9707L11.3087 11.9619L11.2864 11.9521L11.2646 11.9411L11.2433 11.9291L11.2226 11.916L11.2025 11.9019L11.1831 11.8868L11.1644 11.8706L11.1464 11.8536L11.1293 11.8356L11.1132 11.8169L11.0981 11.7975L11.084 11.7774L11.0709 11.7567L11.0589 11.7354L11.0479 11.7136L11.0381 11.6913L11.0293 11.6686L11.0216 11.6454L11.0151 11.6219L11.0097 11.598L11.0055 11.5738L11.0024 11.5494L11.0006 11.5248L11 11.5V6.5L11.0006 6.4752L11.0024 6.4506L11.0055 6.4262L11.0097 6.402L11.0151 6.3781L11.0216 6.3546L11.0293 6.3314L11.0381 6.3087L11.0479 6.2864L11.0589 6.2646L11.0709 6.2433L11.084 6.2226L11.0981 6.2025L11.1132 6.1831L11.1293 6.1644L11.1464 6.1464L11.1644 6.1294L11.1831 6.1132L11.2025 6.0981L11.2226 6.084L11.2433 6.0709L11.2646 6.0589L11.2864 6.0479L11.3087 6.0381L11.3314 6.0293L11.3546 6.0216L11.3781 6.0151L11.402 6.0097L11.4262 6.0055L11.4506 6.0024L11.4752 6.0006L11.5 6ZM2.5257 0.0007L2.5511 0.0026L2.5761 0.0058L2.6008 0.0102L2.625 0.0157L2.6487 0.0225L2.6719 0.0303L2.6946 0.0393L2.7168 0.0493L2.7383 0.0603L2.7593 0.0724L2.7796 0.0854L2.7992 0.0993L2.818 0.1142L2.8362 0.1299L2.8536 0.1464L2.8701 0.1638L2.8858 0.182L2.9007 0.2008L2.9146 0.2204L2.9276 0.2407L2.9397 0.2617L2.9507 0.2832L2.9607 0.3054L2.9697 0.3281L2.9775 0.3513L2.9843 0.375L2.9898 0.3992L2.9942 0.4239L2.9974 0.4489L2.9993 0.4743L3 0.5V11.5L2.9994 11.5248L2.9976 11.5494L2.9945 11.5738L2.9903 11.598L2.9849 11.6219L2.9784 11.6454L2.9707 11.6686L2.9619 11.6913L2.9521 11.7136L2.9411 11.7354L2.9291 11.7567L2.916 11.7774L2.9019 11.7975L2.8868 11.8169L2.8707 11.8356L2.8536 11.8536L2.8356 11.8707L2.8169 11.8868L2.7975 11.9019L2.7774 11.916L2.7567 11.9291L2.7354 11.9411L2.7136 11.9521L2.6913 11.9619L2.6686 11.9707L2.6454 11.9784L2.6219 11.9849L2.598 11.9903L2.5738 11.9945L2.5494 11.9976L2.5248 11.9994L2.5 12L2.4743 11.9993L2.4489 11.9974L2.4239 11.9942L2.3992 11.9898L2.375 11.9843L2.3513 11.9775L2.3281 11.9697L2.3054 11.9607L2.2832 11.9507L2.2617 11.9397L2.2407 11.9276L2.2204 11.9146L2.2008 11.9007L2.182 11.8858L2.1638 11.8701L2.1464 11.8536L2.1299 11.8362L2.1142 11.818L2.0993 11.7992L2.0854 11.7796L2.0724 11.7593L2.0603 11.7383L2.0493 11.7168L2.0393 11.6946L2.0303 11.6719L2.0225 11.6487L2.0157 11.625L2.0102 11.6008L2.0058 11.5761L2.0026 11.5511L2.0007 11.5257L2 11.5V0.5L2.0006 0.4752L2.0024 0.4506L2.0055 0.4262L2.0097 0.402L2.0151 0.3781L2.0216 0.3546L2.0293 0.3314L2.0381 0.3087L2.0479 0.2864L2.0589 0.2646L2.0709 0.2433L2.084 0.2226L2.0981 0.2025L2.1132 0.1831L2.1293 0.1644L2.1464 0.1464L2.1644 0.1293L2.1831 0.1132L2.2025 0.0981L2.2226 0.084L2.2433 0.0709L2.2646 0.0589L2.2864 0.0479L2.3087 0.0381L2.3314 0.0293L2.3546 0.0216L2.3781 0.0151L2.402 0.0097L2.4262 0.0055L2.4506 0.0024L2.4752 0.0006L2.5 0L2.5257 0.0007Z" fill="#242E59"/>
</svg>
