<svg width="14" height="14" viewBox="0 0 14 14" fill="none" xmlns="http://www.w3.org/2000/svg">
<path fill-rule="evenodd" clip-rule="evenodd" d="M14 10.0451C14 10.3103 13.8946 10.5646 13.7071 10.7522C13.5196 10.9397 13.2652 11.0451 13 11.0451C11.6074 11.0451 9.1588 11.0451 8.3044 11.0451C8.106 11.0451 7.912 11.1041 7.7472 11.2147C7.0247 11.6995 4.929 13.1057 3.7786 13.8776C3.6252 13.9805 3.4277 13.9905 3.2647 13.9036C3.1018 13.8167 3 13.6471 3 13.4624C3 12.696 3 11.672 3 11.2451C3 11.1346 2.9105 11.0451 2.8 11.0451C2.4373 11.0451 1.6483 11.0451 1 11.0451C0.7348 11.0451 0.4804 10.9397 0.2929 10.7522C0.1053 10.5646 -9.99289e-05 10.3103 7.10925e-08 10.0451C7.10925e-08 7.9455 7.10925e-08 3.0995 7.10925e-08 1C-9.99289e-05 0.4477 0.4477 0 1 0C3.5771 0 10.4229 0 13 0C13.5523 0 14 0.4477 14 1C14 3.0995 14 7.9455 14 10.0451ZM13 1.5C13 1.2239 12.7761 1 12.5 1C10.5479 1 3.4521 1 1.5 1C1.2239 1 1 1.2239 1 1.5C1 3.0754 1 7.9246 1 9.5C1 9.7762 1.2239 10 1.5 10C2.0549 10 2.9451 10 3.5 10C3.6326 10 3.7598 10.0527 3.8536 10.1465C3.9473 10.2402 4 10.3674 4 10.5C4 10.9526 4 11.6095 4 12.0204C4 12.0946 4.0411 12.1627 4.1068 12.1973C4.1725 12.2319 4.2519 12.2273 4.3131 12.1853C4.9976 11.7159 6.6161 10.6061 7.2444 10.1753C7.4109 10.0611 7.608 10 7.8099 10C8.719 10 11.3845 10 12.5 10C12.7761 10 13 9.7761 13 9.5C13 7.9246 13 3.0754 13 1.5ZM9 6.5C9.1326 6.5 9.2598 6.5527 9.3535 6.6464C9.4473 6.7402 9.5 6.8674 9.5 7C9.5 7.1326 9.4473 7.2598 9.3535 7.3536C9.2598 7.4473 9.1326 7.5 9 7.5C8.042 7.5 5.958 7.5 5 7.5C4.8674 7.5 4.7402 7.4473 4.6465 7.3536C4.5527 7.2598 4.5 7.1326 4.5 7C4.5 6.8674 4.5527 6.7402 4.6465 6.6464C4.7402 6.5527 4.8674 6.5 5 6.5C5.958 6.5 8.042 6.5 9 6.5ZM10.5 3.5C10.7761 3.5 11 3.7239 11 4C11 4.2761 10.7761 4.5 10.5 4.5C9.0636 4.5 4.9364 4.5 3.5 4.5C3.2239 4.5 3 4.2761 3 4C3 3.7239 3.2239 3.5 3.5 3.5C4.9364 3.5 9.0636 3.5 10.5 3.5Z" fill="#313E75"/>
</svg>
