<svg width="14" height="14" viewBox="0 0 14 14" fill="none" xmlns="http://www.w3.org/2000/svg">
<path fill-rule="evenodd" clip-rule="evenodd" d="M0 2V12C0.0001 12.5523 0.4477 12.9999 1 13H13C13.5523 12.9999 14 12.5523 14 12V2C14 1.4477 13.5523 1 13 1H1C0.4477 1 0.0001 1.4477 0 2ZM12.9414 4.0586C12.9789 4.0961 13 4.147 13 4.2V11.5C13 11.6326 12.9473 11.7598 12.8536 11.8536C12.7598 11.9473 12.6326 12 12.5 12H1.5C1.3674 12 1.2402 11.9473 1.1464 11.8536C1.0527 11.7598 1 11.6326 1 11.5V4.2C1 4.147 1.0211 4.0961 1.0586 4.0586C1.0961 4.0211 1.147 4 1.2 4H12.8C12.853 4 12.9039 4.0211 12.9414 4.0586ZM1.5 2H12.5C12.6326 2 12.7598 2.0527 12.8536 2.1464C12.9473 2.2402 13 2.3674 13 2.5V2.8C13 2.853 12.9789 2.9039 12.9414 2.9414C12.9039 2.9789 12.853 3 12.8 3H1.2C1.147 3 1.0961 2.9789 1.0586 2.9414C1.0211 2.9039 1 2.853 1 2.8V2.5C1 2.3674 1.0527 2.2402 1.1464 2.1464C1.2402 2.0527 1.3674 2 1.5 2ZM12 9.5C12 10.3284 11.3284 11 10.5 11C9.67157 11 9 10.3284 9 9.5C9 8.67157 9.67157 8 10.5 8C11.3284 8 12 8.67157 12 9.5ZM11 9.5C11 9.77614 10.7761 10 10.5 10C10.2239 10 10 9.77614 10 9.5C10 9.22386 10.2239 9 10.5 9C10.7761 9 11 9.22386 11 9.5ZM8.75732 5.07127C8.99411 5.21334 9.0709 5.52047 8.92882 5.75726L5.92882 10.7573C5.78675 10.9941 5.47962 11.0708 5.24283 10.9288C5.00604 10.7867 4.92926 10.4796 5.07133 10.2428L8.07133 5.24277C8.2134 5.00598 8.52053 4.92919 8.75732 5.07127ZM4.85355 5.85355C5.04882 5.65829 5.04882 5.34171 4.85355 5.14645C4.65829 4.95118 4.34171 4.95118 4.14645 5.14645L3.5 5.79289L2.85355 5.14645C2.65829 4.95118 2.34171 4.95118 2.14645 5.14645C1.95118 5.34171 1.95118 5.65829 2.14645 5.85355L2.79289 6.5L2.14645 7.14645C1.95118 7.34171 1.95118 7.65829 2.14645 7.85355C2.34171 8.04882 2.65829 8.04882 2.85355 7.85355L3.5 7.20711L4.14645 7.85355C4.34171 8.04882 4.65829 8.04882 4.85355 7.85355C5.04882 7.65829 5.04882 7.34171 4.85355 7.14645L4.20711 6.5L4.85355 5.85355Z" fill="#242E59"/>
</svg>
