<svg width="14" height="14" viewBox="0 0 14 14" fill="none" xmlns="http://www.w3.org/2000/svg">
<path fill-rule="evenodd" clip-rule="evenodd" d="M14 13C14 13.5523 13.5523 13.9999 13 14C11.084 14 6.916 14 5 14C4.4477 13.9999 4 13.5523 4 13C4 11.084 4 6.916 4 5C4 4.4477 4.4477 4 5 4C6.916 4 11.084 4 13 4C13.5523 4 14 4.4477 14 5C14 6.916 14 11.084 14 13ZM13 5.5C13 5.2239 12.7761 5 12.5 5C11.0636 5 6.9364 5 5.5 5C5.2239 5 5 5.2239 5 5.5C5 6.9364 5 11.0636 5 12.5C5 12.7761 5.2239 13 5.5 13C6.9364 13 11.0636 13 12.5 13C12.7761 13 13 12.7761 13 12.5C13 11.0636 13 6.9364 13 5.5ZM10 2.501C10 2.7766 9.7766 3 9.501 3C9.5003 3 9.4997 3 9.499 3C9.2234 3 9 2.7766 9 2.501C9 2.1955 9 1.8058 9 1.5C9 1.3674 8.9473 1.2402 8.8536 1.1465C8.7598 1.0527 8.6326 1 8.5 1C7.0636 1 2.9364 1 1.5 1C1.2239 1 1 1.2239 1 1.5C1 2.9364 1 7.0636 1 8.5C1 8.6326 1.0527 8.7598 1.1465 8.8536C1.2402 8.9473 1.3674 9 1.5 9C1.8054 9 2.1946 9 2.5 9C2.6326 9 2.7598 9.0527 2.8535 9.1464C2.9473 9.2402 3 9.3674 3 9.5C3 9.6326 2.9473 9.7598 2.8536 9.8536C2.7598 9.9473 2.6326 10 2.5 10C2.0923 10 1.5037 10 1 10C0.4477 10 0.0001 9.5523 0 9C0 7.084 0 2.916 0 1C0.0001 0.4477 0.4477 0 1 0C2.916 0 7.084 0 9 0C9.5523 0 10 0.4477 10 1C10 1.5041 10 2.0933 10 2.501Z" fill="#242E59"/>
</svg>
