<svg width="14" height="14" viewBox="0 0 14 14" fill="none" xmlns="http://www.w3.org/2000/svg">
<path fill-rule="evenodd" clip-rule="evenodd" d="M6 7V1C6 0.447715 5.55228 0 5 0H1C0.447715 0 0 0.447715 0 1V7C0 7.55228 0.447715 8 1 8H5C5.55228 8 6 7.55228 6 7ZM5 6.5V1.5C5 1.22386 4.77614 1 4.5 1H1.5C1.22386 1 1 1.22386 1 1.5V6.5C1 6.77614 1.22386 7 1.5 7H4.5C4.77614 7 5 6.77614 5 6.5ZM6 13V11C6 10.4477 5.55228 10 5 10H1C0.447715 10 0 10.4477 0 11V13C0 13.5523 0.447715 14 1 14H5C5.55228 14 6 13.5523 6 13ZM5 12.5V11.5C5 11.2239 4.77614 11 4.5 11H1.5C1.22386 11 1 11.2239 1 11.5V12.5C1 12.7761 1.22386 13 1.5 13H4.5C4.77614 13 5 12.7761 5 12.5ZM14 1V3C14 3.55228 13.5523 4 13 4H9C8.44772 4 8 3.55228 8 3V1C8 0.447715 8.44772 0 9 0H13C13.5523 0 14 0.447715 14 1ZM13 1.5V2.5C13 2.77614 12.7761 3 12.5 3H9.5C9.22386 3 9 2.77614 9 2.5V1.5C9 1.22386 9.22386 0.999999 9.5 0.999999H12.5C12.7761 0.999999 13 1.22386 13 1.5ZM13 14C13.5523 14 14 13.5523 14 13V7C14 6.44772 13.5523 6 13 6H9C8.44772 6 8 6.44772 8 7V13C8 13.5523 8.44772 14 9 14H13ZM12.5 13C12.7761 13 13 12.7761 13 12.5V7.5C13 7.22386 12.7761 7 12.5 7H9.5C9.22386 7 9 7.22386 9 7.5V12.5C9 12.7761 9.22386 13 9.5 13H12.5Z" fill="#313E75"/>
</svg>
