<svg width="14" height="14" viewBox="0 0 14 14" fill="none" xmlns="http://www.w3.org/2000/svg">
<path fill-rule="evenodd" clip-rule="evenodd" d="M6 0C9.31371 0 12 0.767512 12 1.71429V3.33433C12 3.66608 11.6568 3.88942 11.341 3.78772C11.1433 3.72406 11 3.54386 11 3.33618V2.66223C9.92508 3.12414 8.08697 3.42857 6 3.42857C3.91303 3.42857 2.07492 3.12414 1 2.66223V5.57143C1 5.6542 1.04467 5.77371 1.23428 5.92518C1.42689 6.07905 1.73894 6.23897 2.18362 6.38255C2.57275 6.5082 3.0435 6.61496 3.5861 6.69522C3.86025 6.73576 4.02236 7.03211 3.92023 7.28972C3.85134 7.46347 3.67638 7.57711 3.49134 7.55079C2.86276 7.46141 2.30458 7.33755 1.8311 7.18467C1.52456 7.08569 1.2443 6.97161 1 6.84157V9.85714C1 9.93992 1.04467 10.0594 1.23428 10.2109C1.42689 10.3648 1.73894 10.5247 2.18362 10.6683C2.53314 10.7811 2.94851 10.8787 3.42265 10.9556C3.58283 10.9816 3.71345 11.1002 3.76086 11.2554C3.85058 11.5491 3.6195 11.8577 3.31607 11.8104C2.75864 11.7236 2.2601 11.6089 1.8311 11.4704C1.315 11.3037 0.873365 11.0943 0.552491 10.8379C0.228621 10.5792 0 10.2478 0 9.85714V1.71429C0 0.767512 2.68629 0 6 0ZM9.92641 1.31526C10.4031 1.45147 10.7206 1.59496 10.9006 1.71429C10.7206 1.83362 10.4031 1.9771 9.92641 2.11331C8.96755 2.38727 7.57928 2.57143 6 2.57143C4.42072 2.57143 3.03245 2.38727 2.07359 2.11331C1.59686 1.9771 1.27937 1.83362 1.09935 1.71429C1.27937 1.59496 1.59686 1.45147 2.07359 1.31526C3.03245 1.0413 4.42072 0.857143 6 0.857143C7.57928 0.857143 8.96755 1.0413 9.92641 1.31526Z" fill="#313E75"/>
<path fill-rule="evenodd" clip-rule="evenodd" d="M13.8664 8.30957L13.8023 8.1245C13.7608 7.9965 13.6506 7.90279 13.5175 7.8825C13.5175 7.8825 13.0062 7.81007 12.7987 7.78071C12.7465 7.77307 12.7028 7.73714 12.6851 7.68729C12.6362 7.55264 12.5803 7.42057 12.5173 7.29193C12.4935 7.24336 12.499 7.18543 12.5317 7.14236C12.6592 6.97407 12.9691 6.56564 12.9691 6.56564C13.0383 6.45193 13.0383 6.30914 12.9691 6.1955L12.8836 6.02464C12.677 5.612 12.3422 5.27736 11.9294 5.07086L11.7584 4.98543C11.6447 4.91621 11.5019 4.91621 11.3881 4.98543C11.3881 4.98543 10.9786 5.29586 10.8106 5.42307C10.7677 5.45529 10.7104 5.46057 10.6624 5.43686C10.5336 5.37436 10.4016 5.31857 10.2669 5.27021C10.2164 5.25214 10.1803 5.20714 10.1735 5.15379C10.1474 4.94936 10.0849 4.45871 10.0849 4.45871C10.0645 4.32564 9.97081 4.2155 9.84277 4.17393L9.66473 4.10993C9.22562 3.96336 8.75076 3.96336 8.31165 4.10993L8.12649 4.17393C7.99837 4.2155 7.90473 4.32564 7.88436 4.45871C7.88436 4.45871 7.81208 4.96907 7.78267 5.17671C7.77497 5.22914 7.73901 5.27293 7.68923 5.29064C7.55421 5.33957 7.42182 5.39557 7.29285 5.45871C7.24464 5.48236 7.18724 5.47679 7.14444 5.44436C6.97644 5.31714 6.56689 5.00679 6.56689 5.00679C6.45316 4.93757 6.3103 4.93757 6.19657 5.00679L6.02565 5.09221C5.61453 5.29007 5.27761 5.61436 5.06425 6.0175L4.97879 6.18836C4.90957 6.30207 4.90957 6.44486 4.97879 6.5585C4.97879 6.5585 5.28865 6.967 5.41627 7.13514C5.44867 7.17836 5.45401 7.23614 5.43008 7.28457C5.3672 7.41414 5.31108 7.54686 5.26251 7.68243C5.24514 7.73121 5.20262 7.76671 5.15163 7.77514C4.95116 7.80836 4.45893 7.88957 4.45893 7.88957C4.32583 7.90993 4.21559 8.00357 4.17407 8.13157L4.10997 8.31664C3.96334 8.75557 3.96334 9.23021 4.10997 9.66907L4.17407 9.85414C4.21559 9.98221 4.32583 10.0759 4.45893 10.0962C4.45893 10.0962 4.97018 10.1686 5.1777 10.1979C5.2299 10.2056 5.27362 10.2415 5.29129 10.2914C5.34014 10.426 5.39604 10.5581 5.45907 10.6867C5.48292 10.7353 5.47737 10.7932 5.44468 10.8363C5.31714 11.0045 5.00728 11.413 5.00728 11.413C4.93806 11.5267 4.93806 11.6695 5.00728 11.7831L5.09274 11.954C5.29933 12.3666 5.63418 12.7013 6.04702 12.9078L6.21793 12.9932C6.33166 13.0624 6.47452 13.0624 6.58825 12.9932C6.58825 12.9932 6.99781 12.6828 7.16573 12.5556C7.20867 12.5234 7.26593 12.5181 7.314 12.5418C7.44318 12.6044 7.57557 12.6604 7.71074 12.7089C7.76059 12.7267 7.79648 12.7708 7.80389 12.8233C7.83344 13.0309 7.90572 13.5413 7.90572 13.5413C7.92609 13.6744 8.01974 13.7845 8.14785 13.8261L8.33301 13.8901C8.77212 14.0366 9.24698 14.0366 9.6861 13.8901L9.87125 13.8261C9.9993 13.7845 10.093 13.6744 10.1134 13.5413C10.1134 13.5413 10.1857 13.0309 10.2151 12.8233C10.2228 12.7709 10.2587 12.7271 10.3085 12.7094C10.4435 12.6604 10.5759 12.6044 10.7049 12.5413C10.7531 12.5176 10.8104 12.5232 10.8533 12.5556C11.0213 12.6828 11.4309 12.9932 11.4309 12.9932C11.5446 13.0624 11.6874 13.0624 11.8012 12.9932L11.9721 12.9078C12.3849 12.7013 12.7197 12.3666 12.9264 11.954L13.0118 11.7831C13.081 11.6695 13.081 11.5267 13.0118 11.413C13.0118 11.413 12.7019 11.0045 12.5744 10.8364C12.542 10.7931 12.5366 10.7354 12.5605 10.6869C12.6231 10.5581 12.6789 10.426 12.7273 10.2911C12.7452 10.2413 12.7891 10.2054 12.8414 10.198C13.0489 10.1686 13.5602 10.0962 13.5602 10.0962C13.6933 10.0759 13.8035 9.98221 13.845 9.85414L13.9091 9.66907C14.0435 9.22336 14.0285 8.74593 13.8664 8.30957ZM12.946 9.39986C12.946 9.39986 12.4526 9.47175 12.173 9.51247C12.0581 9.52919 11.9627 9.60998 11.927 9.72072C11.8937 9.82398 11.8585 9.93298 11.8585 9.93298C11.806 10.0706 11.7436 10.2042 11.6717 10.3328C11.6717 10.3328 11.6188 10.4386 11.5693 10.5376C11.5176 10.6409 11.5284 10.7645 11.5974 10.8571C11.7661 11.0838 12.0654 11.4858 12.0654 11.4858C11.9396 11.7248 11.7442 11.92 11.505 12.0456C11.505 12.0456 11.1039 11.7477 10.8768 11.5789C10.7835 11.5096 10.659 11.4995 10.5558 11.5528C10.4516 11.6067 10.3375 11.6657 10.3375 11.6657C10.2001 11.7367 10.0573 11.7969 9.91051 11.8456C9.91051 11.8456 9.80517 11.8795 9.70343 11.9122C9.58982 11.9488 9.50796 12.0485 9.49402 12.1673C9.46086 12.4496 9.40349 12.9386 9.40349 12.9386C9.1429 13.0205 8.86351 13.0205 8.60293 12.9386C8.60293 12.9386 8.53481 12.4486 8.49592 12.1689C8.47977 12.0528 8.39872 11.9562 8.2873 11.9203C8.1843 11.8871 8.07589 11.8523 8.07589 11.8523C7.93572 11.8005 7.79963 11.7381 7.66894 11.6657C7.66894 11.6657 7.56193 11.6123 7.46246 11.5626C7.35992 11.5114 7.23737 11.5222 7.1453 11.5906C6.91855 11.759 6.5148 12.0589 6.5148 12.0589C6.27556 11.9333 6.08016 11.7381 5.9544 11.4991C5.9544 11.4991 6.25154 11.0999 6.4206 10.8728C6.49044 10.779 6.50065 10.6534 6.44681 10.5495C6.39311 10.4457 6.33467 10.3328 6.33467 10.3328C6.26389 10.1955 6.20364 10.0529 6.15454 9.9063C6.15454 9.9063 6.11812 9.80452 6.08336 9.70721C6.04507 9.60021 5.95067 9.52337 5.83839 9.50779C5.55966 9.46914 5.06044 9.39986 5.06044 9.39986C4.97985 9.14165 4.97985 8.86499 5.06044 8.60678C5.06044 8.60678 5.55379 8.53489 5.83338 8.49416C5.94833 8.47745 6.04373 8.39666 6.07942 8.28591C6.11271 8.18266 6.14787 8.07365 6.14787 8.07365C6.20004 7.93375 6.26249 7.79786 6.33467 7.66712C6.33467 7.66712 6.38804 7.56045 6.43774 7.46114C6.48911 7.35856 6.4787 7.23571 6.41086 7.14322C6.24074 6.91149 5.93439 6.49419 5.93439 6.49419C6.05901 6.25277 6.25455 6.05509 6.49478 5.92776C6.49478 5.92776 6.90827 6.23485 7.1333 6.40204C7.22116 6.46731 7.33711 6.48035 7.43718 6.43628C7.54572 6.38853 7.66894 6.33429 7.66894 6.33429C7.8063 6.26321 7.94907 6.20309 8.0959 6.15433C8.0959 6.15433 8.20124 6.12043 8.30298 6.08773C8.41659 6.05114 8.49845 5.95143 8.5124 5.83266C8.54555 5.55038 8.60293 5.06139 8.60293 5.06139C8.86351 4.97954 9.1429 4.97954 9.40349 5.06139C9.40349 5.06139 9.4716 5.55132 9.5105 5.83106C9.52664 5.94722 9.6077 6.04379 9.71911 6.07963C9.82211 6.1128 9.93052 6.14765 9.93052 6.14765C10.0707 6.19947 10.2067 6.26187 10.3375 6.33429C10.3375 6.33429 10.4444 6.38773 10.5439 6.43735C10.6465 6.48858 10.769 6.47781 10.8611 6.4094C11.0879 6.241 11.4916 5.94107 11.4916 5.94107C11.7319 6.0684 11.9274 6.26608 12.052 6.50757C12.052 6.50757 11.7559 6.90534 11.5867 7.13265C11.5164 7.22708 11.5066 7.35367 11.5615 7.45787C11.6146 7.55878 11.6717 7.66712 11.6717 7.66712C11.7425 7.80455 11.8028 7.94712 11.8519 8.09365C11.8519 8.09365 11.887 8.20265 11.9203 8.30591C11.956 8.41666 12.0514 8.49744 12.1664 8.51416C12.446 8.55489 12.9393 8.62678 12.9393 8.62678C13.0179 8.87816 13.0202 9.14713 12.946 9.39986ZM8.98819 7.20621C8.00493 7.20621 7.20782 8.003 7.20782 8.98579C7.20782 9.96857 8.00493 10.7653 8.98819 10.7653C9.97145 10.7653 10.7686 9.96857 10.7686 8.98579C10.7686 8.51379 10.581 8.06114 10.2471 7.72743C9.9132 7.39371 9.46034 7.20621 8.98819 7.20621ZM8.98819 10.0535C8.39825 10.0535 7.91997 9.57543 7.91997 8.98579C7.91997 8.39607 8.39825 7.91807 8.98819 7.91807C9.57813 7.91807 10.0564 8.39607 10.0564 8.98579C10.0564 9.57543 9.57813 10.0535 8.98819 10.0535Z" fill="#313E75"/>
</svg>
