<svg width="14" height="14" viewBox="0 0 14 14" fill="none" xmlns="http://www.w3.org/2000/svg">
<path fill-rule="evenodd" clip-rule="evenodd" d="M6.00009 0C9.3138 0 12.0001 0.767512 12.0001 1.71429V3.91149C12.0001 4.25071 11.6552 4.46046 11.3411 4.3324C11.1445 4.25223 11.0001 4.06846 11.0001 3.8561V2.66223C9.92517 3.12414 8.08706 3.42857 6.00009 3.42857C3.91312 3.42857 2.07501 3.12414 1.00009 2.66223V5.57143C1.00009 5.6542 1.04476 5.77371 1.23437 5.92518C1.42698 6.07905 1.73903 6.23897 2.18371 6.38255C2.30007 6.42012 2.61071 6.52818 2.96494 6.66C3.31568 6.75 3.70917 6.83473 3.99913 6.89C4.1834 6.92513 4.46769 6.94816 4.755 7C5.13843 7.05 5.39737 7.02919 5.59094 7.06C5.71658 7.07 5.93425 7.08 6.01896 7.1C6.08462 7.10553 5.94347 7.08213 6.01896 7.1C6.08775 7.1 6.156 7.10384 6.22248 7.12C6.52694 7.19401 6.6255 7.7189 6.34573 7.85999C6.3322 7.86681 6.31832 7.87348 6.30408 7.88C6.21708 7.9198 6.11657 7.90356 6.00009 7.92C5.88157 7.93673 5.09866 7.87 5.00009 7.87C4.24058 7.77929 3.76135 7.80789 1.83119 7.18467C1.52465 7.08569 1.24439 6.97161 1.00009 6.84157V9.85714C1.00009 9.93992 1.04476 10.0594 1.23437 10.2109C1.42698 10.3648 1.73903 10.5247 2.18371 10.6683C2.43944 10.7508 3.17663 10.9059 3.50009 10.97C3.89664 11.04 3.96923 11.05 4.50009 11.12C4.75328 11.1516 4.96884 11.19 5.29306 11.2C5.36033 11.21 5.4547 11.2071 5.51918 11.21C5.70662 11.2183 5.88193 11.2373 6.04297 11.24C6.2501 11.2332 6.49633 11.2228 6.73436 11.22C7.10719 11.2038 7.68106 11.135 7.93137 11.1202C8.00764 11.1157 8.09742 11.1585 8.15335 11.2105C8.43642 11.474 8.12672 11.934 7.74151 11.968C7.28006 12.0087 6.71067 12.0505 6.2345 12.04C5.95236 12.05 5.69521 12.05 5.50009 12.04C4.79855 12.0316 4.50009 11.98 4.00009 11.91C3.69078 11.8667 3.31553 11.81 2.82236 11.71C2.37874 11.6261 1.95619 11.5107 1.83119 11.4704C1.31509 11.3037 0.873457 11.0943 0.552583 10.8379C0.228713 10.5792 9.15527e-05 10.2478 9.15527e-05 9.85714V1.71429C9.15527e-05 0.767512 2.68638 0 6.00009 0ZM9.9265 1.31526C10.4032 1.45147 10.7207 1.59496 10.9007 1.71429C10.7207 1.83362 10.4032 1.9771 9.9265 2.11331C8.96764 2.38727 7.57937 2.57143 6.00009 2.57143C4.42081 2.57143 3.03254 2.38727 2.07368 2.11331C1.59695 1.9771 1.27946 1.83362 1.09944 1.71429C1.27946 1.59496 1.59695 1.45147 2.07368 1.31526C3.03254 1.0413 4.42081 0.857143 6.00009 0.857143C7.57937 0.857143 8.96764 1.0413 9.9265 1.31526Z" fill="#242E59"/>
<path d="M11.666 8.30262C11.7458 8.2732 11.8377 8.28943 11.8988 8.3437L12.8883 9.22261C12.9884 9.31161 13.1243 9.36162 13.2659 9.36162C13.4075 9.36162 13.5434 9.31161 13.6436 9.22261C13.7437 9.13371 13.8 9.01302 13.8 8.8872C13.8 8.76138 13.7437 8.64069 13.6436 8.55169L11.3777 6.53891C11.2775 6.45001 11.1416 6.40001 11 6.40001C10.8584 6.40001 10.7225 6.45001 10.6223 6.53891L8.35637 8.55169C8.25629 8.64069 8.2 8.76138 8.2 8.8872C8.2 9.01302 8.25629 9.13371 8.35712 9.22337C8.56531 9.40821 8.90285 9.40821 9.11093 9.22337L10.1012 8.3437C10.1623 8.28943 10.2542 8.2732 10.334 8.30262C10.4139 8.33194 10.4659 8.40111 10.4659 8.47787C10.4659 9.18971 10.4644 9.83028 10.4629 10.4733C10.4622 10.8156 10.4614 11.1586 10.4608 11.5135C10.4604 11.5223 10.4602 11.5311 10.4602 11.54V12.0263C10.46 12.1809 10.4599 12.3386 10.4599 12.5C10.4599 12.5044 10.46 12.5086 10.4602 12.5127V13.46C10.4602 13.7582 10.7019 14 11.0002 14C11.2984 14 11.5402 13.7582 11.5402 13.46V11.54C11.5402 11.5286 11.5398 11.5173 11.5391 11.5061C11.5385 11.1539 11.5378 10.8132 11.537 10.4733C11.5355 9.83027 11.5341 9.18971 11.5341 8.47787C11.5341 8.40111 11.5861 8.33194 11.666 8.30262Z" fill="#242E59"/>
</svg>
