<svg width="14" height="14" viewBox="0 0 14 14" fill="none" xmlns="http://www.w3.org/2000/svg">
<path fill-rule="evenodd" clip-rule="evenodd" d="M13 2C13 0.895431 10.3137 0 7 0C3.68629 0 1 0.895431 1 2V11.5C1 11.9557 1.22862 12.3424 1.55249 12.6443C1.87336 12.9433 2.315 13.1877 2.8311 13.3821C3.8659 13.7719 5.30527 14 7 14C8.69473 14 10.1341 13.7719 11.1689 13.3821C11.685 13.1877 12.1266 12.9433 12.4475 12.6443C12.7714 12.3424 13 11.9557 13 11.5V2ZM11.9006 2C11.7206 1.86078 11.4031 1.69338 10.9264 1.53447C9.96755 1.21485 8.57928 1 7 1C5.42072 1 4.03245 1.21485 3.07359 1.53447C2.59686 1.69338 2.27937 1.86078 2.09935 2C2.27937 2.13922 2.59686 2.30662 3.07359 2.46553C4.03245 2.78515 5.42072 3 7 3C8.57928 3 9.96755 2.78515 10.9264 2.46553C11.4031 2.30662 11.7206 2.13922 11.9006 2ZM12 3.10593C10.9251 3.64483 9.08697 4 7 4C4.91303 4 3.07492 3.64483 2 3.10593V6.5C2 6.59657 2.04467 6.736 2.23428 6.91271C2.42689 7.09222 2.73894 7.2788 3.18362 7.44631C4.07039 7.78036 5.38102 8 7 8C8.61898 8 9.92961 7.78036 10.8164 7.44631C11.2611 7.2788 11.5731 7.09222 11.7657 6.91271C11.9553 6.736 12 6.59657 12 6.5V3.10593ZM11.1689 8.38212C11.4754 8.26664 11.7557 8.13354 12 7.98183V11.5C12 11.5966 11.9553 11.736 11.7657 11.9127C11.5731 12.0922 11.2611 12.2788 10.8164 12.4463C9.92961 12.7804 8.61898 13 7 13C5.38102 13 4.07039 12.7804 3.18362 12.4463C2.73894 12.2788 2.42689 12.0922 2.23428 11.9127C2.04467 11.736 2 11.5966 2 11.5V7.98183C2.2443 8.13354 2.52456 8.26664 2.8311 8.38212C3.8659 8.77193 5.30527 9 7 9C8.69473 9 10.1341 8.77193 11.1689 8.38212Z" fill="#313E75"/>
</svg>
