<svg width="14" height="14" viewBox="0 0 14 14" fill="none" xmlns="http://www.w3.org/2000/svg">
<path fill-rule="evenodd" clip-rule="evenodd" d="M0 13V1C0.0001 0.4477 0.4477 0 1 0H13C13.5523 0 14 0.4477 14 1V13C14 13.5523 13.5523 13.9999 13 14H1C0.4477 13.9999 0.0001 13.5523 0 13ZM13 5.2C13 5.147 12.9789 5.0961 12.9414 5.0586C12.9039 5.0211 12.853 5 12.8 5C11.3636 5 2.6364 5 1.2 5C1.147 5 1.0961 5.0211 1.0586 5.0586C1.0211 5.0961 1 5.147 1 5.2C1 6.3913 1 12.5 1 12.5C1 12.6326 1.0527 12.7598 1.1464 12.8536C1.2402 12.9473 1.3674 13 1.5 13H12.5C12.6326 13 12.7598 12.9473 12.8536 12.8536C12.9473 12.7598 13 12.6326 13 12.5V5.2ZM6.6728 10.9788C6.6328 11.0668 6.5718 11.1268 6.4898 11.1588C6.4078 11.1908 6.2968 11.2068 6.1568 11.2068C6.0688 11.2068 6.0068 11.1908 5.9708 11.1588C5.9348 11.1268 5.9148 11.0898 5.9108 11.0478C5.9068 11.0058 5.9118 10.9618 5.9258 10.9158C5.9398 10.8698 5.9528 10.8328 5.9648 10.8048L7.4048 7.6968H5.8928C5.7808 7.6968 5.7248 7.5948 5.7248 7.3908C5.7248 7.2468 5.7418 7.1458 5.7758 7.0878C5.8098 7.0298 5.8668 7.0008 5.9468 7.0008H7.9868C8.1028 7.0008 8.1838 7.0308 8.2298 7.0908C8.2758 7.1508 8.2868 7.2288 8.2628 7.3248C8.2548 7.3528 8.2398 7.3968 8.2178 7.4568C8.1958 7.5168 8.1608 7.6028 8.1128 7.7148L7.6388 8.7978L6.6728 10.9788ZM3.0162 1.2C3.0162 1.0895 2.9266 1 2.8162 1C2.4044 1 1.5 1 1.5 1C1.3674 1 1.2402 1.0527 1.1464 1.1464C1.0527 1.2402 1 1.3674 1 1.5V3.8C1 3.853 1.0211 3.9039 1.0586 3.9414C1.0961 3.9789 1.147 4 1.2 4C2.6364 4 11.3636 4 12.8 4C12.853 4 12.9039 3.9789 12.9414 3.9414C12.9789 3.9039 13 3.853 13 3.8C13 3.2071 13 1.5 13 1.5C13 1.3674 12.9473 1.2402 12.8536 1.1464C12.7598 1.0527 12.6326 1 12.5 1H11.2C11.0896 1 11 1.0895 11 1.2C11 1.5009 11 2.0798 11 2.5C11 2.6326 10.9473 2.7598 10.8536 2.8535C10.7598 2.9473 10.6326 3 10.5 3C10.3674 3 10.2402 2.9473 10.1464 2.8535C10.0527 2.7598 10 2.6326 10 2.5C10 2.0798 10 1.5009 10 1.2C10 1.0895 9.9104 1 9.8 1C8.8879 1 5.1282 1 4.2162 1C4.1057 1 4.0162 1.0895 4.0162 1.2C4.0162 1.5009 4.0162 2.0798 4.0162 2.5C4.0162 2.6326 3.9635 2.7598 3.8697 2.8535C3.776 2.9473 3.6488 3 3.5162 3C3.3836 3 3.2564 2.9473 3.1626 2.8535C3.0688 2.7598 3.0162 2.6326 3.0162 2.5C3.0162 2.0798 3.0162 1.5009 3.0162 1.2Z" fill="#242E59"/>
</svg>
