<svg width="14" height="14" viewBox="0 0 14 14" fill="none" xmlns="http://www.w3.org/2000/svg">
<path fill-rule="evenodd" clip-rule="evenodd" d="M13 2.72095C13.2238 2.93608 13.2238 3.28487 13 3.5L7.32042 8.99998C7.09666 9.21511 6.73385 9.21511 6.51009 8.99998L4.1898 6.89809C3.96603 6.68296 3.96603 6.33416 4.1898 6.11904C4.41357 5.90391 4.77636 5.90391 5.00013 6.11904L6.91526 7.83141L12.1897 2.72095C12.4134 2.50583 12.7762 2.50583 13 2.72095Z" fill="#313E75"/>
<path fill-rule="evenodd" clip-rule="evenodd" d="M10.5 14C11.0523 14 11.5 13.5523 11.5 13V5.83885L10.5 6.81785V12.5C10.5 12.7761 10.2761 13 10 13H3C2.7239 13 2.5 12.7761 2.5 12.5V5.81586V1.5C2.5 1.2239 2.7239 1 3 1H4.691C4.8804 1 5.0535 1.107 5.1382 1.2764L5.3618 1.7236C5.4465 1.893 5.6196 2 5.809 2H7.191C7.3804 2 7.5535 1.893 7.6382 1.7236L7.8618 1.2764C7.9465 1.107 8.1196 1 8.309 1H10C10.2761 1 10.5 1.2239 10.5 1.5V3.41677L11.5 2.44046V1C11.5 0.4477 11.0523 0 10.5 0H2.5C1.9477 0 1.5001 0.4477 1.5 1V13C1.5001 13.5523 1.9477 14 2.5 14H10.5ZM8.3535 11.1464C8.2598 11.0527 8.1326 11 8 11H5C4.8674 11 4.7402 11.0527 4.6465 11.1464C4.5527 11.2402 4.5 11.3674 4.5 11.5C4.5 11.6326 4.5527 11.7598 4.6465 11.8536C4.7402 11.9473 4.8674 12 5 12H8C8.1326 12 8.2598 11.9473 8.3535 11.8536C8.4473 11.7598 8.5 11.6326 8.5 11.5C8.5 11.3674 8.4473 11.2402 8.3535 11.1464Z" fill="#313E75"/>
</svg>
