<svg width="14" height="14" viewBox="0 0 14 14" fill="none" xmlns="http://www.w3.org/2000/svg">
<path fill-rule="evenodd" clip-rule="evenodd" d="M11.5 13C11.5 13.5523 11.0523 14 10.5 14H2.5C1.9477 14 1.5001 13.5523 1.5 13V1C1.5001 0.4477 1.9477 0 2.5 0H10.5C11.0523 0 11.5 0.4477 11.5 1V2.44046L10.5 3.41677V1.5C10.5 1.2239 10.2761 1 10 1H8.309C8.1196 1 7.9465 1.107 7.8618 1.2764L7.6382 1.7236C7.5535 1.893 7.3804 2 7.191 2H5.809C5.6196 2 5.4465 1.893 5.3618 1.7236L5.1382 1.2764C5.0535 1.107 4.8804 1 4.691 1H3C2.7239 1 2.5 1.2239 2.5 1.5V5.81586V12.5C2.5 12.7761 2.7239 13 3 13H10C10.2761 13 10.5 12.7761 10.5 12.5V6.81785L11.5 5.83885V13ZM8 11C8.1326 11 8.2598 11.0527 8.3535 11.1464C8.4473 11.2402 8.5 11.3674 8.5 11.5C8.5 11.6326 8.4473 11.7598 8.3535 11.8536C8.2598 11.9473 8.1326 12 8 12H5C4.8674 12 4.7402 11.9473 4.6465 11.8536C4.5527 11.7598 4.5 11.6326 4.5 11.5C4.5 11.3674 4.5527 11.2402 4.6465 11.1464C4.7402 11.0527 4.8674 11 5 11H8ZM13 3.5C13.2238 3.28487 13.2238 2.93608 13 2.72095C12.7762 2.50583 12.4134 2.50583 12.1897 2.72095L6.91526 7.83141L5.00013 6.11904C4.77636 5.90391 4.41357 5.90391 4.1898 6.11904C3.96603 6.33416 3.96603 6.68296 4.1898 6.89809L6.51009 8.99998C6.73385 9.21511 7.09666 9.21511 7.32042 8.99998L13 3.5Z" fill="#242E59"/>
</svg>
