<svg width="14" height="14" viewBox="0 0 14 14" fill="none" xmlns="http://www.w3.org/2000/svg">
<path fill-rule="evenodd" clip-rule="evenodd" d="M10 1.483C10 1.7685 10.2315 2 10.517 2C11.185 2 12.3404 2 13 2C13.2762 2 13.5 2.2239 13.5 2.5C13.5 2.7761 13.2761 3 13 3C12.9957 3 12.9913 3 12.987 3C12.8578 3 12.734 3.0513 12.6426 3.1426C12.5513 3.234 12.5 3.3578 12.5 3.487C12.5 5.1642 12.5 10.7227 12.5 13.0068C12.5 13.5553 12.0553 13.9999 11.5068 14C9.4164 14 4.5836 14 2.4932 14C1.9447 13.9999 1.5 13.5553 1.5 13.0068C1.5 10.7227 1.5 5.1642 1.5 3.487C1.5 3.3578 1.4487 3.234 1.3574 3.1426C1.266 3.0513 1.1422 3 1.013 3C1.0087 3 1.0043 3 1 3C0.7239 3 0.5 2.7761 0.5 2.5C0.5 2.2239 0.7238 2 1 2C1.6596 2 2.815 2 3.483 2C3.7685 2 4 1.7685 4 1.483C4 1.3247 4 1.1451 4 0.967C4 0.7105 4.1019 0.4646 4.2832 0.2832C4.4646 0.1019 4.7105 0 4.967 0C6.0852 0 7.9148 0 9.033 0C9.2895 0 9.5354 0.1019 9.7168 0.2832C9.8981 0.4646 10 0.7105 10 0.967C10 1.1451 10 1.3247 10 1.483ZM11.5833 3.5C11.5833 3.2239 11.3595 3 11.0833 3C9.4855 3 4.5145 3 2.9167 3C2.6405 3 2.4167 3.2239 2.4167 3.5C2.4167 5.2111 2.4167 10.82 2.4167 12.5123C2.4167 12.6417 2.468 12.7657 2.5595 12.8572C2.651 12.9486 2.775 13 2.9043 13C4.4928 13 9.5072 13 11.0957 13C11.225 13 11.349 12.9486 11.4405 12.8572C11.532 12.7657 11.5833 12.6417 11.5833 12.5123C11.5833 10.82 11.5833 5.2111 11.5833 3.5ZM7.5 5.5C7.5 5.224 7.276 5 7 5C6.724 5 6.5 5.224 6.5 5.5V10.5C6.5 10.776 6.724 11 7 11C7.276 11 7.5 10.776 7.5 10.5V5.5ZM5 5.5C5 5.224 4.776 5 4.5 5C4.224 5 4 5.224 4 5.5V10.5C4 10.776 4.224 11 4.5 11C4.776 11 5 10.776 5 10.5V5.5ZM10 5.5C10 5.224 9.776 5 9.5 5C9.224 5 9 5.224 9 5.5V10.5C9 10.776 9.224 11 9.5 11C9.776 11 10 10.776 10 10.5V5.5ZM9 1.5C9 1.3674 8.9473 1.2402 8.8535 1.1464C8.7598 1.0527 8.6326 1 8.5 1C7.7315 1 6.2685 1 5.5 1C5.3674 1 5.2402 1.0527 5.1465 1.1464C5.0527 1.2402 5 1.3674 5 1.5C5 1.6433 5 1.7866 5 1.8829C5 1.9139 5.0123 1.9437 5.0343 1.9657C5.0563 1.9877 5.0861 2 5.1171 2C5.7017 2 8.2983 2 8.8829 2C8.9139 2 8.9437 1.9877 8.9657 1.9657C8.9877 1.9437 9 1.9139 9 1.8829C9 1.7866 9 1.6433 9 1.5Z" fill="#242E59"/>
</svg>
