<svg width="14" height="14" viewBox="0 0 14 14" fill="none" xmlns="http://www.w3.org/2000/svg">
<mask id="mask0" mask-type="alpha" maskUnits="userSpaceOnUse" x="0" y="0" width="14" height="14">
<path d="M14 0H0V14H14V0Z" fill="white"/>
</mask>
<g mask="url(#mask0)">
<path fill-rule="evenodd" clip-rule="evenodd" d="M4 12.2C4 12.147 4.0211 12.0961 4.0586 12.0586C4.0961 12.0211 4.147 12 4.2 12C4.6683 12 5.8317 12 6.3 12C6.353 12 6.4039 11.9789 6.4414 11.9414C6.4789 11.9039 6.5 11.853 6.5 11.8C6.5 11.6257 6.5 11.3743 6.5 11.2C6.5 11.147 6.4789 11.0961 6.4414 11.0586C6.4039 11.0211 6.353 11 6.3 11C5.5093 11 2.5683 11 1 11C0.4477 11 0 10.5523 0 10C0 8.084 0 3.916 0 2C0 1.4477 0.4477 1 1 1C3.5771 1 10.4229 1 13 1C13.5523 1 14 1.4477 14 2C14 3.916 14 8.084 14 10C14 10.5523 13.5523 11 13 11C11.4317 11 8.4907 11 7.7 11C7.647 11 7.5961 11.0211 7.5586 11.0586C7.5211 11.0961 7.5 11.147 7.5 11.2C7.5 11.3743 7.5 11.6257 7.5 11.8C7.5 11.853 7.5211 11.9039 7.5586 11.9414C7.5961 11.9789 7.647 12 7.7 12C8.1683 12 9.3317 12 9.8 12C9.853 12 9.9039 12.0211 9.9414 12.0586C9.9789 12.0961 10 12.147 10 12.2C10 12.3743 10 12.6257 10 12.8C10 12.9105 9.9105 13 9.8 13C8.8863 13 5.1137 13 4.2 13C4.0895 13 4 12.9105 4 12.8C4 12.6257 4 12.3743 4 12.2ZM13 2.5C13 2.2239 12.7761 2 12.5 2C10.5479 2 3.4521 2 1.5 2C1.2239 2 1 2.2239 1 2.5C1 3.9364 1 8.0636 1 9.5C1 9.7761 1.2239 10 1.5 10C3.4521 10 10.5479 10 12.5 10C12.7761 10 13 9.7761 13 9.5C13 8.0636 13 3.9364 13 2.5Z" fill="#313E75"/>
</g>
</svg>
