<svg width="14" height="14" viewBox="0 0 14 14" fill="none" xmlns="http://www.w3.org/2000/svg">
<path fill-rule="evenodd" clip-rule="evenodd" d="M5.57617 11H8.57617C8.85217 11 9.07617 11.224 9.07617 11.5C9.07617 11.776 8.85217 12 8.57617 12H5.57617C5.30017 12 5.07617 11.776 5.07617 11.5C5.07617 11.224 5.30017 11 5.57617 11Z" fill="#F2F4FC"/>
<path fill-rule="evenodd" clip-rule="evenodd" d="M10.0762 0H4.07617C2.97217 0 2.07617 0.896 2.07617 2V12C2.07617 13.104 2.97217 14 4.07617 14H10.0762C11.1802 14 12.0762 13.104 12.0762 12V2C12.0762 0.896 11.1802 0 10.0762 0ZM10.0762 1C10.6282 1 11.0762 1.448 11.0762 2V12C11.0762 12.552 10.6282 13 10.0762 13H4.07617C3.52417 13 3.07617 12.552 3.07617 12V2C3.07617 1.448 3.52417 1 4.07617 1H5.57617L5.93717 1.724C6.02217 1.893 6.19617 2 6.38517 2H7.76717C7.95617 2 8.13017 1.893 8.21517 1.724L8.57617 1H10.0762ZM8.57617 11H5.57617C5.30017 11 5.07617 11.224 5.07617 11.5C5.07617 11.776 5.30017 12 5.57617 12H8.57617C8.85217 12 9.07617 11.776 9.07617 11.5C9.07617 11.224 8.85217 11 8.57617 11Z" fill="#313E75"/>
</svg>
