<svg width="14" height="14" viewBox="0 0 14 14" fill="none" xmlns="http://www.w3.org/2000/svg">
<mask id="mask0" mask-type="alpha" maskUnits="userSpaceOnUse" x="0" y="0" width="14" height="14">
<path fill-rule="evenodd" clip-rule="evenodd" d="M0 14H14V0H0V14Z" fill="white"/>
</mask>
<g mask="url(#mask0)">
<path fill-rule="evenodd" clip-rule="evenodd" d="M7.34194 13.8905C7.12104 13.9709 6.87884 13.9709 6.65794 13.8905C5.52944 13.4798 1.92234 12.1669 0.626842 11.6954C0.367842 11.6011 0.234342 11.3148 0.328542 11.0558C0.328842 11.0552 0.329042 11.0545 0.329242 11.0539C0.374542 10.9295 0.467342 10.8283 0.587342 10.7723C0.707242 10.7164 0.844542 10.7104 0.968842 10.7557C2.28784 11.2358 5.98894 12.5829 6.82894 12.8886C6.93944 12.9288 7.06044 12.9288 7.17094 12.8886C8.01074 12.5829 11.7102 11.2364 13.03 10.756C13.1547 10.7107 13.2922 10.7167 13.4124 10.7727C13.5326 10.8288 13.6256 10.9302 13.6709 11.0549C13.671 11.0552 13.6711 11.0555 13.6713 11.0558C13.7165 11.1802 13.7105 11.3174 13.6546 11.4374C13.5987 11.5573 13.4974 11.6501 13.373 11.6954C12.0633 12.1721 8.46184 13.4829 8.46184 13.4829C8.46184 13.4829 7.77404 13.7333 7.34194 13.8905ZM7.34194 11.3055C7.12104 11.3859 6.87884 11.3859 6.65794 11.3055C6.22584 11.1483 5.53804 10.8979 5.53804 10.8979C5.53804 10.8979 1.93654 9.587 0.626842 9.1104C0.502442 9.0651 0.401142 8.9723 0.345242 8.8523C0.289342 8.7324 0.283342 8.5952 0.328542 8.4708C0.328842 8.4702 0.329042 8.4695 0.329242 8.4689C0.374542 8.3445 0.467342 8.2433 0.587342 8.1873C0.707242 8.1314 0.844542 8.1254 0.968842 8.1707C2.28784 8.6508 5.98894 9.9978 6.82894 10.3036C6.93944 10.3438 7.06044 10.3438 7.17094 10.3036C8.01094 9.9978 11.712 8.6508 13.031 8.1707C13.1553 8.1254 13.2926 8.1314 13.4125 8.1873C13.5325 8.2433 13.6253 8.3445 13.6706 8.4689C13.6708 8.4695 13.671 8.4702 13.6713 8.4708C13.7165 8.5952 13.7105 8.7324 13.6546 8.8523C13.5987 8.9723 13.4974 9.0651 13.373 9.1104C12.0633 9.587 8.46184 10.8979 8.46184 10.8979C8.46184 10.8979 7.77404 11.1483 7.34194 11.3055ZM10.6455 2.8444C10.7421 2.6896 10.7467 2.4944 10.6574 2.3352C10.5535 2.1646 10.4999 1.9635 10.4999 1.75C10.4999 1.0601 11.06 0.5 11.7499 0.5C12.4398 0.5 12.9999 1.0601 12.9999 1.75C12.9999 2.4399 12.4398 3 11.7499 3C11.7497 3 11.7496 3 11.7494 3C11.611 3.0001 11.4825 3.0717 11.4096 3.1894C11.0544 3.7616 10.6867 4.3263 10.3212 4.8923C10.2796 4.9574 10.2792 5.0408 10.3202 5.1063C10.4346 5.2939 10.4999 5.5144 10.4999 5.75C10.4999 6.4399 9.93984 7 9.24994 7C8.56004 7 7.99994 6.4399 7.99994 5.75C7.99994 5.6487 8.01204 5.5501 8.03484 5.4558C8.05414 5.3781 8.02504 5.2965 7.96094 5.2485C7.60114 4.9779 6.46364 4.1264 6.10814 3.8602C6.04444 3.8127 5.95884 3.8074 5.88974 3.8466C5.71284 3.9448 5.50904 4 5.29254 4C5.13934 4 4.99264 3.9724 4.85694 3.9219C4.78364 3.8936 4.70044 3.9112 4.64494 3.9669C4.42324 4.187 3.87154 4.7396 3.56784 5.0438C3.44944 5.1629 3.39874 5.3334 3.43284 5.4977C3.45324 5.5787 3.46214 5.6633 3.46214 5.75C3.46214 6.4399 2.90204 7 2.21214 7C1.52224 7 0.962142 6.4399 0.962142 5.75C0.962142 5.0601 1.52224 4.5 2.21214 4.5C2.32454 4.5 2.43354 4.5149 2.53724 4.5428C2.70844 4.5895 2.89154 4.5407 3.01674 4.415C3.36774 4.073 3.71954 3.7317 4.07084 3.39C4.12764 3.3344 4.14614 3.2506 4.11814 3.1763C4.06894 3.0435 4.04254 2.8998 4.04254 2.75C4.04254 2.0601 4.60264 1.5 5.29254 1.5C5.98244 1.5 6.54254 2.0601 6.54254 2.75C6.54254 2.8416 6.53264 2.9309 6.51394 3.0169C6.49684 3.0933 6.52624 3.1727 6.58894 3.2196C6.94864 3.4901 8.10804 4.358 8.46344 4.6241C8.52574 4.6706 8.60924 4.6768 8.67764 4.64C8.84874 4.5501 9.04354 4.5 9.24994 4.5C9.31934 4.5 9.38734 4.5057 9.45364 4.5166C9.53304 4.5298 9.61274 4.494 9.65544 4.4257C9.84974 4.1166 10.3744 3.2779 10.6455 2.8444Z" fill="#313E75"/>
</g>
</svg>
