<svg width="14" height="14" viewBox="0 0 14 14" fill="none" xmlns="http://www.w3.org/2000/svg">
<mask id="mask0" mask-type="alpha" maskUnits="userSpaceOnUse" x="0" y="0" width="14" height="14">
<rect width="14" height="14" fill="white"/>
</mask>
<g mask="url(#mask0)">
<path fill-rule="evenodd" clip-rule="evenodd" d="M0.827205 10.7116L0.851605 10.7135L0.875905 10.7166L0.900005 10.7209L0.924005 10.7264L0.947805 10.7331L0.971305 10.741L6.8304 12.8736L6.8512 12.8806L6.8723 12.8868L6.8935 12.892L6.9149 12.8962L6.9364 12.8995L6.958 12.9018L6.9797 12.9033L7.0014 12.9037L7.0231 12.9033L7.0448 12.9018L7.0664 12.8995L7.0879 12.8962L7.1093 12.892L7.1306 12.8868L7.1516 12.8806L7.1724 12.8736L13.0203 10.7451L13.0453 10.7367L13.0704 10.7297L13.0956 10.724L13.1208 10.7196L13.146 10.7165L13.1712 10.7147L13.1963 10.7141L13.2213 10.7148L13.2461 10.7167L13.2708 10.7197L13.2951 10.724L13.3192 10.7294L13.3429 10.7359L13.3663 10.7436L13.3893 10.7524L13.4118 10.7622L13.4338 10.7731L13.4553 10.7851L13.4762 10.7981L13.4965 10.812L13.5161 10.827L13.535 10.8429L13.5532 10.8598L13.5706 10.8776L13.5871 10.8963L13.6028 10.9159L13.6176 10.9364L13.6315 10.9577L13.6443 10.9799L13.6561 11.0028L13.6669 11.0266L13.6765 11.0511L13.6769 11.0521L13.6849 11.0758L13.6915 11.0997L13.697 11.1237L13.7011 11.1477L13.7041 11.1717L13.7058 11.1956L13.7064 11.2195L13.7057 11.2433L13.704 11.2669L13.701 11.2903L13.697 11.3135L13.6918 11.3364L13.6856 11.359L13.6783 11.3812L13.67 11.403L13.6606 11.4244L13.6502 11.4454L13.6389 11.4658L13.6265 11.4857L13.6132 11.505L13.599 11.5236L13.5838 11.5416L13.5678 11.5589L13.5509 11.5755L13.5331 11.5912L13.5144 11.6062L13.4949 11.6202L13.4747 11.6334L13.4536 11.6456L13.4318 11.6569L13.4092 11.6671L13.3858 11.6763L8.4633 13.4679L7.3434 13.8755L7.3018 13.8897L7.2597 13.9019L7.2172 13.9123L7.1744 13.9207L7.1314 13.9273L7.0882 13.9321L7.0448 13.9349L7.0014 13.9358L6.958 13.9349L6.9147 13.9321L6.8714 13.9273L6.8284 13.9207L6.7856 13.9123L6.7432 13.9019L6.7011 13.8897L6.6594 13.8755L0.628305 11.6804L0.604405 11.671L0.581205 11.6605L0.558905 11.649L0.537305 11.6365L0.516505 11.623L0.496505 11.6085L0.477405 11.5932L0.459205 11.5771L0.441805 11.5601L0.425405 11.5424L0.409905 11.524L0.395305 11.5049L0.381705 11.4851L0.369005 11.4647L0.357405 11.4438L0.346705 11.4224L0.337105 11.4004L0.328605 11.378L0.321105 11.3553L0.314705 11.3321L0.309505 11.3087L0.305305 11.2849L0.302305 11.2609L0.300505 11.2367L0.299805 11.2124L0.300405 11.1879L0.302205 11.1634L0.305205 11.1388L0.309505 11.1142L0.315005 11.0896L0.321905 11.0652L0.330405 11.0399L0.339505 11.0168L0.349605 10.9943L0.360805 10.9724L0.373005 10.9511L0.386305 10.9305L0.400505 10.9106L0.415605 10.8915L0.431605 10.8731L0.448505 10.8555L0.466305 10.8388L0.484905 10.8229L0.504205 10.8079L0.524305 10.7939L0.545205 10.7808L0.566705 10.7688L0.588905 10.7577L0.611705 10.7478L0.634805 10.739L0.658205 10.7315L0.681905 10.7251L0.705805 10.7199L0.729905 10.7158L0.754105 10.713L0.778405 10.7113L0.802805 10.7109L0.827205 10.7116ZM0.827205 8.1266L0.851605 8.1285L0.875905 8.1316L0.900005 8.1359L0.924005 8.1414L0.947805 8.1481L0.971305 8.156L6.8304 10.2886L6.8512 10.2956L6.8723 10.3018L6.8935 10.3069L6.9149 10.3112L6.9364 10.3145L6.958 10.3168L6.9797 10.3183L7.0014 10.3187L7.0231 10.3183L7.0448 10.3168L7.0664 10.3145L7.0879 10.3112L7.1093 10.3069L7.1306 10.3018L7.1516 10.2956L7.1724 10.2886L13.0203 8.1601L13.0453 8.1517L13.0704 8.1447L13.0956 8.139L13.1208 8.1346L13.146 8.1315L13.1712 8.1297L13.1963 8.1291L13.2213 8.1298L13.2461 8.1316L13.2708 8.1347L13.2951 8.139L13.3192 8.1444L13.3429 8.1509L13.3663 8.1586L13.3893 8.1674L13.4118 8.1772L13.4338 8.1881L13.4553 8.2001L13.4762 8.2131L13.4965 8.227L13.5161 8.242L13.535 8.2579L13.5532 8.2748L13.5706 8.2926L13.5871 8.3113L13.6028 8.3309L13.6176 8.3514L13.6315 8.3727L13.6443 8.3949L13.6561 8.4178L13.6669 8.4416L13.6765 8.4661L13.6769 8.4671L13.6849 8.4908L13.6915 8.5147L13.697 8.5387L13.7011 8.5627L13.7041 8.5867L13.7058 8.6106L13.7064 8.6345L13.7057 8.6583L13.704 8.6819L13.701 8.7053L13.697 8.7285L13.6918 8.7514L13.6856 8.774L13.6783 8.7962L13.67 8.818L13.6606 8.8394L13.6502 8.8604L13.6389 8.8808L13.6265 8.9007L13.6132 8.92L13.599 8.9386L13.5838 8.9566L13.5678 8.9739L13.5509 8.9905L13.5331 9.0062L13.5144 9.0212L13.4949 9.0352L13.4747 9.0484L13.4536 9.0606L13.4318 9.0719L13.4092 9.0821L13.3858 9.0913L8.4633 10.8829L7.3434 11.2905L7.3018 11.3046L7.2597 11.3169L7.2172 11.3273L7.1744 11.3357L7.1314 11.3423L7.0882 11.347L7.0448 11.3499L7.0014 11.3508L6.958 11.3499L6.9147 11.347L6.8715 11.3423L6.8284 11.3357L6.7856 11.3273L6.7432 11.3169L6.7011 11.3046L6.6594 11.2905L5.5395 10.8829L0.628305 9.0954L0.605305 9.0863L0.582805 9.0762L0.560905 9.065L0.539705 9.0528L0.519205 9.0396L0.499305 9.0255L0.480205 9.0104L0.461905 8.9944L0.444305 8.9775L0.427605 8.9598L0.411805 8.9412L0.396805 8.9219L0.382805 8.9018L0.369805 8.881L0.357705 8.8595L0.346705 8.8374L0.336805 8.8147L0.328105 8.7916L0.320505 8.7683L0.314205 8.7446L0.309005 8.7208L0.304905 8.6967L0.302105 8.6725L0.300405 8.6482L0.300005 8.6239L0.300705 8.5996L0.302605 8.5752L0.305705 8.551L0.310005 8.5269L0.315505 8.503L0.322205 8.4793L0.330405 8.4549L0.339505 8.4318L0.349605 8.4093L0.360805 8.3873L0.373005 8.3661L0.386305 8.3455L0.400505 8.3256L0.415605 8.3064L0.431605 8.2881L0.448505 8.2705L0.466305 8.2538L0.484905 8.2379L0.504205 8.2229L0.524305 8.2089L0.545205 8.1958L0.566705 8.1837L0.588905 8.1727L0.611705 8.1628L0.634805 8.154L0.658205 8.1465L0.681905 8.1401L0.705805 8.1349L0.729905 8.1308L0.754105 8.128L0.778405 8.1263L0.802805 8.1259L0.827205 8.1266ZM5.5014 2.6817L5.5262 2.6823L5.5508 2.6842L5.5753 2.6872L5.5994 2.6914L5.6233 2.6968L5.6468 2.7033L5.67 2.711L5.6928 2.7198L5.7151 2.7297L5.7369 2.7406L5.7581 2.7526L5.7788 2.7657L5.7989 2.7798L5.81831 2.7949L5.837 2.8111L5.855 2.8282L5.8721 2.8461L5.8882 2.8648L5.9033 2.8842L5.9174 2.9043L5.9305 2.925L5.9425 2.9463L5.9535 2.9681L5.9634 2.9904L5.97211 3.0131L5.9798 3.0363L5.9863 3.0598L5.9917 3.0837L5.9959 3.1079L5.999 3.1323L6.0008 3.1569L6.0014 3.1817V7.5451L6.0008 7.5699L5.999 7.5946L5.9959 7.619L5.9917 7.6431L5.9863 7.667L5.9798 7.6906L5.97211 7.7137L5.9634 7.7365L5.9535 7.7588L5.9425 7.7806L5.9305 7.8018L5.9174 7.8225L5.9033 7.8426L5.8882 7.862L5.8721 7.8807L5.855 7.8987L5.837 7.9158L5.81831 7.9319L5.7989 7.947L5.7788 7.9611L5.7581 7.9742L5.7369 7.9862L5.7151 7.9972L5.6928 8.0071L5.67 8.0159L5.6468 8.0235L5.6233 8.0301L5.5994 8.0354L5.5753 8.0397L5.5508 8.0427L5.5262 8.0445L5.5014 8.0451L5.4766 8.0445L5.452 8.0427L5.4276 8.0397L5.4034 8.0354L5.3795 8.0301L5.356 8.0235L5.3328 8.0159L5.3101 8.0071L5.2878 7.9972L5.266 7.9862L5.2447 7.9742L5.224 7.9611L5.2039 7.947L5.1845 7.9319L5.1658 7.9158L5.1479 7.8987L5.1308 7.8807L5.1146 7.862L5.0995 7.8426L5.0854 7.8225L5.0723 7.8018L5.0603 7.7806L5.0494 7.7588L5.0395 7.7365L5.0307 7.7137L5.023 7.6906L5.0165 7.667L5.0111 7.6431L5.0069 7.619L5.0039 7.5946L5.002 7.5699L5.0014 7.5451V3.1817L5.002 3.1569L5.0039 3.1323L5.0069 3.1079L5.0111 3.0837L5.0165 3.0598L5.023 3.0363L5.0307 3.0131L5.0395 2.9904L5.0494 2.9681L5.0603 2.9463L5.0723 2.925L5.0854 2.9043L5.0995 2.8842L5.1146 2.8648L5.1308 2.8461L5.1479 2.8282L5.1658 2.8111L5.1845 2.7949L5.2039 2.7798L5.224 2.7657L5.2447 2.7526L5.266 2.7406L5.2878 2.7297L5.3101 2.7198L5.3328 2.711L5.356 2.7033L5.3795 2.6968L5.4034 2.6914L5.4276 2.6872L5.452 2.6842L5.4766 2.6823L5.5014 2.6817ZM11.5014 4.0226L11.5262 4.0232L11.5508 4.025L11.5753 4.0281L11.5994 4.0323L11.6233 4.0377L11.6468 4.0442L11.67 4.0518L11.6928 4.0606L11.7151 4.0705L11.7369 4.0815L11.7581 4.0935L11.7788 4.1066L11.7989 4.1207L11.8183 4.1358L11.837 4.1519L11.855 4.169L11.8721 4.187L11.8882 4.2057L11.9033 4.2251L11.9174 4.2452L11.9305 4.2659L11.9425 4.2871L11.9535 4.3089L11.9634 4.3312L11.9721 4.354L11.9798 4.3772L11.9863 4.4007L11.9917 4.4246L11.9959 4.4487L11.999 4.4732L12.0008 4.4978L12.0014 4.5226V7.5451L12.0008 7.5699L11.999 7.5946L11.9959 7.619L11.9917 7.6431L11.9863 7.667L11.9798 7.6906L11.9721 7.7137L11.9634 7.7365L11.9535 7.7588L11.9425 7.7806L11.9305 7.8018L11.9174 7.8225L11.9033 7.8426L11.8882 7.862L11.8721 7.8807L11.855 7.8987L11.837 7.9158L11.8183 7.9319L11.7989 7.947L11.7788 7.9611L11.7581 7.9742L11.7369 7.9862L11.7151 7.9972L11.6928 8.0071L11.67 8.0159L11.6468 8.0235L11.6233 8.0301L11.5994 8.0354L11.5753 8.0397L11.5508 8.0427L11.5262 8.0445L11.5014 8.0451L11.4766 8.0445L11.452 8.0427L11.4276 8.0397L11.4034 8.0354L11.3795 8.0301L11.356 8.0235L11.3328 8.0159L11.3101 8.0071L11.2878 7.9972L11.266 7.9862L11.2447 7.9742L11.224 7.9611L11.2039 7.947L11.1845 7.9319L11.1658 7.9158L11.1479 7.8987L11.1308 7.8807L11.1147 7.862L11.0995 7.8426L11.0854 7.8225L11.0723 7.8018L11.0603 7.7806L11.0494 7.7588L11.0395 7.7365L11.0307 7.7137L11.023 7.6906L11.0165 7.667L11.0111 7.6431L11.0069 7.619L11.0039 7.5946L11.002 7.5699L11.0014 7.5451V4.5226L11.002 4.4978L11.0039 4.4732L11.0069 4.4487L11.0111 4.4246L11.0165 4.4007L11.023 4.3772L11.0307 4.354L11.0395 4.3312L11.0494 4.3089L11.0603 4.2871L11.0723 4.2659L11.0854 4.2452L11.0995 4.2251L11.1147 4.2057L11.1308 4.187L11.1479 4.169L11.1658 4.1519L11.1845 4.1358L11.2039 4.1207L11.224 4.1066L11.2447 4.0935L11.266 4.0815L11.2878 4.0705L11.3101 4.0606L11.3328 4.0518L11.356 4.0442L11.3795 4.0377L11.4034 4.0323L11.4276 4.0281L11.452 4.025L11.4766 4.0232L11.5014 4.0226ZM2.5014 0L2.5262 0.0006L2.5508 0.0024L2.5753 0.0055L2.5994 0.0097L2.6233 0.0151L2.6468 0.0216L2.67 0.0293L2.6928 0.0381L2.7151 0.0479L2.7369 0.0589L2.7581 0.0709L2.7788 0.084L2.7989 0.0981L2.8183 0.1132L2.837 0.1294L2.855 0.1464L2.8721 0.1644L2.8882 0.1831L2.9033 0.2025L2.9174 0.2226L2.9305 0.2433L2.9425 0.2646L2.9535 0.2864L2.9634 0.3087L2.9721 0.3314L2.9798 0.3546L2.9863 0.3781L2.9917 0.402L2.9959 0.4262L2.999 0.4506L3.0008 0.4752L3.0014 0.5V7.5451L3.0008 7.5699L2.999 7.5946L2.9959 7.619L2.9917 7.6431L2.9863 7.667L2.9798 7.6906L2.9721 7.7137L2.9634 7.7365L2.9535 7.7588L2.9425 7.7806L2.9305 7.8019L2.9174 7.8225L2.9033 7.8426L2.8882 7.862L2.8721 7.8807L2.855 7.8987L2.837 7.9158L2.8183 7.9319L2.7989 7.947L2.7788 7.9611L2.7581 7.9742L2.7369 7.9862L2.7151 7.9972L2.6928 8.0071L2.67 8.0159L2.6468 8.0235L2.6233 8.0301L2.5994 8.0354L2.5753 8.0397L2.5508 8.0427L2.5262 8.0445L2.5014 8.0451L2.4766 8.0445L2.452 8.0427L2.4276 8.0397L2.4034 8.0354L2.3795 8.0301L2.356 8.0235L2.3328 8.0159L2.3101 8.0071L2.2878 7.9972L2.266 7.9862L2.2447 7.9742L2.224 7.9611L2.2039 7.947L2.1845 7.9319L2.1658 7.9158L2.1479 7.8987L2.1308 7.8807L2.1147 7.862L2.0995 7.8426L2.0854 7.8225L2.0723 7.8019L2.0603 7.7806L2.0494 7.7588L2.0395 7.7365L2.0307 7.7137L2.023 7.6906L2.0165 7.667L2.0111 7.6431L2.0069 7.619L2.0039 7.5946L2.002 7.5699L2.0014 7.5451V0.5L2.002 0.4752L2.0039 0.4506L2.0069 0.4262L2.0111 0.402L2.0165 0.3781L2.023 0.3546L2.0307 0.3314L2.0395 0.3087L2.0494 0.2864L2.0603 0.2646L2.0723 0.2433L2.0854 0.2226L2.0995 0.2025L2.1147 0.1831L2.1308 0.1644L2.1479 0.1464L2.1658 0.1294L2.1845 0.1132L2.2039 0.0981L2.224 0.084L2.2447 0.0709L2.266 0.0589L2.2878 0.0479L2.3101 0.0381L2.3328 0.0293L2.356 0.0216L2.3795 0.0151L2.4034 0.0097L2.4276 0.0055L2.452 0.0024L2.4766 0.0006L2.5014 0ZM8.5014 1.3409L8.52621 1.3415L8.55081 1.3433L8.5753 1.3463L8.5994 1.3506L8.6233 1.3559L8.6468 1.3625L8.67 1.3701L8.6928 1.3789L8.71511 1.3888L8.73691 1.3998L8.7581 1.4118L8.7788 1.4249L8.7989 1.439L8.81831 1.4541L8.837 1.4702L8.85501 1.4873L8.8721 1.5053L8.8882 1.524L8.90331 1.5434L8.91741 1.5635L8.9305 1.5841L8.9425 1.6054L8.9535 1.6272L8.9634 1.6495L8.97211 1.6723L8.9798 1.6954L8.98631 1.719L8.9917 1.7429L8.9959 1.767L8.999 1.7914L9.0008 1.8161L9.0014 1.8409V7.5451L9.0008 7.5699L8.999 7.5946L8.9959 7.619L8.9917 7.6431L8.98631 7.667L8.9798 7.6906L8.97211 7.7137L8.9634 7.7365L8.9535 7.7588L8.9425 7.7806L8.9305 7.8019L8.91741 7.8225L8.90331 7.8426L8.8882 7.862L8.8721 7.8807L8.85501 7.8987L8.837 7.9158L8.81831 7.9319L8.7989 7.947L8.7788 7.9611L8.7581 7.9742L8.73691 7.9862L8.71511 7.9972L8.6928 8.0071L8.67 8.0159L8.6468 8.0235L8.6233 8.0301L8.5994 8.0354L8.5753 8.0397L8.55081 8.0427L8.52621 8.0445L8.5014 8.0451L8.4766 8.0445L8.452 8.0427L8.4276 8.0397L8.40341 8.0354L8.37951 8.0301L8.356 8.0235L8.3328 8.0159L8.3101 8.0071L8.2878 7.9972L8.266 7.9862L8.2447 7.9742L8.224 7.9611L8.2039 7.947L8.1845 7.9319L8.1658 7.9158L8.1479 7.8987L8.1308 7.8807L8.1147 7.862L8.0995 7.8426L8.0854 7.8225L8.0723 7.8019L8.0603 7.7806L8.0494 7.7588L8.0395 7.7365L8.0307 7.7137L8.023 7.6906L8.0165 7.667L8.0111 7.6431L8.0069 7.619L8.0039 7.5946L8.002 7.5699L8.0014 7.5451V1.8409L8.002 1.8161L8.0039 1.7914L8.0069 1.767L8.0111 1.7429L8.0165 1.719L8.023 1.6954L8.0307 1.6723L8.0395 1.6495L8.0494 1.6272L8.0603 1.6054L8.0724 1.5841L8.0854 1.5635L8.0995 1.5434L8.1147 1.524L8.1308 1.5053L8.1479 1.4873L8.1658 1.4702L8.1845 1.4541L8.2039 1.439L8.224 1.4249L8.2447 1.4118L8.266 1.3998L8.2878 1.3888L8.3101 1.3789L8.3328 1.3701L8.356 1.3625L8.37951 1.3559L8.40341 1.3506L8.4276 1.3463L8.452 1.3433L8.4766 1.3415L8.5014 1.3409Z" fill="#313E75"/>
</g>
</svg>
