<svg width="14" height="14" viewBox="0 0 14 14" fill="none" xmlns="http://www.w3.org/2000/svg">
<path fill-rule="evenodd" clip-rule="evenodd" d="M7 0C10.8634 0 14 3.1366 14 7C14 10.8634 10.8634 14 7 14C3.1366 14 0 10.8634 0 7C0 3.1366 3.1366 0 7 0ZM2.5774 3.2845C2.5373 3.244 2.4818 3.2225 2.4249 3.2255C2.3679 3.2285 2.315 3.2556 2.2793 3.3C1.4771 4.3206 1 5.605 1 7C1 10.3115 3.6885 13 7 13C8.395 13 9.6794 12.5229 10.699 11.7195C10.7432 11.6841 10.7702 11.6314 10.7733 11.5749C10.7763 11.5183 10.7552 11.4631 10.7151 11.423C9.665 10.3721 3.6279 4.335 2.5774 3.2845ZM11.4226 10.7155C11.4627 10.756 11.5182 10.7775 11.5751 10.7745C11.6321 10.7715 11.685 10.7444 11.7207 10.7C12.5229 9.6794 13 8.395 13 7C13 3.6885 10.3115 1 7 1C5.605 1 4.3206 1.4771 3.301 2.2805C3.2568 2.3159 3.2298 2.3686 3.2267 2.4251C3.2237 2.4817 3.2448 2.5369 3.2849 2.577C4.335 3.6279 10.3721 9.665 11.4226 10.7155Z" fill="#313E75"/>
</svg>
