<svg width="14" height="15" viewBox="0 0 14 15" fill="none" xmlns="http://www.w3.org/2000/svg">
<path fill-rule="evenodd" clip-rule="evenodd" d="M9.5 3.30646C9.5 3.41696 9.5895 3.50646 9.7 3.50646C10.3165 3.50646 12.1835 3.50646 12.8 3.50646C12.9105 3.50646 13 3.59596 13 3.70646C13 4.85556 13 10.6491 13 13.0065C13 13.2717 12.8946 13.5261 12.7071 13.7136C12.5196 13.9011 12.2652 14.0066 12 14.0065C9.74 14.0065 4.26 14.0065 2 14.0065C1.4477 14.0066 1.0001 13.5588 1 13.0065C1 10.4294 1 3.58356 1 1.00646C1.0001 0.454164 1.4477 0.00646409 2 0.00646409C3.9857 0.00646409 8.3193 0.00646409 9.3 0.00646409C9.4105 0.00646409 9.5 0.0959641 9.5 0.206464C9.5 0.822964 9.5 2.68996 9.5 3.30646ZM7.5 11.0065C7.6326 11.0065 7.7598 10.9538 7.8535 10.8601C7.9473 10.7663 8 10.6391 8 10.5065C8 10.3739 7.9473 10.2467 7.8535 10.1529C7.7598 10.0592 7.6326 10.0065 7.5 10.0065C6.542 10.0065 4.458 10.0065 3.5 10.0065C3.3674 10.0065 3.2402 10.0592 3.1465 10.1529C3.0527 10.2467 3 10.3739 3 10.5065C3 10.6391 3.0527 10.7663 3.1465 10.8601C3.2402 10.9538 3.3674 11.0065 3.5 11.0065C4.458 11.0065 6.542 11.0065 7.5 11.0065ZM10.5 8.50646C10.7761 8.50646 11 8.28256 11 8.00646C11 7.73036 10.7761 7.50646 10.5 7.50646C9.0636 7.50646 4.9364 7.50646 3.5 7.50646C3.2239 7.50646 3 7.73036 3 8.00646C3 8.28256 3.2239 8.50646 3.5 8.50646C4.9364 8.50646 9.0636 8.50646 10.5 8.50646ZM10.5 6.00646C10.7761 6.00646 11 5.78256 11 5.50646C11 5.23036 10.7761 5.00646 10.5 5.00646C9.0636 5.00646 4.9364 5.00646 3.5 5.00646C3.2239 5.00646 3 5.23036 3 5.50646C3 5.78256 3.2239 6.00646 3.5 6.00646C4.9364 6.00646 9.0636 6.00646 10.5 6.00646ZM12.8711 2.66726C12.927 2.72486 12.943 2.81046 12.9117 2.88446C12.8803 2.95836 12.8078 3.00646 12.7275 3.00646C12.0161 3.00646 10.7002 3.00646 10.2 3.00646C10.147 3.00646 10.0961 2.98536 10.0586 2.94786C10.0211 2.91036 10 2.85946 10 2.80646C10 2.29686 10 0.937964 10 0.199964C10 0.118564 10.0494 0.0452641 10.1249 0.0146641C10.2004 -0.0159359 10.2869 0.00226409 10.3436 0.0607641C10.9636 0.700264 12.2618 2.03896 12.8711 2.66726Z" fill="#242E59"/>
</svg>
