<svg width="14" height="14" viewBox="0 0 14 14" fill="none" xmlns="http://www.w3.org/2000/svg">
<path fill-rule="evenodd" clip-rule="evenodd" d="M7.70712 12.2929C7.70712 12.2929 7.53032 12.4697 7.35362 12.6464C7.25982 12.7402 7.13262 12.7929 7.00002 12.7929C6.86742 12.7929 6.74022 12.7402 6.64642 12.6464C6.46972 12.4697 6.29292 12.2929 6.29292 12.2929C6.29292 12.2929 2.82912 8.82907 1.69672 7.69667C1.50142 7.50137 1.50142 7.18487 1.69672 6.98957C1.69692 6.98937 1.69722 6.98907 1.69742 6.98887C1.89232 6.79397 2.20822 6.79397 2.40312 6.98887C3.39812 7.98387 6.19702 10.7828 6.85862 11.4444C6.89612 11.4819 6.94702 11.5029 7.00002 11.5029C7.05302 11.5029 7.10392 11.4819 7.14142 11.4444C7.80492 10.7809 10.6179 7.96787 11.6054 6.98037C11.7956 6.79017 12.1039 6.79017 12.2941 6.98037C12.2943 6.98057 12.2946 6.98087 12.2948 6.98107C12.4948 7.18107 12.4948 7.50517 12.2948 7.70517C11.1537 8.84627 7.70712 12.2929 7.70712 12.2929ZM7.70712 6.65687C7.70712 6.65687 7.53032 6.83357 7.35362 7.01037C7.25982 7.10417 7.13262 7.15687 7.00002 7.15687C6.86742 7.15687 6.74022 7.10417 6.64642 7.01037C6.46972 6.83357 6.29292 6.65687 6.29292 6.65687C6.29292 6.65687 2.82912 3.19307 1.69672 2.06067C1.50142 1.86537 1.50142 1.54877 1.69672 1.35357C1.69692 1.35327 1.69722 1.35307 1.69742 1.35277C1.89232 1.15797 2.20822 1.15797 2.40312 1.35277C3.39812 2.34777 6.19702 5.14667 6.85862 5.80827C6.89612 5.84577 6.94702 5.86687 7.00002 5.86687C7.05302 5.86687 7.10392 5.84577 7.14142 5.80827C7.80492 5.14487 10.6179 2.33177 11.6054 1.34437C11.7956 1.15417 12.1039 1.15417 12.2941 1.34437C12.2943 1.34457 12.2946 1.34477 12.2948 1.34507C12.4948 1.54497 12.4948 1.86917 12.2948 2.06907C11.1537 3.21027 7.70712 6.65687 7.70712 6.65687Z" fill="#313E75"/>
</svg>
