<svg width="14" height="14" viewBox="0 0 14 14" fill="none" xmlns="http://www.w3.org/2000/svg">
<path fill-rule="evenodd" clip-rule="evenodd" d="M6.29289 1.70709C6.29289 1.70709 6.46969 1.53029 6.64639 1.35359C6.74019 1.25979 6.86739 1.20709 6.99999 1.20709C7.13259 1.20709 7.25979 1.25979 7.35359 1.35359L12.3033 6.30329C12.4986 6.49859 12.4986 6.81509 12.3033 7.01039C12.3031 7.01059 12.3028 7.01089 12.3026 7.01109C12.1077 7.20599 11.7918 7.20599 11.5969 7.01109C10.6019 6.01609 7.80299 3.21719 7.14139 2.55559C7.10389 2.51809 7.05299 2.49709 6.99999 2.49709C6.94699 2.49709 6.89609 2.51809 6.85859 2.55559C6.19509 3.21909 3.38209 6.03209 2.39459 7.01959C2.20439 7.20979 1.89609 7.20979 1.70589 7.01959C1.70569 7.01939 1.70539 7.01909 1.70519 7.01889C1.50519 6.81889 1.50519 6.49479 1.70519 6.29479C2.84629 5.15369 6.29289 1.70709 6.29289 1.70709ZM6.29289 7.34309C6.29289 7.34309 6.46969 7.16639 6.64639 6.98959C6.74019 6.89579 6.86739 6.84309 6.99999 6.84309C7.13259 6.84309 7.25979 6.89579 7.35359 6.98959L12.3033 11.9393C12.4986 12.1346 12.4986 12.4512 12.3033 12.6464C12.3031 12.6467 12.3028 12.6469 12.3026 12.6472C12.1077 12.842 11.7918 12.842 11.5969 12.6472C10.6019 11.6522 7.80299 8.85329 7.14139 8.19169C7.10389 8.15419 7.05299 8.13309 6.99999 8.13309C6.94699 8.13309 6.89609 8.15419 6.85859 8.19169C6.19509 8.85509 3.38209 11.6682 2.39459 12.6556C2.20439 12.8458 1.89609 12.8458 1.70589 12.6556C1.70569 12.6554 1.70539 12.6552 1.70519 12.6549C1.50519 12.455 1.50519 12.1308 1.70519 11.9309C2.84629 10.7897 6.29289 7.34309 6.29289 7.34309Z" fill="#313E75"/>
</svg>
