<svg width="14" height="14" viewBox="0 0 14 14" fill="none" xmlns="http://www.w3.org/2000/svg">
<path fill-rule="evenodd" clip-rule="evenodd" d="M14 12.997C14 13.551 13.551 14 12.997 14C10.4186 14 3.5814 14 1.003 14C0.449 14 0.0001 13.551 0 12.997C0 12.2009 0 11.1215 0 10.499C0.0001 10.2234 0.2234 10 0.499 10C0.7766 10 1 10.2234 1 10.499C1 11.0408 1 11.903 1 12.4603C1 12.6034 1.0569 12.7407 1.1581 12.8419C1.2593 12.9431 1.3966 13 1.5397 13C3.533 13 10.467 13 12.4603 13C12.6034 13 12.7407 12.9431 12.8419 12.8419C12.9431 12.7407 13 12.6034 13 12.4603C13 11.9034 13 11.0418 13 10.5C13 10.3674 13.0527 10.2402 13.1464 10.1464C13.2402 10.0527 13.3674 10 13.5 10C13.6326 10 13.7598 10.0527 13.8536 10.1465C13.9473 10.2402 14 10.3674 14 10.5C14 11.1227 14 12.2013 14 12.997ZM6.1586 8.2799C6.2158 8.3371 6.3018 8.3542 6.3765 8.3232C6.4513 8.2923 6.5 8.2194 6.5 8.1385C6.5 6.6323 6.5 2.0294 6.5 0.5C6.5 0.2238 6.7239 0 7 0C7.2761 0 7.5 0.2238 7.5 0.5C7.5 2.0294 7.5 6.6323 7.5 8.1385C7.5 8.2194 7.5487 8.2923 7.6235 8.3232C7.6982 8.3542 7.7842 8.3371 7.8414 8.2799C8.1136 8.0077 8.4934 7.628 8.7685 7.3528C8.9633 7.158 9.2793 7.158 9.4742 7.3528C9.5686 7.4473 9.6213 7.5745 9.6213 7.7071C9.6213 7.8397 9.5686 7.9669 9.4749 8.0607C8.9315 8.6041 7.897 9.6386 7.3536 10.182C7.2598 10.2757 7.1326 10.3284 7 10.3284C6.8674 10.3284 6.7402 10.2757 6.6464 10.182C6.103 9.6386 5.0685 8.6041 4.5251 8.0607C4.4314 7.9669 4.3787 7.8397 4.3787 7.7071C4.3787 7.5745 4.4314 7.4473 4.5251 7.3536C4.6189 7.2598 4.7461 7.2071 4.8787 7.2071C5.0113 7.2071 5.1385 7.2598 5.2322 7.3536C5.5073 7.6286 5.8867 8.008 6.1586 8.2799Z" fill="#242E59"/>
</svg>
