<svg width="14" height="14" viewBox="0 0 14 14" fill="none" xmlns="http://www.w3.org/2000/svg">
<path fill-rule="evenodd" clip-rule="evenodd" d="M7.75 2.125C7.75 2.74632 8.25368 3.25 8.875 3.25C9.49632 3.25 10 2.74632 10 2.125C10 1.50368 9.49632 1 8.875 1C8.25368 1 7.75 1.50368 7.75 2.125ZM7.75 7C7.75 7.62132 8.25368 8.125 8.875 8.125C9.49632 8.125 10 7.62132 10 7C10 6.37868 9.49632 5.875 8.875 5.875C8.25368 5.875 7.75 6.37868 7.75 7ZM8.875 13C8.25368 13 7.75 12.4963 7.75 11.875C7.75 11.2537 8.25368 10.75 8.875 10.75C9.49632 10.75 10 11.2537 10 11.875C10 12.4963 9.49632 13 8.875 13ZM4 2.125C4 2.74632 4.50368 3.25 5.125 3.25C5.74632 3.25 6.25 2.74632 6.25 2.125C6.25 1.50368 5.74632 1 5.125 1C4.50368 1 4 1.50368 4 2.125ZM5.125 8.125C4.50368 8.125 4 7.62132 4 7C4 6.37868 4.50368 5.875 5.125 5.875C5.74632 5.875 6.25 6.37868 6.25 7C6.25 7.62132 5.74632 8.125 5.125 8.125ZM4 11.875C4 12.4963 4.50368 13 5.125 13C5.74632 13 6.25 12.4963 6.25 11.875C6.25 11.2537 5.74632 10.75 5.125 10.75C4.50368 10.75 4 11.2537 4 11.875Z" fill="#242E59"/>
</svg>
