<svg width="14" height="14" viewBox="0 0 14 14" fill="none" xmlns="http://www.w3.org/2000/svg">
<path fill-rule="evenodd" clip-rule="evenodd" d="M6.6569 2.3929C6.6569 2.3929 7.9142 1.1356 8.7491 0.3006C9.1499 -0.1002 9.7998 -0.1002 10.2006 0.3006C11.1383 1.2383 12.7612 2.8612 13.6989 3.7989C14.0997 4.1997 14.0997 4.8496 13.6989 5.2504C11.5277 7.4216 5.2322 13.717 5.2322 13.717C5.2322 13.717 5.2322 13.7171 5.2321 13.7171C5.0513 13.8979 4.8061 13.9995 4.5504 13.9995C3.6542 13.9995 1.4841 13.9995 0.5 13.9995C0.3674 13.9996 0.2402 13.9468 0.1464 13.8531C0.0527001 13.7593 -9.98582e-05 13.6321 1.41787e-07 13.4995C1.41787e-07 12.5154 1.41787e-07 10.3453 1.41787e-07 9.4491C1.41787e-07 9.1934 0.1016 8.9482 0.2824 8.7674L6.6569 2.3929ZM4.3284 12.9995C4.461 12.9995 4.5882 12.9468 4.682 12.8531C5.4201 12.1149 8.741 8.794 9.8388 7.6962C9.9326 7.6024 9.9853 7.4752 9.9853 7.3426C9.9853 7.21 9.9326 7.0828 9.8388 6.9891C9.1614 6.3117 7.6878 4.8381 7.0104 4.1607C6.9167 4.0669 6.7895 4.0142 6.6569 4.0142C6.5243 4.0142 6.3971 4.0669 6.3033 4.1607C5.2055 5.2585 1.8846 8.5794 1.1464 9.3175C1.0527 9.4113 1 9.5385 1 9.6711C1 10.2997 1 12.1805 1 12.7995C1 12.91 1.0895 12.9995 1.2 12.9995C1.819 12.9995 3.6998 12.9995 4.3284 12.9995ZM7.7175 2.7464C7.6237 2.8402 7.5711 2.9674 7.5711 3.1C7.5711 3.2326 7.6238 3.3598 7.7175 3.4536C8.3949 4.131 9.8685 5.6046 10.5459 6.282C10.6397 6.3757 10.7669 6.4284 10.8995 6.4284C11.0321 6.4284 11.1593 6.3758 11.2531 6.282C11.643 5.892 12.2669 5.2682 12.6568 4.8782C12.7506 4.7844 12.8033 4.6572 12.8033 4.5246C12.8033 4.392 12.7506 4.2648 12.6568 4.1711C11.9794 3.4937 10.5058 2.0201 9.8284 1.3427C9.7347 1.2489 9.6075 1.1962 9.4749 1.1962C9.3423 1.1962 9.2151 1.2489 9.1213 1.3427C8.7313 1.7326 8.1075 2.3565 7.7175 2.7464Z" fill="#242E59"/>
</svg>
