<svg width="14" height="12" viewBox="0 0 14 12" fill="none" xmlns="http://www.w3.org/2000/svg">
<path fill-rule="evenodd" clip-rule="evenodd" d="M12.5016 1.6H1.49852L6.61336 6.22925C6.82177 6.41787 7.17837 6.41787 7.38677 6.22925L12.5016 1.6ZM1 2.49756V10.4H13V2.49768L8.05781 6.97067C7.46847 7.50406 6.53167 7.50406 5.94233 6.97067L1 2.49756ZM0 1.6C0 0.992487 0.447715 0.5 1 0.5H13C13.5523 0.5 14 0.992487 14 1.6V10.4C14 11.0075 13.5523 11.5 13 11.5H1C0.447716 11.5 0 11.0075 0 10.4V1.6Z" fill="#313E75"/>
</svg>
