<svg width="14" height="14" viewBox="0 0 14 14" fill="none" xmlns="http://www.w3.org/2000/svg">
<path fill-rule="evenodd" clip-rule="evenodd" d="M12.5016 2.6H1.49852L6.61336 7.22925C6.82177 7.41787 7.17837 7.41787 7.38677 7.22925L12.5016 2.6ZM1 3.49756V11.4H13V3.49768L8.05781 7.97067C7.46847 8.50406 6.53167 8.50406 5.94233 7.97067L1 3.49756ZM0 2.6C0 1.99249 0.447715 1.5 1 1.5H13C13.5523 1.5 14 1.99249 14 2.6V11.4C14 12.0075 13.5523 12.5 13 12.5H1C0.447716 12.5 0 12.0075 0 11.4V2.6Z" fill="#242E59"/>
</svg>
