<svg width="14" height="14" viewBox="0 0 14 14" fill="none" xmlns="http://www.w3.org/2000/svg">
<path fill-rule="evenodd" clip-rule="evenodd" d="M7 0C10.8634 0 14 3.1366 14 7C14 10.8634 10.8634 14 7 14C3.1366 14 0 10.8634 0 7C0 3.1366 3.1366 0 7 0ZM7 1C10.3115 1 13 3.6885 13 7C13 10.3115 10.3115 13 7 13C3.6885 13 1 10.3115 1 7C1 3.6885 3.6885 1 7 1ZM4.1808 4.1624C4.3709 3.9722 4.6793 3.9722 4.8695 4.1624C5.3383 4.6311 6.173 5.4658 6.6465 5.9393C6.8417 6.1346 7.1583 6.1346 7.3535 5.9393C7.827 5.4658 8.6617 4.6311 9.1305 4.1624C9.3207 3.9722 9.6291 3.9722 9.8192 4.1624C9.8195 4.1626 9.8197 4.1629 9.8199 4.1631C9.916 4.2591 9.9699 4.3893 9.9699 4.5251C9.9699 4.6609 9.916 4.7912 9.8199 4.8872C9.3481 5.359 8.5283 6.1789 8.0607 6.6465C7.8654 6.8417 7.8654 7.1583 8.0607 7.3535C8.5311 7.824 9.358 8.6509 9.8284 9.1213C10.0237 9.3166 10.0237 9.6332 9.8284 9.8284C9.6332 10.0237 9.3166 10.0237 9.1213 9.8284C8.6509 9.358 7.824 8.5311 7.3535 8.0607C7.1583 7.8654 6.8417 7.8654 6.6465 8.0607C6.176 8.5311 5.3491 9.358 4.8787 9.8284C4.6834 10.0237 4.3668 10.0237 4.1716 9.8284C3.9763 9.6332 3.9763 9.3166 4.1716 9.1213C4.642 8.6509 5.4689 7.824 5.9393 7.3535C6.1346 7.1583 6.1346 6.8417 5.9393 6.6465C5.4717 6.1789 4.6519 5.359 4.1801 4.8872C4.084 4.7912 4.0301 4.6609 4.0301 4.5251C4.0301 4.3893 4.084 4.2591 4.1801 4.1631C4.1803 4.1629 4.1805 4.1626 4.1808 4.1624Z" fill="#242E59"/>
</svg>
