<svg width="14" height="14" viewBox="0 0 14 14" fill="none" xmlns="http://www.w3.org/2000/svg">
<path fill-rule="evenodd" clip-rule="evenodd" d="M7 0C10.8634 0 14 3.1366 14 7C14 10.8634 10.8634 14 7 14C3.1366 14 0 10.8634 0 7C0 3.1366 3.1366 0 7 0ZM4.1723 4.1709C4.2659 4.0773 4.3928 4.0247 4.5251 4.0247C4.6575 4.0247 4.7844 4.0773 4.878 4.1709C5.4314 4.7243 6.4794 5.7723 6.8586 6.1515C6.9367 6.2296 7.0633 6.2296 7.1414 6.1515C7.5206 5.7723 8.5686 4.7243 9.122 4.1709C9.2156 4.0773 9.3425 4.0247 9.4749 4.0247C9.6072 4.0247 9.7341 4.0773 9.8277 4.1709C9.8282 4.1713 9.8287 4.1718 9.8291 4.1723C9.9227 4.2659 9.9753 4.3928 9.9753 4.5251C9.9753 4.6575 9.9227 4.7844 9.8291 4.878C9.2757 5.4314 8.2277 6.4794 7.8485 6.8586C7.7704 6.9367 7.7704 7.0633 7.8485 7.1414C8.2277 7.5206 9.2757 8.5686 9.8291 9.122C9.9227 9.2156 9.9753 9.3425 9.9753 9.4749C9.9753 9.6072 9.9227 9.7341 9.8291 9.8277C9.8287 9.8282 9.8282 9.8287 9.8277 9.8291C9.7341 9.9227 9.6072 9.9753 9.4749 9.9753C9.3425 9.9753 9.2156 9.9227 9.122 9.8291C8.5686 9.2757 7.5206 8.2277 7.1414 7.8485C7.0633 7.7704 6.9367 7.7704 6.8586 7.8485C6.4794 8.2277 5.4314 9.2757 4.878 9.8291C4.7844 9.9227 4.6575 9.9753 4.5251 9.9753C4.3928 9.9753 4.2659 9.9227 4.1723 9.8291C4.1718 9.8287 4.1713 9.8282 4.1709 9.8277C4.0773 9.7341 4.0247 9.6072 4.0247 9.4749C4.0247 9.3425 4.0773 9.2156 4.1709 9.122C4.7243 8.5686 5.7723 7.5206 6.1515 7.1414C6.2296 7.0633 6.2296 6.9367 6.1515 6.8586C5.7723 6.4794 4.7243 5.4314 4.1709 4.878C4.0773 4.7844 4.0247 4.6575 4.0247 4.5251C4.0247 4.3928 4.0773 4.2659 4.1709 4.1723C4.1713 4.1718 4.1718 4.1713 4.1723 4.1709Z" fill="#242E59"/>
</svg>
