<svg width="16" height="16" viewBox="0 0 16 16" fill="none" xmlns="http://www.w3.org/2000/svg">
<path fill-rule="evenodd" clip-rule="evenodd" d="M4 0C1.79086 0 0 1.79086 0 4V12C0 14.2091 1.79086 16 4 16H12C14.2091 16 16 14.2091 16 12V4C16 1.79086 14.2091 0 12 0H4ZM4.14286 1.14286C2.486 1.14286 1.14286 2.486 1.14286 4.14286V11.8571C1.14286 13.514 2.486 14.8571 4.14286 14.8571H11.8571C13.514 14.8571 14.8571 13.514 14.8571 11.8571V4.14286C14.8571 2.486 13.514 1.14286 11.8571 1.14286H4.14286ZM4.16737 10.1183C3.94421 9.89519 3.94421 9.53338 4.16737 9.31022L5.47759 8L4.16737 6.68978C3.94421 6.46662 3.94421 6.10481 4.16737 5.88165C4.39052 5.6585 4.75233 5.6585 4.97549 5.88165L6.68978 7.59594C6.91293 7.8191 6.91293 8.1809 6.68978 8.40406L4.97549 10.1183C4.75233 10.3415 4.39052 10.3415 4.16737 10.1183ZM8 10.9286C7.72386 10.9286 7.5 11.1524 7.5 11.4286C7.5 11.7047 7.72386 11.9286 8 11.9286H11.4286C11.7047 11.9286 11.9286 11.7047 11.9286 11.4286C11.9286 11.1524 11.7047 10.9286 11.4286 10.9286H8Z" fill="#313E75"/>
</svg>
