<svg xmlns="http://www.w3.org/2000/svg" viewBox="0 0 14 14"><defs><style>.cls-1{fill:#313e75;fill-rule:evenodd;}</style></defs><g id="图层_2" data-name="图层 2"><g id="图层_1-2" data-name="图层 1"><path class="cls-1" d="M4,0A4,4,0,0,0,0,4v6a4,4,0,0,0,4,4h6a4,4,0,0,0,4-4V4a4,4,0,0,0-4-4ZM4,1A3,3,0,0,0,1,4v6a3,3,0,0,0,3,3h6a3,3,0,0,0,3-3V4a3,3,0,0,0-3-3Zm.65,3.65a.48.48,0,0,1,.51-.12l6,2a.49.49,0,0,1,0,.94L8.4,8.4l-.93,2.76a.49.49,0,0,1-.94,0l-2-6A.48.48,0,0,1,4.65,4.65ZM5.79,5.79,7,9.42l.53-1.58a.48.48,0,0,1,.31-.31L9.42,7ZM3.94,3.94a1.49,1.49,0,0,1,2.12,0,.5.5,0,0,0,.71-.71A2.5,2.5,0,0,0,3.23,6.77a.5.5,0,0,0,.71-.71A1.49,1.49,0,0,1,3.94,3.94Z"/></g></g></svg>