<svg width="14" height="14" viewBox="0 0 14 14" fill="none" xmlns="http://www.w3.org/2000/svg">
<path fill-rule="evenodd" clip-rule="evenodd" d="M3.5 2C3.5 1.72386 3.72386 1.5 4 1.5H9.25C10.999 1.5 12.5 2.79937 12.5 4.5C12.5 6.20063 10.999 7.5 9.25 7.5H5C4.72386 7.5 4.5 7.27614 4.5 7C4.5 6.72386 4.72386 6.5 5 6.5H9.25C10.5386 6.5 11.5 5.56079 11.5 4.5C11.5 3.43921 10.5386 2.5 9.25 2.5H4C3.72386 2.5 3.5 2.27614 3.5 2Z" fill="#313E75"/>
<path fill-rule="evenodd" clip-rule="evenodd" d="M9.5 7C9.5 6.72386 9.27614 6.5 9 6.5H4.75C3.00099 6.5 1.5 7.79937 1.5 9.5C1.5 11.2006 3.00099 12.5 4.75 12.5H10C10.2761 12.5 10.5 12.2761 10.5 12C10.5 11.7239 10.2761 11.5 10 11.5H4.75C3.46145 11.5 2.5 10.5608 2.5 9.5C2.5 8.43921 3.46145 7.5 4.75 7.5H9C9.27614 7.5 9.5 7.27614 9.5 7Z" fill="#313E75"/>
<path fill-rule="evenodd" clip-rule="evenodd" d="M2 3C2.55228 3 3 2.55228 3 2C3 1.44772 2.55228 1 2 1C1.44772 1 1 1.44772 1 2C1 2.55228 1.44772 3 2 3ZM2 4C3.10457 4 4 3.10457 4 2C4 0.895431 3.10457 0 2 0C0.895431 0 0 0.895431 0 2C0 3.10457 0.895431 4 2 4Z" fill="#313E75"/>
<path fill-rule="evenodd" clip-rule="evenodd" d="M12 13C12.5523 13 13 12.5523 13 12C13 11.4477 12.5523 11 12 11C11.4477 11 11 11.4477 11 12C11 12.5523 11.4477 13 12 13ZM12 14C13.1046 14 14 13.1046 14 12C14 10.8954 13.1046 10 12 10C10.8954 10 10 10.8954 10 12C10 13.1046 10.8954 14 12 14Z" fill="#313E75"/>
</svg>
