<svg width="14" height="14" viewBox="0 0 14 14" fill="none" xmlns="http://www.w3.org/2000/svg">
<path fill-rule="evenodd" clip-rule="evenodd" d="M12 0.5C12 0.223858 11.7761 0 11.5 0C11.2239 0 11 0.223858 11 0.5V11.5C11 11.7761 11.2239 12 11.5 12C11.7761 12 12 11.7761 12 11.5V0.5ZM2.5 2C2.77614 2 3 2.22386 3 2.5V11.5C3 11.7761 2.77614 12 2.5 12C2.22386 12 2 11.7761 2 11.5V2.5C2 2.22386 2.22386 2 2.5 2ZM13.5257 13.0007L13.5511 13.0026L13.5761 13.0058L13.6008 13.0102L13.625 13.0157L13.6487 13.0225L13.6719 13.0303L13.6946 13.0393L13.7168 13.0493L13.7383 13.0603L13.7593 13.0724L13.7796 13.0854L13.7992 13.0993L13.818 13.1142L13.8362 13.1299L13.8536 13.1464L13.8701 13.1638L13.8858 13.182L13.9007 13.2008L13.9146 13.2204L13.9276 13.2407L13.9397 13.2617L13.9507 13.2832L13.9607 13.3054L13.9697 13.3281L13.9775 13.3513L13.9843 13.375L13.9898 13.3992L13.9942 13.4239L13.9974 13.4489L13.9993 13.4743L14 13.5L13.9993 13.5257L13.9974 13.5511L13.9942 13.5761L13.9898 13.6008L13.9843 13.625L13.9775 13.6487L13.9697 13.6719L13.9607 13.6946L13.9507 13.7168L13.9397 13.7383L13.9276 13.7593L13.9146 13.7796L13.9007 13.7992L13.8858 13.818L13.8701 13.8362L13.8536 13.8536L13.8362 13.8701L13.818 13.8858L13.7992 13.9007L13.7796 13.9146L13.7593 13.9276L13.7383 13.9397L13.7168 13.9507L13.6946 13.9607L13.6719 13.9697L13.6487 13.9775L13.625 13.9843L13.6008 13.9898L13.5761 13.9942L13.5511 13.9974L13.5257 13.9993L13.5 14H0.5L0.4743 13.9993L0.4489 13.9974L0.4239 13.9942L0.3992 13.9898L0.375 13.9843L0.3513 13.9775L0.3281 13.9697L0.3054 13.9607L0.2832 13.9507L0.2617 13.9397L0.2407 13.9276L0.2204 13.9146L0.2008 13.9007L0.182 13.8858L0.1638 13.8701L0.1464 13.8536L0.1299 13.8362L0.1142 13.818L0.0993 13.7992L0.0854 13.7796L0.0724 13.7593L0.0603 13.7383L0.0493 13.7168L0.0393 13.6946L0.0303 13.6719L0.0225 13.6487L0.0157 13.625L0.0102 13.6008L0.0058 13.5761L0.0026 13.5511L0.0007 13.5257L0 13.5L0.0007 13.4743L0.0026 13.4489L0.0058 13.4239L0.0102 13.3992L0.0157 13.375L0.0225 13.3513L0.0303 13.3281L0.0393 13.3054L0.0493 13.2832L0.0603 13.2617L0.0724 13.2407L0.0854 13.2204L0.0993 13.2008L0.1142 13.182L0.1299 13.1638L0.1464 13.1464L0.1638 13.1299L0.182 13.1142L0.2008 13.0993L0.2204 13.0854L0.2407 13.0724L0.2617 13.0603L0.2832 13.0493L0.3054 13.0393L0.3281 13.0303L0.3513 13.0225L0.375 13.0157L0.3992 13.0102L0.4239 13.0058L0.4489 13.0026L0.4743 13.0007L0.5 13H13.5L13.5257 13.0007ZM5.5 5C5.77614 5 6 5.22386 6 5.5V11.5C6 11.7761 5.77614 12 5.5 12C5.22386 12 5 11.7761 5 11.5V5.5C5 5.22386 5.22386 5 5.5 5ZM9 7.5C9 7.22386 8.77614 7 8.5 7C8.22386 7 8 7.22386 8 7.5V11.5C8 11.7761 8.22386 12 8.5 12C8.77614 12 9 11.7761 9 11.5V7.5Z" fill="#313E75"/>
</svg>
