<svg width="14" height="14" viewBox="0 0 14 14" fill="none" xmlns="http://www.w3.org/2000/svg">
<path fill-rule="evenodd" clip-rule="evenodd" d="M2.60112 12C2.26912 12 2.00012 11.73 2.00012 11.398V2.601C2.00012 2.269 2.26912 2 2.60112 2H8.39812C8.73012 2 9.00012 2.269 9.00012 2.601V4V8V11.209C9.00012 11.494 9.07312 11.761 9.19112 12H8.00012H2.60112ZM11.5001 4H10.2381C10.1061 4 10.0001 3.893 10.0001 3.761V2.5C10.0001 1.671 9.32812 1 8.50012 1H2.50012C1.67112 1 1.00012 1.671 1.00012 2.5V11.5C1.00012 12.328 1.67112 13 2.50012 13H11.5001C12.3281 13 13.0001 12.328 13.0001 11.5V5.5C13.0001 4.671 12.3281 4 11.5001 4ZM11.3555 12H10.6445C10.2895 12 10.0005 11.711 10.0005 11.355V5.645C10.0005 5.289 10.2895 5 10.6445 5H11.3555C11.7105 5 12.0005 5.289 12.0005 5.645V11.355C12.0005 11.711 11.7105 12 11.3555 12ZM3.5 3.5H7.5C7.776 3.5 8 3.724 8 4V6C8 6.276 7.776 6.5 7.5 6.5H3.5C3.224 6.5 3 6.276 3 6V4C3 3.724 3.224 3.5 3.5 3.5ZM3.8 5.7H7.2V4.3H3.8V5.7ZM7.5 7.5H3.5C3.224 7.5 3 7.724 3 8C3 8.276 3.224 8.5 3.5 8.5H7.5C7.776 8.5 8 8.276 8 8C8 7.724 7.776 7.5 7.5 7.5ZM3.5 9.5H7.5C7.776 9.5 8 9.724 8 10C8 10.276 7.776 10.5 7.5 10.5H3.5C3.224 10.5 3 10.276 3 10C3 9.724 3.224 9.5 3.5 9.5Z" fill="#242E59"/>
</svg>
