<svg width="14" height="14" viewBox="0 0 14 14" fill="none" xmlns="http://www.w3.org/2000/svg">
<path fill-rule="evenodd" clip-rule="evenodd" d="M2.601 12C2.269 12 2 11.73 2 11.398V2.601C2 2.269 2.269 2 2.601 2H8.398C8.73 2 9 2.269 9 2.601V4V8V11.209C9 11.494 9.073 11.761 9.191 12H8H2.601ZM11.5 4H10.238C10.106 4 10 3.893 10 3.761V2.5C10 1.671 9.328 1 8.5 1H2.5C1.671 1 1 1.671 1 2.5V11.5C1 12.328 1.671 13 2.5 13H11.5C12.328 13 13 12.328 13 11.5V5.5C13 4.671 12.328 4 11.5 4ZM11.3554 12H10.6444C10.2894 12 10.0004 11.711 10.0004 11.355V5.645C10.0004 5.289 10.2894 5 10.6444 5H11.3554C11.7104 5 12.0004 5.289 12.0004 5.645V11.355C12.0004 11.711 11.7104 12 11.3554 12ZM3.49988 3.5H7.49988C7.77588 3.5 7.99988 3.724 7.99988 4V6C7.99988 6.276 7.77588 6.5 7.49988 6.5H3.49988C3.22388 6.5 2.99988 6.276 2.99988 6V4C2.99988 3.724 3.22388 3.5 3.49988 3.5ZM3.79988 5.7H7.19988V4.3H3.79988V5.7ZM7.49988 7.5H3.49988C3.22388 7.5 2.99988 7.724 2.99988 8C2.99988 8.276 3.22388 8.5 3.49988 8.5H7.49988C7.77588 8.5 7.99988 8.276 7.99988 8C7.99988 7.724 7.77588 7.5 7.49988 7.5ZM3.49988 9.5H7.49988C7.77588 9.5 7.99988 9.724 7.99988 10C7.99988 10.276 7.77588 10.5 7.49988 10.5H3.49988C3.22388 10.5 2.99988 10.276 2.99988 10C2.99988 9.724 3.22388 9.5 3.49988 9.5Z" fill="#313E75"/>
</svg>
