<svg width="14" height="14" viewBox="0 0 14 14" fill="none" xmlns="http://www.w3.org/2000/svg">
<path fill-rule="evenodd" clip-rule="evenodd" d="M1.41787e-07 9.5C-9.98582e-05 9.3674 0.0527001 9.2402 0.1464 9.1465C0.2402 9.0527 0.3674 9 0.5 9C0.7761 9 1 9.2239 1 9.5C1 10.1262 1 11.1919 1 11.81C1 11.8909 1.0487 11.9639 1.1235 11.9948C1.1982 12.0258 1.2842 12.0087 1.3414 11.9515C2.0845 11.2084 3.8422 9.4507 4.5962 8.6967C4.7915 8.5014 5.108 8.5014 5.3033 8.6967C5.3035 8.6969 5.3038 8.6972 5.304 8.6974C5.4989 8.8923 5.4989 9.2082 5.304 9.4031C4.5504 10.1567 2.7919 11.9152 2.0485 12.6586C1.9913 12.7158 1.9742 12.8018 2.0052 12.8765C2.0361 12.9513 2.1091 13 2.19 13C2.8081 13 3.8738 13 4.5 13C4.7761 13 5 13.2239 5 13.5C5 13.6326 4.9473 13.7598 4.8535 13.8536C4.7598 13.9473 4.6326 14.0001 4.5 14C3.542 14 1.458 14 0.5 14C0.3674 14.0001 0.2402 13.9473 0.1464 13.8536C0.0527001 13.7598 -9.98582e-05 13.6326 1.41787e-07 13.5C1.41787e-07 12.542 1.41787e-07 10.458 1.41787e-07 9.5ZM14 13.5C14 13.6326 13.9473 13.7598 13.8536 13.8536C13.7598 13.9473 13.6326 14.0001 13.5 14C12.542 14 10.458 14 9.5 14C9.3674 14.0001 9.2402 13.9473 9.1465 13.8536C9.0527 13.7598 9 13.6326 9 13.5C9 13.2239 9.2239 13 9.5 13C10.1262 13 11.1919 13 11.81 13C11.8909 13 11.9639 12.9513 11.9948 12.8765C12.0258 12.8018 12.0087 12.7158 11.9515 12.6586C11.2081 11.9152 9.4496 10.1567 8.696 9.4031C8.5011 9.2082 8.5011 8.8923 8.696 8.6974C8.6962 8.6972 8.6965 8.6969 8.6967 8.6967C8.892 8.5014 9.2085 8.5014 9.4038 8.6967C10.1578 9.4507 11.9155 11.2084 12.6586 11.9515C12.7158 12.0087 12.8018 12.0258 12.8765 11.9948C12.9513 11.9639 13 11.8909 13 11.81C13 11.1919 13 10.1262 13 9.5C13 9.2239 13.2239 9 13.5 9C13.6326 9 13.7598 9.0527 13.8536 9.1465C13.9473 9.2402 14 9.3674 14 9.5C14 10.458 14 12.542 14 13.5ZM5 0.5C5 0.7761 4.7761 1 4.5 1C3.8738 1 2.8081 1 2.19 1C2.1091 1 2.0361 1.0487 2.0052 1.1235C1.9742 1.1982 1.9913 1.2842 2.0485 1.3414C2.7889 2.0818 4.5362 3.8291 5.2948 4.5877C5.4948 4.7877 5.4948 5.1118 5.2948 5.3118C5.2946 5.312 5.2943 5.3123 5.2941 5.3125C5.2028 5.4038 5.0789 5.4551 4.9497 5.4551C4.8206 5.4551 4.6967 5.4038 4.6054 5.3125C3.8566 4.5637 2.0876 2.7947 1.3414 2.0485C1.2842 1.9913 1.1982 1.9742 1.1235 2.0052C1.0487 2.0361 1 2.1091 1 2.19C1 2.8081 1 3.8738 1 4.5C1 4.7761 0.7761 5 0.5 5C0.3674 5 0.2402 4.9473 0.1464 4.8535C0.0527001 4.7598 -9.98582e-05 4.6326 1.41787e-07 4.5C1.41787e-07 3.542 1.41787e-07 1.458 1.41787e-07 0.5C-9.98582e-05 0.3674 0.0527001 0.2402 0.1464 0.1464C0.2402 0.0527 0.3674 0 0.5 0C1.458 0 3.542 0 4.5 0C4.6326 0 4.7598 0.0527 4.8535 0.1464C4.9473 0.2402 5 0.3674 5 0.5ZM14 4.5C14 4.6326 13.9473 4.7598 13.8536 4.8535C13.7598 4.9473 13.6326 5 13.5 5C13.2239 5 13 4.7761 13 4.5C13 3.8738 13 2.8081 13 2.19C13 2.1091 12.9513 2.0361 12.8765 2.0052C12.8018 1.9742 12.7158 1.9913 12.6586 2.0485C11.9124 2.7947 10.1434 4.5637 9.3946 5.3125C9.3033 5.4038 9.1794 5.4551 9.0503 5.4551C8.9211 5.4551 8.7972 5.4038 8.7059 5.3125C8.7057 5.3123 8.7054 5.312 8.7052 5.3118C8.5052 5.1118 8.5052 4.7877 8.7052 4.5877C9.4638 3.8291 11.2111 2.0818 11.9515 1.3414C12.0087 1.2842 12.0258 1.1982 11.9948 1.1235C11.9639 1.0487 11.8909 1 11.81 1C11.1919 1 10.1262 1 9.5 1C9.2239 1 9 0.7761 9 0.5C9 0.3674 9.0527 0.2402 9.1465 0.1464C9.2402 0.0527 9.3674 0 9.5 0C10.458 0 12.542 0 13.5 0C13.6326 0 13.7598 0.0527 13.8536 0.1464C13.9473 0.2402 14 0.3674 14 0.5C14 1.458 14 3.542 14 4.5Z" fill="#242E59"/>
</svg>
