<svg width="14" height="14" viewBox="0 0 14 14" fill="none" xmlns="http://www.w3.org/2000/svg">
<path fill-rule="evenodd" clip-rule="evenodd" d="M4.83954 8.72049C4.95622 8.72049 5.06815 8.76686 5.15068 8.84931C5.23313 8.93185 5.2795 9.04377 5.2795 9.16045C5.2795 10.1548 5.2795 12.5657 5.2795 13.56C5.2795 13.6767 5.23313 13.7886 5.15068 13.8712C5.06815 13.9536 4.95622 14.0001 4.83954 14C3.84524 14 1.43426 14 0.439959 14C0.323282 14 0.211356 13.9536 0.12882 13.8712C0.0463717 13.7886 -8.78669e-05 13.6767 1.24761e-07 13.56C1.24761e-07 12.5657 1.24761e-07 10.1548 1.24761e-07 9.16045C1.24761e-07 9.04377 0.0463717 8.93185 0.12882 8.84931C0.211356 8.76686 0.323282 8.72049 0.439959 8.72049C1.43426 8.72049 3.84524 8.72049 4.83954 8.72049ZM11.8789 8.72049C11.9956 8.72049 12.1075 8.76686 12.19 8.84931C12.2725 8.93185 12.3188 9.04377 12.3188 9.16045C12.3188 10.1548 12.3188 12.5657 12.3188 13.56C12.3188 13.6767 12.2725 13.7886 12.19 13.8712C12.1075 13.9536 11.9956 14.0001 11.8789 14C10.8846 14 8.4736 14 7.47929 14C7.36262 14 7.25069 13.9536 7.16816 13.8712C7.08571 13.7886 7.03934 13.6767 7.03934 13.56C7.03934 12.5657 7.03934 10.1548 7.03934 9.16045C7.03934 9.04377 7.08571 8.93185 7.16816 8.84931C7.25069 8.76686 7.36262 8.72049 7.47929 8.72049C8.4736 8.72049 10.8846 8.72049 11.8789 8.72049ZM4.39955 9.77646C4.39955 9.67923 4.3208 9.60048 4.22357 9.60048C3.62276 9.60048 1.65667 9.60048 1.05587 9.60048C0.958636 9.60048 0.879883 9.67923 0.879883 9.77646C0.879883 10.3773 0.879883 12.3434 0.879883 12.9442C0.879883 13.0414 0.958636 13.1201 1.05587 13.1201C1.65667 13.1201 3.62276 13.1201 4.22357 13.1201C4.3208 13.1201 4.39955 13.0414 4.39955 12.9442C4.39955 12.3434 4.39955 10.3773 4.39955 9.77646ZM11.4389 9.77646C11.4389 9.67923 11.3601 9.60048 11.2629 9.60048C10.6621 9.60048 8.69601 9.60048 8.0952 9.60048C7.99797 9.60048 7.91922 9.67923 7.91922 9.77646C7.91922 10.3773 7.91922 12.3434 7.91922 12.9442C7.91922 13.0414 7.99797 13.1201 8.0952 13.1201C8.69601 13.1201 10.6621 13.1201 11.2629 13.1201C11.3601 13.1201 11.4389 13.0414 11.4389 12.9442C11.4389 12.3434 11.4389 10.3773 11.4389 9.77646ZM4.83954 1.68118C4.95622 1.68118 5.06815 1.72755 5.15068 1.81C5.23313 1.89254 5.2795 2.00446 5.2795 2.12114C5.2795 3.11545 5.2795 5.52642 5.2795 6.52073C5.2795 6.6374 5.23313 6.74933 5.15068 6.83186C5.06815 6.91431 4.95622 6.96068 4.83954 6.96068C3.84524 6.96068 1.43426 6.96068 0.439959 6.96068C0.323282 6.96068 0.211356 6.91431 0.12882 6.83186C0.0463717 6.74933 -8.78669e-05 6.6374 1.24761e-07 6.52073C1.24761e-07 5.52642 1.24761e-07 3.11545 1.24761e-07 2.12114C1.24761e-07 2.00446 0.0463717 1.89254 0.12882 1.81C0.211356 1.72755 0.323282 1.68118 0.439959 1.68118C1.43426 1.68118 3.84524 1.68118 4.83954 1.68118ZM10.1379 0.128919C10.2204 0.0464158 10.3323 6.22127e-05 10.449 0C10.5657 6.22285e-05 10.6776 0.0464158 10.7601 0.128919C11.4632 0.832 13.168 2.53681 13.8711 3.2399C13.9536 3.3224 13.9999 3.43433 14 3.55099C13.9999 3.66765 13.9536 3.77959 13.8711 3.86209C13.168 4.56517 11.4632 6.26999 10.7601 6.97307C10.6776 7.05557 10.5657 7.10192 10.449 7.10199C10.3323 7.10192 10.2204 7.05557 10.1379 6.97307C9.43483 6.26999 7.73002 4.56517 7.02694 3.86209C6.94443 3.77959 6.89808 3.66765 6.89802 3.55099C6.89808 3.43433 6.94443 3.3224 7.02694 3.23989C7.73002 2.53681 9.43483 0.831999 10.1379 0.128919ZM10.6045 1.21785C10.5186 1.13193 10.3794 1.13193 10.2934 1.21785C9.84657 1.66471 8.56261 2.94867 8.11575 3.39554C8.02982 3.48146 8.02982 3.62071 8.11575 3.70663C8.56261 4.15349 9.84657 5.43746 10.2934 5.88432C10.3794 5.97024 10.5186 5.97024 10.6045 5.88432C11.0514 5.43746 12.3354 4.15349 12.7822 3.70663C12.8681 3.62071 12.8681 3.48146 12.7822 3.39554C12.3354 2.94867 11.0514 1.66471 10.6045 1.21785ZM4.39955 2.73706C4.39955 2.63983 4.3208 2.56108 4.22357 2.56108C3.62276 2.56108 1.65667 2.56108 1.05587 2.56108C0.958636 2.56108 0.879883 2.63983 0.879883 2.73706C0.879883 3.33787 0.879883 5.30395 0.879883 5.90476C0.879883 6.00199 0.958636 6.08075 1.05587 6.08075C1.65667 6.08075 3.62276 6.08075 4.22357 6.08075C4.3208 6.08075 4.39955 6.00199 4.39955 5.90476C4.39955 5.30395 4.39955 3.33787 4.39955 2.73706Z" fill="#242E59"/>
</svg>
