<svg width="14" height="14" viewBox="0 0 14 14" fill="none" xmlns="http://www.w3.org/2000/svg">
<path fill-rule="evenodd" clip-rule="evenodd" d="M0.146447 4.14645C0.341709 3.95118 0.658291 3.95118 0.853553 4.14645C2.24895 5.54184 4.61646 6.5 7 6.5C9.38354 6.5 11.751 5.54184 13.1464 4.14645C13.3417 3.95118 13.6583 3.95118 13.8536 4.14645C14.0488 4.34171 14.0488 4.65829 13.8536 4.85355C13.2304 5.4767 12.4522 6.01497 11.5802 6.44031L12.9 8.20003C13.0657 8.42094 13.0209 8.73434 12.8 8.90003C12.5791 9.06571 12.2657 9.02094 12.1 8.80003L10.633 6.84408C10.1293 7.02977 9.60423 7.17946 9.06765 7.28869L9.4903 9.40192C9.54445 9.6727 9.36884 9.93611 9.09806 9.99026C8.82728 10.0444 8.56387 9.86881 8.50971 9.59803L8.07852 7.44204C7.72052 7.48026 7.36011 7.5 7 7.5C6.63989 7.5 6.27948 7.48027 5.92149 7.44204L5.4903 9.59803C5.43614 9.86881 5.17273 10.0444 4.90195 9.99026C4.63117 9.93611 4.45556 9.6727 4.50971 9.40192L4.93236 7.28869C4.39577 7.17946 3.87074 7.02977 3.36696 6.84408L1.9 8.80003C1.73431 9.02094 1.42091 9.06571 1.2 8.90003C0.979085 8.73434 0.934313 8.42094 1.1 8.20003L2.41979 6.44031C1.54775 6.01497 0.769589 5.4767 0.146447 4.85355C-0.0488155 4.65829 -0.0488155 4.34171 0.146447 4.14645Z" fill="#242E59"/>
</svg>
