<svg width="15" height="14" viewBox="0 0 15 14" fill="none" xmlns="http://www.w3.org/2000/svg">
<path fill-rule="evenodd" clip-rule="evenodd" d="M13.3853 1.79161C13.5813 1.98614 13.5825 2.30272 13.388 2.49871L13.1415 2.74704C13.1209 2.76218 13.1012 2.77912 13.0826 2.79784L2.98949 12.9668C2.79445 13.1104 2.51852 13.0946 2.34125 12.9186C2.14526 12.7241 2.14407 12.4075 2.3386 12.2115L3.51897 11.0223C2.47412 10.2158 1.62075 9.13306 1.048 7.87135C0.941864 7.63754 0.941864 7.36907 1.048 7.13526C2.3103 4.35451 4.93571 2.44292 7.96988 2.44292C9.14106 2.44292 10.2513 2.72773 11.2458 3.23741L12.6782 1.79426C12.8727 1.59827 13.1893 1.59708 13.3853 1.79161ZM5.30891 12.0495C6.13845 12.3821 7.03475 12.5637 7.96988 12.5637C11.0041 12.5637 13.6295 10.6521 14.8918 7.87136C14.9979 7.63754 14.9979 7.36907 14.8918 7.13526C14.4108 6.07583 13.7321 5.14255 12.9082 4.39309L12.2033 5.10325C12.9261 5.75196 13.528 6.56658 13.9605 7.5033C12.8309 9.95002 10.5452 11.5637 7.96988 11.5637C7.31867 11.5637 6.68596 11.4605 6.08579 11.2668L5.30891 12.0495ZM6.59966 10.749C7.0315 10.9398 7.5087 11.0457 8.01045 11.0457C9.95222 11.0457 11.5263 9.45978 11.5263 7.50343C11.5263 6.99791 11.4212 6.51712 11.2318 6.08204L10.4482 6.87159C10.4992 7.07339 10.5263 7.28506 10.5263 7.50343C10.5263 8.91457 9.39289 10.0457 8.01045 10.0457C7.79235 10.0457 7.58045 10.0176 7.37823 9.96461L6.59966 10.749ZM7.96988 3.44292C8.85978 3.44292 9.71509 3.6356 10.5001 3.98875L9.94674 4.54625C9.39146 4.17643 8.72591 3.96113 8.01045 3.96113C6.06868 3.96113 4.49456 5.54707 4.49456 7.50343C4.49456 8.22426 4.70827 8.89481 5.07533 9.45426L4.22962 10.3063C3.28626 9.60659 2.50676 8.64576 1.97931 7.5033C3.1089 5.05659 5.3946 3.44292 7.96988 3.44292ZM8.01045 4.96113C8.44907 4.96113 8.86263 5.075 9.22287 5.27555L5.80179 8.72235C5.60607 8.36109 5.49456 7.94603 5.49456 7.50343C5.49456 6.09228 6.62801 4.96113 8.01045 4.96113Z" fill="#242E59"/>
</svg>
