<svg width="15" height="14" viewBox="0 0 15 14" fill="none" xmlns="http://www.w3.org/2000/svg">
<path fill-rule="evenodd" clip-rule="evenodd" d="M7.968 11C5.38927 11 3.10788 9.40591 1.97978 6.99999C3.10788 4.59406 5.38927 3 7.968 3C10.5467 3 12.8281 4.59406 13.9562 6.99999C12.8281 9.40591 10.5467 11 7.968 11ZM1.04982 7.37169C0.941177 7.13586 0.941177 6.86411 1.04982 6.62828C2.31354 3.88509 4.93679 2 7.968 2C10.9992 2 13.6225 3.88509 14.8862 6.62828C14.9948 6.86412 14.9948 7.13586 14.8862 7.3717C13.6225 10.1149 10.9992 12 7.968 12C4.93679 12 2.31354 10.1149 1.04982 7.37169ZM10.5244 7C10.5244 8.37647 9.40231 9.50002 8.00856 9.50002C6.61481 9.50002 5.49268 8.37647 5.49268 7C5.49268 5.62354 6.61481 4.49998 8.00856 4.49998C9.40231 4.49998 10.5244 5.62354 10.5244 7ZM11.5244 7C11.5244 8.93301 9.95033 10.5 8.00856 10.5C6.06679 10.5 4.49268 8.93301 4.49268 7C4.49268 5.067 6.06679 3.49998 8.00856 3.49998C9.95033 3.49998 11.5244 5.067 11.5244 7Z" fill="#242E59"/>
</svg>
