<svg width="14" height="14" viewBox="0 0 14 14" fill="none" xmlns="http://www.w3.org/2000/svg">
<path fill-rule="evenodd" clip-rule="evenodd" d="M9.00018 13C9.00018 13.5523 8.55248 13.9999 8.00018 14C7.38938 14 6.61098 14 6.00018 14C5.44788 13.9999 5.00018 13.5523 5.00018 13C5.00018 11.408 5.00018 8.3662 5.00018 7.2801C5.00018 7.0248 4.90248 6.7791 4.72718 6.5935C4.07178 5.8995 2.35488 4.0815 0.889483 2.5299C0.478283 2.0945 0.365483 1.4562 0.602583 0.9062C0.839583 0.3563 1.38108 0 1.97998 0C4.91258 0 9.08758 0 12.0202 0C12.6191 0 13.1607 0.3563 13.3977 0.9063C13.6348 1.4562 13.522 2.0945 13.1107 2.5299C11.6454 4.0814 9.92858 5.8992 9.27318 6.5931C9.09788 6.7787 9.00018 7.0244 9.00018 7.2798C9.00018 8.3659 9.00018 11.4079 9.00018 13ZM7.50018 13C7.63278 13 7.75998 12.9473 7.85368 12.8536C7.94748 12.7598 8.00018 12.6326 8.00018 12.5C8.00018 11.2489 8.00018 8.0023 8.00018 6.8624C8.00018 6.604 8.10018 6.3556 8.27938 6.1693C9.05118 5.3666 11.236 3.0944 12.436 1.8466C12.5749 1.7021 12.6141 1.4886 12.5356 1.3041C12.4571 1.1197 12.276 1 12.0755 1C9.69138 1 4.30848 1 1.92438 1C1.72388 1 1.54278 1.1197 1.46428 1.3041C1.38578 1.4886 1.42498 1.702 1.56388 1.8465C2.93508 3.2726 5.55748 6 5.55748 6C5.55748 6 5.63268 6.0781 5.72098 6.1701C5.90018 6.3563 6.00018 6.6047 6.00018 6.8632C6.00018 8.0029 6.00018 11.2491 6.00018 12.5C6.00018 12.6326 6.05288 12.7598 6.14668 12.8536C6.24038 12.9473 6.36758 13 6.50018 13C6.80558 13 7.19478 13 7.50018 13ZM6.00018 6.4601V6.4604L5.55748 6H5.55778L6.00018 6.4601Z" fill="#242E59"/>
</svg>
