<svg width="14" height="14" viewBox="0 0 14 14" fill="none" xmlns="http://www.w3.org/2000/svg">
<path fill-rule="evenodd" clip-rule="evenodd" d="M13 5.5V11.5C13 12.0523 12.5523 12.5 12 12.5H2C1.44772 12.5 1 12.0523 1 11.5V2.5C1 1.94772 1.44772 1.5 2 1.5H5H5.05848C5.48891 1.5 5.87105 1.77543 6.00716 2.18377L6.3932 3.34189C6.62374 4.0335 7.27097 4.5 8 4.5H12C12.5523 4.5 13 4.94772 13 5.5ZM0 2.5C0 1.39543 0.895431 0.5 2 0.5H5H5.05848C5.78275 0.5 6.43864 0.889914 6.79067 1.5H10.5C11.8001 1.5 12.8685 2.49245 12.9887 3.76109C13.5927 4.10527 14 4.75508 14 5.5V11.5C14 12.6046 13.1046 13.5 12 13.5H2C0.89543 13.5 0 12.6046 0 11.5V2.5ZM11.9146 3.5C11.7087 2.9174 11.1531 2.5 10.5 2.5H7.16667L7.34189 3.02566C7.43631 3.30893 7.70141 3.5 8 3.5H11.9146Z" fill="#242E59"/>
</svg>
