<svg width="17" height="17" viewBox="0 0 17 17" fill="none" xmlns="http://www.w3.org/2000/svg">
<path fill-rule="evenodd" clip-rule="evenodd" d="M2.96638 3.66675C2.96638 3.11446 3.4141 2.66675 3.96638 2.66675H13.9664V4.00008H4.64545L9.12837 7.92265C9.12839 7.92267 9.12836 7.92264 9.12837 7.92265C9.5734 8.31203 9.58516 9.00042 9.15391 9.40477L9.08006 9.47399L4.64821 13.3334H13.9664V14.6667H3.96638C3.41411 14.6667 2.96638 14.219 2.96638 13.6667V13.4851C2.96638 13.196 3.09157 12.9209 3.30966 12.731C3.30967 12.731 3.30965 12.731 3.30966 12.731L7.96534 8.67669L3.30788 4.6014C3.09089 4.41152 2.96638 4.1372 2.96638 3.84882V3.66675Z" fill="#020813" fill-opacity="0.7"/>
</svg>
