<svg width="14" height="14" viewBox="0 0 14 14" fill="none" xmlns="http://www.w3.org/2000/svg">
<path fill-rule="evenodd" clip-rule="evenodd" d="M12.2155 2H1.7868C1.39019 2 1.0309 1.828 0.853585 1.558L0.0276863 0.29C-0.0586365 0.156 0.0673481 0 0.260991 0H13.739C13.9327 0 14.0586 0.156 13.9723 0.29L13.1441 1.558C12.9691 1.828 12.6098 2 12.2155 2ZM10.2325 6H3.7697C3.37719 6 3.01967 5.828 2.84466 5.558L2.02713 4.29C1.94212 4.156 2.06713 4 2.25964 4H11.7426C11.9351 4 12.0576 4.156 11.9726 4.29L11.155 5.558C10.98 5.828 10.6225 6 10.2325 6ZM6.8 10H7.2C8.194 10 9 9.194 9 8.2C9 8.09 8.91 8 8.8 8H5.2C5.09 8 5 8.09 5 8.2C5 9.194 5.806 10 6.8 10Z" fill="#313E75"/>
</svg>