<svg width="14" height="14" viewBox="0 0 14 14" fill="none" xmlns="http://www.w3.org/2000/svg">
<path fill-rule="evenodd" clip-rule="evenodd" d="M12.2155 4H1.7868C1.39019 4 1.0309 3.828 0.853585 3.558L0.0276863 2.29C-0.0586365 2.156 0.0673481 2 0.260991 2H13.739C13.9327 2 14.0586 2.156 13.9723 2.29L13.1441 3.558C12.9691 3.828 12.6098 4 12.2155 4ZM10.2325 8H3.7697C3.37719 8 3.01967 7.828 2.84466 7.558L2.02713 6.29C1.94212 6.156 2.06713 6 2.25964 6H11.7426C11.9351 6 12.0576 6.156 11.9726 6.29L11.155 7.558C10.98 7.828 10.6225 8 10.2325 8ZM6.8 12H7.2C8.194 12 9 11.194 9 10.2C9 10.09 8.91 10 8.8 10H5.2C5.09 10 5 10.09 5 10.2C5 11.194 5.806 12 6.8 12Z" fill="#242E59"/>
</svg>
