<svg width="14" height="14" viewBox="0 0 14 14" fill="none" xmlns="http://www.w3.org/2000/svg">
<path fill-rule="evenodd" clip-rule="evenodd" d="M3.93285 1.69425L3.99225 1.69715L4.05065 1.70185L4.10815 1.70825L4.16475 1.71645L4.22055 1.72635L4.27555 1.73775L4.32985 1.75075L4.38335 1.76515L4.43605 1.78105L4.48815 1.79825L4.53955 1.81685L4.59025 1.83665L4.64045 1.85765L4.68995 1.87975L4.73895 1.90295L4.78745 1.92715L4.83545 1.95225L4.88295 1.97835L4.93005 2.00525L4.97675 2.03285L5.02295 2.06125L5.11455 2.11995L5.20485 2.18085L5.38265 2.30735L5.47075 2.37195L5.64605 2.50165L5.73385 2.56575L5.82205 2.62885L5.91075 2.69035L6.00035 2.74975L6.04545 2.77855L6.09085 2.80675L6.18275 2.86065L6.22925 2.88645L6.32335 2.93505L6.37115 2.95785L6.41935 2.97955L6.51745 3.01945L6.56725 3.03755L6.66885 3.06965L6.72055 3.08355L6.77295 3.09595L6.82605 3.10685L6.87995 3.11605L6.93455 3.12355L6.98995 3.12945L7.04385 3.12355L7.09695 3.11605L7.14945 3.10685L7.20125 3.09595L7.25245 3.08355L7.30305 3.06965L7.40265 3.03755L7.45165 3.01945L7.54825 2.97955L7.59585 2.95785L7.64305 2.93505L7.68985 2.91125L7.73635 2.88645L7.78245 2.86065L7.87385 2.80675L7.96415 2.74975L8.05365 2.69035L8.14255 2.62885L8.23105 2.56575L8.31935 2.50165L8.49615 2.37195L8.58505 2.30735L8.67455 2.24345L8.76485 2.18085L8.85625 2.11995L8.94885 2.06125L9.04285 2.00525L9.09045 1.97835L9.13855 1.95225L9.18705 1.92715L9.23605 1.90295L9.28555 1.87975L9.33565 1.85765L9.38625 1.83665L9.43745 1.81685L9.48925 1.79825L9.54175 1.78105L9.59485 1.76515L9.64865 1.75075L9.70325 1.73775L9.75855 1.72635L9.81455 1.71645L9.87145 1.70825L9.92905 1.70185L9.98765 1.69715L10.0471 1.69425L10.1669 1.69385L10.2259 1.69535L10.2843 1.69795L10.342 1.70155L10.399 1.70615L10.4555 1.71185L10.5114 1.71845L10.5666 1.72615L10.6212 1.73475L10.6752 1.74445L10.7286 1.75505L10.8337 1.77935L10.8853 1.79285L10.9868 1.82295L11.0367 1.83945L11.086 1.85685L11.1348 1.87525L11.183 1.89455L11.2306 1.91485L11.2777 1.93605L11.3242 1.95815L11.3701 1.98125L11.4156 2.00525L11.4604 2.03015L11.5048 2.05595L11.5486 2.08265L11.5919 2.11025L11.6346 2.13875L11.6768 2.16815L11.7186 2.19845L11.7598 2.22965L11.8004 2.26165L11.8803 2.32835L11.9195 2.36305L11.9582 2.39855L11.9964 2.43495L12.0341 2.47215L12.0714 2.51015L12.1081 2.54905L12.1803 2.62935L12.2505 2.71285L12.2849 2.75585L12.3189 2.79975L12.3525 2.84435L12.4182 2.93595L12.4504 2.98295L12.4822 3.03075L12.5136 3.07925L12.575 3.17875L12.6348 3.28125L12.6929 3.38675L12.7494 3.49515L12.8044 3.60665L12.8578 3.72095L12.9097 3.83815L12.9601 3.95815L13.0091 4.08085L13.0567 4.20645L13.1029 4.33465L13.1478 4.46555L13.1913 4.59905L13.2336 4.73515L13.2746 4.87375L13.3144 5.01495L13.353 5.15855L13.3904 5.30455L13.4268 5.45305L13.462 5.60385L13.4962 5.75685L13.5293 5.91225L13.5615 6.06985L13.5927 6.22965L13.6229 6.39155L13.6523 6.55565L13.6808 6.72175L13.7085 6.88995L13.7353 7.06005L13.7614 7.23215L13.7868 7.40615L13.8115 7.58215L13.8354 7.75985L13.8588 7.93935L13.8815 8.12065L13.9037 8.30375L13.9253 8.48845L13.9438 8.68435L13.96 8.87805L13.9736 9.06905L13.9846 9.25725L13.9929 9.44235L13.9982 9.62415L13.9997 9.71365V9.97645L13.998 10.062L13.9955 10.1465L13.9922 10.2299L13.988 10.3122L13.9829 10.3932L13.9769 10.4731L13.97 10.5518L13.9622 10.6291L13.9534 10.7052L13.9436 10.78L13.9329 10.8533L13.9212 10.9253L13.9084 10.9958L13.8946 11.0649L13.8798 11.1325L13.8639 11.1985L13.847 11.263L13.8289 11.3259L13.8098 11.3871L13.7895 11.4467L13.768 11.5046L13.7455 11.5608L13.7217 11.6152L13.6967 11.6678L13.6706 11.7185L13.6432 11.7675L13.6146 11.8145L13.5847 11.8596L13.5536 11.9027L13.5212 11.9438L13.4874 11.983L13.4524 12.02L13.416 12.055L13.3783 12.0878L13.3392 12.1185L13.2987 12.147L13.2568 12.1733L13.2135 12.1973L13.1688 12.219L13.1227 12.2384L13.075 12.2555L13.0259 12.2702L12.9753 12.2824L12.9232 12.2922L12.8696 12.2995L12.8144 12.3043L12.7577 12.3066L12.6993 12.3062L12.6152 12.305L12.5336 12.3015L12.4544 12.2956L12.3776 12.2875L12.3031 12.2773L12.2308 12.2649L12.1607 12.2504L12.0926 12.234L12.0266 12.2156L11.9625 12.1953L11.9003 12.1731L11.8399 12.1492L11.7813 12.1236L11.7243 12.0963L11.669 12.0674L11.6152 12.037L11.5628 12.005L11.5119 11.9717L11.4623 11.9369L11.414 11.9009L11.3669 11.8636L11.3209 11.8251L11.276 11.7854L11.2321 11.7447L11.1891 11.703L11.147 11.6602L11.1057 11.6166L11.0651 11.5721L11.0252 11.5268L10.9858 11.4808L10.9086 11.3868L10.8329 11.2905L10.7583 11.1924L10.6097 10.9927L10.5347 10.8921L10.4586 10.7914L10.3807 10.6913L10.3005 10.5921L10.2594 10.5431L10.2176 10.4944L10.1748 10.4462L10.1312 10.3986L10.041 10.3051L9.99415 10.2594L9.94615 10.2145L9.89695 10.1704L9.84645 10.1271L9.79455 10.0848L9.74125 10.0435L9.68635 10.0033L9.62985 9.96415L9.57175 9.92615L9.51185 9.88945L9.46415 9.86685L9.41315 9.84505L9.35885 9.82415L9.30155 9.80395L9.24135 9.78455L9.17825 9.76585L9.11265 9.74795L9.04445 9.73075L8.97395 9.71425L8.90115 9.69845L8.82635 9.68345L8.74965 9.66905L8.67105 9.65535L8.59085 9.64225L8.50915 9.62985L8.42605 9.61805L8.25625 9.59625L8.08275 9.57685L7.90655 9.55965L7.72875 9.54465L7.55065 9.53175L7.37325 9.52075L7.19765 9.51155L7.02505 9.50415L6.85235 9.51155L6.67675 9.52075L6.49935 9.53175L6.32115 9.54465L6.14345 9.55965L5.96725 9.57685L5.79365 9.59625L5.62395 9.61805L5.54085 9.62985L5.45915 9.64225L5.37895 9.65535L5.30035 9.66905L5.22365 9.68345L5.14875 9.69845L5.07605 9.71425L5.00555 9.73075L4.93735 9.74795L4.87175 9.76585L4.80865 9.78455L4.74845 9.80395L4.69115 9.82415L4.63685 9.84505L4.58585 9.86685L4.53815 9.88945L4.47825 9.92615L4.42015 9.96415L4.36365 10.0033L4.30875 10.0435L4.25545 10.0848L4.20355 10.1271L4.15305 10.1704L4.10385 10.2145L4.05585 10.2594L4.00905 10.3051L3.96345 10.3515L3.87525 10.4462L3.83245 10.4944L3.79065 10.5431L3.74955 10.5921L3.66935 10.6913L3.59145 10.7914L3.51535 10.8921L3.44035 10.9927L3.29175 11.1924L3.21715 11.2905L3.14145 11.3868L3.10305 11.4341L3.06425 11.4808L3.02485 11.5268L2.98495 11.5721L2.94435 11.6166L2.90305 11.6602L2.86095 11.703L2.81795 11.7447L2.77405 11.7854L2.72915 11.8251L2.68315 11.8636L2.63605 11.9009L2.58775 11.9369L2.53815 11.9717L2.48725 12.005L2.43485 12.037L2.38105 12.0674L2.32575 12.0963L2.26875 12.1236L2.21015 12.1492L2.14975 12.1731L2.08755 12.1953L2.02345 12.2156L1.95745 12.234L1.88935 12.2504L1.81925 12.2649L1.74695 12.2773L1.67245 12.2875L1.59565 12.2956L1.51645 12.3015L1.43485 12.305L1.35075 12.3062L1.29075 12.3049L1.23235 12.3011L1.17555 12.2948L1.12025 12.286L1.06655 12.2748L1.01435 12.2612L0.963655 12.2452L0.914455 12.2269L0.866655 12.2062L0.820355 12.1833L0.775555 12.1581L0.732155 12.1307L0.690154 12.1012L0.649555 12.0695L0.610355 12.0357L0.572455 11.9997L0.536054 11.9618L0.500955 11.9218L0.467155 11.8798L0.434655 11.8359L0.403454 11.79L0.373554 11.7423L0.344954 11.6927L0.317654 11.6413L0.291454 11.588L0.266654 11.5331L0.242954 11.4763L0.220454 11.4179L0.199254 11.3578L0.179054 11.2961L0.160154 11.2328L0.142354 11.1679L0.125654 11.1014L0.110054 11.0335L0.0956545 10.9641L0.0822545 10.8932L0.0699545 10.8209L0.0587545 10.7473L0.0484545 10.6723L0.0393545 10.596L0.0311545 10.5184L0.0239545 10.4395L0.0177545 10.3595L0.0125545 10.2782L0.00835449 10.1958L0.00505449 10.1123L0.00265449 10.0276L0.00115449 9.94205L0.000854492 9.76765L0.00205449 9.67895L0.00405449 9.58935L0.00695449 9.49885L0.0106545 9.40755L0.0151545 9.31535L0.0204545 9.22235L0.0333545 9.03405L0.0493545 8.84305L0.0681545 8.64935L0.0897545 8.45345L0.109754 8.27035L0.130354 8.08885L0.151554 7.90905L0.173454 7.73095L0.196054 7.55465L0.219254 7.38015L0.243354 7.20745L0.268155 7.03665L0.293754 6.86765L0.320255 6.70075L0.347555 6.53575L0.375854 6.37275L0.405054 6.21195L0.435254 6.05315L0.466354 5.89655L0.498654 5.74215L0.531855 5.58995L0.566254 5.44005L0.601755 5.29245L0.638355 5.14715L0.676255 5.00435L0.715255 4.86385L0.755655 4.72595L0.797255 4.59045L0.840155 4.45765L0.884355 4.32735L0.930055 4.19965L0.977055 4.07465L1.02555 3.95235L1.07555 3.83285L1.12695 3.71615L1.17995 3.60225L1.23455 3.49125L1.29065 3.38315L1.34845 3.27795L1.40795 3.17575L1.43825 3.12585L1.50025 3.02825L1.56395 2.93375L1.59645 2.88765L1.62945 2.84235L1.69675 2.75415L1.73105 2.71125L1.76585 2.66915L1.80115 2.62795L1.87305 2.54785L1.90975 2.50905L1.94695 2.47105L1.98455 2.43395L2.02265 2.39765L2.06135 2.36215L2.10045 2.32765L2.14005 2.29385L2.18015 2.26105L2.22085 2.22905L2.26195 2.19795L2.34585 2.13835L2.38855 2.10985L2.43175 2.08225L2.47555 2.05555L2.51985 2.02985L2.56465 2.00495L2.61005 1.98095L2.65595 1.95795L2.70245 1.93585L2.74955 1.91465L2.84525 1.87515L2.94335 1.83935L2.99325 1.82285L3.04365 1.80735L3.14635 1.77925L3.19855 1.76665L3.25135 1.75505L3.35875 1.73475L3.41335 1.72615L3.46865 1.71845L3.52445 1.71185L3.58095 1.70615L3.63805 1.70155L3.69575 1.69795L3.75405 1.69535L3.81305 1.69385L3.93285 1.69425ZM10.1109 2.69335L10.0793 2.69385L10.0518 2.69525L10.0244 2.69745L9.99805 2.70035L9.97235 2.70405L9.92025 2.71405L9.89415 2.72025L9.86765 2.72735L9.84105 2.73525L9.81425 2.74415L9.78615 2.75415L9.75805 2.76505L9.72915 2.77695L9.69955 2.79005L9.66945 2.80415L9.60715 2.83575L9.57495 2.85315L9.54165 2.87205L9.50755 2.89195L9.47585 2.91125L9.40135 2.95845L9.32695 3.00805L9.24965 3.06155L9.16945 3.11875L9.08585 3.17955L8.90895 3.30935L8.81525 3.37745L8.71725 3.44725L8.61475 3.51815L8.50745 3.58945L8.39805 3.65835L8.33705 3.69505L8.27705 3.72985L8.21535 3.76425L8.15225 3.79795L8.08735 3.83095L8.02065 3.86315L7.95235 3.89435L7.88205 3.92445L7.80985 3.95325L7.73595 3.98045L7.66005 4.00615L7.58235 4.02995L7.50295 4.05175L7.42165 4.07155L7.33855 4.08895L7.25375 4.10385L7.16775 4.11605L7.09745 4.12365L7.02685 4.12875L6.95615 4.12885L6.88555 4.12395L6.81405 4.11645L6.72725 4.10445L6.64155 4.08975L6.55755 4.07265L6.47535 4.05315L6.39495 4.03155L6.31615 4.00785L6.23925 3.98235L6.16445 3.95515L6.09115 3.92645L6.01995 3.89635L5.95065 3.86525L5.88285 3.83285L5.81705 3.79975L5.75315 3.76585L5.69055 3.73125L5.62995 3.69625L5.57085 3.66085L5.51345 3.62535L5.45495 3.58805L5.34945 3.51795L5.24625 3.44655L5.14785 3.37605L5.05385 3.30735L4.87755 3.17705L4.79425 3.11595L4.71475 3.05855L4.63835 3.00505L4.56485 2.95545L4.49135 2.90835L4.46035 2.88925L4.39425 2.85085L4.36265 2.83345L4.33205 2.81745L4.30185 2.80235L4.27255 2.78845L4.24375 2.77565L4.21555 2.76385L4.18825 2.75325L4.16085 2.74335L4.10875 2.72685L4.08295 2.71985L4.05745 2.71375L4.03165 2.70845L4.00645 2.70395L3.98105 2.70025L3.95505 2.69735L3.92795 2.69525L3.90055 2.69385L3.86905 2.69335L3.83075 2.69375L3.78955 2.69485L3.70955 2.69905L3.67115 2.70215L3.63295 2.70595L3.59605 2.71035L3.56035 2.71535L3.49055 2.72705L3.45655 2.73385L3.42305 2.74125L3.39065 2.74905L3.35865 2.75745L3.32765 2.76625L3.26645 2.78575L3.23705 2.79615L3.20775 2.80725L3.15055 2.83085L3.12235 2.84345L3.09495 2.85655L3.06755 2.87025L3.04055 2.88445L3.01395 2.89925L2.98695 2.91495L2.96095 2.93085L2.93475 2.94755L2.90855 2.96495L2.88325 2.98265L2.85745 3.00135L2.83155 3.02085L2.80625 3.04085L2.75585 3.08295L2.73065 3.10515L2.70535 3.12845L2.68025 3.15225L2.63055 3.20215L2.60565 3.22855L2.58075 3.25575L2.55615 3.28365L2.53155 3.31245L2.50675 3.34245L2.48225 3.37305L2.45795 3.40445L2.43345 3.43695L2.40935 3.47015L2.38525 3.50435L2.33695 3.57605L2.31315 3.61285L2.28945 3.65065L2.26745 3.68695L2.21895 3.77025L2.17275 3.85445L2.12715 3.94225L2.08215 4.03375L2.03785 4.12885L1.99445 4.22735L1.95175 4.32955L1.90995 4.43515L1.86885 4.54415L1.82865 4.65655L1.78935 4.77215L1.75105 4.89095L1.71355 5.01295L1.67695 5.13815L1.64135 5.26635L1.60655 5.39755L1.57275 5.53175L1.53975 5.66865L1.50775 5.80845L1.47655 5.95105L1.44625 6.09625L1.41685 6.24405L1.38825 6.39455L1.36045 6.54755L1.33355 6.70295L1.30735 6.86075L1.28195 7.02105L1.25725 7.18355L1.23335 7.34825L1.21015 7.51515L1.18755 7.68425L1.16565 7.85535L1.14445 8.02855L1.12375 8.20385L1.10365 8.38095L1.08385 8.56255L1.06285 8.75265L1.04525 8.93305L1.03055 9.10995L1.01845 9.28505L1.01375 9.36815L1.00965 9.45215L1.00625 9.53495L1.00375 9.61655L1.00185 9.69685L1.00085 9.77595L1.00055 9.85375L1.00105 9.93005L1.00235 10.0049L1.00445 10.0783L1.00725 10.1501L1.01095 10.2204L1.01535 10.289L1.02055 10.3558L1.02635 10.4207L1.03305 10.4839L1.04045 10.5452L1.04845 10.6043L1.05715 10.6615L1.06655 10.7165L1.07655 10.7694L1.08705 10.8198L1.09815 10.868L1.10965 10.9139L1.12145 10.957L1.13365 10.9978L1.14615 11.0361L1.15865 11.0716L1.17125 11.1043L1.18375 11.1343L1.19615 11.1616L1.20815 11.1861L1.21975 11.208L1.23075 11.227L1.24105 11.2434L1.25045 11.2573L1.25885 11.2686L1.26625 11.2778L1.27265 11.2851L1.27785 11.2905L1.28165 11.2941L1.28435 11.2964L1.28605 11.2977L1.28735 11.2986L1.28895 11.2992L1.29115 11.2999L1.29515 11.301L1.30095 11.3022L1.30925 11.3035L1.32045 11.3048L1.33385 11.3056L1.35425 11.3061L1.40615 11.3053L1.45785 11.3031L1.50625 11.2995L1.55195 11.2947L1.59415 11.2889L1.63375 11.2821L1.67105 11.2744L1.70555 11.2661L1.73805 11.257L1.76885 11.2473L1.79775 11.237L1.82585 11.2259L1.87795 11.202L1.90315 11.1888L1.92825 11.1746L1.95265 11.1598L1.97695 11.1438L2.00175 11.1265L2.02665 11.1079L2.05175 11.088L2.07695 11.0669L2.10295 11.0439L2.12945 11.0194L2.15635 10.9933L2.18375 10.9654L2.21175 10.9358L2.24055 10.9043L2.27005 10.8709L2.29975 10.8361L2.33015 10.7996L2.35995 10.7628L2.42615 10.6786L2.49275 10.5911L2.63805 10.3958L2.71555 10.2918L2.79805 10.1827L2.88575 10.0699L2.97725 9.95675L3.02835 9.89585L3.07945 9.83645L3.13225 9.77685L3.18715 9.71695L3.24415 9.65685L3.30315 9.59685L3.36435 9.53695L3.42815 9.47725L3.49395 9.41825L3.56235 9.35965L3.63345 9.30175L3.70695 9.24485L3.78305 9.18905L3.86175 9.13455L3.94315 9.08135L4.01505 9.03715L4.06195 9.01005L4.11025 8.98555L4.17545 8.95475L4.26025 8.91855L4.34495 8.88585L4.42895 8.85625L4.51315 8.82915L4.59785 8.80405L4.68365 8.78055L4.76965 8.75895L4.85635 8.73865L4.94405 8.71965L5.03255 8.70185L5.12235 8.68495L5.21255 8.66925L5.30355 8.65445L5.39535 8.64045L5.49005 8.62695L5.67455 8.60335L5.86315 8.58225L6.05295 8.56375L6.24285 8.54775L6.43225 8.53395L6.61975 8.52235L6.80485 8.51265L7.02505 8.50325L7.24515 8.51265L7.43025 8.52235L7.61775 8.53395L7.80715 8.54775L7.99705 8.56375L8.18675 8.58225L8.37545 8.60335L8.55995 8.62695L8.65465 8.64045L8.83735 8.66925L8.92765 8.68495L9.01745 8.70185L9.10595 8.71965L9.19365 8.73865L9.28035 8.75895L9.36635 8.78055L9.45215 8.80405L9.53685 8.82915L9.62105 8.85625L9.70505 8.88585L9.78975 8.91855L9.87455 8.95475L9.93975 8.98555L9.98805 9.01005L10.035 9.03715L10.1068 9.08125L10.1884 9.13455L10.2671 9.18915L10.343 9.24475L10.4166 9.30175L10.4878 9.35975L10.5561 9.41835L10.6219 9.47725L10.6857 9.53695L10.7469 9.59685L10.8059 9.65685L10.8629 9.71695L10.9177 9.77675L10.9707 9.83645L11.0218 9.89595L11.0727 9.95675L11.1643 10.0699L11.252 10.1827L11.3345 10.2918L11.4119 10.3958L11.5573 10.5911L11.6239 10.6786L11.6902 10.7629L11.72 10.7997L11.7503 10.8361L11.78 10.8709L11.8095 10.9043L11.8383 10.9358L11.8662 10.9653L11.8937 10.9933L11.9206 11.0194L11.947 11.0438L11.9732 11.067L11.9983 11.088L12.0234 11.1079L12.0484 11.1265L12.073 11.1438L12.0973 11.1597L12.1218 11.1747L12.147 11.1889L12.1721 11.202L12.1975 11.2142L12.2243 11.2259L12.2523 11.237L12.2812 11.2473L12.3119 11.257L12.3445 11.2661L12.379 11.2744L12.4163 11.2821L12.4559 11.2889L12.4981 11.2947L12.5438 11.2995L12.5923 11.3031L12.6439 11.3053L12.7094 11.3063L12.741 11.3065L12.7506 11.3061L12.7552 11.3002L12.7621 11.2906L12.7703 11.2783L12.7794 11.2633L12.7896 11.2452L12.8003 11.2243L12.8115 11.2006L12.8231 11.1741L12.835 11.1444L12.8471 11.1119L12.8591 11.0767L12.871 11.0384L12.8827 10.9977L12.8941 10.9544L12.9052 10.9084L12.9158 10.86L12.9259 10.8092L12.9356 10.756L12.9446 10.7005L12.953 10.6428L12.9608 10.5831L12.968 10.5214L12.9744 10.4576L12.9802 10.3919L12.9853 10.3246L12.9896 10.2553L12.9932 10.1843L12.9961 10.1118L12.9983 10.0377L12.9998 9.96225V9.72655L12.9985 9.64735L12.9935 9.47935L12.9859 9.30875L12.9757 9.13385L12.9629 8.95525L12.9477 8.77315L12.9307 8.59365L12.9107 8.42185L12.889 8.24305L12.8668 8.06605L12.8441 7.89115L12.8208 7.71835L12.7969 7.54775L12.7723 7.37935L12.7471 7.21295L12.7212 7.04905L12.6946 6.88745L12.6673 6.72825L12.6393 6.57165L12.6104 6.41735L12.5808 6.26555L12.5504 6.11655L12.5192 5.97025L12.4871 5.82655L12.4542 5.68565L12.4204 5.54775L12.3858 5.41255L12.3502 5.28045L12.3138 5.15125L12.2766 5.02525L12.2384 4.90235L12.1994 4.78265L12.1595 4.66625L12.1187 4.55315L12.0771 4.44345L12.0348 4.33725L11.9915 4.23445L11.9476 4.13515L11.9029 4.03945L11.8574 3.94745L11.8115 3.85915L11.7648 3.77445L11.7159 3.69055L11.6937 3.65415L11.67 3.61625L11.6458 3.57885L11.6215 3.54235L11.5975 3.50735L11.5732 3.47285L11.5486 3.43925L11.5241 3.40655L11.4996 3.37505L11.475 3.34425L11.4501 3.31425L11.4253 3.28515L11.4005 3.25715L11.3506 3.20335L11.3256 3.17785L11.3007 3.15325L11.2754 3.12915L11.2502 3.10605L11.225 3.08385L11.1995 3.06205L11.1741 3.04135L11.1487 3.02125L11.0974 2.98325L11.0714 2.96515L11.0192 2.93105L10.9927 2.91485L10.9125 2.87035L10.8851 2.85665L10.8293 2.83085L10.801 2.81875L10.7722 2.80725L10.7432 2.79625L10.6832 2.77575L10.6524 2.76635L10.621 2.75735L10.5894 2.74905L10.5566 2.74115L10.5234 2.73385L10.4895 2.72705L10.4552 2.72095L10.42 2.71545L10.3836 2.71035L10.3088 2.70215L10.2704 2.69905L10.2311 2.69665L10.1905 2.69485L10.1492 2.69375L10.1109 2.69335ZM9.47545 4.48725C9.69635 4.48725 9.87545 4.66635 9.87545 4.88725V5.63725C9.87545 5.69035 9.89645 5.74115 9.93395 5.77865C9.97145 5.81625 10.0224 5.83725 10.0755 5.83725H10.8255C11.0464 5.83725 11.2255 6.01635 11.2255 6.23725C11.2255 6.45815 11.0464 6.63725 10.8255 6.63725H10.0755C10.0224 6.63725 9.97145 6.65835 9.93395 6.69585C9.89645 6.73335 9.87545 6.78425 9.87545 6.83725V7.58725C9.87545 7.80815 9.69635 7.98725 9.47545 7.98725C9.25445 7.98725 9.07545 7.80815 9.07545 7.58725V6.83725C9.07545 6.78425 9.05435 6.73335 9.01685 6.69585C8.97935 6.65835 8.92845 6.63725 8.87545 6.63725H8.12535C7.90445 6.63725 7.72545 6.45815 7.72545 6.23725C7.72545 6.01635 7.90445 5.83725 8.12535 5.83725H8.87545C8.92845 5.83725 8.97935 5.81625 9.01685 5.77865C9.05435 5.74115 9.07545 5.69035 9.07545 5.63725V4.88725C9.07545 4.66635 9.25445 4.48725 9.47545 4.48725ZM4.30395 4.52165C5.24485 4.52165 6.00875 5.28555 6.00875 6.22645C6.00875 7.16735 5.24485 7.93125 4.30395 7.93125C3.36305 7.93125 2.59925 7.16735 2.59925 6.22645C2.59925 5.28555 3.36305 4.52165 4.30395 4.52165ZM4.30395 5.22845C3.75325 5.22845 3.30605 5.67565 3.30605 6.22645C3.30605 6.77715 3.75325 7.22435 4.30395 7.22435C4.85475 7.22435 5.30195 6.77715 5.30195 6.22645C5.30195 5.67565 4.85475 5.22845 4.30395 5.22845ZM4.30395 5.60855C4.64505 5.60855 4.92185 5.88535 4.92185 6.22645C4.92185 6.56745 4.64505 6.84425 4.30395 6.84425C3.96295 6.84425 3.68615 6.56745 3.68615 6.22645C3.68615 5.88535 3.96295 5.60855 4.30395 5.60855Z" fill="#242E59"/>
</svg>
