<svg width="14" height="14" viewBox="0 0 14 14" fill="none" xmlns="http://www.w3.org/2000/svg">
<path fill-rule="evenodd" clip-rule="evenodd" d="M13.813 6.0334L13.7232 5.7743C13.6651 5.5951 13.5108 5.4639 13.3244 5.4355C13.3244 5.4355 12.6087 5.3341 12.3182 5.293C12.2451 5.2823 12.1839 5.232 12.1591 5.1622C12.0907 4.9737 12.0125 4.7888 11.9242 4.6087C11.8908 4.5407 11.8986 4.4596 11.9444 4.3993C12.1229 4.1637 12.5567 3.5919 12.5567 3.5919C12.6536 3.4327 12.6536 3.2328 12.5567 3.0737L12.4371 2.8345C12.1478 2.2568 11.6791 1.7883 11.1011 1.4992L10.8618 1.3796C10.7026 1.2827 10.5026 1.2827 10.3434 1.3796C10.3434 1.3796 9.77 1.8142 9.53481 1.9923C9.47479 2.0374 9.39463 2.0448 9.32733 2.0116C9.14697 1.9241 8.96223 1.846 8.77359 1.7783C8.7029 1.753 8.65246 1.69 8.64289 1.6153C8.60629 1.3291 8.51886 0.6422 8.51886 0.6422C8.49034 0.4559 8.35914 0.3017 8.17987 0.2435L7.93062 0.1539C7.31587 -0.0513 6.65106 -0.0513 6.03631 0.1539L5.77709 0.2435C5.59772 0.3017 5.46662 0.4559 5.4381 0.6422C5.4381 0.6422 5.33691 1.3567 5.29573 1.6474C5.28496 1.7208 5.23461 1.7821 5.16492 1.8069C4.97589 1.8754 4.79055 1.9538 4.60999 2.0422C4.54249 2.0753 4.46213 2.0675 4.40221 2.0221C4.16702 1.844 3.59364 1.4095 3.59364 1.4095C3.43442 1.3126 3.23442 1.3126 3.0752 1.4095L2.83591 1.5291C2.26034 1.8061 1.78866 2.2601 1.48995 2.8245L1.37031 3.0637C1.2734 3.2229 1.2734 3.4228 1.37031 3.5819C1.37031 3.5819 1.80411 4.1538 1.98277 4.3892C2.02814 4.4497 2.03562 4.5306 2.00212 4.5984C1.91408 4.7798 1.83552 4.9656 1.76752 5.1554C1.74319 5.2237 1.68367 5.2734 1.61229 5.2852C1.33163 5.3317 0.642497 5.4454 0.642497 5.4454C0.456156 5.4739 0.301819 5.605 0.243694 5.7842L0.153963 6.0433C-0.051321 6.6578 -0.051321 7.3223 0.153963 7.9367L0.243694 8.1958C0.301819 8.3751 0.456156 8.5062 0.642497 8.5347C0.642497 8.5347 1.35825 8.636 1.64878 8.6771C1.72186 8.6878 1.78307 8.7381 1.8078 8.8079C1.87619 8.9964 1.95446 9.1813 2.04269 9.3614C2.07609 9.4294 2.06832 9.5105 2.02255 9.5708C1.84399 9.8063 1.41019 10.3782 1.41019 10.3782C1.31328 10.5374 1.31328 10.7373 1.41019 10.8964L1.52983 11.1356C1.81907 11.7133 2.28786 12.1818 2.86582 12.4709L3.10511 12.5905C3.26433 12.6874 3.46433 12.6874 3.62355 12.5905C3.62355 12.5905 4.19693 12.1559 4.43202 11.9778C4.49214 11.9327 4.5723 11.9253 4.6396 11.9585C4.82046 12.0462 5.0058 12.1246 5.19503 12.1925C5.26482 12.2174 5.31507 12.2791 5.32544 12.3526C5.36682 12.6433 5.46801 13.3578 5.46801 13.3578C5.49653 13.5441 5.62763 13.6983 5.807 13.7565L6.06622 13.8461C6.68097 14.0513 7.34578 14.0513 7.96053 13.8461L8.21976 13.7565C8.39902 13.6983 8.53022 13.5441 8.55874 13.3578C8.55874 13.3578 8.65993 12.6433 8.70111 12.3526C8.71188 12.2792 8.76223 12.2179 8.83192 12.1931C9.02095 12.1246 9.20629 12.0462 9.38685 11.9578C9.45435 11.9247 9.53461 11.9325 9.59463 11.9779C9.82982 12.1559 10.4032 12.5905 10.4032 12.5905C10.5624 12.6874 10.7624 12.6874 10.9216 12.5905L11.1609 12.4709C11.7389 12.1818 12.2076 11.7133 12.4969 11.1356L12.6166 10.8964C12.7135 10.7373 12.7135 10.5374 12.6166 10.3782C12.6166 10.3782 12.1827 9.8063 12.0041 9.5709C11.9587 9.5104 11.9513 9.4295 11.9848 9.3617C12.0723 9.1813 12.1505 8.9964 12.2183 8.8076C12.2433 8.7378 12.3047 8.6876 12.378 8.6772C12.6685 8.636 13.3843 8.5347 13.3843 8.5347C13.5706 8.5062 13.7249 8.3751 13.7831 8.1958L13.8728 7.9367C14.0609 7.3127 14.0399 6.6443 13.813 6.0334ZM12.8758 7.578C12.8758 7.578 12.1385 7.6855 11.7206 7.7464C11.5489 7.7714 11.4063 7.8922 11.353 8.0578C11.3032 8.2122 11.2507 8.3752 11.2507 8.3752C11.1722 8.581 11.0789 8.7808 10.9715 8.9731C10.9715 8.9731 10.8923 9.1313 10.8184 9.2793C10.7411 9.4337 10.7573 9.6186 10.8604 9.7571C11.1126 10.0961 11.5597 10.6971 11.5597 10.6971C11.3718 11.0545 11.0798 11.3464 10.7222 11.5342C10.7222 11.5342 10.1229 11.0888 9.78346 10.8364C9.64408 10.7328 9.45804 10.7177 9.3038 10.7974C9.14797 10.878 8.97748 10.9662 8.97748 10.9662C8.7722 11.0724 8.55884 11.1624 8.3394 11.2352C8.3394 11.2352 8.18197 11.2859 8.02992 11.3348C7.86013 11.3895 7.7378 11.5386 7.71696 11.7162C7.66741 12.1384 7.58167 12.8695 7.58167 12.8695C7.19224 12.992 6.77469 12.992 6.38526 12.8695C6.38526 12.8695 6.28347 12.1369 6.22534 11.7186C6.20121 11.545 6.08008 11.4005 5.91358 11.3469C5.75964 11.2973 5.59762 11.2452 5.59762 11.2452C5.38815 11.1677 5.18476 11.0744 4.98945 10.9662C4.98945 10.9662 4.82953 10.8863 4.68088 10.812C4.52764 10.7354 4.34449 10.7516 4.2069 10.8538C3.86802 11.1057 3.26463 11.5541 3.26463 11.5541C2.9071 11.3663 2.61508 11.0744 2.42714 10.717C2.42714 10.717 2.87121 10.1201 3.12385 9.7805C3.22824 9.6402 3.24349 9.4525 3.16303 9.2971C3.08277 9.1419 2.99543 8.9731 2.99543 8.9731C2.88965 8.7677 2.79962 8.5545 2.72624 8.3353C2.72624 8.3353 2.67181 8.1831 2.61986 8.0376C2.56263 7.8776 2.42156 7.7627 2.25376 7.7394C1.83721 7.6816 1.09115 7.578 1.09115 7.578C0.970712 7.1919 0.970712 6.7782 1.09115 6.3921C1.09115 6.3921 1.82844 6.2846 2.24628 6.2237C2.41807 6.1987 2.56064 6.0779 2.61398 5.9123C2.66373 5.7579 2.71627 5.5949 2.71627 5.5949C2.79424 5.3857 2.88756 5.1825 2.99543 4.987C2.99543 4.987 3.0752 4.8275 3.14947 4.679C3.22624 4.5256 3.21069 4.3419 3.10929 4.2036C2.85506 3.8571 2.39723 3.2331 2.39723 3.2331C2.58347 2.8721 2.87569 2.5765 3.23472 2.3861C3.23472 2.3861 3.85266 2.8453 4.18895 3.0953C4.32026 3.1929 4.49354 3.2124 4.64309 3.1465C4.8053 3.0751 4.98945 2.994 4.98945 2.994C5.19473 2.8877 5.40809 2.7978 5.62753 2.7249C5.62753 2.7249 5.78496 2.6742 5.93701 2.6253C6.1068 2.5706 6.22913 2.4215 6.24997 2.2439C6.29952 1.8218 6.38526 1.0906 6.38526 1.0906C6.77469 0.9682 7.19224 0.9682 7.58167 1.0906C7.58167 1.0906 7.68346 1.8232 7.74159 2.2415C7.76572 2.4152 7.88685 2.5596 8.05335 2.6132C8.20729 2.6628 8.36931 2.7149 8.36931 2.7149C8.57878 2.7924 8.78207 2.8857 8.97748 2.994C8.97748 2.994 9.1373 3.0739 9.28595 3.1481C9.43929 3.2247 9.62245 3.2086 9.76003 3.1063C10.0989 2.8545 10.7023 2.406 10.7023 2.406C11.0613 2.5964 11.3535 2.892 11.5398 3.2531C11.5398 3.2531 11.0973 3.8479 10.8444 4.1878C10.7393 4.329 10.7246 4.5183 10.8067 4.6741C10.8862 4.825 10.9715 4.987 10.9715 4.987C11.0773 5.1925 11.1673 5.4057 11.2407 5.6248C11.2407 5.6248 11.2932 5.7878 11.343 5.9422C11.3963 6.1078 11.5389 6.2286 11.7107 6.2536C12.1285 6.3145 12.8658 6.422 12.8658 6.422C12.9833 6.7979 12.9867 7.2001 12.8758 7.578ZM6.98347 4.4887C5.6069 4.4887 4.49095 5.6042 4.49095 6.9801C4.49095 8.356 5.6069 9.4714 6.98347 9.4714C8.36003 9.4714 9.47598 8.356 9.47598 6.9801C9.47598 6.3193 9.21337 5.6856 8.74598 5.2184C8.27848 4.7512 7.64448 4.4887 6.98347 4.4887ZM6.98347 8.4749C6.15754 8.4749 5.48795 7.8056 5.48795 6.9801C5.48795 6.1545 6.15754 5.4853 6.98347 5.4853C7.80939 5.4853 8.47898 6.1545 8.47898 6.9801C8.47898 7.8056 7.80939 8.4749 6.98347 8.4749Z" fill="#242E59"/>
</svg>
