<svg width="14" height="14" viewBox="0 0 14 14" fill="none" xmlns="http://www.w3.org/2000/svg">
<path fill-rule="evenodd" clip-rule="evenodd" d="M13.4494 1.77435L13.5359 1.88074C13.747 2.12896 13.8712 2.43941 13.8895 2.76477L13.8916 2.90185C13.895 2.99603 13.8449 3.08402 13.7622 3.12928L13.3138 3.36832C13.2811 3.38573 13.2609 3.41982 13.2611 3.4569C13.2615 3.5572 13.2564 3.65744 13.2461 3.75717C13.242 3.79475 13.2593 3.83149 13.291 3.85215L13.7168 4.12672C13.7895 4.18495 13.8237 4.27887 13.8054 4.3702L13.7901 4.50305C13.7529 4.82395 13.6128 5.12423 13.3907 5.3589L13.2988 5.45601C13.2405 5.52877 13.1465 5.56297 13.0552 5.54467L12.5705 5.39512C12.5345 5.38405 12.4955 5.39411 12.4694 5.42121C12.3997 5.49362 12.326 5.56215 12.2489 5.62666C12.2204 5.65023 12.2073 5.68764 12.2148 5.72397L12.3198 6.22061C12.3382 6.31301 12.303 6.4079 12.2287 6.4659L12.1222 6.55233C11.8685 6.75387 11.5561 6.86756 11.2322 6.87628L11.0951 6.87851C11.0008 6.88184 10.9129 6.83181 10.8676 6.74915L10.6287 6.30124C10.6113 6.26848 10.5771 6.24809 10.5401 6.24832C10.4395 6.24878 10.3391 6.24364 10.2391 6.23336C10.2018 6.22927 10.1654 6.24646 10.1449 6.27793L9.86977 6.70406C9.81153 6.77682 9.71757 6.81102 9.62618 6.79272L9.49331 6.77744C9.17231 6.74045 8.87193 6.6005 8.63725 6.37853L8.54013 6.2866C8.46739 6.22842 8.4332 6.1345 8.45151 6.04312L8.60115 5.55905C8.61234 5.52289 8.60213 5.48346 8.57481 5.45722C8.50255 5.38769 8.43416 5.3142 8.36979 5.23733C8.34623 5.20876 8.30887 5.1956 8.2727 5.20307L7.77555 5.30825C7.68313 5.32672 7.5882 5.29152 7.53022 5.21722L7.44375 5.11082C7.24223 4.85725 7.1286 4.54504 7.11996 4.22122L7.11782 4.08413C7.11448 3.99 7.16458 3.90201 7.24725 3.85675L7.67551 3.61564C7.70703 3.59789 7.7265 3.56436 7.72625 3.52811C7.72574 3.4273 7.73088 3.32657 7.74122 3.22628C7.74536 3.1887 7.72802 3.15197 7.69636 3.1313L7.27054 2.85673C7.1978 2.79855 7.16361 2.70463 7.18192 2.61325L7.19723 2.48041C7.24105 2.16414 7.38503 1.87017 7.6081 1.6416L7.70007 1.54448C7.75831 1.47173 7.85228 1.43752 7.94366 1.45582L8.42832 1.60538C8.46424 1.61646 8.50333 1.60638 8.52938 1.57929C8.5991 1.50688 8.67278 1.43835 8.74988 1.37383C8.77838 1.35026 8.79155 1.31285 8.78406 1.27652L8.67906 0.779888C8.66059 0.687479 8.69582 0.592609 8.77014 0.534591L8.87662 0.448163C9.13036 0.246621 9.44272 0.132933 9.76665 0.124216L9.89909 0.12369C9.99326 0.120379 10.0813 0.170392 10.1265 0.253048L10.3512 0.689046C10.3685 0.722506 10.403 0.743479 10.4405 0.743278C10.5407 0.742829 10.6409 0.74793 10.7406 0.758199C10.7779 0.762289 10.8143 0.745104 10.8348 0.71365L11.1099 0.287501C11.1681 0.214744 11.2621 0.180542 11.3535 0.198842L11.4864 0.214116C11.8073 0.25111 12.1077 0.391082 12.3424 0.613034L12.4395 0.704961C12.5123 0.763141 12.5465 0.857064 12.5281 0.948436L12.3785 1.43251C12.3673 1.46867 12.3775 1.5081 12.4049 1.53434C12.4771 1.60387 12.5455 1.67736 12.6099 1.75423C12.6334 1.7828 12.6708 1.79596 12.707 1.78849L13.2041 1.68336C13.2965 1.66484 13.3915 1.70009 13.4494 1.77435ZM12.6613 3.07691L13.1354 2.82173C13.1239 2.64053 13.059 2.46686 12.9488 2.32256L12.4216 2.43184C12.3432 2.44811 12.2623 2.41827 12.2131 2.35495L12.1187 2.2336C12.0524 2.15027 11.9798 2.07212 11.9015 1.99979L11.7807 1.89024C11.7206 1.8357 11.6971 1.75139 11.7204 1.67365L11.8744 1.15905C11.7368 1.03202 11.5635 0.950068 11.3779 0.924228L11.0799 1.37623C11.0364 1.44225 10.9596 1.47811 10.881 1.46912L10.723 1.45103C10.6213 1.43495 10.5184 1.4266 10.4154 1.42607L10.2625 1.43186C10.1818 1.43491 10.1066 1.39147 10.0687 1.32003L9.81796 0.846721C9.62987 0.855134 9.4489 0.921004 9.29941 1.03546L9.4226 1.55638C9.44157 1.6366 9.41206 1.72049 9.34709 1.77096L9.22866 1.86293C9.14504 1.92913 9.06674 2.00173 8.99453 2.08016L8.86845 2.20086C8.81402 2.25299 8.73584 2.27188 8.66354 2.25032L8.13814 2.09364C8.01255 2.23276 7.9325 2.4069 7.90869 2.59266L8.37033 2.90072C8.43608 2.94464 8.47179 3.02176 8.4627 3.10032L8.4445 3.25804C8.42856 3.35974 8.42015 3.46248 8.41934 3.5654L8.42505 3.71903C8.42804 3.79918 8.38529 3.87399 8.31478 3.91192L7.84066 4.1671C7.84934 4.35334 7.91456 4.53255 8.02764 4.6808L8.55699 4.56731C8.63339 4.55093 8.71265 4.57845 8.76268 4.63873L8.85572 4.7509C8.92209 4.83428 8.99472 4.91243 9.07295 4.98471L9.19668 5.09862C9.25605 5.15324 9.27903 5.23696 9.25591 5.3142L9.10159 5.82978C9.23939 5.95494 9.41199 6.03532 9.59656 6.06027L9.89455 5.60827C9.93807 5.5423 10.0149 5.50639 10.0934 5.51539L10.2514 5.53351C10.3532 5.54957 10.456 5.5579 10.559 5.55842L10.712 5.55264C10.7926 5.54959 10.8679 5.59307 10.9057 5.66446L11.1565 6.13778C11.3446 6.12941 11.5256 6.06354 11.6751 5.94904L11.5519 5.42812C11.5329 5.3479 11.5624 5.26401 11.6274 5.21353L11.7458 5.12157C11.8294 5.05542 11.9077 4.98277 11.9799 4.90439L12.0948 4.77979C12.1491 4.72093 12.2321 4.69812 12.3088 4.72101L12.8257 4.87519C12.9511 4.73744 13.0316 4.56492 13.0567 4.38046L12.6054 4.08359C12.5389 4.03986 12.5027 3.96233 12.5119 3.88326L12.53 3.72646C12.5462 3.62622 12.5551 3.52495 12.5567 3.42343L12.551 3.2698C12.548 3.18965 12.5907 3.11484 12.6613 3.07691ZM9.31766 3.91981C9.08236 3.27334 9.41593 2.55839 10.0627 2.32298C10.3733 2.20994 10.7161 2.22486 11.0156 2.36442C11.3151 2.50401 11.5469 2.75684 11.6599 3.06731C11.8952 3.71377 11.5616 4.42868 10.9148 4.66409C10.268 4.89949 9.55295 4.56627 9.31766 3.91981ZM9.86155 3.72414C9.98789 4.07125 10.3717 4.25026 10.7189 4.12391C11.066 3.99757 11.245 3.6137 11.1187 3.26659C10.9923 2.91943 10.6085 2.74047 10.2613 2.86681C9.9142 2.99316 9.7352 3.37698 9.86155 3.72414ZM8.82208 8.71203L8.87977 8.8786C9.02564 9.27132 9.03917 9.701 8.91822 10.1021L8.86054 10.2687C8.82317 10.384 8.72395 10.4683 8.60416 10.4866L7.95727 10.5782C7.91016 10.5849 7.87068 10.6171 7.85459 10.662C7.81101 10.7834 7.76076 10.9022 7.70449 11.0182C7.68295 11.0618 7.68776 11.1138 7.71692 11.1527L8.11065 11.6717C8.17294 11.774 8.17294 11.9025 8.11065 12.0048L8.03373 12.1586C7.84773 12.53 7.54643 12.8311 7.17488 13.017L7.02106 13.0939C6.9187 13.1562 6.79013 13.1562 6.68777 13.0939L6.16798 12.7001C6.12939 12.6709 6.0778 12.6659 6.0344 12.6871C5.91833 12.744 5.79918 12.7944 5.67766 12.8384C5.63286 12.8543 5.60049 12.8938 5.59357 12.9409L5.50205 13.5871C5.48372 13.7069 5.39937 13.806 5.28413 13.8434L5.11749 13.901C4.72229 14.033 4.29491 14.033 3.89971 13.901L3.73307 13.8434C3.61777 13.806 3.53348 13.7069 3.51515 13.5871L3.4235 12.9409C3.41683 12.8937 3.38453 12.854 3.33966 12.838C3.21801 12.7944 3.09887 12.744 2.9826 12.6876C2.93934 12.6662 2.88781 12.671 2.84916 12.7L2.32942 13.0939C2.22707 13.1562 2.0985 13.1562 1.99614 13.0939L1.84232 13.017C1.47077 12.8311 1.1694 12.53 0.983464 12.1586L0.906552 12.0048C0.844254 11.9025 0.844254 11.774 0.906552 11.6717L1.30021 11.1526C1.32963 11.1139 1.33463 11.0617 1.31316 11.018C1.25644 10.9022 1.20612 10.7834 1.16216 10.6622C1.14626 10.6173 1.10691 10.585 1.05993 10.5781L0.413034 10.4866C0.293243 10.4683 0.194027 10.384 0.15666 10.2687L0.0989762 10.1021C-0.0329921 9.70717 -0.0329921 9.28 0.0989762 8.88496L0.15666 8.7184C0.194027 8.6032 0.293243 8.51892 0.413034 8.5006L1.03647 8.39761C1.08236 8.39002 1.12062 8.35807 1.13626 8.31417C1.17997 8.19215 1.23048 8.07271 1.28707 7.9561C1.30861 7.91251 1.3038 7.8605 1.27464 7.82161L0.880915 7.30263C0.818616 7.20035 0.818616 7.07185 0.880915 6.9695L0.957827 6.81573C1.14985 6.4529 1.45308 6.16105 1.82309 5.98297L1.97691 5.90609C2.07927 5.8438 2.20784 5.8438 2.3102 5.90609L2.82999 6.2999C2.86851 6.32909 2.92017 6.3341 2.96356 6.31282C3.07964 6.256 3.19879 6.2056 3.32031 6.16156C3.36511 6.14562 3.39748 6.10621 3.4044 6.05902L3.49592 5.41282C3.51425 5.29306 3.59854 5.19393 3.71384 5.15652L3.88048 5.09892C4.27568 4.967 4.70306 4.967 5.09826 5.09892L5.25849 5.15652C5.37373 5.19393 5.45808 5.29306 5.47641 5.41282L5.55614 6.03839C5.56229 6.08641 5.59472 6.12691 5.64017 6.14317C5.76143 6.1867 5.8802 6.2369 5.99614 6.29315C6.0394 6.3145 6.09094 6.30974 6.12952 6.28075L6.64932 5.88687C6.75167 5.82457 6.88024 5.82457 6.9826 5.88687L7.13643 5.96375C7.50798 6.1496 7.80928 6.45078 7.99528 6.82216L8.07219 6.97593C8.13449 7.07821 8.13449 7.20672 8.07219 7.30906L7.67853 7.8281C7.64911 7.86687 7.64411 7.919 7.66558 7.96272C7.7223 8.0785 7.77262 8.19736 7.81658 8.31854C7.83248 8.36341 7.87183 8.39575 7.91881 8.40262L8.56571 8.49423C8.6855 8.51249 8.78471 8.59683 8.82208 8.71203ZM7.29704 9.93916L7.98206 9.83935C8.04786 9.61538 8.04579 9.377 7.97615 9.15421L7.29113 9.05441C7.18925 9.03959 7.10471 8.96799 7.07307 8.86984L7.01241 8.68173C6.9689 8.55187 6.91551 8.42551 6.85277 8.30371L6.75504 8.11826C6.70638 8.02592 6.71507 7.91373 6.77739 7.83004L7.18979 7.27606C7.07934 7.06205 6.90605 6.88685 6.69314 6.774L6.13435 7.18906C6.05276 7.24969 5.94414 7.25923 5.85321 7.21383L5.67028 7.1225C5.55439 7.05831 5.43384 7.00302 5.30962 6.95708L5.12225 6.89681C5.02351 6.86504 4.95168 6.77946 4.93737 6.67651L4.84253 5.99439C4.61159 5.92185 4.36398 5.92185 4.13303 5.99439L4.0528 6.67793C4.04044 6.78319 3.9679 6.87156 3.86721 6.90398L3.68369 6.96301C3.55355 7.00622 3.42703 7.0595 3.30529 7.1225L3.09989 7.21288C3.0112 7.25194 2.90844 7.24038 2.83057 7.18254L2.26469 6.76221C2.05178 6.87506 1.87849 7.05025 1.76804 7.26421L2.19031 7.83941C2.25044 7.92138 2.25967 8.03025 2.21414 8.12117L2.12279 8.30371C2.05882 8.41958 2.00348 8.54002 1.95724 8.66401L1.89658 8.85212C1.86495 8.95027 1.7804 9.02187 1.67853 9.03668L0.993508 9.13649C0.922086 9.36533 0.922086 9.61052 0.993508 9.83935L1.68296 9.93501C1.78247 9.94882 1.86613 10.0169 1.90007 10.1117L1.96315 10.2882C2.00667 10.4181 2.06006 10.5445 2.12279 10.6662L2.22218 10.8582C2.26989 10.9503 2.26085 11.0616 2.19894 11.1447L1.78578 11.6998C1.89723 11.9116 2.07041 12.0846 2.28243 12.1959L2.84122 11.7809C2.92281 11.7203 3.03142 11.7107 3.1223 11.7561L3.30529 11.8475C3.42111 11.9116 3.54173 11.9669 3.66595 12.0128L3.85332 12.0731C3.95205 12.1049 4.02389 12.1905 4.0382 12.2934L4.13303 12.9755C4.36398 13.0481 4.61159 13.0481 4.84253 12.9755L4.92276 12.292C4.93512 12.1867 5.00767 12.0984 5.10836 12.0659L5.29188 12.0069C5.42201 11.9638 5.54854 11.9104 5.67028 11.8475L5.86379 11.7474C5.95526 11.7002 6.06559 11.7091 6.14824 11.7705L6.70496 12.1841C6.91698 12.0728 7.09016 11.8998 7.20161 11.688L6.78691 11.1309C6.72577 11.0488 6.71614 10.9392 6.76196 10.8477L6.85277 10.6662C6.91645 10.5522 6.97179 10.4338 7.01832 10.3118L7.07899 10.1237C7.11062 10.0256 7.19517 9.95398 7.29704 9.93916ZM2.88689 9.48719C2.88689 8.60269 3.60429 7.88558 4.48923 7.88558C4.91417 7.88558 5.32174 8.05433 5.62227 8.35467C5.92274 8.65502 6.09156 9.06239 6.09156 9.48719C6.09156 10.3717 5.37416 11.0887 4.48923 11.0887C3.60429 11.0887 2.88689 10.3717 2.88689 9.48719ZM3.62988 9.48998C3.62988 9.96491 4.01493 10.35 4.48988 10.35C4.96483 10.35 5.34988 9.96491 5.34988 9.48998C5.34988 9.01499 4.96483 8.62998 4.48988 8.62998C4.01493 8.62998 3.62988 9.01499 3.62988 9.48998Z" fill="#242E59"/>
</svg>
