<svg width="14" height="14" viewBox="0 0 14 14" fill="none" xmlns="http://www.w3.org/2000/svg">
<path fill-rule="evenodd" clip-rule="evenodd" d="M6.998 0C3.14 0 0 3.137 0 6.991C0 10.843 3.14 13.977 6.998 13.977C10.856 13.977 13.996 10.843 13.996 6.991C13.996 3.137 10.856 0 6.998 0ZM5.922 1.032C5.325 1.579 4.575 2.432 4.03 3.62C3.373 3.301 2.93 2.943 2.696 2.727C3.574 1.846 4.708 1.253 5.922 1.032ZM2.26 3.212C2.527 3.463 3.035 3.876 3.782 4.233C3.507 4.999 3.354 5.816 3.323 6.665H0.943C1.011 5.397 1.464 4.205 2.26 3.212ZM0.943 7.312H3.323C3.354 8.16 3.508 8.979 3.782 9.745C3.035 10.102 2.526 10.517 2.26 10.764C1.464 9.772 1.011 8.581 0.943 7.312ZM2.696 11.251C2.929 11.035 3.369 10.679 4.03 10.357C4.575 11.548 5.324 12.399 5.922 12.944C4.708 12.724 3.574 12.133 2.696 11.251ZM6.673 12.724C6.129 12.278 5.255 11.41 4.643 10.099C5.278 9.868 5.961 9.732 6.673 9.701V12.724ZM6.673 9.051C5.869 9.082 5.103 9.229 4.393 9.49C4.144 8.801 4.003 8.069 3.972 7.312H6.673V9.051ZM6.673 6.665H3.972C4.003 5.907 4.144 5.176 4.393 4.489C5.103 4.748 5.87 4.895 6.673 4.925V6.665ZM6.673 4.275C5.957 4.243 5.277 4.11 4.643 3.88C5.253 2.57 6.129 1.7 6.673 1.253V4.275ZM13.053 6.665H10.675C10.643 5.813 10.489 4.998 10.215 4.233C10.961 3.876 11.469 3.463 11.737 3.212C12.531 4.205 12.984 5.396 13.053 6.665ZM11.3 2.726C11.067 2.942 10.624 3.299 9.965 3.619C9.419 2.431 8.671 1.577 8.074 1.031C9.29 1.253 10.424 1.846 11.3 2.726ZM7.323 1.253C7.865 1.702 8.743 2.57 9.353 3.88C8.718 4.11 8.037 4.243 7.323 4.275V1.253ZM7.323 4.925C8.126 4.895 8.892 4.748 9.603 4.489C9.852 5.181 9.992 5.91 10.023 6.665H7.323V4.925ZM7.323 7.312H10.023C9.992 8.066 9.852 8.8 9.603 9.49C8.893 9.229 8.127 9.082 7.323 9.051V7.312ZM7.323 12.724V9.701C8.035 9.732 8.716 9.866 9.353 10.099C8.741 11.41 7.865 12.278 7.323 12.724ZM8.074 12.942C8.671 12.398 9.419 11.546 9.965 10.356C10.625 10.679 11.067 11.036 11.3 11.25C10.422 12.133 9.288 12.724 8.074 12.942ZM11.735 10.764C11.469 10.517 10.961 10.104 10.213 9.745C10.487 8.979 10.641 8.163 10.674 7.312H13.051C12.984 8.581 12.531 9.772 11.735 10.764Z" fill="#313E75"/>
</svg>
