<?xml version="1.0" standalone="no"?><!DOCTYPE svg PUBLIC "-//W3C//DTD SVG 1.1//EN" "http://www.w3.org/Graphics/SVG/1.1/DTD/svg11.dtd"><svg class="icon" width="32px" height="32.00px" viewBox="0 0 1024 1024" version="1.1" xmlns="http://www.w3.org/2000/svg"><path fill="#000000" d="M179.2 51.2A128 128 0 0 1 204.8 304.64v81.92a128 128 0 0 1 0 250.88v81.92a128 128 0 1 1-51.2 0v-81.92a128 128 0 0 1 0-250.88v-81.92A128 128 0 0 1 179.2 51.2zM921.6 768a51.2 51.2 0 0 1 51.2 51.2v51.2a51.2 51.2 0 0 1-51.2 51.2H409.6a51.2 51.2 0 0 1-51.2-51.2v-51.2a51.2 51.2 0 0 1 51.2-51.2h512z m0-332.8a51.2 51.2 0 0 1 51.2 51.2v51.2a51.2 51.2 0 0 1-51.2 51.2H409.6a51.2 51.2 0 0 1-51.2-51.2v-51.2a51.2 51.2 0 0 1 51.2-51.2h512zM921.6 102.4a51.2 51.2 0 0 1 51.2 51.2v51.2a51.2 51.2 0 0 1-51.2 51.2H409.6a51.2 51.2 0 0 1-51.2-51.2V153.6a51.2 51.2 0 0 1 51.2-51.2h512z" /></svg>