<?xml version="1.0" standalone="no"?><!DOCTYPE svg PUBLIC "-//W3C//DTD SVG 1.1//EN" "http://www.w3.org/Graphics/SVG/1.1/DTD/svg11.dtd"><svg class="icon" width="32px" height="23.39px" viewBox="0 0 1401 1024" version="1.1" xmlns="http://www.w3.org/2000/svg"><path fill="#000000" d="M916.210526 43.115789c253.143579 0 458.105263 210.081684 458.105263 468.884211s-204.961684 468.884211-458.105263 468.884211a447.757474 447.757474 0 0 1-215.578947-55.080422A447.649684 447.649684 0 0 1 485.052632 980.884211C231.909053 980.884211 26.947368 770.802526 26.947368 512S231.909053 43.115789 485.052632 43.115789c81.650526 0 160.229053 21.935158 229.376 62.949053l-13.850948-7.868631A447.757474 447.757474 0 0 1 916.210526 43.115789z m0 53.894737c-73.027368 0-141.581474 19.941053-200.757894 54.703158l-1.077895 0.700632a405.773474 405.773474 0 0 0-26.677895 17.246316l2.15579-1.509053c-3.503158 2.479158-7.006316 4.958316-10.455579 7.545263l8.299789-6.03621c-4.527158 3.233684-9.054316 6.467368-13.473684 9.862736l5.173895-3.826526c-3.610947 2.694737-7.168 5.389474-10.671158 8.192l5.551158-4.311579c-3.503158 2.694737-7.006316 5.389474-10.401685 8.245895l4.850527-3.934316c-3.395368 2.694737-6.736842 5.389474-10.024421 8.245895l5.173894-4.311579a409.869474 409.869474 0 0 0-30.019368 27.162947l5.12-4.958316a411.863579 411.863579 0 0 0-8.677053 8.623158l3.557053-3.664842a410.462316 410.462316 0 0 0-9.162105 9.539369l5.605052-5.874527c-3.557053 3.664842-7.006316 7.383579-10.455579 11.156211l4.850527-5.281684a411.324632 411.324632 0 0 0-8.623158 9.431579l3.772631-4.149895a413.911579 413.911579 0 0 0-9.431579 10.778947l5.712843-6.629052-8.084211 9.431579 2.371368-2.802527c-2.694737 3.233684-5.389474 6.467368-7.976421 9.808842l5.605053-7.006315a413.696 413.696 0 0 0-28.672 39.127579l4.042105-6.144A421.025684 421.025684 0 0 0 514.155789 469.045895l0.646737-5.658948c-0.538947 4.473263-0.916211 8.892632-1.293473 13.41979l0.700631-7.760842a428.409263 428.409263 0 0 0-1.185684 14.012631l0.485053-6.251789a429.594947 429.594947 0 0 0 0 70.117052l-0.538948-6.844631c0.323368 4.634947 0.700632 9.269895 1.13179 13.850947l-0.646737-7.006316c0.377263 4.581053 0.808421 9.162105 1.347368 13.689264l-0.700631-6.682948a421.349053 421.349053 0 0 0 69.362526 193.697684l-4.042105-6.090105a415.851789 415.851789 0 0 0 30.989473 41.876211l-4.257684-5.173895c3.233684 3.988211 6.629053 7.922526 10.024421 11.802947l-5.766737-6.629052c3.072 3.664842 6.251789 7.275789 9.431579 10.778947l-3.664842-4.149895c2.964211 3.395368 6.036211 6.736842 9.108211 9.970527l-5.389474-5.766737c2.425263 2.694737 4.958316 5.443368 7.545263 8.138105l-2.155789-2.371368a410.947368 410.947368 0 0 0 37.726316 35.462737l-3.072-2.586948c13.312 11.210105 27.270737 21.557895 41.930105 30.989474l12.557474 7.760842 8.569263 4.904421A394.186105 394.186105 0 0 0 916.210526 926.989474c223.124211 0 404.210526-185.667368 404.210527-414.989474 0-229.322105-181.086316-414.989474-404.210527-414.989474z" /></svg>