<?xml version="1.0" standalone="no"?><!DOCTYPE svg PUBLIC "-//W3C//DTD SVG 1.1//EN" "http://www.w3.org/Graphics/SVG/1.1/DTD/svg11.dtd"><svg class="icon" width="32px" height="32.00px" viewBox="0 0 1024 1024" version="1.1" xmlns="http://www.w3.org/2000/svg"><path fill="#000000" d="M460.8 512a204.8 204.8 0 0 1 204.8 204.8v51.2a204.8 204.8 0 0 1-204.8 204.8H256a204.8 204.8 0 0 1-204.8-204.8v-51.2a204.8 204.8 0 0 1 204.8-204.8h204.8z m358.4 0a153.6 153.6 0 0 1 153.6 153.6v51.2a153.6 153.6 0 0 1-153.6 153.6h-102.4c-7.0144 0-13.9776-0.512-20.736-1.3824A254.5664 254.5664 0 0 0 716.8 768v-51.2a255.232 255.232 0 0 0-77.6704-183.6544A152.2176 152.2176 0 0 1 716.8 512h102.4z m-51.2-358.4a153.6 153.6 0 1 1 0 307.2 153.6 153.6 0 0 1 0-307.2zM358.4 51.2a204.8 204.8 0 1 1 0 409.6 204.8 204.8 0 0 1 0-409.6z" /></svg>