<?xml version="1.0" standalone="no"?><!DOCTYPE svg PUBLIC "-//W3C//DTD SVG 1.1//EN" "http://www.w3.org/Graphics/SVG/1.1/DTD/svg11.dtd"><svg class="icon" width="32px" height="32.00px" viewBox="0 0 1024 1024" version="1.1" xmlns="http://www.w3.org/2000/svg"><path fill="#000000" d="M418.2528 51.0976a102.4 102.4 0 0 1 72.5504 30.208l460.9536 463.1552a102.2976 102.2976 0 0 1-0.4096 144.7424l-264.9088 263.2192a102.4 102.4 0 0 1-144.2304 0.1536l-460.7488-456.192a102.4 102.4 0 0 1-30.3616-72.704V102.2464a51.2 51.2 0 0 1 51.2-51.2h315.904z m306.0224 519.4752l-153.6 153.7536a25.6 25.6 0 0 0 36.2496 36.1984l153.6-153.6a25.6 25.6 0 0 0 0-36.1984 25.4464 25.4464 0 0 0-36.2496-0.1536zM307.2 204.8a102.4 102.4 0 1 0 0 204.8 102.4 102.4 0 0 0 0-204.8z m343.9616-118.6816l244.0192 56.9344a102.2976 102.2976 0 0 1 77.9264 115.4048l-1.536 7.5776-28.7232 122.368a20.48 20.48 0 0 1-34.4576 9.7792l-276.3776-277.6576a20.48 20.48 0 0 1 19.1488-34.4064z" /></svg>