<?xml version="1.0" standalone="no"?><!DOCTYPE svg PUBLIC "-//W3C//DTD SVG 1.1//EN" "http://www.w3.org/Graphics/SVG/1.1/DTD/svg11.dtd"><svg class="icon" width="32px" height="23.39px" viewBox="0 0 1401 1024" version="1.1" xmlns="http://www.w3.org/2000/svg"><path fill="#000000" d="M916.210526 43.115789c253.143579 0 458.105263 210.081684 458.105263 468.884211s-204.961684 468.884211-458.105263 468.884211a447.757474 447.757474 0 0 1-215.578947-55.080422A447.434105 447.434105 0 0 1 485.052632 980.884211C231.909053 980.884211 26.947368 770.802526 26.947368 512S231.909053 43.115789 485.052632 43.115789c77.985684 0 151.336421 19.941053 215.578947 55.080422A447.434105 447.434105 0 0 1 916.210526 43.115789z m-431.157894 53.894737c-223.124211 0-404.210526 185.667368-404.210527 414.989474 0 229.322105 181.086316 414.989474 404.210527 414.989474a393.916632 393.916632 0 0 0 162.762105-35.031579A471.578947 471.578947 0 0 1 458.105263 512c0-156.294737 74.752-294.804211 189.709474-379.957895A394.293895 394.293895 0 0 0 485.052632 97.010526z m431.157894 0a393.916632 393.916632 0 0 0-162.762105 35.031579A471.578947 471.578947 0 0 1 943.157895 512c0 156.294737-74.752 294.804211-189.709474 379.957895 49.798737 22.528 104.879158 35.031579 162.762105 35.031579 223.124211 0 404.210526-185.667368 404.210527-414.989474 0-229.322105-181.086316-414.989474-404.210527-414.989474z" /></svg>