<?xml version="1.0" standalone="no"?><!DOCTYPE svg PUBLIC "-//W3C//DTD SVG 1.1//EN" "http://www.w3.org/Graphics/SVG/1.1/DTD/svg11.dtd"><svg class="icon" width="32px" height="32.00px" viewBox="0 0 1024 1024" version="1.1" xmlns="http://www.w3.org/2000/svg"><path fill="#000000" d="M870.4 768a102.4 102.4 0 1 1 0 204.8 102.4 102.4 0 0 1 0-204.8zM691.2 256a230.4 230.4 0 0 1 10.8544 460.544L691.2 716.8H409.6a51.2 51.2 0 0 0-5.9904 102.0416L409.6 819.2h315.904a153.344 153.344 0 0 0 0 102.4H409.6a153.6 153.6 0 0 1-9.0112-306.944L409.6 614.4h281.6a128 128 0 0 0 8.3968-255.744L691.2 358.4h-81.0496a309.248 309.248 0 0 0 0-102.4H691.2zM307.2 51.2a256 256 0 1 1 0 512A256 256 0 0 1 307.2 51.2z m-0.1024 102.4a25.6 25.6 0 0 0-25.1392 20.992l-0.4608 4.608v102.4h-102.4l-4.608 0.4096a25.6 25.6 0 0 0 0 50.3808l4.608 0.4096h102.4v102.4l0.4608 4.608a25.6 25.6 0 0 0 50.3296 0l0.4096-4.608v-102.4h102.4l4.608-0.4096a25.6 25.6 0 0 0 0-50.3808l-4.608-0.4096h-102.4v-102.4l-0.4096-4.608A25.6 25.6 0 0 0 307.0976 153.6z" /></svg>