<?xml version="1.0" standalone="no"?><!DOCTYPE svg PUBLIC "-//W3C//DTD SVG 1.1//EN" "http://www.w3.org/Graphics/SVG/1.1/DTD/svg11.dtd"><svg class="icon" width="32px" height="23.39px" viewBox="0 0 1401 1024" version="1.1" xmlns="http://www.w3.org/2000/svg"><path fill="#000000" d="M485.052632 70.063158c78.578526 0 152.198737 21.557895 215.632842 59.176421C571.769263 205.608421 485.052632 348.429474 485.052632 512s86.716632 306.391579 215.578947 382.814316A421.133474 421.133474 0 0 1 485.052632 953.936842c-238.106947 0-431.157895-197.847579-431.157895-441.936842s193.050947-441.936842 431.157895-441.936842z m431.157894 0c238.106947 0 431.157895 197.847579 431.157895 441.936842s-193.050947 441.936842-431.157895 441.936842c-78.524632 0-152.144842-21.557895-215.578947-59.122526 128.916211-76.476632 215.578947-219.243789 215.578947-382.814316s-86.662737-306.337684-215.525052-382.760421A420.540632 420.540632 0 0 1 916.210526 70.063158z" /></svg>