<svg width="14" height="14" viewBox="0 0 14 14" fill="none" xmlns="http://www.w3.org/2000/svg">
<path fill-rule="evenodd" clip-rule="evenodd" d="M12.3939 1.49996C12.5892 1.69522 12.5892 2.01181 12.3939 2.20707L12.1646 2.43637C12.1371 2.45458 12.111 2.47581 12.0868 2.50004L2.02317 12.5636C1.82904 12.6922 1.56493 12.671 1.39389 12.5C1.19863 12.3047 1.19863 11.9881 1.39389 11.7929L2.56586 10.6209C1.52909 9.82574 0.681956 8.75923 0.112434 7.51676C0.00469186 7.28171 0.00469208 7.01119 0.112435 6.77614C1.3702 4.0322 3.98197 2.14648 7 2.14648C8.16436 2.14648 9.26824 2.42716 10.2572 2.92951L11.6868 1.49996C11.8821 1.3047 12.1986 1.3047 12.3939 1.49996ZM4.35936 11.6417C5.18283 11.9682 6.07222 12.1464 7.00001 12.1464C10.018 12.1464 12.6298 10.2607 13.8876 7.51678C13.9953 7.28172 13.9953 7.01121 13.8876 6.77615C13.4102 5.73471 12.7378 4.8169 11.9221 4.0789L11.2143 4.78668C11.931 5.42526 12.5278 6.2263 12.9571 7.14646C11.8339 9.55429 9.56317 11.1464 7.00001 11.1464C6.35788 11.1464 5.73412 11.0465 5.14215 10.8589L4.35936 11.6417ZM5.64414 10.3569C6.07188 10.5432 6.54408 10.6465 7.04042 10.6465C8.97341 10.6465 10.5404 9.07948 10.5404 7.14648C10.5404 6.65015 10.4371 6.17795 10.2508 5.75021L9.46528 6.53574C9.51435 6.7312 9.54042 6.9358 9.54042 7.14648C9.54042 8.5272 8.42113 9.64648 7.04042 9.64648C6.82973 9.64648 6.62513 9.62042 6.42967 9.57135L5.64414 10.3569ZM7 3.14648C7.88175 3.14648 8.7289 3.3349 9.50662 3.68013L8.96445 4.2223C8.41238 3.85832 7.75114 3.64648 7.04042 3.64648C5.10742 3.64648 3.54042 5.21349 3.54042 7.14648C3.54042 7.8572 3.75226 8.51845 4.11624 9.07051L3.27992 9.90683C2.34209 9.21726 1.56741 8.27078 1.04293 7.14645C2.16615 4.73862 4.43683 3.14648 7 3.14648ZM7.04042 4.64648C7.47359 4.64648 7.88103 4.75665 8.23625 4.9505L4.84443 8.34232C4.65059 7.9871 4.54042 7.57966 4.54042 7.14648C4.54042 5.76577 5.65971 4.64648 7.04042 4.64648Z" fill="#313E75"/>
</svg>
