<svg width="16" height="16" viewBox="0 0 16 16" fill="none" xmlns="http://www.w3.org/2000/svg">
<path fill-rule="evenodd" clip-rule="evenodd" d="M1.39606 7.08095H0.594238L1.99988 9.21009L3.40553 7.08095H2.74545C3.18102 4.57343 5.36779 2.66674 7.99989 2.66674C10.9454 2.66674 13.3332 5.05455 13.3332 8.00007C13.3332 10.9456 10.9454 13.3334 7.99989 13.3334C6.14545 13.3334 4.51165 12.3875 3.55504 10.9488L2.44473 11.687C3.63797 13.4816 5.68038 14.6667 7.99989 14.6667C11.6818 14.6667 14.6666 11.682 14.6666 8.00007C14.6666 4.31817 11.6818 1.3334 7.99989 1.3334C4.62982 1.3334 1.84381 3.834 1.39606 7.08095ZM8.33322 8.00007V5.66674H6.99989V9.3334H10.6666V8.00007H8.33322Z" fill="#242E59"/>
</svg>
