<svg width="14" height="14" viewBox="0 0 14 14" fill="none" xmlns="http://www.w3.org/2000/svg">
<path fill-rule="evenodd" clip-rule="evenodd" d="M11.8435 7.05386L7.00016 1.51857L2.15679 7.05386C2.64538 7.20573 3.00016 7.66142 3.00016 8.19998V13H4.98022C4.98371 12.9995 4.99029 12.9985 5 12.9967V8.19998C5 7.53724 5.53726 6.99998 6.2 6.99998H7.8C8.46274 6.99998 9 7.53724 9 8.19998V12.9801C9.00052 12.9836 9.00152 12.9902 9.00334 13H11.0002V8.19998C11.0002 7.66142 11.3549 7.20573 11.8435 7.05386ZM6.3981 0.688052C6.71683 0.32379 7.28349 0.323791 7.60222 0.688053L13.2746 7.17073C13.5574 7.49402 13.3279 7.99998 12.8983 7.99998H12.2002C12.0897 7.99998 12.0002 8.08953 12.0002 8.19998V13.5C12.0002 13.7761 11.7763 14 11.5002 14H9V14H5V14H2.50016C2.22402 14 2.00016 13.7761 2.00016 13.5V8.19998C2.00016 8.08953 1.91062 7.99998 1.80016 7.99998H1.10205C0.672467 7.99998 0.442879 7.49402 0.725759 7.17073L6.3981 0.688052ZM6 13H8V8.19998C8 8.08953 7.91046 7.99998 7.8 7.99998H6.2C6.08954 7.99998 6 8.08953 6 8.19998V13Z" fill="#313E75"/>
</svg>
