<svg width="14" height="14" viewBox="0 0 14 14" fill="none" xmlns="http://www.w3.org/2000/svg">
<path fill-rule="evenodd" clip-rule="evenodd" d="M6.3981 0.687991C6.71683 0.323729 7.28349 0.32373 7.60222 0.687992L13.2746 7.17067C13.5574 7.49396 13.3279 7.99992 12.8983 7.99992H12.2002C12.0897 7.99992 12.0002 8.08946 12.0002 8.19992V13.4999C12.0002 13.7761 11.7763 13.9999 11.5002 13.9999H9.00016C8.72402 13.9999 8.50016 13.7761 8.50016 13.4999V8.19992C8.50016 8.08946 8.41062 7.99992 8.30016 7.99992H5.70016C5.58971 7.99992 5.50016 8.08946 5.50016 8.19992V13.4999C5.50016 13.7761 5.27631 13.9999 5.00016 13.9999H2.50016C2.22402 13.9999 2.00016 13.7761 2.00016 13.4999V8.19992C2.00016 8.08946 1.91062 7.99992 1.80016 7.99992H1.10205C0.672467 7.99992 0.442879 7.49396 0.725759 7.17067L6.3981 0.687991Z" fill="#242E59"/>
</svg>
