<svg width="14" height="14" viewBox="0 0 14 14" fill="none" xmlns="http://www.w3.org/2000/svg">
<path fill-rule="evenodd" clip-rule="evenodd" d="M11.8435 7.0538L7.00016 1.51851L2.15679 7.0538C2.64538 7.20567 3.00016 7.66136 3.00016 8.19992V12.9999H4.98022C4.98371 12.9994 4.99029 12.9984 5 12.9966V8.19992C5 7.53718 5.53726 6.99992 6.2 6.99992H7.8C8.46274 6.99992 9 7.53718 9 8.19992V12.98C9.00052 12.9835 9.00152 12.9901 9.00334 12.9999H11.0002V8.19992C11.0002 7.66136 11.3549 7.20567 11.8435 7.0538ZM6.3981 0.687991C6.71683 0.323729 7.28349 0.32373 7.60222 0.687992L13.2746 7.17067C13.5574 7.49396 13.3279 7.99992 12.8983 7.99992H12.2002C12.0897 7.99992 12.0002 8.08946 12.0002 8.19992V13.4999C12.0002 13.7761 11.7763 13.9999 11.5002 13.9999H9V13.9999H5V13.9999H2.50016C2.22402 13.9999 2.00016 13.7761 2.00016 13.4999V8.19992C2.00016 8.08946 1.91062 7.99992 1.80016 7.99992H1.10205C0.672467 7.99992 0.442879 7.49396 0.725759 7.17067L6.3981 0.687991ZM6 12.9999H8V8.19992C8 8.08946 7.91046 7.99992 7.8 7.99992H6.2C6.08954 7.99992 6 8.08946 6 8.19992V12.9999Z" fill="#242E59"/>
</svg>
