<svg width="14" height="14" viewBox="0 0 14 14" fill="none" xmlns="http://www.w3.org/2000/svg">
<path fill-rule="evenodd" clip-rule="evenodd" d="M14 2C14 1.4477 13.5523 1 13 1H1C0.4477 1 -9.99498e-05 1.4477 1.67341e-08 2V12C-9.99498e-05 12.5523 0.4477 13 1 13H13C13.5523 13 14 12.5523 14 12V2ZM13 2.5C13 2.3674 12.9473 2.2402 12.8536 2.1464C12.7598 2.0527 12.6326 2 12.5 2H1.5C1.3674 2 1.2402 2.0527 1.1464 2.1464C1.0527 2.2402 1 2.3674 1 2.5V11.5C1 11.6326 1.0527 11.7598 1.1464 11.8536C1.2402 11.9473 1.3674 12 1.5 12H12.5C12.6326 12 12.7598 11.9473 12.8536 11.8536C12.9473 11.7598 13 11.6326 13 11.5V2.5ZM4.041 6.9124C3.7065 6.6371 3.4931 6.2201 3.4931 5.7536C3.4931 4.9257 4.1652 4.2536 4.9931 4.2536C5.8209 4.2536 6.4931 4.9257 6.4931 5.7536C6.4931 6.2201 6.2796 6.6373 5.9451 6.9124C7.0496 7.2822 7.8686 8.2778 7.98 9.4774C7.9848 9.546 7.9608 9.6136 7.9138 9.6639C7.8669 9.7142 7.8011 9.7428 7.7323 9.7428C7.7319 9.7464 7.7316 9.7464 7.7312 9.7464C7.5979 9.746 7.4875 9.6431 7.4777 9.5102C7.3562 8.2463 6.2891 7.2579 4.993 7.2579C3.6996 7.2579 2.6342 8.2423 2.506 9.5023C2.4956 9.6376 2.3828 9.7422 2.247 9.7422C2.245 9.7464 2.243 9.7464 2.241 9.7464C2.1745 9.7467 2.1108 9.7194 2.0652 9.6709C2.0196 9.6224 1.9962 9.5572 2.0005 9.4908C2.1103 8.2854 2.9319 7.2837 4.041 6.9124ZM4.9931 4.7536C5.545 4.7536 5.9931 5.2016 5.9931 5.7536C5.9931 6.3055 5.545 6.7536 4.9931 6.7536C4.4411 6.7536 3.9931 6.3055 3.9931 5.7536C3.9931 5.2016 4.4411 4.7536 4.9931 4.7536ZM11.6346 4.25363C11.855 4.25363 12.0336 4.43223 12.0336 4.65263V4.65463C12.0336 4.87493 11.855 5.05353 11.6346 5.05363H9.399C9.1786 5.05353 9 4.87493 9 4.65463V4.65263C9 4.43223 9.1786 4.25363 9.399 4.25363H11.6346ZM11.2752 6.999C11.2752 6.8932 11.2332 6.7917 11.1584 6.7169C11.0835 6.642 10.982 6.6 10.8762 6.6H9.399C9.2932 6.6 9.1917 6.642 9.1169 6.7169C9.042 6.7917 9 6.8932 9 6.999V7.001C9 7.1068 9.042 7.2083 9.1169 7.2831C9.1917 7.358 9.2932 7.4 9.399 7.4H10.8762C10.982 7.4 11.0835 7.358 11.1584 7.2831C11.2332 7.2083 11.2752 7.1068 11.2752 7.001V6.999ZM10.1178 8.94637C10.3382 8.94647 10.5168 9.12507 10.5168 9.34537V9.34737C10.5168 9.56777 10.3382 9.74637 10.1178 9.74637H9.399C9.1786 9.74637 9 9.56777 9 9.34737V9.34537C9 9.12507 9.1786 8.94647 9.399 8.94637H10.1178Z" fill="#242E59"/>
</svg>
