<svg width="14" height="14" viewBox="0 0 14 14" fill="none" xmlns="http://www.w3.org/2000/svg">
<path fill-rule="evenodd" clip-rule="evenodd" d="M14 7C14 3.1366 10.8634 0 7 0C3.1366 0 0 3.1366 0 7C0 10.8634 3.1366 14 7 14C10.8634 14 14 10.8634 14 7ZM7 13C10.3137 13 13 10.3137 13 7C13 3.68629 10.3137 1 7 1C3.68629 1 1 3.68629 1 7C1 10.3137 3.68629 13 7 13ZM6.3 6.7C6.3 6.3134 6.6134 6 7 6C7.3866 6 7.7 6.3134 7.7 6.7V10.3C7.7 10.6866 7.3866 11 7 11C6.6134 11 6.3 10.6866 6.3 10.3V6.7ZM7.90001 4.15C7.90001 3.65332 7.49669 3.25 7.00001 3.25C6.50333 3.25 6.10001 3.65332 6.10001 4.15C6.10001 4.64668 6.50333 5.05 7.00001 5.05C7.49669 5.05 7.90001 4.64668 7.90001 4.15Z" fill="#242E59"/>
</svg>
