<svg width="14" height="14" viewBox="0 0 14 14" fill="none" xmlns="http://www.w3.org/2000/svg">
<mask id="mask0" mask-type="alpha" maskUnits="userSpaceOnUse" x="0" y="0" width="14" height="14">
<path d="M0 14H14V0H0V14Z" fill="white"/>
</mask>
<g mask="url(#mask0)">
<path fill-rule="evenodd" clip-rule="evenodd" d="M8.75283 1.2154C8.71813 1.6097 8.50343 1.9287 8.39743 2.0647C8.19463 2.3249 7.88933 2.5166 7.59093 2.5817C7.61893 2.1855 7.86973 1.848 7.95793 1.7407C8.15303 1.505 8.45853 1.3079 8.75283 1.2154ZM9.54663 4.2901C10.1512 4.2901 10.5847 4.4248 11.0938 4.9098C10.2806 5.5312 9.94603 6.6254 10.0199 7.676C10.0961 8.7662 10.6535 9.8956 11.5828 10.3983C11.3965 10.7954 11.306 10.9514 11.0285 11.3724C10.545 12.111 9.99863 12.8627 9.31013 12.8697H9.29813C9.02213 12.8697 8.84583 12.7888 8.60173 12.677C8.28683 12.5327 7.89443 12.3529 7.23373 12.3529H7.21373C6.54913 12.3568 6.14983 12.5346 5.82903 12.6775C5.57793 12.7896 5.39633 12.8705 5.11733 12.8705H5.10023C4.39203 12.8651 3.77803 12.0672 3.32223 11.3724C1.88003 9.1764 1.88243 6.7878 2.61643 5.6558C3.16473 4.8137 4.02283 4.291 4.85543 4.291C5.28853 4.291 5.63993 4.4162 6.01233 4.5489C6.37993 4.6797 6.76003 4.8153 7.20483 4.8153C7.62683 4.8153 7.96663 4.6868 8.29503 4.5626C8.64923 4.4287 9.01603 4.2901 9.54663 4.2901ZM9.54673 0.25C8.82233 0.2991 7.97713 0.7606 7.48213 1.3592C7.03313 1.9049 6.66253 2.713 6.80783 3.4983C6.82703 3.4989 6.84583 3.4991 6.86483 3.4991C7.63583 3.4991 8.42553 3.0362 8.88893 2.4416C9.33323 1.8725 9.66903 1.0709 9.54673 0.25ZM9.81463 3.4105C8.59443 3.4105 8.08003 3.9895 7.23293 3.9895C6.36213 3.9895 5.69873 3.4115 4.64283 3.4115C3.60653 3.4115 2.50623 4.0405 1.80593 5.1161C0.825127 6.6287 0.991327 9.4736 2.58483 11.8999C3.15313 12.7662 3.91523 13.7422 4.90953 13.75H4.93163C5.79963 13.75 6.05463 13.1863 7.24543 13.1792H7.26493C8.44053 13.1792 8.67443 13.749 9.54073 13.749H9.55793C10.553 13.7387 11.3562 12.6591 11.9236 11.7923C12.3332 11.1715 12.4854 10.8572 12.803 10.1543C10.4996 9.2837 10.1279 6.0293 12.4082 4.7796C11.7132 3.9121 10.7366 3.4105 9.81473 3.4105H9.81463Z" fill="#313E75"/>
</g>
</svg>
