<svg width="14" height="14" viewBox="0 0 14 14" fill="none" xmlns="http://www.w3.org/2000/svg">
<path fill-rule="evenodd" clip-rule="evenodd" d="M12.0875 4.66503C12.5945 4.18603 13.2945 4.27403 13.7235 4.83903C14.1525 5.40503 14.0745 6.23303 13.5295 6.71103C13.1785 7.01603 12.7105 7.06003 12.3225 6.88603L7.99854 12.067C8.07754 12.24 8.11554 12.458 8.11554 12.676C8.11554 13.416 7.60954 13.983 6.94754 13.983C6.28554 13.983 5.77954 13.416 5.77954 12.676C5.77954 12.6325 5.78904 12.589 5.79854 12.5455C5.80804 12.502 5.81754 12.4585 5.81754 12.415L3.05254 10.586C2.85854 10.761 2.58454 10.891 2.31254 10.891C1.65054 10.891 1.14454 10.325 1.14454 9.58503C1.14454 9.15003 1.37754 8.71403 1.68954 8.49603L1.02754 5.23103C0.598537 5.18803 0.170537 4.83903 0.0535367 4.31703C-0.140463 3.62003 0.209537 2.92303 0.832537 2.70503C1.22254 2.57503 1.61154 2.66203 1.92254 2.96703L4.68854 1.13803C4.72754 0.833026 4.84354 0.528026 5.07754 0.311026C5.58354 -0.167974 6.28554 -0.0809736 6.71354 0.485026C6.86954 0.703026 6.94754 0.921026 6.98654 1.18203L12.0875 4.66503ZM11.6978 5.40592L6.79085 2.05292C6.75285 2.18292 6.67485 2.27092 6.59685 2.35792L6.58555 2.36625C6.47144 2.45043 6.35911 2.53329 6.24585 2.57492V4.88292C6.67485 5.01292 7.06385 5.36192 7.25885 5.84092L11.6978 5.53492V5.40592ZM2.3125 3.70722L4.8825 2.05322C4.902 2.07472 4.91175 2.09647 4.9215 2.11822C4.93125 2.13997 4.941 2.16172 4.9605 2.18322C5.1175 2.35722 5.2725 2.48822 5.4665 2.57522V4.88322C5.1175 4.97022 4.8435 5.18722 4.6495 5.49222L2.3125 4.36022C2.3125 4.28796 2.31682 4.21559 2.32115 4.14315C2.32982 3.99804 2.33851 3.85263 2.3125 3.70722ZM1.80664 5.0564L2.46864 8.3224C2.66264 8.3224 2.81964 8.4094 2.97464 8.4964L4.41564 7.2334C4.33764 7.0154 4.29864 6.7984 4.29864 6.5374C4.29864 6.49402 4.30834 6.45065 4.31806 6.40715C4.32784 6.3634 4.33764 6.31952 4.33764 6.2754L1.80664 5.0564ZM6.24689 11.7355L3.48089 9.84547C3.50289 9.69847 3.50289 9.33047 3.44189 9.19347L4.88289 7.88647C5.11689 8.10448 5.42889 8.23547 5.77889 8.23547L6.41789 11.5945L6.24689 11.7355ZM7.41731 11.5944L11.6983 6.40637L7.37631 6.66837C7.33731 7.32037 6.98631 7.84337 6.51831 8.10437L7.10531 11.5084C7.19534 11.5084 7.26308 11.5349 7.3436 11.5664C7.36683 11.5755 7.39112 11.585 7.41731 11.5944Z" fill="#313E75"/>
</svg>
