<svg width="14" height="14" viewBox="0 0 14 14" fill="none" xmlns="http://www.w3.org/2000/svg">
<path fill-rule="evenodd" clip-rule="evenodd" d="M14 13V1C14 0.447715 13.5523 0 13 0H1C0.447715 0 0 0.447716 0 1V13C0 13.5523 0.447716 14 1 14H13C13.5523 14 14 13.5523 14 13ZM13 12.5V1.5C13 1.22386 12.7761 1 12.5 1H1.5C1.22386 1 1 1.22386 1 1.5V12.5C1 12.7761 1.22386 13 1.5 13H12.5C12.7761 13 13 12.7761 13 12.5ZM4.759 10.6448C4.8323 10.5714 4.869 10.4803 4.869 10.3717V6.0956C4.869 6.0106 4.9228 5.9348 5.003 5.9068C5.0833 5.8787 5.1725 5.9045 5.2254 5.971L8.807 10.4676C8.873 10.5506 8.9445 10.6193 9.0215 10.6736C9.0985 10.7279 9.1883 10.755 9.291 10.755C9.4377 10.755 9.5385 10.7199 9.5935 10.6496C9.6485 10.5793 9.676 10.4899 9.676 10.3813V4.3737C9.676 4.2523 9.643 4.1597 9.577 4.0958C9.511 4.0319 9.3973 4 9.236 4C9.0747 4 8.9628 4.0351 8.9005 4.1054C8.8382 4.1757 8.807 4.2651 8.807 4.3737V8.7295C8.807 8.8148 8.7529 8.8907 8.6723 8.9186C8.5917 8.9464 8.5023 8.9201 8.4497 8.853L4.858 4.2779C4.792 4.2076 4.726 4.1437 4.66 4.0862C4.594 4.0287 4.5023 4 4.385 4C4.2383 4 4.1375 4.0351 4.0825 4.1054C4.0275 4.1757 4 4.2651 4 4.3737V10.3717C4 10.4803 4.0348 10.5714 4.1045 10.6448C4.1742 10.7183 4.2823 10.755 4.429 10.755C4.5757 10.755 4.6857 10.7183 4.759 10.6448Z" fill="#313E75"/>
</svg>
