<svg width="14" height="14" viewBox="0 0 14 14" fill="none" xmlns="http://www.w3.org/2000/svg">
<path fill-rule="evenodd" clip-rule="evenodd" d="M1 12.5C1 12.6326 1.0527 12.7598 1.1464 12.8536C1.2402 12.9473 1.3674 13 1.5 13C3.567 13 11.433 13 13.5 13C13.6326 13 13.7598 13.0527 13.8536 13.1464C13.9473 13.2402 14 13.3674 14 13.5C14 13.7761 13.7761 13.9999 13.5 14C11.4632 14 3.7684 14 1 14C0.4477 13.9999 0.0001 13.5523 0 13C0 10.2316 0 2.5368 0 0.5C0.0001 0.2239 0.2239 0 0.5 0C0.6326 0 0.7598 0.0527 0.8536 0.1464C0.9473 0.2402 1 0.3674 1 0.5C1 2.567 1 10.433 1 12.5ZM10.9814 3.3923C11.0047 3.3161 10.9805 3.2334 10.9199 3.1817C10.6618 2.9541 10.5 2.6208 10.5 2.25C10.5 1.5601 11.0601 1 11.75 1C12.4399 1 13 1.5601 13 2.25C13 2.8712 12.5458 3.3873 11.9516 3.4838C11.8747 3.4943 11.8112 3.5492 11.7895 3.6238C11.3971 4.9615 10.9547 6.2852 10.528 7.6132C10.5038 7.6894 10.5272 7.7727 10.5876 7.8251C10.8413 8.0524 11 8.3828 11 8.75C11 9.4399 10.4399 10 9.75 10C9.0601 10 8.5 9.4399 8.5 8.75C8.5 8.6254 8.5183 8.5051 8.5522 8.3916C8.5754 8.3166 8.5522 8.235 8.4932 8.1833C8.124 7.8588 6.8484 6.7426 6.4789 6.4193C6.4191 6.3674 6.3345 6.3556 6.2628 6.3892C6.1066 6.4607 5.9328 6.5 5.75 6.5C5.7481 6.5 5.7462 6.5 5.7443 6.5C5.666 6.4998 5.5949 6.5453 5.5622 6.6164C5.3195 7.144 4.3696 9.2099 4.1299 9.7311C4.0974 9.8026 4.1099 9.8866 4.1618 9.9457C4.3461 10.1625 4.4567 10.4434 4.4567 10.75C4.4567 11.4399 3.8966 12 3.2067 12C2.5168 12 1.9567 11.4399 1.9567 10.75C1.9567 10.0601 2.5168 9.5 3.2067 9.5C3.2069 9.5 3.2071 9.5 3.2073 9.5C3.2748 9.4999 3.3359 9.4601 3.3632 9.3984C3.8307 8.348 4.3342 7.3131 4.8282 6.2741C4.862 6.2019 4.8498 6.1166 4.797 6.0568C4.6115 5.8397 4.5 5.5578 4.5 5.25C4.5 4.5601 5.0601 4 5.75 4C6.4399 4 7 4.5601 7 5.25C7 5.3746 6.9817 5.4949 6.9478 5.6084C6.9246 5.6834 6.9478 5.765 7.0068 5.8167C7.376 6.1412 8.6515 7.2573 9.021 7.5807C9.0807 7.6324 9.1653 7.6442 9.2368 7.6107C9.3463 7.5606 9.4644 7.5264 9.5881 7.5104C9.666 7.5011 9.7311 7.4467 9.7542 7.3717C9.9485 6.746 10.7892 4.0163 10.9814 3.3923Z" fill="#242E59"/>
</svg>
