<svg width="14" height="14" viewBox="0 0 14 14" fill="none" xmlns="http://www.w3.org/2000/svg">
<path fill-rule="evenodd" clip-rule="evenodd" d="M8.71051 7.82681C8.74071 7.68451 8.75571 7.53961 8.75571 7.39311C8.75571 6.89151 8.57991 6.40811 8.26191 6.02571C8.19431 5.94701 8.19881 5.82951 8.27211 5.75621C8.37721 5.64871 8.52561 5.50031 8.63491 5.39101C8.67381 5.35181 8.72711 5.33041 8.78231 5.33191C8.83751 5.33341 8.88961 5.35761 8.92631 5.39881C9.71381 6.31581 9.85891 7.59501 9.35481 8.64771C9.21291 8.95121 9.01841 9.22991 8.77201 9.47621C7.87661 10.3716 6.83611 11.4121 5.94071 12.3075C4.77001 13.4783 2.87171 13.4783 1.70091 12.3075C1.70001 12.3066 1.69901 12.3056 1.69811 12.3047C0.527307 11.1339 0.527307 9.23561 1.69811 8.06491C1.69811 8.06491 2.28091 7.48201 2.77511 6.98791C2.88841 6.87521 3.05501 6.83491 3.20721 6.88341C3.35941 6.93201 3.47201 7.06121 3.49921 7.21871C3.49911 7.21881 3.49921 7.21901 3.49921 7.21911C3.52271 7.35581 3.47831 7.49551 3.38021 7.59361C3.05431 7.92081 2.34171 8.63341 2.34171 8.63341C1.94001 9.03511 1.71441 9.57991 1.71441 10.148C1.71441 10.7161 1.94001 11.2609 2.34171 11.6626C2.34211 11.6631 2.34251 11.6635 2.34301 11.6639C2.74471 12.0656 3.28951 12.2912 3.85761 12.2912C4.42571 12.2912 4.97051 12.0656 5.37221 11.6639C6.22191 10.8141 7.27861 9.75741 8.12841 8.90771C8.39191 8.64411 8.57971 8.31891 8.67521 7.96811L8.71051 7.82681ZM4.76591 5.13661C4.89141 4.91941 5.04771 4.71521 5.23361 4.52931C6.12901 3.63391 7.16951 2.59341 8.06491 1.69811C9.23571 0.527307 11.1339 0.527307 12.3047 1.69811C12.3057 1.69901 12.3066 1.69991 12.3075 1.70091C13.4783 2.87171 13.4783 4.76991 12.3075 5.94071C12.3075 5.94071 11.7247 6.52351 11.2306 7.01771C11.1173 7.13041 10.9507 7.17061 10.7984 7.12211C10.6462 7.07361 10.5336 6.94431 10.5065 6.78691C10.5065 6.78671 10.5065 6.78661 10.5065 6.78651C10.483 6.64971 10.5273 6.51011 10.6255 6.41201C10.9513 6.08471 11.6639 5.37221 11.6639 5.37221C12.0656 4.97051 12.2913 4.42561 12.2913 3.85751C12.2913 3.28941 12.0656 2.74461 11.6639 2.34291C11.6635 2.34251 11.6631 2.34211 11.6627 2.34171C11.261 1.94001 10.7162 1.71431 10.1481 1.71431C9.58001 1.71431 9.03511 1.94001 8.63341 2.34171C7.78371 3.19141 6.72701 4.24811 5.87731 5.09791C5.61491 5.36031 5.42761 5.68371 5.33041 6.03751C5.27661 6.22451 5.24991 6.41711 5.24991 6.61251C5.24991 7.11401 5.42581 7.59741 5.74371 7.97991C5.81131 8.05861 5.80691 8.17611 5.73351 8.24941C5.62851 8.35681 5.48001 8.50531 5.37071 8.61461C5.33191 8.65371 5.27851 8.67511 5.22341 8.67371C5.16821 8.67221 5.11611 8.64801 5.07941 8.60681C4.29061 7.68841 4.14621 6.40701 4.65081 5.35791L4.76591 5.13661Z" fill="#242E59"/>
</svg>
