<svg width="14" height="14" viewBox="0 0 14 14" fill="none" xmlns="http://www.w3.org/2000/svg">
<path fill-rule="evenodd" clip-rule="evenodd" d="M8.71045 7.82681C8.74065 7.68451 8.75565 7.53961 8.75565 7.39311C8.75565 6.89151 8.57985 6.40811 8.26185 6.02571C8.19425 5.94701 8.19875 5.82951 8.27205 5.75621C8.37715 5.64871 8.52555 5.50031 8.63485 5.39101C8.67375 5.35181 8.72705 5.33041 8.78225 5.33191C8.83745 5.33341 8.88955 5.35761 8.92625 5.39881C9.71375 6.31581 9.85885 7.59501 9.35475 8.64771C9.21285 8.95121 9.01835 9.22991 8.77195 9.47621C7.87655 10.3716 6.83605 11.4121 5.94065 12.3075C4.76995 13.4783 2.87165 13.4783 1.70085 12.3075C1.69995 12.3066 1.69895 12.3056 1.69805 12.3047C0.527246 11.1339 0.527246 9.23561 1.69805 8.06491C1.69805 8.06491 2.28085 7.48201 2.77505 6.98791C2.88835 6.87521 3.05495 6.83491 3.20715 6.88341C3.35935 6.93201 3.47195 7.06121 3.49915 7.21871C3.49905 7.21881 3.49915 7.21901 3.49915 7.21911C3.52265 7.35581 3.47825 7.49551 3.38015 7.59361C3.05425 7.92081 2.34165 8.63341 2.34165 8.63341C1.93995 9.03511 1.71435 9.57991 1.71435 10.148C1.71435 10.7161 1.93995 11.2609 2.34165 11.6626C2.34205 11.6631 2.34245 11.6635 2.34295 11.6639C2.74465 12.0656 3.28945 12.2912 3.85755 12.2912C4.42565 12.2912 4.97045 12.0656 5.37215 11.6639C6.22185 10.8141 7.27855 9.75741 8.12835 8.90771C8.39185 8.64411 8.57965 8.31891 8.67515 7.96811L8.71045 7.82681ZM4.76585 5.13661C4.89135 4.91941 5.04765 4.71521 5.23355 4.52931C6.12895 3.63391 7.16945 2.59341 8.06485 1.69811C9.23565 0.527307 11.1338 0.527307 12.3046 1.69811C12.3056 1.69901 12.3065 1.69991 12.3074 1.70091C13.4782 2.87171 13.4782 4.76991 12.3074 5.94071C12.3074 5.94071 11.7246 6.52351 11.2305 7.01771C11.1172 7.13041 10.9506 7.17061 10.7983 7.12211C10.6461 7.07361 10.5335 6.94431 10.5064 6.78691C10.5064 6.78671 10.5064 6.78661 10.5064 6.78651C10.4829 6.64971 10.5272 6.51011 10.6254 6.41201C10.9512 6.08471 11.6638 5.37221 11.6638 5.37221C12.0655 4.97051 12.2912 4.42561 12.2912 3.85751C12.2912 3.28941 12.0655 2.74461 11.6638 2.34291C11.6634 2.34251 11.663 2.34211 11.6626 2.34171C11.2609 1.94001 10.7161 1.71431 10.148 1.71431C9.57995 1.71431 9.03505 1.94001 8.63335 2.34171C7.78365 3.19141 6.72695 4.24811 5.87725 5.09791C5.61485 5.36031 5.42755 5.68371 5.33035 6.03751C5.27655 6.22451 5.24985 6.41711 5.24985 6.61251C5.24985 7.11401 5.42575 7.59741 5.74365 7.97991C5.81125 8.05861 5.80685 8.17611 5.73345 8.24941C5.62845 8.35681 5.47995 8.50531 5.37065 8.61461C5.33185 8.65371 5.27845 8.67511 5.22335 8.67371C5.16815 8.67221 5.11605 8.64801 5.07935 8.60681C4.29055 7.68841 4.14615 6.40701 4.65075 5.35791L4.76585 5.13661Z" fill="#313E75"/>
</svg>
