<svg width="14" height="14" viewBox="0 0 14 14" fill="none" xmlns="http://www.w3.org/2000/svg">
<path fill-rule="evenodd" clip-rule="evenodd" d="M6 13.5C6 13.6326 5.9473 13.7598 5.8536 13.8536C5.7598 13.9473 5.6326 14.0001 5.5 14C4.37 14 1.63 14 0.5 14C0.3674 14 0.2402 13.9473 0.1464 13.8536C0.0527001 13.7598 -9.98582e-05 13.6326 1.41787e-07 13.5C1.41787e-07 12.37 1.41787e-07 9.63 1.41787e-07 8.5C1.41787e-07 8.3674 0.0527001 8.2402 0.1464 8.1464C0.2402 8.0527 0.3674 8 0.5 8C1.63 8 4.37 8 5.5 8C5.6326 8 5.7598 8.0527 5.8536 8.1464C5.9473 8.2402 6 8.3674 6 8.5C6 9.63 6 12.37 6 13.5ZM14 13.8C14 13.853 13.9789 13.9039 13.9414 13.9414C13.9039 13.9789 13.853 14.0001 13.8 14C12.7852 14 8.2148 14 7.2 14C7.147 14.0001 7.0961 13.9789 7.0586 13.9414C7.0211 13.9039 7 13.853 7 13.8C7 13.6257 7 13.3743 7 13.2C7 13.147 7.0211 13.0961 7.0586 13.0586C7.0961 13.0211 7.147 13 7.2 13C8.2148 13 12.7852 13 13.8 13C13.853 13 13.9039 13.0211 13.9414 13.0586C13.9789 13.0961 14 13.147 14 13.2C14 13.3743 14 13.6257 14 13.8ZM1 13H5V9H1V13ZM14 11.3C14 11.353 13.9789 11.4039 13.9414 11.4414C13.9039 11.4789 13.853 11.5 13.8 11.5C12.7852 11.5 8.2148 11.5 7.2 11.5C7.147 11.5 7.0961 11.4789 7.0586 11.4414C7.0211 11.4039 7 11.353 7 11.3C7 11.1257 7 10.8743 7 10.7C7 10.647 7.0211 10.5961 7.0586 10.5586C7.0961 10.5211 7.147 10.5 7.2 10.5C8.2148 10.5 12.7852 10.5 13.8 10.5C13.853 10.5 13.9039 10.5211 13.9414 10.5586C13.9789 10.5961 14 10.647 14 10.7C14 10.8743 14 11.1257 14 11.3ZM14 8.8C14 8.853 13.9789 8.9039 13.9414 8.9414C13.9039 8.9789 13.853 9 13.8 9C12.7852 9 8.2148 9 7.2 9C7.147 9 7.0961 8.9789 7.0586 8.9414C7.0211 8.9039 7 8.853 7 8.8C7 8.6257 7 8.3743 7 8.2C7 8.147 7.0211 8.0961 7.0586 8.0586C7.0961 8.0211 7.147 8 7.2 8C8.2148 8 12.7852 8 13.8 8C13.853 8 13.9039 8.0211 13.9414 8.0586C13.9789 8.0961 14 8.147 14 8.2C14 8.3743 14 8.6257 14 8.8ZM6 5.5C6 5.6326 5.9473 5.7598 5.8536 5.8536C5.7598 5.9473 5.6326 6 5.5 6C4.37 6 1.63 6 0.5 6C0.3674 6 0.2402 5.9473 0.1464 5.8536C0.0527001 5.7598 -9.98582e-05 5.6326 1.41787e-07 5.5C1.41787e-07 4.37 1.41787e-07 1.63 1.41787e-07 0.5C1.41787e-07 0.3674 0.0527001 0.2402 0.1464 0.1464C0.2402 0.0527 0.3674 0 0.5 0C1.63 0 4.37 0 5.5 0C5.6326 0 5.7598 0.0527 5.8536 0.1464C5.9473 0.2402 6 0.3674 6 0.5C6 1.63 6 4.37 6 5.5ZM14 5.8C14 5.853 13.9789 5.9039 13.9414 5.9414C13.9039 5.9789 13.853 6 13.8 6C12.7852 6 8.2148 6 7.2 6C7.147 6 7.0961 5.9789 7.0586 5.9414C7.0211 5.9039 7 5.853 7 5.8C7 5.6257 7 5.3743 7 5.2C7 5.147 7.0211 5.0961 7.0586 5.0586C7.0961 5.0211 7.147 5 7.2 5C8.2148 5 12.7852 5 13.8 5C13.853 5 13.9039 5.0211 13.9414 5.0586C13.9789 5.0961 14 5.147 14 5.2C14 5.3743 14 5.6257 14 5.8ZM1 5H5V1H1V5ZM14 3.3C14 3.353 13.9789 3.4039 13.9414 3.4414C13.9039 3.4789 13.853 3.5 13.8 3.5C12.7852 3.5 8.2148 3.5 7.2 3.5C7.147 3.5 7.0961 3.4789 7.0586 3.4414C7.0211 3.4039 7 3.353 7 3.3C7 3.1257 7 2.8743 7 2.7C7 2.647 7.0211 2.5961 7.0586 2.5586C7.0961 2.5211 7.147 2.5 7.2 2.5C8.2148 2.5 12.7852 2.5 13.8 2.5C13.853 2.5 13.9039 2.5211 13.9414 2.5586C13.9789 2.5961 14 2.647 14 2.7C14 2.8743 14 3.1257 14 3.3ZM14 0.8C14 0.853 13.9789 0.9039 13.9414 0.9414C13.9039 0.9789 13.853 1 13.8 1C12.7852 1 8.2148 1 7.2 1C7.147 1 7.0961 0.9789 7.0586 0.9414C7.0211 0.9039 7 0.853 7 0.8C7 0.6257 7 0.3743 7 0.2C7 0.147 7.0211 0.0961 7.0586 0.0586C7.0961 0.0211 7.147 0 7.2 0C8.2148 0 12.7852 0 13.8 0C13.853 0 13.9039 0.0211 13.9414 0.0586C13.9789 0.0961 14 0.147 14 0.2C14 0.3743 14 0.6257 14 0.8Z" fill="#242E59"/>
</svg>
