<svg width="14" height="14" viewBox="0 0 14 14" fill="none" xmlns="http://www.w3.org/2000/svg">
<path opacity="0.4" fill-rule="evenodd" clip-rule="evenodd" d="M7 13C10.3137 13 13 10.3137 13 7C13 3.68629 10.3137 1 7 1C3.68629 1 1 3.68629 1 7C1 10.3137 3.68629 13 7 13ZM7 14C10.866 14 14 10.866 14 7C14 3.13401 10.866 0 7 0C3.13401 0 0 3.13401 0 7C0 10.866 3.13401 14 7 14Z" fill="#3867F4"/>
<path fill-rule="evenodd" clip-rule="evenodd" d="M6.5 0.5C6.5 0.223858 6.72386 0 7 0C10.866 0 14 3.13401 14 7C14 7.27614 13.7761 7.5 13.5 7.5C13.2239 7.5 13 7.27614 13 7C13 3.68629 10.3137 1 7 1C6.72386 1 6.5 0.776142 6.5 0.5Z" fill="#3867F4"/>
</svg>
