<svg width="14" height="14" viewBox="0 0 14 14" fill="none" xmlns="http://www.w3.org/2000/svg">
<path fill-rule="evenodd" clip-rule="evenodd" d="M13 13C13 13.2652 12.8946 13.5196 12.7071 13.7071C12.5196 13.8946 12.2652 14.0001 12 14C9.74 14 4.26 14 2 14C1.7348 14.0001 1.4804 13.8946 1.2929 13.7071C1.1054 13.5196 1 13.2652 1 13C1 11.463 1 8.537 1 7C1.0001 6.4477 1.4477 6 2 6C2.1736 6 2.3473 6 2.5 6C2.6326 6 2.7598 5.9473 2.8536 5.8535C2.9474 5.7597 3 5.6325 3 5.4999C3 4.9075 3 4 3 4C3 1.7923 4.7923 0 7 0C9.2077 0 11 1.7923 11 4C11 4 11 4.9077 11 5.5C11 5.7746 11.2215 5.9979 11.4961 6C11.6511 6 11.8279 6 12.0046 6C12.5551 6.0025 12.9999 6.4495 13 6.9999C13 8.5369 13 11.463 13 13ZM12 7.5C12 7.3674 11.9473 7.2402 11.8536 7.1464C11.7598 7.0527 11.6326 7 11.5 7C9.793 7 4.207 7 2.5 7C2.3674 7 2.2402 7.0527 2.1464 7.1464C2.0527 7.2402 2 7.3674 2 7.5C2 8.63 2 11.37 2 12.5C2 12.6326 2.0527 12.7598 2.1464 12.8536C2.2402 12.9473 2.3674 13 2.5 13C4.207 13 9.793 13 11.5 13C11.6326 13 11.7598 12.9473 11.8536 12.8536C11.9473 12.7598 12 12.6326 12 12.5C12 11.37 12 8.63 12 7.5ZM7 9C7.1326 9 7.2598 9.0527 7.3536 9.1465C7.4473 9.2402 7.5 9.3674 7.5 9.5C7.5 9.8054 7.5 10.1946 7.5 10.5C7.5 10.6326 7.4473 10.7598 7.3536 10.8535C7.2598 10.9473 7.1326 11 7 11C6.8674 11 6.7402 10.9473 6.6464 10.8535C6.5527 10.7598 6.5 10.6326 6.5 10.5C6.5 10.1946 6.5 9.8054 6.5 9.5C6.5 9.3674 6.5527 9.2402 6.6464 9.1465C6.7402 9.0527 6.8674 9 7 9ZM9.5 6C9.6326 6 9.7598 5.9473 9.8536 5.8535C9.9473 5.7598 10 5.6326 10 5.5C10 4.9076 10 4 10 4C10 2.3443 8.6557 1 7 1C5.3443 1 4 2.3443 4 4C4 4 4 4.9076 4 5.5C4 5.6326 4.0527 5.7598 4.1464 5.8535C4.2402 5.9473 4.3674 6 4.5 6C5.63 6 8.37 6 9.5 6Z" fill="#242E59"/>
</svg>
