<svg width="14" height="14" viewBox="0 0 14 14" fill="none" xmlns="http://www.w3.org/2000/svg">
<path fill-rule="evenodd" clip-rule="evenodd" d="M10.6016 1.29826H11.0576V0.614258H10.6016V1.29826ZM1.93701 6.54227H2.39301C2.39301 5.08327 3.03101 3.69127 4.14801 2.73427C5.03801 1.95927 6.20101 1.52527 7.40901 1.52527V1.07027C6.08601 1.07027 4.81001 1.54927 3.83001 2.39327C2.62101 3.44127 1.93701 4.94627 1.93701 6.54227ZM7.40918 10.6458V10.1908C9.41518 10.1908 11.0572 8.54777 11.0572 6.54177C11.0572 4.69577 9.66618 3.14477 7.84218 2.91677L7.88818 2.46077C9.96218 2.71177 11.5132 4.44477 11.5132 6.54177C11.5132 8.79877 9.66618 10.6458 7.40918 10.6458ZM9.4614 7.68224H9.0054V7.22624H9.4614V7.68224ZM9.4614 8.59423H9.0054V8.13823H9.4614V8.59423ZM8.54934 8.13824H9.00534V7.68224H8.54934V8.13824ZM9.91745 8.13824H9.46145V7.68224H9.91745V8.13824ZM3.30566 6.54193C3.30566 7.02093 3.39566 7.47693 3.55566 7.93293L3.96666 7.77393C3.82966 7.38593 3.76066 6.97593 3.76066 6.54193C3.76066 5.56193 4.14866 4.64993 4.83266 3.96593L4.51366 3.64693C3.73866 4.42193 3.30566 5.44793 3.30566 6.54193ZM6.19706 3.97287L5.74466 4.42427L5.42306 4.10187L5.87546 3.65047L6.19706 3.97287ZM6.88618 3.28466L7.33768 2.83316L7.01518 2.51066L6.56368 2.96216L6.88618 3.28466ZM7.33768 4.10193L7.01518 4.42443L6.56368 3.97293L6.88618 3.65043L7.33768 4.10193ZM5.87456 3.28479L6.19706 2.96229L5.74556 2.51079L5.42306 2.83329L5.87456 3.28479ZM12.4479 8.68585L12.0379 8.50285C12.3109 7.88685 12.4259 7.22585 12.4259 6.54185C12.4259 5.42485 12.0599 4.37585 11.3989 3.48685L11.7639 3.21285C12.4939 4.17085 12.9039 5.33385 12.9039 6.54185C12.8819 7.29385 12.7449 8.00085 12.4479 8.68585ZM11.0576 2.89427H10.6016V2.21027H11.0576V2.89427ZM9.68924 1.98125H10.3742V1.52525H9.68924V1.98125ZM11.9695 1.98125H11.2845V1.52525H11.9695V1.98125ZM6.96617 8.15185L2.39739 12.8036C2.31239 12.9056 2.07739 12.9226 1.96339 12.7876L1.69539 12.5196C1.62939 12.4546 1.59439 12.3696 1.59639 12.2816C1.59839 12.2026 1.63039 12.1296 1.69639 12.0676L6.25915 7.42321L6.96617 8.15185ZM2.18839 13.3856C1.94939 13.3856 1.73239 13.2906 1.59439 13.1246L1.34139 12.8736C1.18139 12.7136 1.09139 12.4936 1.09639 12.2706C1.10139 12.0536 1.19039 11.8546 1.34939 11.7096L7.71039 5.23264C8.05239 4.89264 8.61939 4.93064 8.88439 5.24764L9.13739 5.49964C9.29839 5.66064 9.38739 5.88064 9.38239 6.10264C9.37739 6.31964 9.28739 6.51764 9.12939 6.66364L2.76839 13.1386C2.64439 13.2906 2.42739 13.3856 2.18839 13.3856Z" fill="#242E59"/>
</svg>
