<svg width="14" height="14" viewBox="0 0 14 14" fill="none" xmlns="http://www.w3.org/2000/svg">
<path fill-rule="evenodd" clip-rule="evenodd" d="M0.95 0.75C0.839543 0.75 0.75 0.839543 0.75 0.95V3.05C0.75 3.16046 0.839543 3.25 0.95 3.25H3.05C3.16046 3.25 3.25 3.16046 3.25 3.05V0.95C3.25 0.839543 3.16046 0.75 3.05 0.75H0.95ZM5.75 0.95C5.75 0.839543 5.83954 0.75 5.95 0.75H8.05C8.16046 0.75 8.25 0.839543 8.25 0.95V3.05C8.25 3.16046 8.16046 3.25 8.05 3.25H5.95C5.83954 3.25 5.75 3.16046 5.75 3.05V0.95ZM5.75 5.95C5.75 5.83954 5.83954 5.75 5.95 5.75H8.05C8.16046 5.75 8.25 5.83954 8.25 5.95V8.05C8.25 8.16046 8.16046 8.25 8.05 8.25H5.95C5.83954 8.25 5.75 8.16046 5.75 8.05V5.95ZM0.75 5.95C0.75 5.83954 0.839543 5.75 0.95 5.75H3.05C3.16046 5.75 3.25 5.83954 3.25 5.95V8.05C3.25 8.16046 3.16046 8.25 3.05 8.25H0.95C0.839543 8.25 0.75 8.16046 0.75 8.05V5.95ZM0.95 10.75C0.839543 10.75 0.75 10.8395 0.75 10.95V13.05C0.75 13.1605 0.839543 13.25 0.95 13.25H3.05C3.16046 13.25 3.25 13.1605 3.25 13.05V10.95C3.25 10.8395 3.16046 10.75 3.05 10.75H0.95ZM5.75 10.95C5.75 10.8395 5.83954 10.75 5.95 10.75H8.05C8.16046 10.75 8.25 10.8395 8.25 10.95V13.05C8.25 13.1605 8.16046 13.25 8.05 13.25H5.95C5.83954 13.25 5.75 13.1605 5.75 13.05V10.95ZM10.95 5.75C10.8395 5.75 10.75 5.83954 10.75 5.95V8.05C10.75 8.16046 10.8395 8.25 10.95 8.25H13.05C13.1605 8.25 13.25 8.16046 13.25 8.05V5.95C13.25 5.83954 13.1605 5.75 13.05 5.75H10.95ZM10.75 0.95C10.75 0.839543 10.8395 0.75 10.95 0.75H13.05C13.1605 0.75 13.25 0.839543 13.25 0.95V3.05C13.25 3.16046 13.1605 3.25 13.05 3.25H10.95C10.8395 3.25 10.75 3.16046 10.75 3.05V0.95ZM10.95 10.75C10.8395 10.75 10.75 10.8395 10.75 10.95V13.05C10.75 13.1605 10.8395 13.25 10.95 13.25H13.05C13.1605 13.25 13.25 13.1605 13.25 13.05V10.95C13.25 10.8395 13.1605 10.75 13.05 10.75H10.95Z" fill="#242E59"/>
</svg>
