<svg width="14" height="14" viewBox="0 0 14 14" fill="none" xmlns="http://www.w3.org/2000/svg">
<mask id="mask0" mask-type="alpha" maskUnits="userSpaceOnUse" x="0" y="0" width="14" height="14">
<rect width="14" height="14" fill="white"/>
</mask>
<g mask="url(#mask0)">
<path fill-rule="evenodd" clip-rule="evenodd" d="M13.9247 8.7951C13.4693 4.8371 12.6637 2 10.1067 2C8.81081 2 8.14531 3.331 6.98941 3.4361C5.79851 3.331 5.16811 2 3.87211 2C1.31521 2 0.509512 4.8371 0.0892119 8.7601C-0.155888 10.8617 0.0542119 12.613 1.35021 12.613C3.17151 12.613 3.24161 10.9668 4.53761 10.1961C5.02801 9.951 6.11371 9.846 7.02451 9.8109C7.93511 9.846 9.02091 9.951 9.51131 10.1961C10.8073 10.9668 10.8774 12.613 12.6987 12.613C13.9597 12.6481 14.1348 10.8967 13.9247 8.7951ZM3.90711 8.4449C2.89141 8.4449 2.08571 7.6042 2.08571 6.6235C2.08571 5.6428 2.89141 4.8021 3.90711 4.8021C4.92291 4.8021 5.72851 5.6078 5.72851 6.6235C5.72851 7.6392 4.88781 8.4449 3.90711 8.4449ZM12.0682 6.6237C12.0682 6.7166 12.0313 6.8056 11.9657 6.8712C11.9001 6.9369 11.811 6.9738 11.7182 6.9738C11.5421 6.9738 11.3255 6.9738 11.1322 6.9738C10.856 6.9738 10.6322 7.1976 10.6322 7.4738C10.6322 7.6671 10.6322 7.8837 10.6322 8.0599C10.6322 8.1527 10.5953 8.2417 10.5297 8.3074C10.464 8.373 10.375 8.4099 10.2822 8.4099C10.282 8.4099 10.2818 8.4099 10.2817 8.4099C10.1888 8.4099 10.0998 8.373 10.0342 8.3074C9.96851 8.2417 9.93161 8.1527 9.93161 8.0599C9.93161 7.8837 9.93161 7.6671 9.93161 7.4738C9.93161 7.1976 9.70781 6.9738 9.43171 6.9738C9.23831 6.9738 9.02171 6.9738 8.84551 6.9738C8.75271 6.9738 8.66371 6.9369 8.59811 6.8712C8.53241 6.8056 8.49551 6.7166 8.49551 6.6237C8.49551 6.6236 8.49551 6.6234 8.49551 6.6232C8.49551 6.5304 8.53241 6.4414 8.59811 6.3757C8.66371 6.3101 8.75271 6.2732 8.84551 6.2732C9.02171 6.2732 9.23831 6.2732 9.43171 6.2732C9.70781 6.2732 9.93161 6.0494 9.93161 5.7732C9.93161 5.5909 9.93161 5.3887 9.93161 5.2222C9.93161 5.1294 9.96851 5.0403 10.0342 4.9747C10.0998 4.9091 10.1888 4.8722 10.2817 4.8722C10.2818 4.8722 10.282 4.8722 10.2822 4.8722C10.375 4.8722 10.464 4.9091 10.5297 4.9747C10.5953 5.0403 10.6322 5.1294 10.6322 5.2222C10.6322 5.3887 10.6322 5.5909 10.6322 5.7732C10.6322 5.9058 10.6849 6.033 10.7786 6.1268C10.8724 6.2205 10.9996 6.2732 11.1322 6.2732C11.3255 6.2732 11.5421 6.2732 11.7182 6.2732C11.811 6.2732 11.9001 6.3101 11.9657 6.3757C12.0313 6.4414 12.0682 6.5304 12.0682 6.6232C12.0682 6.6234 12.0682 6.6236 12.0682 6.6237Z" fill="#313E75"/>
<path fill-rule="evenodd" clip-rule="evenodd" d="M2.8562 6.62349C2.8562 6.90369 2.9613 7.14889 3.1714 7.35909C3.3466 7.53419 3.6268 7.67429 3.907 7.67429C4.1872 7.67429 4.4324 7.56919 4.6425 7.35909C4.8177 7.18389 4.9578 6.90369 4.9578 6.62349C4.9578 6.34329 4.8527 6.09809 4.6425 5.88789C4.4674 5.71279 4.1872 5.57269 3.907 5.57269C3.6268 5.57269 3.3816 5.67779 3.1714 5.88789C2.9613 6.06299 2.8562 6.34329 2.8562 6.62349Z" fill="#313E75"/>
</g>
</svg>
