<svg width="14" height="14" viewBox="0 0 14 14" fill="none" xmlns="http://www.w3.org/2000/svg">
<mask id="mask0" mask-type="alpha" maskUnits="userSpaceOnUse" x="0" y="0" width="14" height="14">
<path d="M0 14H14V0H0V14Z" fill="white"/>
</mask>
<g mask="url(#mask0)">
<path fill-rule="evenodd" clip-rule="evenodd" d="M3.93298 1.69419L3.99238 1.69709L4.05078 1.70179L4.10828 1.70819L4.16488 1.71639L4.22068 1.72629L4.27568 1.73769L4.32998 1.75069L4.38348 1.76509L4.43618 1.78099L4.48828 1.79819L4.53968 1.81679L4.59038 1.83659L4.64058 1.85759L4.69008 1.87969L4.73908 1.90289L4.78758 1.92709L4.83558 1.95219L4.88308 1.97829L4.93018 2.00519L4.97688 2.03279L5.02308 2.06119L5.11468 2.11989L5.20498 2.18079L5.38278 2.30729L5.47088 2.37189L5.64618 2.50159L5.73398 2.56569L5.82218 2.62879L5.91088 2.69029L6.00048 2.74969L6.04558 2.77849L6.09098 2.80669L6.18288 2.86059L6.22938 2.88639L6.32348 2.93499L6.37128 2.95779L6.41948 2.97949L6.51758 3.01939L6.56738 3.03749L6.66898 3.06959L6.72068 3.08349L6.77308 3.09589L6.82618 3.10679L6.88008 3.11599L6.93468 3.12349L6.99008 3.12939L7.04398 3.12349L7.09708 3.11599L7.14958 3.10679L7.20138 3.09589L7.25258 3.08349L7.30318 3.06959L7.40278 3.03749L7.45178 3.01939L7.54838 2.97949L7.59598 2.95779L7.64318 2.93499L7.68998 2.91119L7.73648 2.88639L7.78258 2.86059L7.87398 2.80669L7.96428 2.74969L8.05378 2.69029L8.14268 2.62879L8.23118 2.56569L8.31948 2.50159L8.49628 2.37189L8.58518 2.30729L8.67468 2.24339L8.76498 2.18079L8.85638 2.11989L8.94898 2.06119L9.04298 2.00519L9.09058 1.97829L9.13868 1.95219L9.18718 1.92709L9.23618 1.90289L9.28568 1.87969L9.33578 1.85759L9.38638 1.83659L9.43758 1.81679L9.48938 1.79819L9.54188 1.78099L9.59498 1.76509L9.64878 1.75069L9.70338 1.73769L9.75868 1.72629L9.81468 1.71639L9.87158 1.70819L9.92918 1.70179L9.98778 1.69709L10.0472 1.69419L10.167 1.69379L10.226 1.69529L10.2844 1.69789L10.3421 1.70149L10.3991 1.70609L10.4556 1.71179L10.5115 1.71839L10.5667 1.72609L10.6213 1.73469L10.6753 1.74439L10.7287 1.75499L10.8338 1.77929L10.8854 1.79279L10.9869 1.82289L11.0368 1.83939L11.0861 1.85679L11.1349 1.87519L11.1831 1.89449L11.2307 1.91479L11.2778 1.93599L11.3243 1.95809L11.3702 1.98119L11.4157 2.00519L11.4605 2.03009L11.5049 2.05589L11.5487 2.08259L11.592 2.11019L11.6347 2.13869L11.6769 2.16809L11.7187 2.19839L11.7599 2.22959L11.8005 2.26159L11.8804 2.32829L11.9196 2.36299L11.9583 2.39849L11.9965 2.43489L12.0342 2.47209L12.0715 2.51009L12.1082 2.54899L12.1804 2.62929L12.2506 2.71279L12.285 2.75579L12.319 2.79969L12.3526 2.84429L12.4183 2.93589L12.4505 2.98289L12.4823 3.03069L12.5137 3.07919L12.5751 3.17869L12.6349 3.28119L12.693 3.38669L12.7495 3.49509L12.8045 3.60659L12.8579 3.72089L12.9098 3.83809L12.9602 3.95809L13.0092 4.08079L13.0568 4.20639L13.103 4.33459L13.1479 4.46549L13.1914 4.59899L13.2337 4.73509L13.2747 4.87369L13.3145 5.01489L13.3531 5.15849L13.3905 5.30449L13.4269 5.45299L13.4621 5.60379L13.4963 5.75679L13.5294 5.91219L13.5616 6.06979L13.5928 6.22959L13.623 6.39149L13.6524 6.55559L13.6809 6.72169L13.7086 6.88989L13.7354 7.05999L13.7615 7.23209L13.7869 7.40609L13.8116 7.58209L13.8355 7.75979L13.8589 7.93929L13.8816 8.12059L13.9038 8.30369L13.9254 8.48839L13.9439 8.68429L13.9601 8.87799L13.9737 9.06899L13.9847 9.25719L13.993 9.44229L13.9983 9.62409L13.9998 9.71359V9.97639L13.9981 10.062L13.9956 10.1465L13.9923 10.2299L13.9881 10.3122L13.983 10.3932L13.977 10.4731L13.9701 10.5518L13.9623 10.6291L13.9535 10.7052L13.9437 10.78L13.933 10.8533L13.9213 10.9253L13.9085 10.9958L13.8947 11.0649L13.8799 11.1325L13.864 11.1985L13.8471 11.263L13.829 11.3259L13.8099 11.3871L13.7896 11.4467L13.7681 11.5046L13.7456 11.5608L13.7218 11.6152L13.6968 11.6678L13.6707 11.7185L13.6433 11.7675L13.6147 11.8145L13.5848 11.8596L13.5537 11.9027L13.5213 11.9438L13.4875 11.983L13.4525 12.02L13.4161 12.055L13.3784 12.0878L13.3393 12.1185L13.2988 12.147L13.2569 12.1733L13.2136 12.1973L13.1689 12.219L13.1228 12.2384L13.0751 12.2555L13.026 12.2702L12.9754 12.2824L12.9233 12.2922L12.8697 12.2995L12.8145 12.3043L12.7578 12.3066L12.6994 12.3062L12.6153 12.305L12.5337 12.3015L12.4545 12.2956L12.3777 12.2875L12.3032 12.2773L12.2309 12.2649L12.1608 12.2504L12.0927 12.234L12.0267 12.2156L11.9626 12.1953L11.9004 12.1731L11.84 12.1492L11.7814 12.1236L11.7244 12.0963L11.6691 12.0674L11.6153 12.037L11.5629 12.005L11.512 11.9717L11.4624 11.9369L11.4141 11.9009L11.367 11.8636L11.321 11.8251L11.2761 11.7854L11.2322 11.7447L11.1892 11.703L11.1471 11.6602L11.1058 11.6166L11.0652 11.5721L11.0253 11.5268L10.9859 11.4808L10.9087 11.3868L10.833 11.2905L10.7584 11.1924L10.6098 10.9927L10.5348 10.8921L10.4587 10.7914L10.3808 10.6913L10.3006 10.5921L10.2595 10.5431L10.2177 10.4944L10.1749 10.4462L10.1313 10.3986L10.0411 10.3051L9.99428 10.2594L9.94628 10.2145L9.89708 10.1704L9.84658 10.1271L9.79468 10.0848L9.74138 10.0435L9.68648 10.0033L9.62998 9.96409L9.57188 9.92609L9.51198 9.88939L9.46428 9.86679L9.41328 9.84499L9.35898 9.82409L9.30168 9.80389L9.24148 9.78449L9.17838 9.76579L9.11278 9.74789L9.04458 9.73069L8.97408 9.71419L8.90128 9.69839L8.82648 9.68339L8.74978 9.66899L8.67118 9.65529L8.59098 9.64219L8.50928 9.62979L8.42618 9.61799L8.25638 9.59619L8.08288 9.57679L7.90668 9.55959L7.72888 9.54459L7.55078 9.53169L7.37338 9.52069L7.19778 9.51149L7.02518 9.50409L6.85248 9.51149L6.67688 9.52069L6.49948 9.53169L6.32128 9.54459L6.14358 9.55959L5.96738 9.57679L5.79378 9.59619L5.62408 9.61799L5.54098 9.62979L5.45928 9.64219L5.37908 9.65529L5.30048 9.66899L5.22378 9.68339L5.14888 9.69839L5.07618 9.71419L5.00568 9.73069L4.93748 9.74789L4.87188 9.76579L4.80878 9.78449L4.74858 9.80389L4.69128 9.82409L4.63698 9.84499L4.58598 9.86679L4.53828 9.88939L4.47838 9.92609L4.42028 9.96409L4.36378 10.0033L4.30888 10.0435L4.25558 10.0848L4.20368 10.1271L4.15318 10.1704L4.10398 10.2145L4.05598 10.2594L4.00918 10.3051L3.96358 10.3515L3.87538 10.4462L3.83258 10.4944L3.79078 10.5431L3.74968 10.5921L3.66948 10.6913L3.59158 10.7914L3.51548 10.8921L3.44048 10.9927L3.29188 11.1924L3.21728 11.2905L3.14158 11.3868L3.10318 11.4341L3.06438 11.4808L3.02498 11.5268L2.98508 11.5721L2.94448 11.6166L2.90318 11.6602L2.86108 11.703L2.81808 11.7447L2.77418 11.7854L2.72928 11.8251L2.68328 11.8636L2.63618 11.9009L2.58788 11.9369L2.53828 11.9717L2.48738 12.005L2.43498 12.037L2.38118 12.0674L2.32588 12.0963L2.26888 12.1236L2.21028 12.1492L2.14988 12.1731L2.08768 12.1953L2.02358 12.2156L1.95758 12.234L1.88948 12.2504L1.81938 12.2649L1.74708 12.2773L1.67258 12.2875L1.59578 12.2956L1.51658 12.3015L1.43498 12.305L1.35088 12.3062L1.29088 12.3049L1.23248 12.3011L1.17568 12.2948L1.12038 12.286L1.06668 12.2748L1.01448 12.2612L0.963777 12.2452L0.914577 12.2269L0.866777 12.2062L0.820477 12.1833L0.775677 12.1581L0.732277 12.1307L0.690277 12.1012L0.649677 12.0695L0.610477 12.0357L0.572577 11.9997L0.536177 11.9618L0.501077 11.9218L0.467277 11.8798L0.434777 11.8359L0.403577 11.79L0.373677 11.7423L0.345077 11.6927L0.317777 11.6413L0.291577 11.588L0.266777 11.5331L0.243077 11.4763L0.220577 11.4179L0.199377 11.3578L0.179177 11.2961L0.160277 11.2328L0.142477 11.1679L0.125777 11.1014L0.110177 11.0335L0.0957766 10.9641L0.0823766 10.8932L0.0700766 10.8209L0.0588766 10.7473L0.0485766 10.6723L0.0394766 10.596L0.0312766 10.5184L0.0240766 10.4395L0.0178766 10.3595L0.0126766 10.2782L0.00847656 10.1958L0.00517656 10.1123L0.00277656 10.0276L0.00127656 9.94199L0.000976562 9.76759L0.00217656 9.67889L0.00417656 9.58929L0.00707656 9.49879L0.0107766 9.40749L0.0152766 9.31529L0.0205766 9.22229L0.0334766 9.03399L0.0494766 8.84299L0.0682766 8.64929L0.0898766 8.45339L0.109877 8.27029L0.130477 8.08879L0.151677 7.90899L0.173577 7.73089L0.196177 7.55459L0.219377 7.38009L0.243477 7.20739L0.268277 7.03659L0.293877 6.86759L0.320377 6.70069L0.347677 6.53569L0.375977 6.37269L0.405177 6.21189L0.435377 6.05309L0.466477 5.89649L0.498777 5.74209L0.531977 5.58989L0.566377 5.43999L0.601877 5.29239L0.638477 5.14709L0.676377 5.00429L0.715377 4.86379L0.755777 4.72589L0.797377 4.59039L0.840277 4.45759L0.884477 4.32729L0.930177 4.19959L0.977177 4.07459L1.02568 3.95229L1.07568 3.83279L1.12708 3.71609L1.18008 3.60219L1.23468 3.49119L1.29078 3.38309L1.34858 3.27789L1.40808 3.17569L1.43838 3.12579L1.50038 3.02819L1.56408 2.93369L1.59658 2.88759L1.62958 2.84229L1.69688 2.75409L1.73118 2.71119L1.76598 2.66909L1.80128 2.62789L1.87318 2.54779L1.90988 2.50899L1.94708 2.47099L1.98468 2.43389L2.02278 2.39759L2.06148 2.36209L2.10058 2.32759L2.14018 2.29379L2.18028 2.26099L2.22098 2.22899L2.26208 2.19789L2.34598 2.13829L2.38868 2.10979L2.43188 2.08219L2.47568 2.05549L2.51998 2.02979L2.56478 2.00489L2.61018 1.98089L2.65608 1.95789L2.70258 1.93579L2.74968 1.91459L2.84538 1.87509L2.94348 1.83929L2.99338 1.82279L3.04378 1.80729L3.14648 1.77919L3.19868 1.76659L3.25148 1.75499L3.35888 1.73469L3.41348 1.72609L3.46878 1.71839L3.52458 1.71179L3.58108 1.70609L3.63818 1.70149L3.69588 1.69789L3.75418 1.69529L3.81318 1.69379L3.93298 1.69419ZM10.111 2.69329L10.0794 2.69379L10.0519 2.69519L10.0245 2.69739L9.99818 2.70029L9.97248 2.70399L9.92038 2.71399L9.89428 2.72019L9.86778 2.72729L9.84118 2.73519L9.81438 2.74409L9.78628 2.75409L9.75818 2.76499L9.72928 2.77689L9.69968 2.78999L9.66958 2.80409L9.60728 2.83569L9.57508 2.85309L9.54178 2.87199L9.50768 2.89189L9.47598 2.91119L9.40148 2.95839L9.32708 3.00799L9.24978 3.06149L9.16958 3.11869L9.08598 3.17949L8.90908 3.30929L8.81538 3.37739L8.71738 3.44719L8.61488 3.51809L8.50758 3.58939L8.39818 3.65829L8.33718 3.69499L8.27718 3.72979L8.21548 3.76419L8.15238 3.79789L8.08748 3.83089L8.02078 3.86309L7.95248 3.89429L7.88218 3.92439L7.80998 3.95319L7.73608 3.98039L7.66018 4.00609L7.58248 4.02989L7.50308 4.05169L7.42178 4.07149L7.33868 4.08889L7.25388 4.10379L7.16788 4.11599L7.09758 4.12359L7.02698 4.12869L6.95628 4.12879L6.88568 4.12389L6.81418 4.11639L6.72738 4.10439L6.64168 4.08969L6.55768 4.07259L6.47548 4.05309L6.39508 4.03149L6.31628 4.00779L6.23938 3.98229L6.16458 3.95509L6.09128 3.92639L6.02008 3.89629L5.95078 3.86519L5.88298 3.83279L5.81718 3.79969L5.75328 3.76579L5.69068 3.73119L5.63008 3.69619L5.57098 3.66079L5.51358 3.62529L5.45508 3.58799L5.34958 3.51789L5.24638 3.44649L5.14798 3.37599L5.05398 3.30729L4.87768 3.17699L4.79438 3.11589L4.71488 3.05849L4.63848 3.00499L4.56498 2.95539L4.49148 2.90829L4.46048 2.88919L4.39438 2.85079L4.36278 2.83339L4.33218 2.81739L4.30198 2.80229L4.27268 2.78839L4.24388 2.77559L4.21568 2.76379L4.18838 2.75319L4.16098 2.74329L4.10888 2.72679L4.08308 2.71979L4.05758 2.71369L4.03178 2.70839L4.00658 2.70389L3.98118 2.70019L3.95518 2.69729L3.92808 2.69519L3.90068 2.69379L3.86918 2.69329L3.83088 2.69369L3.78968 2.69479L3.70968 2.69899L3.67128 2.70209L3.63308 2.70589L3.59618 2.71029L3.56048 2.71529L3.49068 2.72699L3.45668 2.73379L3.42318 2.74119L3.39078 2.74899L3.35878 2.75739L3.32778 2.76619L3.26658 2.78569L3.23718 2.79609L3.20788 2.80719L3.15068 2.83079L3.12248 2.84339L3.09508 2.85649L3.06768 2.87019L3.04068 2.88439L3.01408 2.89919L2.98708 2.91489L2.96108 2.93079L2.93488 2.94749L2.90868 2.96489L2.88338 2.98259L2.85758 3.00129L2.83168 3.02079L2.80638 3.04079L2.75598 3.08289L2.73078 3.10509L2.70548 3.12839L2.68038 3.15219L2.63068 3.20209L2.60578 3.22849L2.58088 3.25569L2.55628 3.28359L2.53168 3.31239L2.50688 3.34239L2.48238 3.37299L2.45808 3.40439L2.43358 3.43689L2.40948 3.47009L2.38538 3.50429L2.33708 3.57599L2.31328 3.61279L2.28958 3.65059L2.26758 3.68689L2.21908 3.77019L2.17288 3.85439L2.12728 3.94219L2.08228 4.03369L2.03798 4.12879L1.99458 4.22729L1.95188 4.32949L1.91008 4.43509L1.86898 4.54409L1.82878 4.65649L1.78948 4.77209L1.75118 4.89089L1.71368 5.01289L1.67708 5.13809L1.64148 5.26629L1.60668 5.39749L1.57288 5.53169L1.53988 5.66859L1.50788 5.80839L1.47668 5.95099L1.44638 6.09619L1.41698 6.24399L1.38838 6.39449L1.36058 6.54749L1.33368 6.70289L1.30748 6.86069L1.28208 7.02099L1.25738 7.18349L1.23348 7.34819L1.21028 7.51509L1.18768 7.68419L1.16578 7.85529L1.14458 8.02849L1.12388 8.20379L1.10378 8.38089L1.08398 8.56249L1.06298 8.75259L1.04538 8.93299L1.03068 9.10989L1.01858 9.28499L1.01388 9.36809L1.00978 9.45209L1.00638 9.53489L1.00388 9.61649L1.00198 9.69679L1.00098 9.77589L1.00068 9.85369L1.00118 9.92999L1.00248 10.0049L1.00458 10.0783L1.00738 10.1501L1.01108 10.2204L1.01548 10.289L1.02068 10.3558L1.02648 10.4207L1.03318 10.4839L1.04058 10.5452L1.04858 10.6043L1.05728 10.6615L1.06668 10.7165L1.07668 10.7694L1.08718 10.8198L1.09828 10.868L1.10978 10.9139L1.12158 10.957L1.13378 10.9978L1.14628 11.0361L1.15878 11.0716L1.17138 11.1043L1.18388 11.1343L1.19628 11.1616L1.20828 11.1861L1.21988 11.208L1.23088 11.227L1.24118 11.2434L1.25058 11.2573L1.25898 11.2686L1.26638 11.2778L1.27278 11.2851L1.27798 11.2905L1.28178 11.2941L1.28448 11.2964L1.28618 11.2977L1.28748 11.2986L1.28908 11.2992L1.29128 11.2999L1.29528 11.301L1.30108 11.3022L1.30938 11.3035L1.32058 11.3048L1.33398 11.3056L1.35438 11.3061L1.40628 11.3053L1.45798 11.3031L1.50638 11.2995L1.55208 11.2947L1.59428 11.2889L1.63388 11.2821L1.67118 11.2744L1.70568 11.2661L1.73818 11.257L1.76898 11.2473L1.79788 11.237L1.82598 11.2259L1.87808 11.202L1.90328 11.1888L1.92838 11.1746L1.95278 11.1598L1.97708 11.1438L2.00188 11.1265L2.02678 11.1079L2.05188 11.088L2.07708 11.0669L2.10308 11.0439L2.12958 11.0194L2.15648 10.9933L2.18388 10.9654L2.21188 10.9358L2.24068 10.9043L2.27018 10.8709L2.29988 10.8361L2.33028 10.7996L2.36008 10.7628L2.42628 10.6786L2.49288 10.5911L2.63818 10.3958L2.71568 10.2918L2.79818 10.1827L2.88588 10.0699L2.97738 9.95669L3.02848 9.89579L3.07958 9.83639L3.13238 9.77679L3.18728 9.71689L3.24428 9.65679L3.30328 9.59679L3.36448 9.53689L3.42828 9.47719L3.49408 9.41819L3.56248 9.35959L3.63358 9.30169L3.70708 9.24479L3.78318 9.18899L3.86188 9.13449L3.94328 9.08129L4.01518 9.03709L4.06208 9.00999L4.11038 8.98549L4.17558 8.95469L4.26038 8.91849L4.34508 8.88579L4.42908 8.85619L4.51328 8.82909L4.59798 8.80399L4.68378 8.78049L4.76978 8.75889L4.85648 8.73859L4.94418 8.71959L5.03268 8.70179L5.12248 8.68489L5.21268 8.66919L5.30368 8.65439L5.39548 8.64039L5.49018 8.62689L5.67468 8.60329L5.86328 8.58219L6.05308 8.56369L6.24298 8.54769L6.43238 8.53389L6.61988 8.52229L6.80498 8.51259L7.02518 8.50319L7.24528 8.51259L7.43038 8.52229L7.61788 8.53389L7.80728 8.54769L7.99718 8.56369L8.18688 8.58219L8.37558 8.60329L8.56008 8.62689L8.65478 8.64039L8.83748 8.66919L8.92778 8.68489L9.01758 8.70179L9.10608 8.71959L9.19378 8.73859L9.28048 8.75889L9.36648 8.78049L9.45228 8.80399L9.53698 8.82909L9.62118 8.85619L9.70518 8.88579L9.78988 8.91849L9.87468 8.95469L9.93988 8.98549L9.98818 9.00999L10.0351 9.03709L10.1069 9.08119L10.1885 9.13449L10.2672 9.18909L10.3431 9.24469L10.4167 9.30169L10.4879 9.35969L10.5562 9.41829L10.622 9.47719L10.6858 9.53689L10.747 9.59679L10.806 9.65679L10.863 9.71689L10.9178 9.77669L10.9708 9.83639L11.0219 9.89589L11.0728 9.95669L11.1644 10.0699L11.2521 10.1827L11.3346 10.2918L11.412 10.3958L11.5574 10.5911L11.624 10.6786L11.6903 10.7629L11.7201 10.7997L11.7504 10.8361L11.7801 10.8709L11.8096 10.9043L11.8384 10.9358L11.8663 10.9653L11.8938 10.9933L11.9207 11.0194L11.9471 11.0438L11.9733 11.067L11.9984 11.088L12.0235 11.1079L12.0485 11.1265L12.0731 11.1438L12.0974 11.1597L12.1219 11.1747L12.1471 11.1889L12.1722 11.202L12.1976 11.2142L12.2244 11.2259L12.2524 11.237L12.2813 11.2473L12.312 11.257L12.3446 11.2661L12.3791 11.2744L12.4164 11.2821L12.456 11.2889L12.4982 11.2947L12.5439 11.2995L12.5924 11.3031L12.644 11.3053L12.7095 11.3063L12.7411 11.3065L12.7507 11.3061L12.7553 11.3002L12.7622 11.2906L12.7704 11.2783L12.7795 11.2633L12.7897 11.2452L12.8004 11.2243L12.8116 11.2006L12.8232 11.1741L12.8351 11.1444L12.8472 11.1119L12.8592 11.0767L12.8711 11.0384L12.8828 10.9977L12.8942 10.9544L12.9053 10.9084L12.9159 10.86L12.926 10.8092L12.9357 10.756L12.9447 10.7005L12.9531 10.6428L12.9609 10.5831L12.9681 10.5214L12.9745 10.4576L12.9803 10.3919L12.9854 10.3246L12.9897 10.2553L12.9933 10.1843L12.9962 10.1118L12.9984 10.0377L12.9999 9.96219V9.72649L12.9986 9.64729L12.9936 9.47929L12.986 9.30869L12.9758 9.13379L12.963 8.95519L12.9478 8.77309L12.9308 8.59359L12.9108 8.42179L12.8891 8.24299L12.8669 8.06599L12.8442 7.89109L12.8209 7.71829L12.797 7.54769L12.7724 7.37929L12.7472 7.21289L12.7213 7.04899L12.6947 6.88739L12.6674 6.72819L12.6394 6.57159L12.6105 6.41729L12.5809 6.26549L12.5505 6.11649L12.5193 5.97019L12.4872 5.82649L12.4543 5.68559L12.4205 5.54769L12.3859 5.41249L12.3503 5.28039L12.3139 5.15119L12.2767 5.02519L12.2385 4.90229L12.1995 4.78259L12.1596 4.66619L12.1188 4.55309L12.0772 4.44339L12.0349 4.33719L11.9916 4.23439L11.9477 4.13509L11.903 4.03939L11.8575 3.94739L11.8116 3.85909L11.7649 3.77439L11.716 3.69049L11.6938 3.65409L11.6701 3.61619L11.6459 3.57879L11.6216 3.54229L11.5976 3.50729L11.5733 3.47279L11.5487 3.43919L11.5242 3.40649L11.4997 3.37499L11.4751 3.34419L11.4502 3.31419L11.4254 3.28509L11.4006 3.25709L11.3507 3.20329L11.3257 3.17779L11.3008 3.15319L11.2755 3.12909L11.2503 3.10599L11.2251 3.08379L11.1996 3.06199L11.1742 3.04129L11.1488 3.02119L11.0975 2.98319L11.0715 2.96509L11.0193 2.93099L10.9928 2.91479L10.9126 2.87029L10.8852 2.85659L10.8294 2.83079L10.8011 2.81869L10.7723 2.80719L10.7433 2.79619L10.6833 2.77569L10.6525 2.76629L10.6211 2.75729L10.5895 2.74899L10.5567 2.74109L10.5235 2.73379L10.4896 2.72699L10.4553 2.72089L10.4201 2.71539L10.3837 2.71029L10.3089 2.70209L10.2705 2.69899L10.2312 2.69659L10.1906 2.69479L10.1493 2.69369L10.111 2.69329ZM9.47558 4.48719C9.69648 4.48719 9.87558 4.66629 9.87558 4.88719V5.63719C9.87558 5.69029 9.89658 5.74109 9.93408 5.77859C9.97158 5.81619 10.0225 5.83719 10.0756 5.83719H10.8256C11.0465 5.83719 11.2256 6.01629 11.2256 6.23719C11.2256 6.45809 11.0465 6.63719 10.8256 6.63719H10.0756C10.0225 6.63719 9.97158 6.65829 9.93408 6.69579C9.89658 6.73329 9.87558 6.78419 9.87558 6.83719V7.58719C9.87558 7.80809 9.69648 7.98719 9.47558 7.98719C9.25458 7.98719 9.07558 7.80809 9.07558 7.58719V6.83719C9.07558 6.78419 9.05448 6.73329 9.01698 6.69579C8.97948 6.65829 8.92858 6.63719 8.87558 6.63719H8.12548C7.90458 6.63719 7.72558 6.45809 7.72558 6.23719C7.72558 6.01629 7.90458 5.83719 8.12548 5.83719H8.87558C8.92858 5.83719 8.97948 5.81619 9.01698 5.77859C9.05448 5.74109 9.07558 5.69029 9.07558 5.63719V4.88719C9.07558 4.66629 9.25458 4.48719 9.47558 4.48719ZM4.30408 4.52159C5.24498 4.52159 6.00888 5.28549 6.00888 6.22639C6.00888 7.16729 5.24498 7.93119 4.30408 7.93119C3.36318 7.93119 2.59938 7.16729 2.59938 6.22639C2.59938 5.28549 3.36318 4.52159 4.30408 4.52159ZM4.30408 5.22839C3.75338 5.22839 3.30618 5.67559 3.30618 6.22639C3.30618 6.77709 3.75338 7.22429 4.30408 7.22429C4.85488 7.22429 5.30208 6.77709 5.30208 6.22639C5.30208 5.67559 4.85488 5.22839 4.30408 5.22839ZM4.30408 5.60849C4.64518 5.60849 4.92198 5.88529 4.92198 6.22639C4.92198 6.56739 4.64518 6.84419 4.30408 6.84419C3.96308 6.84419 3.68628 6.56739 3.68628 6.22639C3.68628 5.88529 3.96308 5.60849 4.30408 5.60849Z" fill="#313E75"/>
</g>
</svg>
