<svg width="14" height="14" viewBox="0 0 14 14" fill="none" xmlns="http://www.w3.org/2000/svg">
<path fill-rule="evenodd" clip-rule="evenodd" d="M8.6878 3.5C9.8155 3.5 10.7333 4.3477 10.7333 5.3978C10.7333 5.7244 10.64 6.0433 10.4688 6.3311C10.2122 6.7511 9.8 7.0622 9.3022 7.21C9.17 7.2489 9.0689 7.2644 8.9756 7.2644C8.7578 7.2644 8.5867 7.0933 8.5867 6.8755C8.5867 6.6578 8.7578 6.4866 8.9756 6.4866C8.9911 6.4866 9.0222 6.4866 9.0611 6.4711C9.3955 6.3778 9.66 6.1833 9.8077 5.9266C9.9089 5.7633 9.9556 5.5845 9.9556 5.3978C9.9556 4.7833 9.3878 4.2778 8.6956 4.2778C8.4544 4.2778 8.2211 4.34 8.0111 4.4566C7.6455 4.6667 7.4278 5.0166 7.4278 5.3978V8.6567C7.4278 9.3177 7.0622 9.9244 6.4556 10.2667C6.1289 10.4533 5.7633 10.5467 5.39 10.5467C4.2622 10.5467 3.3445 9.6989 3.3445 8.6489C3.3445 8.3222 3.4378 8.0033 3.6089 7.7156C3.8655 7.2955 4.2778 6.9844 4.7756 6.8367C4.9155 6.7978 5.0089 6.7822 5.1022 6.7822C5.32 6.7822 5.4911 6.9534 5.4911 7.1711C5.4911 7.3889 5.32 7.56 5.1022 7.56C5.0867 7.56 5.0555 7.56 5.0166 7.5755C4.6822 7.6766 4.4178 7.8711 4.27 8.12C4.1689 8.2833 4.1223 8.4622 4.1223 8.6489C4.1223 9.2633 4.69 9.7689 5.39 9.7689C5.6311 9.7689 5.8645 9.7066 6.0744 9.59C6.44 9.38 6.6578 9.03 6.6578 8.6489V5.3978C6.6578 4.7366 7.0233 4.13 7.63 3.7878C7.9488 3.5933 8.3144 3.5 8.6878 3.5ZM0 7C0 3.1345 3.1345 0 7 0C10.8655 0 14 3.1345 14 7C14 10.8655 10.8655 14 7 14C3.1345 14 0 10.8655 0 7Z" fill="#242E59"/>
</svg>
