<svg width="14" height="14" viewBox="0 0 14 14" fill="none" xmlns="http://www.w3.org/2000/svg">
<path fill-rule="evenodd" clip-rule="evenodd" d="M7 0C10.8634 0 14 3.1366 14 7C14 10.8634 10.8634 14 7 14C3.1366 14 0 10.8634 0 7C0 3.1366 3.1366 0 7 0ZM7 1C10.3115 1 13 3.68851 13 7C13 10.3115 10.3115 13 7 13C3.68851 13 1 10.3115 1 7C1 3.68851 3.68851 1 7 1ZM3.5 6.5C3.22386 6.5 3 6.72386 3 7C3 7.27614 3.22386 7.5 3.5 7.5H10.5C10.7761 7.5 11 7.27614 11 7C11 6.72386 10.7761 6.5 10.5 6.5H3.5Z" fill="#242E59"/>
</svg>
