<svg width="14" height="14" viewBox="0 0 14 14" fill="none" xmlns="http://www.w3.org/2000/svg">
<path fill-rule="evenodd" clip-rule="evenodd" d="M0.827449 10.7116L0.851849 10.7135L0.876149 10.7166L0.900249 10.7209L0.924249 10.7264L0.948049 10.7331L0.971549 10.741L6.83065 12.8736L6.85145 12.8806L6.87255 12.8868L6.89375 12.892L6.91515 12.8962L6.93665 12.8995L6.95825 12.9018L6.97995 12.9033L7.00165 12.9037L7.02335 12.9033L7.04505 12.9018L7.06665 12.8995L7.08815 12.8962L7.10955 12.892L7.13085 12.8868L7.15185 12.8806L7.17265 12.8736L13.0205 10.7451L13.0455 10.7367L13.0706 10.7297L13.0958 10.724L13.121 10.7196L13.1462 10.7165L13.1714 10.7147L13.1965 10.7141L13.2215 10.7148L13.2463 10.7167L13.271 10.7197L13.2953 10.724L13.3194 10.7294L13.3431 10.7359L13.3665 10.7436L13.3895 10.7524L13.412 10.7622L13.434 10.7731L13.4555 10.7851L13.4764 10.7981L13.4967 10.812L13.5163 10.827L13.5352 10.8429L13.5534 10.8598L13.5708 10.8776L13.5873 10.8963L13.603 10.9159L13.6178 10.9364L13.6317 10.9577L13.6445 10.9799L13.6563 11.0028L13.6671 11.0266L13.6767 11.0511L13.6771 11.0521L13.6851 11.0758L13.6917 11.0997L13.6972 11.1237L13.7013 11.1477L13.7043 11.1717L13.706 11.1956L13.7066 11.2195L13.7059 11.2433L13.7042 11.2669L13.7012 11.2903L13.6972 11.3135L13.692 11.3364L13.6858 11.359L13.6785 11.3812L13.6702 11.403L13.6608 11.4244L13.6504 11.4454L13.6391 11.4658L13.6267 11.4857L13.6134 11.505L13.5992 11.5236L13.584 11.5416L13.568 11.5589L13.5511 11.5755L13.5333 11.5912L13.5146 11.6062L13.4951 11.6202L13.4749 11.6334L13.4538 11.6456L13.432 11.6569L13.4094 11.6671L13.386 11.6763L8.46355 13.4679L7.34365 13.8755L7.30205 13.8897L7.25995 13.9019L7.21745 13.9123L7.17465 13.9207L7.13165 13.9273L7.08845 13.9321L7.04505 13.9349L7.00165 13.9358L6.95825 13.9349L6.91495 13.9321L6.87165 13.9273L6.82865 13.9207L6.78585 13.9123L6.74345 13.9019L6.70135 13.8897L6.65965 13.8755L0.628549 11.6804L0.604649 11.671L0.581449 11.6605L0.559149 11.649L0.537549 11.6365L0.516749 11.623L0.496749 11.6085L0.477649 11.5932L0.459449 11.5771L0.442049 11.5601L0.425649 11.5424L0.410149 11.524L0.395549 11.5049L0.381949 11.4851L0.369249 11.4647L0.357649 11.4438L0.346949 11.4224L0.337349 11.4004L0.328849 11.378L0.321349 11.3553L0.314949 11.3321L0.309749 11.3087L0.305549 11.2849L0.302549 11.2609L0.300749 11.2367L0.300049 11.2124L0.300649 11.1879L0.302449 11.1634L0.305449 11.1388L0.309749 11.1142L0.315249 11.0896L0.322149 11.0652L0.330649 11.0399L0.339749 11.0168L0.349849 10.9943L0.361049 10.9724L0.373249 10.9511L0.386549 10.9305L0.400749 10.9106L0.415849 10.8915L0.431849 10.8731L0.448749 10.8555L0.466549 10.8388L0.485149 10.8229L0.504449 10.8079L0.524549 10.7939L0.545449 10.7808L0.566949 10.7688L0.589149 10.7577L0.611949 10.7478L0.635049 10.739L0.658449 10.7315L0.682149 10.7251L0.706049 10.7199L0.730149 10.7158L0.754349 10.713L0.778649 10.7113L0.803049 10.7109L0.827449 10.7116ZM0.827449 8.1266L0.851849 8.1285L0.876149 8.1316L0.900249 8.1359L0.924249 8.1414L0.948049 8.1481L0.971549 8.156L6.83065 10.2886L6.85145 10.2956L6.87255 10.3018L6.89375 10.3069L6.91515 10.3112L6.93665 10.3145L6.95825 10.3168L6.97995 10.3183L7.00165 10.3187L7.02335 10.3183L7.04505 10.3168L7.06665 10.3145L7.08815 10.3112L7.10955 10.3069L7.13085 10.3018L7.15185 10.2956L7.17265 10.2886L13.0205 8.1601L13.0455 8.1517L13.0706 8.1447L13.0958 8.139L13.121 8.1346L13.1462 8.1315L13.1714 8.1297L13.1965 8.1291L13.2215 8.1298L13.2463 8.1316L13.271 8.1347L13.2953 8.139L13.3194 8.1444L13.3431 8.1509L13.3665 8.1586L13.3895 8.1674L13.412 8.1772L13.434 8.1881L13.4555 8.2001L13.4764 8.2131L13.4967 8.227L13.5163 8.242L13.5352 8.2579L13.5534 8.2748L13.5708 8.2926L13.5873 8.3113L13.603 8.3309L13.6178 8.3514L13.6317 8.3727L13.6445 8.3949L13.6563 8.4178L13.6671 8.4416L13.6767 8.4661L13.6771 8.4671L13.6851 8.4908L13.6917 8.5147L13.6972 8.5387L13.7013 8.5627L13.7043 8.5867L13.706 8.6106L13.7066 8.6345L13.7059 8.6583L13.7042 8.6819L13.7012 8.7053L13.6972 8.7285L13.692 8.7514L13.6858 8.774L13.6785 8.7962L13.6702 8.818L13.6608 8.8394L13.6504 8.8604L13.6391 8.8808L13.6267 8.9007L13.6134 8.92L13.5992 8.9386L13.584 8.9566L13.568 8.9739L13.5511 8.9905L13.5333 9.0062L13.5146 9.0212L13.4951 9.0352L13.4749 9.0484L13.4538 9.0606L13.432 9.0719L13.4094 9.0821L13.386 9.0913L8.46355 10.8829L7.34365 11.2905L7.30205 11.3046L7.25995 11.3169L7.21745 11.3273L7.17465 11.3357L7.13165 11.3423L7.08845 11.347L7.04505 11.3499L7.00165 11.3508L6.95825 11.3499L6.91495 11.347L6.87175 11.3423L6.82865 11.3357L6.78585 11.3273L6.74345 11.3169L6.70135 11.3046L6.65965 11.2905L5.53975 10.8829L0.628549 9.0954L0.605549 9.0863L0.583049 9.0762L0.561149 9.065L0.539949 9.0528L0.519449 9.0396L0.499549 9.0255L0.480449 9.0104L0.462149 8.9944L0.444549 8.9775L0.427849 8.9598L0.412049 8.9412L0.397049 8.9219L0.383049 8.9018L0.370049 8.881L0.357949 8.8595L0.346949 8.8374L0.337049 8.8147L0.328349 8.7916L0.320749 8.7683L0.314449 8.7446L0.309249 8.7208L0.305149 8.6967L0.302349 8.6725L0.300649 8.6482L0.300249 8.6239L0.300949 8.5996L0.302849 8.5752L0.305949 8.551L0.310249 8.5269L0.315749 8.503L0.322449 8.4793L0.330649 8.4549L0.339749 8.4318L0.349849 8.4093L0.361049 8.3873L0.373249 8.3661L0.386549 8.3455L0.400749 8.3256L0.415849 8.3064L0.431849 8.2881L0.448749 8.2705L0.466549 8.2538L0.485149 8.2379L0.504449 8.2229L0.524549 8.2089L0.545449 8.1958L0.566949 8.1837L0.589149 8.1727L0.611949 8.1628L0.635049 8.154L0.658449 8.1465L0.682149 8.1401L0.706049 8.1349L0.730149 8.1308L0.754349 8.128L0.778649 8.1263L0.803049 8.1259L0.827449 8.1266ZM5.50165 2.6817L5.52645 2.6823L5.55105 2.6842L5.57555 2.6872L5.59965 2.6914L5.62355 2.6968L5.64705 2.7033L5.67025 2.711L5.69305 2.7198L5.71535 2.7297L5.73715 2.7406L5.75835 2.7526L5.77905 2.7657L5.79915 2.7798L5.81855 2.7949L5.83725 2.8111L5.85525 2.8282L5.87235 2.8461L5.88845 2.8648L5.90355 2.8842L5.91765 2.9043L5.93075 2.925L5.94275 2.9463L5.95375 2.9681L5.96365 2.9904L5.97235 3.0131L5.98005 3.0363L5.98655 3.0598L5.99195 3.0837L5.99615 3.1079L5.99925 3.1323L6.00105 3.1569L6.00165 3.1817V7.5451L6.00105 7.5699L5.99925 7.5946L5.99615 7.619L5.99195 7.6431L5.98655 7.667L5.98005 7.6906L5.97235 7.7137L5.96365 7.7365L5.95375 7.7588L5.94275 7.7806L5.93075 7.8018L5.91765 7.8225L5.90355 7.8426L5.88845 7.862L5.87235 7.8807L5.85525 7.8987L5.83725 7.9158L5.81855 7.9319L5.79915 7.947L5.77905 7.9611L5.75835 7.9742L5.73715 7.9862L5.71535 7.9972L5.69305 8.0071L5.67025 8.0159L5.64705 8.0235L5.62355 8.0301L5.59965 8.0354L5.57555 8.0397L5.55105 8.0427L5.52645 8.0445L5.50165 8.0451L5.47685 8.0445L5.45225 8.0427L5.42785 8.0397L5.40365 8.0354L5.37975 8.0301L5.35625 8.0235L5.33305 8.0159L5.31035 8.0071L5.28805 7.9972L5.26625 7.9862L5.24495 7.9742L5.22425 7.9611L5.20415 7.947L5.18475 7.9319L5.16605 7.9158L5.14815 7.8987L5.13105 7.8807L5.11485 7.862L5.09975 7.8426L5.08565 7.8225L5.07255 7.8018L5.06055 7.7806L5.04965 7.7588L5.03975 7.7365L5.03095 7.7137L5.02325 7.6906L5.01675 7.667L5.01135 7.6431L5.00715 7.619L5.00415 7.5946L5.00225 7.5699L5.00165 7.5451V3.1817L5.00225 3.1569L5.00415 3.1323L5.00715 3.1079L5.01135 3.0837L5.01675 3.0598L5.02325 3.0363L5.03095 3.0131L5.03975 2.9904L5.04965 2.9681L5.06055 2.9463L5.07255 2.925L5.08565 2.9043L5.09975 2.8842L5.11485 2.8648L5.13105 2.8461L5.14815 2.8282L5.16605 2.8111L5.18475 2.7949L5.20415 2.7798L5.22425 2.7657L5.24495 2.7526L5.26625 2.7406L5.28805 2.7297L5.31035 2.7198L5.33305 2.711L5.35625 2.7033L5.37975 2.6968L5.40365 2.6914L5.42785 2.6872L5.45225 2.6842L5.47685 2.6823L5.50165 2.6817ZM11.5016 4.0226L11.5264 4.0232L11.551 4.025L11.5755 4.0281L11.5996 4.0323L11.6235 4.0377L11.647 4.0442L11.6702 4.0518L11.693 4.0606L11.7153 4.0705L11.7371 4.0815L11.7583 4.0935L11.779 4.1066L11.7991 4.1207L11.8185 4.1358L11.8372 4.1519L11.8552 4.169L11.8723 4.187L11.8884 4.2057L11.9035 4.2251L11.9176 4.2452L11.9307 4.2659L11.9427 4.2871L11.9537 4.3089L11.9636 4.3312L11.9723 4.354L11.98 4.3772L11.9865 4.4007L11.9919 4.4246L11.9961 4.4487L11.9992 4.4732L12.001 4.4978L12.0016 4.5226V7.5451L12.001 7.5699L11.9992 7.5946L11.9961 7.619L11.9919 7.6431L11.9865 7.667L11.98 7.6906L11.9723 7.7137L11.9636 7.7365L11.9537 7.7588L11.9427 7.7806L11.9307 7.8018L11.9176 7.8225L11.9035 7.8426L11.8884 7.862L11.8723 7.8807L11.8552 7.8987L11.8372 7.9158L11.8185 7.9319L11.7991 7.947L11.779 7.9611L11.7583 7.9742L11.7371 7.9862L11.7153 7.9972L11.693 8.0071L11.6702 8.0159L11.647 8.0235L11.6235 8.0301L11.5996 8.0354L11.5755 8.0397L11.551 8.0427L11.5264 8.0445L11.5016 8.0451L11.4768 8.0445L11.4522 8.0427L11.4278 8.0397L11.4036 8.0354L11.3797 8.0301L11.3562 8.0235L11.333 8.0159L11.3103 8.0071L11.288 7.9972L11.2662 7.9862L11.2449 7.9742L11.2242 7.9611L11.2041 7.947L11.1847 7.9319L11.166 7.9158L11.1481 7.8987L11.131 7.8807L11.1149 7.862L11.0997 7.8426L11.0856 7.8225L11.0725 7.8018L11.0605 7.7806L11.0496 7.7588L11.0397 7.7365L11.0309 7.7137L11.0232 7.6906L11.0167 7.667L11.0113 7.6431L11.0071 7.619L11.0041 7.5946L11.0022 7.5699L11.0016 7.5451V4.5226L11.0022 4.4978L11.0041 4.4732L11.0071 4.4487L11.0113 4.4246L11.0167 4.4007L11.0232 4.3772L11.0309 4.354L11.0397 4.3312L11.0496 4.3089L11.0605 4.2871L11.0725 4.2659L11.0856 4.2452L11.0997 4.2251L11.1149 4.2057L11.131 4.187L11.1481 4.169L11.166 4.1519L11.1847 4.1358L11.2041 4.1207L11.2242 4.1066L11.2449 4.0935L11.2662 4.0815L11.288 4.0705L11.3103 4.0606L11.333 4.0518L11.3562 4.0442L11.3797 4.0377L11.4036 4.0323L11.4278 4.0281L11.4522 4.025L11.4768 4.0232L11.5016 4.0226ZM2.50165 0L2.52645 0.0006L2.55105 0.0024L2.57555 0.0055L2.59965 0.0097L2.62355 0.0151L2.64705 0.0216L2.67025 0.0293L2.69305 0.0381L2.71535 0.0479L2.73715 0.0589L2.75835 0.0709L2.77905 0.084L2.79915 0.0981L2.81855 0.1132L2.83725 0.1294L2.85525 0.1464L2.87235 0.1644L2.88845 0.1831L2.90355 0.2025L2.91765 0.2226L2.93075 0.2433L2.94275 0.2646L2.95375 0.2864L2.96365 0.3087L2.97235 0.3314L2.98005 0.3546L2.98655 0.3781L2.99195 0.402L2.99615 0.4262L2.99925 0.4506L3.00105 0.4752L3.00165 0.5V7.5451L3.00105 7.5699L2.99925 7.5946L2.99615 7.619L2.99195 7.6431L2.98655 7.667L2.98005 7.6906L2.97235 7.7137L2.96365 7.7365L2.95375 7.7588L2.94275 7.7806L2.93075 7.8019L2.91765 7.8225L2.90355 7.8426L2.88845 7.862L2.87235 7.8807L2.85525 7.8987L2.83725 7.9158L2.81855 7.9319L2.79915 7.947L2.77905 7.9611L2.75835 7.9742L2.73715 7.9862L2.71535 7.9972L2.69305 8.0071L2.67025 8.0159L2.64705 8.0235L2.62355 8.0301L2.59965 8.0354L2.57555 8.0397L2.55105 8.0427L2.52645 8.0445L2.50165 8.0451L2.47685 8.0445L2.45225 8.0427L2.42785 8.0397L2.40365 8.0354L2.37975 8.0301L2.35625 8.0235L2.33305 8.0159L2.31035 8.0071L2.28805 7.9972L2.26625 7.9862L2.24495 7.9742L2.22425 7.9611L2.20415 7.947L2.18475 7.9319L2.16605 7.9158L2.14815 7.8987L2.13105 7.8807L2.11495 7.862L2.09975 7.8426L2.08565 7.8225L2.07255 7.8019L2.06055 7.7806L2.04965 7.7588L2.03975 7.7365L2.03095 7.7137L2.02325 7.6906L2.01675 7.667L2.01135 7.6431L2.00715 7.619L2.00415 7.5946L2.00225 7.5699L2.00165 7.5451V0.5L2.00225 0.4752L2.00415 0.4506L2.00715 0.4262L2.01135 0.402L2.01675 0.3781L2.02325 0.3546L2.03095 0.3314L2.03975 0.3087L2.04965 0.2864L2.06055 0.2646L2.07255 0.2433L2.08565 0.2226L2.09975 0.2025L2.11495 0.1831L2.13105 0.1644L2.14815 0.1464L2.16605 0.1294L2.18475 0.1132L2.20415 0.0981L2.22425 0.084L2.24495 0.0709L2.26625 0.0589L2.28805 0.0479L2.31035 0.0381L2.33305 0.0293L2.35625 0.0216L2.37975 0.0151L2.40365 0.0097L2.42785 0.0055L2.45225 0.0024L2.47685 0.0006L2.50165 0ZM8.50165 1.3409L8.52645 1.3415L8.55105 1.3433L8.57555 1.3463L8.59965 1.3506L8.62355 1.3559L8.64705 1.3625L8.67025 1.3701L8.69305 1.3789L8.71535 1.3888L8.73715 1.3998L8.75835 1.4118L8.77905 1.4249L8.79915 1.439L8.81855 1.4541L8.83725 1.4702L8.85525 1.4873L8.87235 1.5053L8.88845 1.524L8.90355 1.5434L8.91765 1.5635L8.93075 1.5841L8.94275 1.6054L8.95375 1.6272L8.96365 1.6495L8.97235 1.6723L8.98005 1.6954L8.98655 1.719L8.99195 1.7429L8.99615 1.767L8.99925 1.7914L9.00105 1.8161L9.00165 1.8409V7.5451L9.00105 7.5699L8.99925 7.5946L8.99615 7.619L8.99195 7.6431L8.98655 7.667L8.98005 7.6906L8.97235 7.7137L8.96365 7.7365L8.95375 7.7588L8.94275 7.7806L8.93075 7.8019L8.91765 7.8225L8.90355 7.8426L8.88845 7.862L8.87235 7.8807L8.85525 7.8987L8.83725 7.9158L8.81855 7.9319L8.79915 7.947L8.77905 7.9611L8.75835 7.9742L8.73715 7.9862L8.71535 7.9972L8.69305 8.0071L8.67025 8.0159L8.64705 8.0235L8.62355 8.0301L8.59965 8.0354L8.57555 8.0397L8.55105 8.0427L8.52645 8.0445L8.50165 8.0451L8.47685 8.0445L8.45225 8.0427L8.42785 8.0397L8.40365 8.0354L8.37975 8.0301L8.35625 8.0235L8.33305 8.0159L8.31035 8.0071L8.28805 7.9972L8.26625 7.9862L8.24495 7.9742L8.22425 7.9611L8.20415 7.947L8.18475 7.9319L8.16605 7.9158L8.14815 7.8987L8.13105 7.8807L8.11495 7.862L8.09975 7.8426L8.08565 7.8225L8.07255 7.8019L8.06055 7.7806L8.04965 7.7588L8.03975 7.7365L8.03095 7.7137L8.02325 7.6906L8.01675 7.667L8.01135 7.6431L8.00715 7.619L8.00415 7.5946L8.00225 7.5699L8.00165 7.5451V1.8409L8.00225 1.8161L8.00415 1.7914L8.00715 1.767L8.01135 1.7429L8.01675 1.719L8.02325 1.6954L8.03095 1.6723L8.03975 1.6495L8.04965 1.6272L8.06055 1.6054L8.07265 1.5841L8.08565 1.5635L8.09975 1.5434L8.11495 1.524L8.13105 1.5053L8.14815 1.4873L8.16605 1.4702L8.18475 1.4541L8.20415 1.439L8.22425 1.4249L8.24495 1.4118L8.26625 1.3998L8.28805 1.3888L8.31035 1.3789L8.33305 1.3701L8.35625 1.3625L8.37975 1.3559L8.40365 1.3506L8.42785 1.3463L8.45225 1.3433L8.47685 1.3415L8.50165 1.3409Z" fill="#242E59"/>
</svg>
