<svg width="14" height="14" viewBox="0 0 14 14" fill="none" xmlns="http://www.w3.org/2000/svg">
<path fill-rule="evenodd" clip-rule="evenodd" d="M4.07629 0H10.0763C11.1803 0 12.0763 0.896 12.0763 2V12C12.0763 13.104 11.1803 14 10.0763 14H4.07629C2.97229 14 2.07629 13.104 2.07629 12V2C2.07629 0.896 2.97229 0 4.07629 0ZM11.0763 2C11.0763 1.448 10.6283 1 10.0763 1H8.57629L8.21529 1.724C8.13029 1.893 7.95629 2 7.76729 2H6.38529C6.19629 2 6.02229 1.893 5.93729 1.724L5.57629 1H4.07629C3.52429 1 3.07629 1.448 3.07629 2V12C3.07629 12.552 3.52429 13 4.07629 13H10.0763C10.6283 13 11.0763 12.552 11.0763 12V2ZM5.07629 11.5C5.07629 11.224 5.30029 11 5.57629 11H8.57629C8.85229 11 9.07629 11.224 9.07629 11.5C9.07629 11.776 8.85229 12 8.57629 12H5.57629C5.30029 12 5.07629 11.776 5.07629 11.5Z" fill="#242E59"/>
</svg>
