<svg width="14" height="14" viewBox="0 0 14 14" fill="none" xmlns="http://www.w3.org/2000/svg">
<mask id="mask0" mask-type="alpha" maskUnits="userSpaceOnUse" x="0" y="0" width="14" height="14">
<path d="M14 0H0V14H14V0Z" fill="white"/>
</mask>
<g mask="url(#mask0)">
<path fill-rule="evenodd" clip-rule="evenodd" d="M12 13C12 13.5523 11.5523 14 11 14C9.084 14 4.916 14 3 14C2.4477 14 2.0001 13.5523 2 13C2 10.4229 2 3.5771 2 1C2.0001 0.4477 2.4477 0 3 0C4.916 0 9.084 0 11 0C11.5523 0 12 0.4477 12 1C12 3.5771 12 10.4229 12 13ZM8.1382 1.7236C8.0535 1.893 7.8804 2 7.691 2C7.3152 2 6.6848 2 6.309 2C6.1196 2 5.9465 1.893 5.8618 1.7236C5.7921 1.5843 5.7079 1.4157 5.6382 1.2764C5.5535 1.107 5.3804 1 5.191 1C4.7683 1 4.0047 1 3.5 1C3.2239 1 3 1.2239 3 1.5C3 3.4521 3 10.5479 3 12.5C3 12.7761 3.2239 13 3.5 13C4.9364 13 9.0636 13 10.5 13C10.7761 13 11 12.7761 11 12.5C11 10.5479 11 3.4521 11 1.5C11 1.2239 10.7761 1 10.5 1C9.9953 1 9.2317 1 8.809 1C8.6196 1 8.4465 1.107 8.3618 1.2764C8.2921 1.4157 8.2079 1.5843 8.1382 1.7236ZM8.5 11C8.6326 11 8.7598 11.0527 8.8535 11.1464C8.9473 11.2402 9 11.3674 9 11.5C9 11.6326 8.9473 11.7598 8.8535 11.8536C8.7598 11.9473 8.6326 12 8.5 12C7.7315 12 6.2685 12 5.5 12C5.3674 12 5.2402 11.9473 5.1465 11.8536C5.0527 11.7598 5 11.6326 5 11.5C5 11.3674 5.0527 11.2402 5.1465 11.1464C5.2402 11.0527 5.3674 11 5.5 11C6.2685 11 7.7315 11 8.5 11Z" fill="#313E75"/>
</g>
</svg>
