<svg width="14" height="14" viewBox="0 0 14 14" fill="none" xmlns="http://www.w3.org/2000/svg">
<path fill-rule="evenodd" clip-rule="evenodd" d="M12 13C12 13.5523 11.5523 14 11 14C9.084 14 4.916 14 3 14C2.4477 14 2 13.5523 2 13C2 10.4229 2 3.5771 2 1C2 0.4477 2.4477 0 3 0C4.916 0 9.084 0 11 0C11.5523 0 12 0.4477 12 1C12 3.5771 12 10.4229 12 13ZM11 1.5C11 1.2239 10.7761 1 10.5 1C9.0636 1 4.9364 1 3.5 1C3.2239 1 3 1.2239 3 1.5C3 3.4521 3 10.5479 3 12.5C3 12.7761 3.2239 13 3.5 13C4.9364 13 9.0636 13 10.5 13C10.7761 13 11 12.7761 11 12.5C11 10.5479 11 3.4521 11 1.5ZM10.5 12C10.5 12.2761 10.2761 12.5 10 12.5C8.7115 12.5 5.2885 12.5 4 12.5C3.7239 12.5 3.5 12.2761 3.5 12C3.5 10.1677 3.5 3.8323 3.5 2C3.5 1.8674 3.5527 1.7402 3.6465 1.6464C3.7402 1.5527 3.8674 1.5 4 1.5C4.5744 1.5 5.4761 1.5 5.775 1.5C5.838 1.5 5.8972 1.5296 5.935 1.58C6.005 1.6733 6.12 1.8267 6.19 1.92C6.2278 1.9704 6.2871 2 6.35 2C6.6227 2 7.3773 2 7.65 2C7.7129 2 7.7722 1.9704 7.81 1.92C7.88 1.8267 7.995 1.6733 8.065 1.58C8.1028 1.5296 8.162 1.5 8.225 1.5C8.5239 1.5 9.4256 1.5 10 1.5C10.1326 1.5 10.2598 1.5527 10.3535 1.6464C10.4473 1.7402 10.5 1.8674 10.5 2C10.5 3.8323 10.5 10.1677 10.5 12Z" fill="#242E59"/>
</svg>
