<svg width="14" height="4" viewBox="0 0 14 4" fill="none" xmlns="http://www.w3.org/2000/svg">
<path fill-rule="evenodd" clip-rule="evenodd" d="M3 2C3 2.82785 2.32785 3.5 1.5 3.5C0.67215 3.5 -1.01754e-07 2.82785 -6.55671e-08 2C-2.93806e-08 1.17215 0.67215 0.5 1.5 0.5C2.32785 0.5 3 1.17215 3 2ZM8.5 2C8.5 2.82785 7.82785 3.5 7 3.5C6.17215 3.5 5.5 2.82785 5.5 2C5.5 1.17215 6.17215 0.5 7 0.5C7.82785 0.5 8.5 1.17215 8.5 2ZM14 2C14 2.82785 13.3278 3.5 12.5 3.5C11.6721 3.5 11 2.82785 11 2C11 1.17215 11.6721 0.5 12.5 0.5C13.3279 0.5 14 1.17215 14 2Z" fill="#313E75"/>
</svg>
