<svg width="14" height="14" viewBox="0 0 14 14" fill="none" xmlns="http://www.w3.org/2000/svg">
<path fill-rule="evenodd" clip-rule="evenodd" d="M3 7.5C3 8.32785 2.32785 9 1.5 9C0.67215 9 -1.01754e-07 8.32785 -6.55671e-08 7.5C-2.93806e-08 6.67215 0.67215 6 1.5 6C2.32785 6 3 6.67215 3 7.5ZM8.5 7.5C8.5 8.32785 7.82785 9 7 9C6.17215 9 5.5 8.32785 5.5 7.5C5.5 6.67215 6.17215 6 7 6C7.82785 6 8.5 6.67215 8.5 7.5ZM14 7.5C14 8.32785 13.3278 9 12.5 9C11.6722 9 11 8.32785 11 7.5C11 6.67215 11.6722 6 12.5 6C13.3279 6 14 6.67215 14 7.5Z" fill="#242E59"/>
</svg>
