<svg width="14" height="14" viewBox="0 0 14 14" fill="none" xmlns="http://www.w3.org/2000/svg">
<path fill-rule="evenodd" clip-rule="evenodd" d="M6.53333 11C7.08523 11 7.53333 11.4481 7.53333 12C7.53333 12.5519 7.08523 13 6.53333 13C5.98143 13 5.53333 12.5519 5.53333 12C5.53333 11.4481 5.98143 11 6.53333 11ZM6.53333 6C7.08523 6 7.53333 6.4481 7.53333 7C7.53333 7.5519 7.08523 8 6.53333 8C5.98143 8 5.53333 7.5519 5.53333 7C5.53333 6.4481 5.98143 6 6.53333 6ZM6.53333 1C7.08523 1 7.53333 1.4481 7.53333 2C7.53333 2.5519 7.08523 3 6.53333 3C5.98143 3 5.53333 2.5519 5.53333 2C5.53333 1.4481 5.98143 1 6.53333 1Z" fill="#242E59"/>
</svg>
