<svg width="14" height="14" viewBox="0 0 14 14" fill="none" xmlns="http://www.w3.org/2000/svg">
<path fill-rule="evenodd" clip-rule="evenodd" d="M3 7C3 7.82785 2.32785 8.5 1.5 8.5C0.67215 8.5 -1.01754e-07 7.82785 -6.55671e-08 7C-2.93806e-08 6.17215 0.67215 5.5 1.5 5.5C2.32785 5.5 3 6.17215 3 7ZM8.5 7C8.5 7.82785 7.82785 8.5 7 8.5C6.17215 8.5 5.5 7.82785 5.5 7C5.5 6.17215 6.17215 5.5 7 5.5C7.82785 5.5 8.5 6.17215 8.5 7ZM14 7C14 7.82785 13.3278 8.5 12.5 8.5C11.6721 8.5 11 7.82785 11 7C11 6.17215 11.6721 5.5 12.5 5.5C13.3279 5.5 14 6.17215 14 7Z" fill="#313E75"/>
</svg>
