<svg width="14" height="14" viewBox="0 0 14 14" fill="none" xmlns="http://www.w3.org/2000/svg">
<path fill-rule="evenodd" clip-rule="evenodd" d="M5.49976 3.5C5.49976 3.86907 5.39979 4.21479 5.22545 4.51157L8.48104 7.76716C8.78248 7.56175 9.12768 7.4158 9.49976 7.34616V5.3082C8.97328 5.10702 8.59937 4.59716 8.59937 3.99998C8.59937 3.22678 9.22617 2.59998 9.99936 2.59998C10.7726 2.59998 11.3994 3.22678 11.3994 3.99998C11.3994 4.59687 11.0258 5.10651 10.4998 5.3079V7.34623C11.7519 7.58079 12.6996 8.67972 12.6996 9.99999C12.6996 11.4912 11.4907 12.7 9.99956 12.7C8.67923 12.7 7.58025 11.7523 7.34577 10.5H4.32503C4.11151 11.1949 3.46462 11.7 2.69976 11.7C1.76087 11.7 0.999756 10.9389 0.999756 9.99999C0.999756 9.0611 1.76087 8.29999 2.69976 8.29999C3.46463 8.29999 4.11153 8.80513 4.32504 9.5H7.34576C7.41608 9.12447 7.56413 8.77633 7.77258 8.47292L4.52015 5.22048C4.22141 5.39804 3.87249 5.5 3.49976 5.5C2.39519 5.5 1.49976 4.60457 1.49976 3.5C1.49976 2.39543 2.39519 1.5 3.49976 1.5C4.60433 1.5 5.49976 2.39543 5.49976 3.5Z" fill="#242E59"/>
</svg>
