<svg width="12" height="11" viewBox="0 0 12 11" fill="none" xmlns="http://www.w3.org/2000/svg">
<path fill-rule="evenodd" clip-rule="evenodd" d="M1.64718 9.38959L1.5309 9.5371H10.4074L10.2911 9.38959C10.0826 9.12492 9.96916 8.79762 9.96916 8.4609V5C9.96916 3.93914 9.54773 2.92179 8.79755 2.17161C8.04751 1.42148 7.03005 1 5.96916 1C4.90827 1 3.89085 1.42145 3.14081 2.17157C2.39062 2.92175 1.96916 3.93914 1.96916 5V8.4609C1.96916 8.79792 1.85522 9.12528 1.64718 9.38959ZM11.8883 10.2553C11.8047 10.4277 11.6299 10.5371 11.4384 10.5371H0.499961C0.308461 10.5371 0.133661 10.4277 0.0500605 10.2553C-0.0334394 10.083 -0.0112395 9.878 0.107361 9.7276L0.861861 8.7705C0.931361 8.6822 0.969161 8.5732 0.969161 8.4609V5C0.969161 3.6739 1.49596 2.4022 2.43366 1.4645C3.37126 0.5268 4.64306 0 5.96916 0C7.29526 0 8.56706 0.5268 9.50466 1.4645C10.4424 2.4022 10.9692 3.6739 10.9692 5V8.4609C10.9692 8.5732 11.007 8.6823 11.0765 8.7705L11.831 9.7276C11.9496 9.878 11.9718 10.083 11.8883 10.2553Z" fill="#313E75"/>
</svg>
