<svg width="12" height="14" viewBox="0 0 12 14" fill="none" xmlns="http://www.w3.org/2000/svg">
<path fill-rule="evenodd" clip-rule="evenodd" d="M8 11.64C8 11.6029 7.9853 11.5673 7.959 11.541C7.9327 11.5148 7.8971 11.5 7.86 11.5C7.2416 11.5 4.7584 11.5 4.14 11.5C4.1029 11.5 4.0673 11.5148 4.041 11.541C4.0147 11.5673 4 11.6029 4 11.64C4 11.7283 4 11.8532 4 12C4 12.5304 4.2107 13.0391 4.5858 13.4142C4.9609 13.7893 5.4696 14 6 14C6.5304 14 7.0391 13.7893 7.4142 13.4142C7.7893 13.0391 8 12.5304 8 12C8 11.8532 8 11.7283 8 11.64ZM0.892699 8.7705C0.962199 8.6822 0.999999 8.5732 0.999999 8.4609C0.999999 7.7378 0.999999 5 0.999999 5C0.999999 3.6739 1.5268 2.4022 2.4645 1.4645C3.4021 0.5268 4.6739 0 6 0C7.3261 0 8.5979 0.5268 9.5355 1.4645C10.4732 2.4022 11 3.6739 11 5C11 5 11 7.7378 11 8.4609C11 8.5732 11.0378 8.6823 11.1073 8.7705C11.2659 8.9716 11.575 9.3638 11.8618 9.7276C11.9804 9.878 12.0026 10.083 11.9191 10.2553C11.8355 10.4277 11.6607 10.5371 11.4692 10.5371C9.037 10.5371 2.963 10.5371 0.530799 10.5371C0.339299 10.5371 0.164499 10.4277 0.0808986 10.2553C-0.00260144 10.083 0.0195986 9.878 0.138199 9.7276C0.424999 9.3638 0.734099 8.9716 0.892699 8.7705Z" fill="#313E75"/>
</svg>
