<svg width="14" height="14" viewBox="0 0 14 14" fill="none" xmlns="http://www.w3.org/2000/svg">
<path fill-rule="evenodd" clip-rule="evenodd" d="M14 1C14 0.4477 13.5523 0 13 0H1C0.4477 0 0.0001 0.4477 0 1V13C0.0001 13.5523 0.4477 13.9999 1 14H13C13.5523 13.9999 14 13.5523 14 13V1ZM13 1.5C13 1.3674 12.9473 1.2402 12.8536 1.1464C12.7598 1.0527 12.6326 1 12.5 1H1.5C1.3674 1 1.2402 1.0527 1.1464 1.1464C1.0527 1.2402 1 1.3674 1 1.5V12.5C1 12.6326 1.0527 12.7598 1.1464 12.8536C1.2402 12.9473 1.3674 13 1.5 13H12.5C12.6326 13 12.7598 12.9473 12.8536 12.8536C12.9473 12.7598 13 12.6326 13 12.5V1.5ZM7.918 10.762C7.918 11.026 7.766 11.158 7.462 11.158C7.15 11.158 6.994 11.026 6.994 10.762V3.766H6.454C6.318 3.766 6.222 3.738 6.166 3.682C6.11 3.626 6.082 3.506 6.082 3.322C6.082 3.138 6.114 3.012 6.178 2.944C6.242 2.876 6.342 2.842 6.478 2.842H7.306C7.714 2.842 7.918 3.002 7.918 3.322V10.762Z" fill="#333333"/>
</svg>
