<svg width="14" height="14" viewBox="0 0 14 14" fill="none" xmlns="http://www.w3.org/2000/svg">
<path fill-rule="evenodd" clip-rule="evenodd" d="M14 13C14 13.5523 13.5523 13.9999 13 14C10.4229 14 3.5771 14 1 14C0.4477 13.9999 0.0001 13.5523 0 13C0 10.4229 0 3.5771 0 1C0.0001 0.4477 0.4477 0 1 0C3.5771 0 10.4229 0 13 0C13.5523 0 14 0.4477 14 1C14 3.5771 14 10.4229 14 13ZM13 4.5C13 4.2239 12.7761 4 12.5 4C10.5479 4 3.4521 4 1.5 4C1.2239 4 1 4.2239 1 4.5C1 6.0663 1 10.8686 1 12.4723C1 12.6123 1.0556 12.7465 1.1545 12.8454C1.2535 12.9444 1.3877 13 1.5277 13C3.5089 13 10.4911 13 12.4723 13C12.6123 13 12.7465 12.9444 12.8455 12.8454C12.9444 12.7465 13 12.6123 13 12.4723C13 10.8686 13 6.0663 13 4.5ZM5.031 11.5717C5.031 11.6803 4.9943 11.7714 4.921 11.8448C4.8477 11.9183 4.7377 11.955 4.591 11.955C4.4443 11.955 4.3362 11.9183 4.2665 11.8448C4.1968 11.7714 4.162 11.6803 4.162 11.5717V5.5737C4.162 5.4651 4.1895 5.3757 4.2445 5.3054C4.2995 5.2351 4.4003 5.2 4.547 5.2C4.6643 5.2 4.756 5.2287 4.822 5.2862C4.888 5.3437 4.954 5.4076 5.02 5.4779C5.02 5.4779 7.6397 8.8149 8.6117 10.053C8.6643 10.1201 8.7537 10.1464 8.8343 10.1186C8.9149 10.0907 8.969 10.0148 8.969 9.9295C8.969 8.6262 8.969 5.5737 8.969 5.5737C8.969 5.4651 9.0002 5.3757 9.0625 5.3054C9.1248 5.2351 9.2367 5.2 9.398 5.2C9.5593 5.2 9.673 5.2319 9.739 5.2958C9.805 5.3597 9.838 5.4523 9.838 5.5737V11.5813C9.838 11.6899 9.8105 11.7793 9.7555 11.8496C9.7005 11.9199 9.5997 11.955 9.453 11.955C9.3503 11.955 9.2605 11.9279 9.1835 11.8736C9.1065 11.8193 9.035 11.7506 8.969 11.6676C8.969 11.6676 6.3568 8.388 5.3874 7.171C5.3345 7.1045 5.2453 7.0787 5.165 7.1068C5.0848 7.1348 5.031 7.2106 5.031 7.2956C5.031 8.5781 5.031 11.5717 5.031 11.5717ZM13 1.5C13 1.3674 12.9473 1.2402 12.8536 1.1465C12.7598 1.0527 12.6326 1 12.5 1C10.5479 1 3.4521 1 1.5 1C1.3674 1 1.2402 1.0527 1.1464 1.1465C1.0527 1.2402 1 1.3674 1 1.5C1 1.8054 1 2.1946 1 2.5C1 2.6326 1.0527 2.7598 1.1464 2.8535C1.2402 2.9473 1.3674 3 1.5 3C3.4521 3 10.5479 3 12.5 3C12.6326 3 12.7598 2.9473 12.8536 2.8535C12.9473 2.7598 13 2.6326 13 2.5C13 2.1946 13 1.8054 13 1.5Z" fill="#242E59"/>
</svg>
