<svg width="14" height="14" viewBox="0 0 14 14" fill="none" xmlns="http://www.w3.org/2000/svg">
<g clip-path="url(#clip0_7666_79357)">
<path d="M12 12.5C12 12.7761 11.7761 13 11.5 13H1.5C1.22386 13 1 12.7761 1 12.5V2.5C1 2.22386 1.22386 2 1.5 2H5.96154C6.23768 2 6.46154 1.77614 6.46154 1.5C6.46154 1.22386 6.23768 1 5.96154 1H1.67521C0.5 1 0 1.5 0 2.75214V12.3248C0 13.5 0.5 14 1.67521 14H11.2479C12.5 14 13 13.5 13 12.3248V8.03846C13 7.76232 12.7761 7.53846 12.5 7.53846C12.2239 7.53846 12 7.76232 12 8.03846V12.5ZM8.88675 0C8.47254 0 8.13675 0.335786 8.13675 0.75C8.13675 1.16421 8.47254 1.5 8.88675 1.5H10.671C10.8477 1.5 10.9376 1.71244 10.8145 1.83928L5.99105 6.81016C5.66845 7.14261 5.67244 7.67244 6 8C6.32756 8.32756 6.85739 8.33154 7.18984 8.00895L12.1607 3.18546C12.2876 3.06238 12.5 3.15226 12.5 3.32899V5.11325C12.5 5.52746 12.8358 5.86325 13.25 5.86325C13.6642 5.86325 14 5.52746 14 5.11325V0.5C14 0.223857 13.7761 0 13.5 0H8.88675Z" fill="#242E59"/>
</g>
<defs>
<clipPath id="clip0_7666_79357">
<rect width="14" height="14" fill="white"/>
</clipPath>
</defs>
</svg>
