<svg width="15" height="13" viewBox="0 0 15 13" fill="none" xmlns="http://www.w3.org/2000/svg">
<path fill-rule="evenodd" clip-rule="evenodd" d="M13.3407 0.981445C14.0771 0.981445 14.6741 1.5784 14.6741 2.31478V11.6481C14.6741 12.3845 14.0771 12.9814 13.3407 12.9814H2.00741C1.27103 12.9814 0.674072 12.3845 0.674072 11.6481V2.31478C0.674072 1.5784 1.27103 0.981445 2.00741 0.981445H13.3407ZM13.6741 2.31478C13.6741 2.13068 13.5248 1.98145 13.3407 1.98145H10.5081V3.98145H13.6741V2.31478ZM13.6741 4.98145H6.00806C5.63987 4.98145 5.34139 4.68297 5.34139 4.31478V1.98145H2.00741C1.82331 1.98145 1.67407 2.13068 1.67407 2.31478V11.6481C1.67407 11.8322 1.82331 11.9814 2.00741 11.9814H13.3407C13.5248 11.9814 13.6741 11.8322 13.6741 11.6481V4.98145ZM9.50741 1.98145V3.98145H6.34139V1.98145H9.50741Z" fill="#242E59"/>
</svg>
