<svg width="14" height="15" viewBox="0 0 14 15" fill="none" xmlns="http://www.w3.org/2000/svg">
<path d="M4.13 12.8083L9.87715 2.19168" stroke="#242E59" stroke-linecap="round"/>
<path d="M10.8583 6.84666C10.0393 6.84666 9.41746 7.13483 8.99279 7.74149C8.59846 8.25716 8.41646 8.95483 8.41646 9.81933C8.41646 10.6687 8.59846 11.3512 8.99279 11.8972C9.41746 12.4735 10.0393 12.7768 10.8583 12.7768C11.6621 12.7768 12.284 12.4735 12.7238 11.8972C13.103 11.3663 13.3001 10.6687 13.3001 9.81933C13.3001 8.95483 13.103 8.25716 12.7238 7.74149C12.284 7.13483 11.6621 6.84666 10.8583 6.84666ZM3.15363 2.23831C2.33463 2.23831 1.71279 2.52648 1.28813 3.13315C0.893792 3.64881 0.711792 4.34648 0.711792 5.21098C0.711792 6.06031 0.893792 6.74281 1.28813 7.28881C1.71279 7.86515 2.33463 8.16848 3.15363 8.16848C3.95746 8.16848 4.57929 7.86515 5.01913 7.28881C5.39829 6.75798 5.59546 6.06031 5.59546 5.21098C5.59546 4.34648 5.39829 3.64881 5.01913 3.13315C4.57929 2.52648 3.95746 2.23831 3.15363 2.23831ZM10.8583 7.66566C11.3133 7.66566 11.647 7.87799 11.8745 8.31783C12.0565 8.68183 12.1626 9.18233 12.1626 9.81933C12.1626 10.4412 12.0565 10.9265 11.8745 11.2905C11.647 11.7303 11.3133 11.9578 10.8583 11.9578C10.3881 11.9578 10.0545 11.7303 9.84213 11.3057C9.64496 10.9417 9.55396 10.4412 9.55396 9.81933C9.55396 9.16716 9.64496 8.66666 9.84213 8.30266C10.0545 7.87799 10.3881 7.66566 10.8583 7.66566ZM3.15363 3.05731C3.60863 3.05731 3.94229 3.26965 4.15463 3.70948C4.35179 4.07348 4.45796 4.57398 4.45796 5.21098C4.45796 5.83281 4.35179 6.31815 4.16979 6.68214C3.94229 7.12198 3.60863 7.34948 3.15363 7.34948C2.68346 7.34948 2.34979 7.12198 2.13746 6.69731C1.94029 6.33331 1.84929 5.83281 1.84929 5.21098C1.84929 4.55881 1.94029 4.05831 2.13746 3.69431C2.34979 3.26965 2.68346 3.05731 3.15363 3.05731Z" fill="#242E59"/>
</svg>
