<svg width="14" height="14" viewBox="0 0 14 14" fill="none" xmlns="http://www.w3.org/2000/svg">
<path fill-rule="evenodd" clip-rule="evenodd" d="M14 7C14 10.866 10.866 14 7 14C3.13401 14 0 10.866 0 7C0 3.13401 3.13401 0 7 0C10.866 0 14 3.13401 14 7ZM7.5 1.23772C7.5 1.12077 7.60021 1.0285 7.71633 1.04232C10.6923 1.39637 13 3.92869 13 7C13 10.3137 10.3137 13 7 13C5.60123 13 4.31426 12.5214 3.29394 11.7189C3.20198 11.6466 3.19652 11.5106 3.27924 11.4279L7.35329 7.35382C7.44706 7.26005 7.5 7.13261 7.5 7V1.23772ZM6.5 1.23772C6.5 1.12077 6.39984 1.0285 6.28372 1.04231C3.54255 1.3684 1.3684 3.54255 1.04231 6.28372C1.0285 6.39984 1.12077 6.5 1.23772 6.5H6C6.27614 6.5 6.5 6.27614 6.5 6V1.23772ZM1.23772 7.5C1.12077 7.5 1.02848 7.59999 1.04229 7.71611C1.17556 8.83668 1.61766 9.8625 2.28108 10.7061C2.3534 10.798 2.48941 10.8035 2.57214 10.7208L5.62218 7.67071C5.68518 7.60771 5.64056 7.5 5.55147 7.5H1.23772Z" fill="#242E59"/>
</svg>
