<svg width="15" height="15" viewBox="0 0 15 15" fill="none" xmlns="http://www.w3.org/2000/svg">
<mask id="mask0" mask-type="alpha" maskUnits="userSpaceOnUse" x="0" y="0" width="15" height="15">
<path fill-rule="evenodd" clip-rule="evenodd" d="M0.456482 14.0122H14.4565V0.012207H0.456482V14.0122Z" fill="white"/>
</mask>
<g mask="url(#mask0)">
<path fill-rule="evenodd" clip-rule="evenodd" d="M10.2075 7.76672C10.08 7.89472 10.0313 8.08142 10.0803 8.25532C10.571 10.0888 10.0952 12.1216 8.66057 13.5563C8.66057 13.5563 8.65417 13.5621 8.64297 13.5722C8.44557 13.7519 8.14177 13.7447 7.95307 13.5559C7.76967 13.3725 7.57987 13.1827 7.57987 13.1827L7.58717 13.1767C7.58717 13.1767 5.88647 11.476 5.13167 10.7212C5.03797 10.6274 4.91077 10.5747 4.77817 10.5747C4.64557 10.5747 4.51837 10.6274 4.42457 10.7212C3.74717 11.3986 2.27357 12.8722 1.59617 13.5496C1.50237 13.6434 1.37527 13.6961 1.24257 13.6961C1.10997 13.6961 0.982869 13.6434 0.889069 13.5496C0.888769 13.5494 0.888569 13.5491 0.888369 13.5489C0.794769 13.4553 0.742169 13.3284 0.742169 13.196C0.742169 13.0637 0.794769 12.9368 0.888369 12.8432C1.56547 12.1661 3.03987 10.6917 3.71747 10.0141C3.81127 9.92032 3.86397 9.79312 3.86397 9.66052C3.86397 9.52792 3.81127 9.40072 3.71747 9.30702C2.96267 8.55222 1.26197 6.85152 1.26197 6.85152L1.25597 6.85882C1.25597 6.85882 1.06587 6.66882 0.882369 6.48522C0.788269 6.39152 0.735369 6.26432 0.735169 6.13152C0.735069 5.99872 0.787769 5.87132 0.881669 5.77752C0.882369 5.77822 0.882369 5.77812 0.882369 5.77812C2.31707 4.34352 4.34987 3.86772 6.18397 4.35622C6.35707 4.40482 6.54277 4.35622 6.66987 4.22912C7.27857 3.62452 9.06867 1.83452 10.0748 0.828422C10.2623 0.640922 10.5167 0.535522 10.7819 0.535522C11.0471 0.535522 11.3015 0.640822 11.489 0.828422C12.1052 1.44462 12.9941 2.33352 13.6103 2.94972C13.7979 3.13722 13.9032 3.39162 13.9032 3.65682C13.9032 3.92202 13.7978 4.17642 13.6103 4.36392C12.6042 5.37002 10.8142 7.16012 10.2075 7.76672ZM5.48527 9.66052C5.48527 9.66052 7.53467 11.7099 8.13177 12.3071C8.17287 12.3486 8.23007 12.3701 8.28837 12.3659C8.34667 12.3617 8.40017 12.3322 8.43487 12.2852C9.69157 10.5265 9.53167 8.06352 7.95347 6.48522C6.37517 4.90702 3.91217 4.74712 2.15487 6.00582C2.10847 6.04022 2.07927 6.09312 2.07497 6.15072C2.07067 6.20842 2.09167 6.26502 2.13257 6.30592C2.82127 6.99652 5.48527 9.66052 5.48527 9.66052ZM12.543 4.01712C12.6367 3.92332 12.6894 3.79612 12.6894 3.66352C12.6894 3.53092 12.6367 3.40372 12.543 3.30992C12.1506 2.91762 11.5211 2.28812 11.1288 1.89572C11.035 1.80202 10.9078 1.74932 10.7752 1.74932C10.6426 1.74932 10.5154 1.80202 10.4216 1.89572C9.80937 2.50792 8.55897 3.75842 7.94677 4.37062C7.75147 4.56592 7.75147 4.88252 7.94677 5.07772C8.20907 5.34012 8.52147 5.65242 8.52147 5.65242L8.66057 5.77812L8.78627 5.91722C8.78627 5.91722 9.09857 6.22962 9.36097 6.49192C9.55617 6.68722 9.87277 6.68722 10.0681 6.49192C10.6803 5.87972 11.9308 4.62932 12.543 4.01712Z" fill="#313E75"/>
</g>
</svg>
