<svg width="14" height="14" viewBox="0 0 14 14" fill="none" xmlns="http://www.w3.org/2000/svg">
<path fill-rule="evenodd" clip-rule="evenodd" d="M5.73029 4.34164C5.90319 4.39004 6.08879 4.34144 6.21579 4.21444C6.82409 3.61024 8.61269 1.82174 9.61829 0.816143C10.0088 0.425543 10.6419 0.425543 11.0325 0.816143C11.6486 1.43224 12.5376 2.32124 13.1538 2.93744C13.5443 3.32794 13.5443 3.96114 13.1538 4.35164C12.1482 5.35724 10.3596 7.14584 9.75339 7.75204C9.62589 7.87984 9.57729 8.06644 9.62609 8.24024C10.1153 10.0729 9.63999 12.108 8.20399 13.544C8.20379 13.5442 8.20349 13.5445 8.20329 13.5447C8.00839 13.7396 7.69249 13.7395 7.49759 13.5447C6.83129 12.8784 5.34879 11.3958 4.66849 10.7155C4.47319 10.5203 4.15659 10.5203 3.96139 10.7156C3.28499 11.392 1.81489 12.8621 1.13899 13.538C1.04539 13.6316 0.918487 13.6841 0.786087 13.6842C0.653787 13.6842 0.526887 13.6316 0.433287 13.538C0.432987 13.5378 0.432787 13.5375 0.432587 13.5373C0.338787 13.4435 0.286087 13.3163 0.286087 13.1837C0.286087 13.0511 0.338787 12.9239 0.432587 12.8302C1.10879 12.154 2.57809 10.6847 3.25429 10.0085C3.44959 9.81324 3.44959 9.49664 3.25429 9.30144C2.57429 8.62134 1.09249 7.13964 0.425887 6.47294C0.331787 6.37924 0.278887 6.25204 0.278687 6.11924C0.278587 5.98644 0.331287 5.85904 0.425087 5.76514C0.425787 5.76584 0.425887 5.76584 0.425887 5.76584C1.86179 4.32994 3.89689 3.85464 5.73029 4.34164Z" fill="#242E59"/>
</svg>
