<svg width="16" height="16" viewBox="0 0 16 16" fill="none" xmlns="http://www.w3.org/2000/svg">
<path fill-rule="evenodd" clip-rule="evenodd" d="M10.7075 8.26672C10.58 8.39472 10.5313 8.58142 10.5803 8.75532C11.071 10.5888 10.5952 12.6216 9.16063 14.0563C9.16063 14.0563 9.15423 14.0621 9.14303 14.0722C8.94563 14.2519 8.64183 14.2447 8.45313 14.0559C8.26973 13.8725 8.07993 13.6827 8.07993 13.6827L8.08723 13.6767C8.08723 13.6767 6.38653 11.976 5.63173 11.2212C5.53803 11.1274 5.41083 11.0747 5.27823 11.0747C5.14563 11.0747 5.01843 11.1274 4.92463 11.2212C4.24723 11.8986 2.77363 13.3722 2.09623 14.0496C2.00243 14.1434 1.87533 14.1961 1.74263 14.1961C1.61003 14.1961 1.48293 14.1434 1.38913 14.0496C1.38883 14.0494 1.38863 14.0491 1.38843 14.0489C1.29483 13.9553 1.24223 13.8284 1.24223 13.696C1.24223 13.5637 1.29483 13.4368 1.38843 13.3432C2.06553 12.6661 3.53993 11.1917 4.21753 10.5141C4.31133 10.4203 4.36403 10.2931 4.36403 10.1605C4.36403 10.0279 4.31133 9.90072 4.21753 9.80702C3.46273 9.05222 1.76203 7.35152 1.76203 7.35152L1.75603 7.35882C1.75603 7.35882 1.56593 7.16882 1.38243 6.98522C1.28833 6.89152 1.23543 6.76432 1.23523 6.63152C1.23513 6.49872 1.28783 6.37132 1.38173 6.27752C1.38243 6.27822 1.38243 6.27812 1.38243 6.27812C2.81713 4.84352 4.84993 4.36772 6.68403 4.85622C6.85713 4.90482 7.04283 4.85622 7.16993 4.72912C7.77863 4.12452 9.56873 2.33452 10.5748 1.32842C10.7623 1.14092 11.0167 1.03552 11.2819 1.03552C11.5471 1.03552 11.8015 1.14082 11.989 1.32842C12.6052 1.94462 13.4941 2.83352 14.1103 3.44972C14.2979 3.63722 14.4032 3.89162 14.4032 4.15682C14.4032 4.42202 14.2978 4.67642 14.1103 4.86392C13.1042 5.87002 11.3142 7.66012 10.7075 8.26672ZM5.98533 10.1605C5.98533 10.1605 8.03473 12.2099 8.63183 12.8071C8.67293 12.8486 8.73013 12.8701 8.78843 12.8659C8.84673 12.8617 8.90023 12.8322 8.93493 12.7852C10.1916 11.0265 10.0317 8.56352 8.45353 6.98522C6.87523 5.40702 4.41223 5.24712 2.65493 6.50582C2.60853 6.54022 2.57933 6.59312 2.57503 6.65072C2.57073 6.70842 2.59173 6.76502 2.63263 6.80592C3.32133 7.49652 5.98533 10.1605 5.98533 10.1605ZM13.043 4.51712C13.1367 4.42332 13.1894 4.29612 13.1894 4.16352C13.1894 4.03092 13.1367 3.90372 13.043 3.80992C12.6506 3.41762 12.0211 2.78812 11.6288 2.39572C11.535 2.30202 11.4078 2.24932 11.2752 2.24932C11.1426 2.24932 11.0154 2.30202 10.9216 2.39572C10.3094 3.00792 9.05903 4.25842 8.44683 4.87062C8.25153 5.06592 8.25153 5.38252 8.44683 5.57772C8.70913 5.84012 9.02153 6.15242 9.02153 6.15242L9.16063 6.27812L9.28633 6.41722C9.28633 6.41722 9.59863 6.72962 9.86103 6.99192C10.0562 7.18722 10.3728 7.18722 10.5681 6.99192C11.1803 6.37972 12.4308 5.12932 13.043 4.51712Z" fill="#242E59"/>
</svg>
