<svg width="14" height="14" viewBox="0 0 14 14" fill="none" xmlns="http://www.w3.org/2000/svg">
<path fill-rule="evenodd" clip-rule="evenodd" d="M3.5 1.5C4.05228 1.5 4.5 1.94772 4.5 2.5V3H8.5C8.77614 3 9 3.22386 9 3.5C9 3.77614 8.77614 4 8.5 4H4.5V4.5C4.5 4.61153 4.48174 4.7188 4.44805 4.81898L5.81602 7.18839C5.95409 7.42753 5.87216 7.73333 5.63301 7.8714C5.39386 8.00947 5.08807 7.92753 4.95 7.68839L3.67747 5.4843C3.61987 5.49462 3.56056 5.5 3.5 5.5H1.5C0.947715 5.5 0.5 5.05228 0.5 4.5V2.5C0.5 1.94772 0.947715 1.5 1.5 1.5H3.5ZM3 2.5C3.27614 2.5 3.5 2.72386 3.5 3V4C3.5 4.27614 3.27614 4.5 3 4.5H2C1.72386 4.5 1.5 4.27614 1.5 4V3C1.5 2.72386 1.72386 2.5 2 2.5H3ZM8 8.5C8.55228 8.5 9 8.94772 9 9.5V11.5C9 12.0523 8.55228 12.5 8 12.5H6C5.44772 12.5 5 12.0523 5 11.5V9.5C5 8.94772 5.44772 8.5 6 8.5H8ZM7.5 9.5C7.77614 9.5 8 9.72386 8 10V11C8 11.2761 7.77614 11.5 7.5 11.5H6.5C6.22386 11.5 6 11.2761 6 11V10C6 9.72386 6.22386 9.5 6.5 9.5H7.5ZM13.5 2.5C13.5 1.94772 13.0523 1.5 12.5 1.5H10.5C9.94771 1.5 9.5 1.94772 9.5 2.5V4.5C9.5 5.05228 9.94771 5.5 10.5 5.5H12.5C13.0523 5.5 13.5 5.05228 13.5 4.5V2.5ZM12.5 3C12.5 2.72386 12.2761 2.5 12 2.5H11C10.7239 2.5 10.5 2.72386 10.5 3V4C10.5 4.27614 10.7239 4.5 11 4.5H12C12.2761 4.5 12.5 4.27614 12.5 4V3Z" fill="#242E59"/>
</svg>
