<svg width="14" height="14" viewBox="0 0 14 14" fill="none" xmlns="http://www.w3.org/2000/svg">
<path fill-rule="evenodd" clip-rule="evenodd" d="M6 5.5C6 5.6326 5.9473 5.7598 5.8536 5.8536C5.7598 5.9473 5.6326 6 5.5 6C4.37 6 1.63 6 0.5 6C0.3674 6 0.2402 5.9473 0.1464 5.8536C0.0527001 5.7598 -9.98582e-05 5.6326 1.41787e-07 5.5C1.41787e-07 4.37 1.41787e-07 1.63 1.41787e-07 0.5C1.41787e-07 0.3674 0.0527001 0.2402 0.1464 0.1464C0.2402 0.0527 0.3674 0 0.5 0C1.63 0 4.37 0 5.5 0C5.6326 0 5.7598 0.0527 5.8536 0.1464C5.9473 0.2402 6 0.3674 6 0.5C6 1.63 6 4.37 6 5.5ZM5 1.2C5 1.0895 4.9105 1 4.8 1C4.1172 1 1.8828 1 1.2 1C1.0895 1 1 1.0895 1 1.2C1 1.8828 1 4.1172 1 4.8C1 4.9105 1.0895 5 1.2 5C1.8828 5 4.1172 5 4.8 5C4.9105 5 5 4.9105 5 4.8C5 4.1172 5 1.8828 5 1.2ZM3.8 2C3.9105 2 4 2.0895 4 2.2C4 2.5832 4 3.4168 4 3.8C4 3.9105 3.9105 4 3.8 4C3.4168 4 2.5832 4 2.2 4C2.0895 4 2 3.9105 2 3.8C2 3.4168 2 2.5832 2 2.2C2 2.0895 2.0895 2 2.2 2C2.5832 2 3.4168 2 3.8 2Z" fill="#313E75"/>
<path fill-rule="evenodd" clip-rule="evenodd" d="M6 13.5C6 13.6326 5.9473 13.7598 5.8536 13.8536C5.7598 13.9473 5.6326 14.0001 5.5 14C4.37 14 1.63 14 0.5 14C0.3674 14 0.2402 13.9473 0.1464 13.8536C0.0527001 13.7598 -9.98582e-05 13.6326 1.41787e-07 13.5C1.41787e-07 12.37 1.41787e-07 9.63 1.41787e-07 8.5C1.41787e-07 8.3674 0.0527001 8.2402 0.1464 8.1464C0.2402 8.0527 0.3674 8 0.5 8C1.63 8 4.37 8 5.5 8C5.6326 8 5.7598 8.0527 5.8536 8.1464C5.9473 8.2402 6 8.3674 6 8.5C6 9.63 6 12.37 6 13.5ZM5 9.2C5 9.0895 4.9105 9 4.8 9C4.1172 9 1.8828 9 1.2 9C1.0895 9 1 9.0895 1 9.2C1 9.8828 1 12.1172 1 12.8C1 12.9105 1.0895 13 1.2 13C1.8828 13 4.1172 13 4.8 13C4.9105 13 5 12.9105 5 12.8C5 12.1172 5 9.8828 5 9.2ZM3.8 10C3.9105 10 4 10.0895 4 10.2C4 10.5832 4 11.4168 4 11.8C4 11.9105 3.9105 12 3.8 12C3.4168 12 2.5832 12 2.2 12C2.0895 12 2 11.9105 2 11.8C2 11.4168 2 10.5832 2 10.2C2 10.0895 2.0895 10 2.2 10C2.5832 10 3.4168 10 3.8 10Z" fill="#313E75"/>
<path fill-rule="evenodd" clip-rule="evenodd" d="M14 5.5C14 5.6326 13.9473 5.7598 13.8536 5.8536C13.7598 5.9473 13.6326 6 13.5 6C12.37 6 9.63 6 8.5 6C8.3674 6 8.2402 5.9473 8.1464 5.8536C8.0527 5.7598 8 5.6326 8 5.5C8 4.37 8 1.63 8 0.5C8 0.3674 8.0527 0.2402 8.1464 0.1464C8.2402 0.0527 8.3674 0 8.5 0C9.63 0 12.37 0 13.5 0C13.6326 0 13.7598 0.0527 13.8536 0.1464C13.9473 0.2402 14 0.3674 14 0.5C14 1.63 14 4.37 14 5.5ZM13 1.2C13 1.0895 12.9105 1 12.8 1C12.1172 1 9.8828 1 9.2 1C9.0895 1 9 1.0895 9 1.2C9 1.8828 9 4.1172 9 4.8C9 4.9105 9.0895 5 9.2 5C9.8828 5 12.1172 5 12.8 5C12.9105 5 13 4.9105 13 4.8C13 4.1172 13 1.8828 13 1.2ZM11.8 2C11.9105 2 12 2.0895 12 2.2C12 2.5832 12 3.4168 12 3.8C12 3.9105 11.9105 4 11.8 4C11.4168 4 10.5832 4 10.2 4C10.0895 4 10 3.9105 10 3.8C10 3.4168 10 2.5832 10 2.2C10 2.0895 10.0895 2 10.2 2C10.5832 2 11.4168 2 11.8 2Z" fill="#313E75"/>
<path fill-rule="evenodd" clip-rule="evenodd" d="M11 13.2C11 13.0895 11.0895 13 11.2 13C11.3743 13 11.6257 13 11.8 13C11.9105 13 12 13.0895 12 13.2C12 13.3743 12 13.6257 12 13.8C12 13.9105 11.9105 13.9999 11.8 14C11.6257 14 11.3743 14 11.2 14C11.0895 13.9999 11 13.9105 11 13.8C11 13.6257 11 13.3743 11 13.2ZM8 13.2C8 13.0895 8.0895 13 8.2 13C8.5832 13 9.4168 13 9.8 13C9.9105 13 10 13.0895 10 13.2C10 13.3743 10 13.6257 10 13.8C10 13.9105 9.9105 13.9999 9.8 14C9.4991 14 8.9202 14 8.5 14C8.3674 14.0001 8.2402 13.9473 8.1465 13.8536C8.0527 13.7598 8 13.6326 8 13.5C8 13.3936 8 13.2871 8 13.2ZM13 10.2C13 10.0895 13.0895 10 13.2 10C13.3743 10 13.6257 10 13.8 10C13.9105 10 14 10.0895 14 10.2C14 10.8025 14 12.6134 14 13.5C14 13.6326 13.9473 13.7598 13.8536 13.8535C13.7598 13.9473 13.6326 14 13.5 14C13.3936 14 13.2871 14 13.2 14C13.0895 13.9999 13 13.9105 13 13.8C13 13.1172 13 10.8828 13 10.2ZM8 11.2C8 11.0895 8.0895 11 8.2 11C8.3743 11 8.6257 11 8.8 11C8.9105 11 9 11.0895 9 11.2C9 11.3743 9 11.6257 9 11.8C9 11.9105 8.9105 12 8.8 12C8.6257 12 8.3743 12 8.2 12C8.0895 12 8 11.9105 8 11.8C8 11.6257 8 11.3743 8 11.2ZM11.8 8C11.9105 8 12 8.0895 12 8.2C12 8.8828 12 11.1172 12 11.8C12 11.9105 11.9105 12 11.8 12C11.6257 12 11.3743 12 11.2 12C11.0895 12 11 11.9105 11 11.8C11 11.2546 11 9.7454 11 9.2C11 9.0895 10.9105 9 10.8 9C10.6257 9 10.3743 9 10.2 9C10.0895 9 10 9.0895 10 9.2C10 9.3743 10 9.6257 10 9.8C10 9.9105 9.9105 10 9.8 10C9.4168 10 8.5832 10 8.2 10C8.0895 10 8 9.9105 8 9.8C8 9.4991 8 8.9202 8 8.5C8 8.3674 8.0527 8.2402 8.1464 8.1464C8.2402 8.0527 8.3674 8 8.5 8C9.3866 8 11.1975 8 11.8 8ZM13 8.2C13 8.0895 13.0895 8 13.2 8C13.2871 8 13.3936 8 13.5 8C13.7761 8 14 8.2239 14 8.5C14 8.6064 14 8.7129 14 8.8C14 8.9105 13.9105 9 13.8 9C13.6257 9 13.3743 9 13.2 9C13.0895 9 13 8.9105 13 8.8C13 8.6257 13 8.3743 13 8.2Z" fill="#313E75"/>
</svg>
