<svg width="14" height="14" viewBox="0 0 14 14" fill="none" xmlns="http://www.w3.org/2000/svg">
<path fill-rule="evenodd" clip-rule="evenodd" d="M5.8536 5.8536C5.9473 5.7598 6 5.6326 6 5.5V0.5C6 0.3674 5.9473 0.2402 5.8536 0.1464C5.7598 0.0527 5.6326 0 5.5 0H0.5C0.3674 0 0.2402 0.0527 0.1464 0.1464C0.0527003 0.2402 1.41386e-07 0.3674 1.41386e-07 0.5V5.5C-9.97168e-05 5.6326 0.0527003 5.7598 0.1464 5.8536C0.2402 5.9473 0.3674 6 0.5 6H5.5C5.6326 6 5.7598 5.9473 5.8536 5.8536ZM4.8 1C4.9105 1 5 1.0895 5 1.2V4.8C5 4.9105 4.9105 5 4.8 5H1.2C1.0895 5 1 4.9105 1 4.8V1.2C1 1.0895 1.0895 1 1.2 1H4.8ZM4 2.2C4 2.0895 3.9105 2 3.8 2H2.2C2.0895 2 2 2.0895 2 2.2V3.8C2 3.9105 2.0895 4 2.2 4H3.8C3.9105 4 4 3.9105 4 3.8V2.2ZM5.8536 13.8536C5.9473 13.7598 6 13.6326 6 13.5V8.5C6 8.3674 5.9473 8.2402 5.8536 8.1464C5.7598 8.0527 5.6326 8 5.5 8H0.5C0.3674 8 0.2402 8.0527 0.1464 8.1464C0.0527003 8.2402 1.41386e-07 8.3674 1.41386e-07 8.5V13.5C-9.97168e-05 13.6326 0.0527003 13.7598 0.1464 13.8536C0.2402 13.9473 0.3674 14 0.5 14H5.5C5.6326 14.0001 5.7598 13.9473 5.8536 13.8536ZM4.8 9C4.9105 9 5 9.0895 5 9.2V12.8C5 12.9105 4.9105 13 4.8 13H1.2C1.0895 13 1 12.9105 1 12.8V9.2C1 9.0895 1.0895 9 1.2 9H4.8ZM4 10.2C4 10.0895 3.9105 10 3.8 10H2.2C2.0895 10 2 10.0895 2 10.2V11.8C2 11.9105 2.0895 12 2.2 12H3.8C3.9105 12 4 11.9105 4 11.8V10.2ZM14 5.5C14 5.6326 13.9473 5.7598 13.8536 5.8536C13.7598 5.9473 13.6326 6 13.5 6H8.5C8.3674 6 8.2402 5.9473 8.1464 5.8536C8.0527 5.7598 8 5.6326 8 5.5V0.5C8 0.3674 8.0527 0.2402 8.1464 0.1464C8.2402 0.0527 8.3674 0 8.5 0H13.5C13.6326 0 13.7598 0.0527 13.8536 0.1464C13.9473 0.2402 14 0.3674 14 0.5V5.5ZM13 1.2C13 1.0895 12.9105 1 12.8 1H9.2C9.0895 1 9 1.0895 9 1.2V4.8C9 4.9105 9.0895 5 9.2 5H12.8C12.9105 5 13 4.9105 13 4.8V1.2ZM11.8 2C11.9105 2 12 2.0895 12 2.2V3.8C12 3.9105 11.9105 4 11.8 4H10.2C10.0895 4 10 3.9105 10 3.8V2.2C10 2.0895 10.0895 2 10.2 2H11.8ZM11.2 13C11.0895 13 11 13.0895 11 13.2V13.8C11 13.9105 11.0895 13.9999 11.2 14H11.8C11.9105 13.9999 12 13.9105 12 13.8V13.2C12 13.0895 11.9105 13 11.8 13H11.2ZM8.2 13C8.0895 13 8 13.0895 8 13.2V13.5C8 13.6326 8.0527 13.7598 8.1465 13.8536C8.2402 13.9473 8.3674 14.0001 8.5 14H9.8C9.9105 13.9999 10 13.9105 10 13.8V13.2C10 13.0895 9.9105 13 9.8 13H8.2ZM13.2 10C13.0895 10 13 10.0895 13 10.2V13.8C13 13.9105 13.0895 13.9999 13.2 14H13.5C13.6326 14 13.7598 13.9473 13.8536 13.8535C13.9473 13.7598 14 13.6326 14 13.5V10.2C14 10.0895 13.9105 10 13.8 10H13.2ZM8.2 11C8.0895 11 8 11.0895 8 11.2V11.8C8 11.9105 8.0895 12 8.2 12H8.8C8.9105 12 9 11.9105 9 11.8V11.2C9 11.0895 8.9105 11 8.8 11H8.2ZM12 8.2C12 8.0895 11.9105 8 11.8 8H8.5C8.3674 8 8.2402 8.0527 8.1464 8.1464C8.0527 8.2402 8 8.3674 8 8.5V9.8C8 9.9105 8.0895 10 8.2 10H9.8C9.9105 10 10 9.9105 10 9.8V9.2C10 9.0895 10.0895 9 10.2 9H10.8C10.9105 9 11 9.0895 11 9.2V11.8C11 11.9105 11.0895 12 11.2 12H11.8C11.9105 12 12 11.9105 12 11.8V8.2ZM13.2 8C13.0895 8 13 8.0895 13 8.2V8.8C13 8.9105 13.0895 9 13.2 9H13.8C13.9105 9 14 8.9105 14 8.8V8.5C14 8.2239 13.7761 8 13.5 8H13.2Z" fill="#242E59"/>
</svg>
