<svg width="14" height="14" viewBox="0 0 14 14" fill="none" xmlns="http://www.w3.org/2000/svg">
<path fill-rule="evenodd" clip-rule="evenodd" d="M6.92 9.43C6.708 9.4228 6.5022 9.5022 6.35 9.65C6.1959 9.7946 6.112 9.9988 6.12 10.21C6.1158 10.4205 6.1991 10.6232 6.35 10.77C6.5012 10.9205 6.7067 11.0034 6.92 11C7.1312 11.0028 7.3354 10.924 7.49 10.78C7.6451 10.6312 7.732 10.425 7.73 10.21C7.738 9.9988 7.6541 9.7946 7.5 9.65C7.3447 9.5007 7.1352 9.4212 6.92 9.43ZM7.12 3C6.4138 2.9583 5.722 3.2118 5.21 3.7C4.7769 4.1597 4.5315 4.7618 4.5168 5.3885C4.5164 5.4414 4.5371 5.4923 4.5744 5.5298C4.6116 5.5674 4.6624 5.5885 4.7153 5.5885C4.9253 5.59 5.2572 5.59 5.4665 5.59C5.5722 5.5896 5.6593 5.5072 5.6655 5.4018C5.6895 5.0676 5.8049 4.7453 6 4.47C6.2392 4.1627 6.6108 3.9881 7 4C7.3652 3.9614 7.7294 4.0816 8 4.33C8.2216 4.5758 8.3367 4.8995 8.32 5.23C8.3015 5.515 8.189 5.7858 8 6L7.81 6.21C7.3115 6.5996 6.8851 7.0734 6.55 7.61C6.3987 7.9213 6.3233 8.264 6.33 8.61C6.33 8.6604 6.35 8.7087 6.3857 8.7444C6.4213 8.78 6.4696 8.8 6.52 8.8C6.7542 8.8 7.1474 8.8 7.361 8.8C7.4433 8.8 7.51 8.7333 7.51 8.651C7.51 8.6504 7.51 8.65 7.51 8.65C7.5062 8.3952 7.5682 8.1438 7.69 7.92C7.8034 7.7009 7.9598 7.5071 8.15 7.35C8.4725 7.0807 8.7796 6.7936 9.07 6.49C9.3574 6.1037 9.5055 5.6313 9.49 5.15C9.5149 4.5545 9.273 3.9788 8.83 3.58C8.3541 3.1769 7.7429 2.9696 7.12 3ZM7 0C3.134 0 0 3.134 0 7C0 10.866 3.134 14 7 14C10.866 14 14 10.866 14 7C14 5.1435 13.2625 3.363 11.9497 2.0503C10.637 0.7375 8.8565 0 7 0ZM7 13C3.6863 13 1 10.3137 1 7C1 3.6863 3.6863 1 7 1C10.3137 1 13 3.6863 13 7C13 8.5913 12.3679 10.1174 11.2426 11.2426C10.1174 12.3679 8.5913 13 7 13Z" fill="#242E59"/>
</svg>
