<svg width="16" height="16" viewBox="0 0 16 16" fill="none" xmlns="http://www.w3.org/2000/svg">
<path fill-rule="evenodd" clip-rule="evenodd" d="M10.6917 2.74331C10.5097 2.64831 10.392 2.46301 10.3828 2.25721C10.3736 2.05131 10.4743 1.85611 10.647 1.74511C10.8198 1.63421 11.0382 1.62441 11.2202 1.71931C14.085 3.21081 15.564 6.47861 14.8007 9.63021C14.0373 12.7819 11.2295 15 8.00343 15C4.77733 15 1.96943 12.7819 1.20603 9.63021C0.442733 6.47861 1.92173 3.21081 4.78663 1.71931C5.06793 1.57251 5.41413 1.68281 5.56003 1.96551C5.70603 2.24831 5.59633 2.59651 5.31503 2.74331C2.91943 3.98981 1.68223 6.72201 2.32023 9.35731C2.95823 11.9926 5.30593 13.8475 8.00343 13.8475C10.7008 13.8475 13.0485 11.9926 13.6865 9.35731C14.3245 6.72201 13.0873 3.98981 10.6917 2.74331ZM8.57683 5.19991C8.57683 5.51841 8.32013 5.77651 8.00343 5.77651C7.68663 5.77651 7.42993 5.51841 7.42993 5.19991V0.587312C7.42993 0.268912 7.68663 0.0107117 8.00343 0.0107117C8.32013 0.0107117 8.57683 0.268912 8.57683 0.587312V5.19991Z" fill="#242E59"/>
</svg>
