<svg width="14" height="14" viewBox="0 0 14 14" fill="none" xmlns="http://www.w3.org/2000/svg">
<g clip-path="url(#clip0_15641_92755)">
<path d="M1.375 1.89583C1.375 1.60819 1.60819 1.375 1.89583 1.375H12.1042C12.3918 1.375 12.625 1.60818 12.625 1.89583V5.30896C12.625 5.5851 12.8489 5.80896 13.125 5.80896C13.4011 5.80896 13.625 5.5851 13.625 5.30896V1.89583C13.625 1.05591 12.9441 0.375 12.1042 0.375H1.89583C1.0559 0.375 0.375 1.0559 0.375 1.89583V12.1042C0.375 12.9441 1.05591 13.625 1.89583 13.625H5.30198C5.57812 13.625 5.80198 13.4011 5.80198 13.125C5.80198 12.8489 5.57812 12.625 5.30198 12.625H1.89583C1.60818 12.625 1.375 12.3918 1.375 12.1042V1.89583Z" fill="#242E59"/>
<path d="M7.01314 6.30856C7.2084 6.50382 7.2084 6.8204 7.01314 7.01566L5.81396 8.21484H13.1251C13.4013 8.21484 13.6251 8.4387 13.6251 8.71484V12.7864C13.6251 13.2505 13.2489 13.6267 12.7849 13.6267H8.71411C8.43797 13.6267 8.21411 13.4028 8.21411 13.1267C8.21411 12.8505 8.43797 12.6267 8.71411 12.6267H12.6251V9.21484H5.83609L7.01314 10.3919C7.2084 10.5872 7.2084 10.9037 7.01314 11.099C6.81788 11.2943 6.5013 11.2943 6.30603 11.099L4.26437 9.05733C4.0691 8.86207 4.0691 8.54548 4.26437 8.35022L6.30603 6.30856C6.5013 6.11329 6.81788 6.11329 7.01314 6.30856Z" fill="#242E59"/>
</g>
<defs>
<clipPath id="clip0_15641_92755">
<rect width="14" height="14" fill="white"/>
</clipPath>
</defs>
</svg>
