<svg width="14" height="14" viewBox="0 0 14 14" fill="none" xmlns="http://www.w3.org/2000/svg">
<path fill-rule="evenodd" clip-rule="evenodd" d="M12.0875 4.66497C12.5945 4.18597 13.2945 4.27397 13.7235 4.83897C14.1525 5.40497 14.0745 6.23296 13.5295 6.71097C13.1785 7.01596 12.7105 7.05997 12.3225 6.88597L7.99854 12.067C8.07754 12.24 8.11554 12.458 8.11554 12.676C8.11554 13.416 7.60954 13.983 6.94754 13.983C6.28554 13.983 5.77954 13.416 5.77954 12.676C5.77954 12.6325 5.78904 12.589 5.79854 12.5455C5.80804 12.502 5.81754 12.4585 5.81754 12.415L3.05254 10.586C2.85854 10.761 2.58454 10.891 2.31254 10.891C1.65054 10.891 1.14454 10.325 1.14454 9.58497C1.14454 9.14997 1.37754 8.71397 1.68954 8.49597L1.02754 5.23097C0.598537 5.18796 0.170537 4.83896 0.0535367 4.31697C-0.140463 3.61997 0.209537 2.92297 0.832537 2.70497C1.22254 2.57497 1.61154 2.66197 1.92254 2.96697L4.68854 1.13797C4.72754 0.832965 4.84354 0.527965 5.07754 0.310965C5.58354 -0.168035 6.28554 -0.0810347 6.71354 0.484965C6.86954 0.702965 6.94754 0.920965 6.98654 1.18197L12.0875 4.66497ZM11.6978 5.40586L6.79085 2.05286C6.75285 2.18286 6.67485 2.27086 6.59685 2.35786L6.58555 2.36619C6.47144 2.45037 6.35911 2.53323 6.24585 2.57486V4.88286C6.67485 5.01286 7.06385 5.36186 7.25885 5.84086L11.6978 5.53486V5.40586ZM2.3125 3.70716L4.8825 2.05316C4.902 2.07466 4.91175 2.09641 4.9215 2.11816C4.93125 2.13991 4.941 2.16166 4.9605 2.18316C5.1175 2.35716 5.2725 2.48816 5.4665 2.57516V4.88316C5.1175 4.97016 4.8435 5.18716 4.6495 5.49216L2.3125 4.36016C2.3125 4.2879 2.31682 4.21553 2.32115 4.14309C2.32982 3.99798 2.33851 3.85257 2.3125 3.70716ZM1.80664 5.05634L2.46864 8.32234C2.66264 8.32234 2.81964 8.40934 2.97464 8.49634L4.41564 7.23334C4.33764 7.01534 4.29864 6.79834 4.29864 6.53734C4.29864 6.49396 4.30834 6.45058 4.31806 6.40708C4.32784 6.36334 4.33764 6.31946 4.33764 6.27534L1.80664 5.05634ZM6.24689 11.7354L3.48089 9.84541C3.50289 9.69841 3.50289 9.33041 3.44189 9.19341L4.88289 7.88641C5.11689 8.10441 5.42889 8.23541 5.77889 8.23541L6.41789 11.5944L6.24689 11.7354ZM7.41731 11.5943L11.6983 6.40631L7.37631 6.66831C7.33731 7.32031 6.98631 7.84331 6.51831 8.10431L7.10531 11.5083C7.19534 11.5083 7.26308 11.5348 7.3436 11.5663C7.36683 11.5754 7.39112 11.5849 7.41731 11.5943Z" fill="#242E59"/>
</svg>
