<svg width="14" height="14" viewBox="0 0 14 14" fill="none" xmlns="http://www.w3.org/2000/svg">
<mask id="mask0" mask-type="alpha" maskUnits="userSpaceOnUse" x="0" y="0" width="14" height="14">
<path fill-rule="evenodd" clip-rule="evenodd" d="M0 14H14V0H0V14Z" fill="white"/>
</mask>
<g mask="url(#mask0)">
<path fill-rule="evenodd" clip-rule="evenodd" d="M5.78379 1.45289C5.87719 1.43449 5.94449 1.35259 5.94449 1.25739C5.94519 1.12649 5.94519 0.944893 5.94519 0.818093C5.94519 0.787993 5.96149 0.760293 5.98789 0.745693C6.01419 0.731093 6.04639 0.731893 6.07189 0.747893C6.43489 0.974793 7.47519 1.62489 7.82709 1.84489C7.85259 1.86079 7.86799 1.88869 7.86799 1.91869C7.86799 1.94869 7.85259 1.97659 7.82719 1.99249C7.47519 2.21249 6.43489 2.86269 6.07189 3.08949C6.04639 3.10549 6.01419 3.10629 5.98789 3.09169C5.96149 3.07709 5.94519 3.04939 5.94519 3.01929C5.94519 2.92569 5.94519 2.80269 5.94519 2.69419C5.94529 2.63249 5.91689 2.57409 5.86819 2.53619C5.81959 2.49819 5.75609 2.48479 5.69619 2.49989C3.52389 3.08199 1.98709 5.05199 1.98709 7.33099C1.98709 10.0906 4.22749 12.331 6.98709 12.331C9.74669 12.331 11.9871 10.0906 11.9871 7.33099C11.9871 6.46169 11.7605 5.61029 11.3307 4.85539C11.1987 4.63099 11.2614 4.34269 11.4747 4.19329C11.4727 4.19009 11.4729 4.18999 11.4732 4.18979C11.5881 4.10899 11.7315 4.07989 11.8688 4.10939C12.0062 4.13889 12.125 4.22439 12.1966 4.34519C12.7117 5.25289 12.9871 6.28109 12.9871 7.33099C12.9871 10.6425 10.2986 13.331 6.98709 13.331C3.67559 13.331 0.987091 10.6425 0.987091 7.33099C0.987091 4.47469 2.99879 2.02279 5.78379 1.45289Z" fill="#313E75"/>
</g>
</svg>
