<svg width="14" height="14" viewBox="0 0 14 14" fill="none" xmlns="http://www.w3.org/2000/svg">
<path fill-rule="evenodd" clip-rule="evenodd" d="M1.1464 12.8536C1.0527 12.7598 1 12.6326 1 12.5V0.5C1 0.3674 0.9473 0.2402 0.8536 0.1464C0.7598 0.0527 0.6326 0 0.5 0C0.2239 0 0.0001 0.2239 0 0.5V13C0.0001 13.5523 0.4477 13.9999 1 14H13.5C13.7761 13.9999 14 13.7761 14 13.5C14 13.3674 13.9473 13.2402 13.8536 13.1464C13.7598 13.0527 13.6326 13 13.5 13H1.5C1.3674 13 1.2402 12.9473 1.1464 12.8536ZM5.51499 9.56425C6.48899 9.95825 8.03599 10.0403 9.15899 10.0403C9.92499 10.0403 10.493 10.0023 10.55 9.99825C10.825 9.97825 11.032 9.74025 11.013 9.46425C10.994 9.18925 10.807 8.97725 10.479 9.00025C10.45 9.00225 7.31199 9.21325 5.88999 8.63725C3.76199 7.77725 4.00999 4.57425 4.01299 4.54225C4.03599 4.26825 3.83299 4.02525 3.55799 4.00125C3.26999 3.98225 3.04099 4.18125 3.01599 4.45525C3.00199 4.61625 2.69799 8.42625 5.51499 9.56425Z" fill="#313E75"/>
</svg>
