<svg width="14" height="14" viewBox="0 0 14 14" fill="none" xmlns="http://www.w3.org/2000/svg">
<path fill-rule="evenodd" clip-rule="evenodd" d="M2 3C2.55228 3 3 2.55228 3 2C3 1.44772 2.55228 1 2 1C1.44772 1 1 1.44772 1 2C1 2.55228 1.44772 3 2 3ZM2 4C2.93329 4 3.71727 3.36074 3.93797 2.49619C3.95829 2.4987 3.97899 2.5 4 2.5H9.25C10.5386 2.5 11.5 3.43921 11.5 4.5C11.5 5.56079 10.5386 6.5 9.25 6.5H9H5H4.75C3.00099 6.5 1.5 7.79937 1.5 9.5C1.5 11.2006 3.00099 12.5 4.75 12.5H10C10.021 12.5 10.0417 12.4987 10.062 12.4962C10.2827 13.3607 11.0667 14 12 14C13.1046 14 14 13.1046 14 12C14 10.8954 13.1046 10 12 10C11.0667 10 10.2827 10.6393 10.062 11.5038C10.0417 11.5013 10.021 11.5 10 11.5H4.75C3.46145 11.5 2.5 10.5608 2.5 9.5C2.5 8.43921 3.46145 7.5 4.75 7.5H5H9H9.25C10.999 7.5 12.5 6.20063 12.5 4.5C12.5 2.79937 10.999 1.5 9.25 1.5H4C3.97899 1.5 3.95829 1.5013 3.93797 1.50381C3.71727 0.639264 2.93329 0 2 0C0.895431 0 0 0.895431 0 2C0 3.10457 0.895431 4 2 4ZM13 12C13 12.5523 12.5523 13 12 13C11.4477 13 11 12.5523 11 12C11 11.4477 11.4477 11 12 11C12.5523 11 13 11.4477 13 12Z" fill="#242E59"/>
</svg>
