<svg width="14" height="14" viewBox="0 0 14 14" fill="none" xmlns="http://www.w3.org/2000/svg">
<path fill-rule="evenodd" clip-rule="evenodd" d="M2 0C0.895431 0 0 0.89543 0 2V12C0 13.1046 0.89543 14 2 14H12C13.1046 14 14 13.1046 14 12V2C14 0.895431 13.1046 0 12 0H11H3H2ZM4 1H10V4C10 4.55228 9.55228 5 9 5H5C4.44772 5 4 4.55228 4 4V1ZM3 4V1H2C1.44772 1 1 1.44772 1 2V12C1 12.5523 1.44772 13 2 13H12C12.5523 13 13 12.5523 13 12V2C13 1.44772 12.5523 1 12 1H11V4C11 5.10457 10.1046 6 9 6H5C3.89543 6 3 5.10457 3 4ZM8.5 2C8.22386 2 8 2.22386 8 2.5V3.5C8 3.77614 8.22386 4 8.5 4C8.77614 4 9 3.77614 9 3.5V2.5C9 2.22386 8.77614 2 8.5 2Z" fill="#242E59"/>
</svg>
