<svg width="14" height="14" viewBox="0 0 14 14" fill="none" xmlns="http://www.w3.org/2000/svg">
<path fill-rule="evenodd" clip-rule="evenodd" d="M10.4808 11.188C10.1384 10.8459 9.6025 10.7923 9.1991 11.0599C8.2783 11.6594 7.1786 12 6 12C2.6885 12 0 9.3115 0 6C0 2.6885 2.6885 0 6 0C9.3115 0 12 2.6885 12 6C12 7.1786 11.6594 8.2783 11.0704 9.2061C10.8062 9.6044 10.8593 10.1336 11.1972 10.4716C12.1347 11.4276 13.8537 13.1465 13.8537 13.1465C14.0488 13.3417 14.0488 13.6585 13.8537 13.8537C13.6585 14.0488 13.3417 14.0488 13.1465 13.8537C13.1465 13.8537 11.4276 12.1347 10.4808 11.188ZM6 1C8.7596 1 11 3.2404 11 6C11 8.7596 8.7596 11 6 11C3.2404 11 1 8.7596 1 6C1 3.2404 3.2404 1 6 1Z" fill="#242E59"/>
</svg>
