<svg width="14" height="14" viewBox="0 0 14 14" fill="none" xmlns="http://www.w3.org/2000/svg">
<g clip-path="url(#clip0_14350_92753)">
<path d="M6.52432 0.0924759L1.20614 2.24821C0.996211 2.33335 0.817674 2.47299 0.692291 2.6501C0.566908 2.82722 0.500096 3.03415 0.5 3.24568V6.62427C0.5 8.69362 1.50336 10.5428 3.27136 11.8171L6.31868 13.8006C6.51803 13.9303 6.75603 14 7 14C7.24397 14 7.48197 13.9303 7.68132 13.8006L10.7056 11.8329C12.4966 10.5425 13.5 8.69334 13.5 6.62427V3.24595C13.5 3.03433 13.4333 2.82728 13.3079 2.65006C13.1825 2.47284 13.0039 2.33312 12.7939 2.24794L7.47568 0.0922033C7.32576 0.0313984 7.16377 0 7 0C6.83623 0 6.67424 0.031671 6.52432 0.0924759ZM1.68182 3.24595L7 1.09022L12.3182 3.24595V6.62427C12.3182 8.35377 11.4859 9.88786 10.0009 10.9581L7 12.9097L3.97573 10.942C2.51411 9.88704 1.68182 8.35322 1.68182 6.62373V3.24595Z" fill="#242E59"/>
<path d="M9.41824 4.81898C9.51909 4.89943 9.5918 5.00753 9.62179 5.12161C9.65177 5.23569 9.63682 5.34732 9.57992 5.43412L9.56171 5.45899L7.25579 8.34833C7.18977 8.43201 7.0859 8.48038 6.96613 8.48322C6.84636 8.48606 6.72007 8.44316 6.61393 8.36357C6.50779 8.28398 6.43013 8.17394 6.39734 8.0567C6.36455 7.93945 6.3792 7.82419 6.43821 7.73525L6.45643 7.71037L8.76234 4.82104C8.79599 4.77888 8.83964 4.74538 8.89081 4.72246C8.94199 4.69954 8.99967 4.68765 9.06058 4.68746C9.12148 4.68726 9.18441 4.69878 9.24578 4.72135C9.30715 4.74391 9.36575 4.77709 9.41824 4.81898Z" fill="#242E59"/>
<path d="M4.69868 6.40106C4.77392 6.29626 4.86902 6.21157 4.96493 6.16399C5.06084 6.1164 5.15046 6.10942 5.21583 6.14446L5.23438 6.15621L7.37103 7.69069C7.43298 7.73445 7.46252 7.81847 7.45342 7.925C7.44431 8.03153 7.39727 8.15223 7.32223 8.26159C7.24719 8.37096 7.15003 8.46043 7.05128 8.5111C6.95252 8.56177 6.85991 8.56967 6.793 8.53314L6.77444 8.52139L4.6378 6.9869C4.60662 6.96451 4.58346 6.9316 4.56965 6.89004C4.55584 6.84848 4.55164 6.79909 4.55729 6.74469C4.56295 6.69029 4.57834 6.63194 4.6026 6.57298C4.62686 6.51402 4.65951 6.4556 4.69868 6.40106Z" fill="#242E59"/>
</g>
<defs>
<clipPath id="clip0_14350_92753">
<rect width="14" height="14" fill="white"/>
</clipPath>
</defs>
</svg>
