<svg width="14" height="14" viewBox="0 0 14 14" fill="none" xmlns="http://www.w3.org/2000/svg">
<path fill-rule="evenodd" clip-rule="evenodd" d="M5.0451 13C4.9655 13.0004 4.8938 13.048 4.8624 13.1211C4.627 13.641 4.1051 14 3.5 14C2.8943 14 2.372 13.6403 2.1364 13.1221C2.1053 13.0494 2.0338 13.0023 1.9548 13.0023C1.6682 13 0.9784 13 0.5 13C0.3674 13 0.2402 12.9473 0.1465 12.8536C0.0527 12.7598 0 12.6326 0 12.5C0 12.3674 0.0527 12.2402 0.1465 12.1464C0.2402 12.0527 0.3674 12 0.5 12C1.0049 12 1.7454 12 1.9986 12C2.0519 12 2.0995 11.9667 2.1178 11.9167C2.1179 11.9165 2.118 11.9164 2.118 11.9164C2.3458 11.3781 2.8791 11 3.5 11C4.1051 11 4.627 11.359 4.8636 11.8784C4.8949 11.9508 4.9662 11.9977 5.0451 11.9977C5.9926 12 11.7554 12 13.5 12C13.6326 12 13.7598 12.0527 13.8535 12.1464C13.9473 12.2402 14 12.3674 14 12.5C14 12.6326 13.9473 12.7598 13.8535 12.8536C13.7598 12.9473 13.6326 13 13.5 13C11.7554 13 5.9926 13 5.0451 13ZM3.5 12C3.776 12 4 12.224 4 12.5C4 12.776 3.776 13 3.5 13C3.224 13 3 12.776 3 12.5C3 12.224 3.224 12 3.5 12ZM12.0451 7.5C11.9655 7.5004 11.8938 7.548 11.8624 7.6211C11.627 8.141 11.1051 8.5 10.5 8.5C9.8943 8.5 9.372 8.1403 9.1364 7.6221C9.1053 7.5494 9.0338 7.5023 8.9548 7.5023C8.0067 7.5 2.2445 7.5 0.5 7.5C0.3674 7.5 0.2402 7.4473 0.1465 7.3536C0.0527 7.2598 0 7.1326 0 7C0 6.8674 0.0527 6.7402 0.1465 6.6464C0.2402 6.5527 0.3674 6.5 0.5 6.5C2.2739 6.5 8.2022 6.5 8.9986 6.5C9.0519 6.5 9.0995 6.4667 9.1178 6.4167C9.1179 6.4165 9.118 6.4164 9.118 6.4164C9.3458 5.8781 9.8791 5.5 10.5 5.5C11.1051 5.5 11.627 5.859 11.8636 6.3784C11.8949 6.4508 11.9662 6.4977 12.0451 6.4977C12.3315 6.5 13.0215 6.5 13.5 6.5C13.6326 6.5 13.7598 6.5527 13.8535 6.6464C13.9473 6.7402 14 6.8674 14 7C14 7.1326 13.9473 7.2598 13.8535 7.3536C13.7598 7.4473 13.6326 7.5 13.5 7.5C13.0215 7.5 12.3315 7.5 12.0451 7.5ZM10.5 6.5C10.776 6.5 11 6.724 11 7C11 7.276 10.776 7.5 10.5 7.5C10.224 7.5 10 7.276 10 7C10 6.724 10.224 6.5 10.5 6.5ZM5.0451 2C4.9655 2.0004 4.8938 2.048 4.8624 2.1211C4.627 2.641 4.1051 3 3.5 3C2.8943 3 2.372 2.6403 2.1364 2.1221C2.1053 2.0494 2.0338 2.0023 1.9548 2.0023C1.6682 2 0.9784 2 0.5 2C0.3674 2 0.2402 1.9473 0.1465 1.8536C0.0527 1.7598 0 1.6326 0 1.5C0 1.3674 0.0527 1.2402 0.1465 1.1464C0.2402 1.0527 0.3674 1 0.5 1C1.0049 1 1.7454 1 1.9986 1C2.0519 1 2.0995 0.9667 2.1178 0.9167C2.1179 0.9165 2.118 0.9164 2.118 0.9164C2.3458 0.3781 2.8791 0 3.5 0C4.1051 0 4.627 0.359 4.8636 0.8784C4.8949 0.9508 4.9662 0.9977 5.0451 0.9977C5.9926 1 11.7554 1 13.5 1C13.6326 1 13.7598 1.0527 13.8535 1.1464C13.9473 1.2402 14 1.3674 14 1.5C14 1.6326 13.9473 1.7598 13.8535 1.8536C13.7598 1.9473 13.6326 2 13.5 2C11.7554 2 5.9926 2 5.0451 2ZM3.5 1C3.776 1 4 1.224 4 1.5C4 1.776 3.776 2 3.5 2C3.224 2 3 1.776 3 1.5C3 1.224 3.224 1 3.5 1Z" fill="#313E75"/>
</svg>
