<svg width="14" height="14" viewBox="0 0 14 14" fill="none" xmlns="http://www.w3.org/2000/svg">
<path fill-rule="evenodd" clip-rule="evenodd" d="M8.87977 8.87861L8.82208 8.71205C8.78471 8.59685 8.6855 8.51251 8.56571 8.49425C8.56571 8.49425 8.10558 8.42906 7.91881 8.40264C7.87183 8.39576 7.83248 8.36343 7.81658 8.31856C7.77262 8.19738 7.7223 8.07851 7.66558 7.96274C7.64411 7.91902 7.64911 7.86689 7.67853 7.82812C7.79332 7.67666 8.07219 7.30908 8.07219 7.30908C8.13449 7.20674 8.13449 7.07823 8.07219 6.97595L7.99528 6.82218C7.80928 6.4508 7.50798 6.14962 7.13643 5.96377L6.9826 5.88689C6.88024 5.82459 6.75167 5.82459 6.64932 5.88689C6.64932 5.88689 6.28072 6.16627 6.12952 6.28076C6.09094 6.30976 6.0394 6.31451 5.99614 6.29317C5.8802 6.23692 5.76143 6.18671 5.64017 6.14319C5.59472 6.12693 5.56229 6.08643 5.55614 6.03841C5.53262 5.85442 5.47641 5.41284 5.47641 5.41284C5.45808 5.29308 5.37373 5.19395 5.25849 5.15654L5.09826 5.09894C4.70306 4.96702 4.27568 4.96702 3.88048 5.09894L3.71384 5.15654C3.59854 5.19395 3.51425 5.29308 3.49592 5.41284C3.49592 5.41284 3.43087 5.87216 3.4044 6.05904C3.39748 6.10623 3.36511 6.14564 3.32031 6.16158C3.19879 6.20561 3.07964 6.25601 2.96356 6.31284C2.92017 6.33412 2.86851 6.32911 2.82999 6.29992C2.6788 6.18543 2.3102 5.90611 2.3102 5.90611C2.20784 5.84381 2.07927 5.84381 1.97691 5.90611L1.82309 5.98299C1.45308 6.16106 1.14985 6.45292 0.957827 6.81575L0.880915 6.96952C0.818616 7.07186 0.818616 7.20037 0.880915 7.30265C0.880915 7.30265 1.15979 7.6703 1.27464 7.82163C1.3038 7.86052 1.30861 7.91253 1.28707 7.95611C1.23048 8.07273 1.17997 8.19217 1.13626 8.31419C1.12062 8.35809 1.08236 8.39004 1.03647 8.39763C0.856047 8.42752 0.413034 8.50061 0.413034 8.50061C0.293243 8.51894 0.194027 8.60321 0.15666 8.71841L0.0989762 8.88498C-0.0329921 9.28001 -0.0329921 9.70719 0.0989762 10.1022L0.15666 10.2687C0.194027 10.384 0.293243 10.4683 0.413034 10.4866C0.413034 10.4866 0.87316 10.5517 1.05993 10.5781C1.10691 10.585 1.14626 10.6174 1.16216 10.6622C1.20612 10.7834 1.25644 10.9023 1.31316 11.018C1.33463 11.0618 1.32963 11.1139 1.30021 11.1527C1.18542 11.304 0.906552 11.6717 0.906552 11.6717C0.844254 11.774 0.844254 11.9026 0.906552 12.0048L0.983464 12.1586C1.1694 12.53 1.47077 12.8312 1.84232 13.017L1.99614 13.0939C2.0985 13.1562 2.22707 13.1562 2.32942 13.0939C2.32942 13.0939 2.69803 12.8145 2.84916 12.7C2.88781 12.671 2.93934 12.6663 2.9826 12.6876C3.09887 12.744 3.21801 12.7944 3.33966 12.838C3.38453 12.854 3.41683 12.8937 3.4235 12.941C3.4501 13.1278 3.51515 13.5872 3.51515 13.5872C3.53348 13.7069 3.61777 13.8061 3.73307 13.8435L3.89971 13.9011C4.29491 14.033 4.72229 14.033 5.11749 13.9011L5.28413 13.8435C5.39937 13.8061 5.48372 13.7069 5.50205 13.5872C5.50205 13.5872 5.5671 13.1278 5.59357 12.941C5.60049 12.8938 5.63286 12.8544 5.67766 12.8384C5.79918 12.7944 5.91833 12.744 6.0344 12.6872C6.0778 12.6659 6.12939 12.6709 6.16798 12.7001C6.31917 12.8145 6.68777 13.0939 6.68777 13.0939C6.79013 13.1562 6.9187 13.1562 7.02106 13.0939L7.17488 13.017C7.54643 12.8312 7.84773 12.53 8.03373 12.1586L8.11065 12.0048C8.17294 11.9026 8.17294 11.774 8.11065 11.6717C8.11065 11.6717 7.83171 11.304 7.71692 11.1527C7.68776 11.1138 7.68295 11.0618 7.70449 11.0182C7.76076 10.9023 7.81101 10.7834 7.85459 10.662C7.87068 10.6172 7.91016 10.5849 7.95727 10.5782C8.14404 10.5517 8.60416 10.4866 8.60416 10.4866C8.72395 10.4683 8.82317 10.384 8.86054 10.2687L8.91822 10.1022C9.03917 9.70102 9.02564 9.27134 8.87977 8.87861ZM7.98206 9.83937C7.98206 9.83937 7.54483 9.90309 7.29704 9.93918C7.19517 9.954 7.11062 10.0256 7.07899 10.1237C7.04948 10.2153 7.01832 10.3119 7.01832 10.3119C6.97179 10.4338 6.91645 10.5522 6.85277 10.6662C6.85277 10.6662 6.80583 10.76 6.76196 10.8477C6.71614 10.9392 6.72577 11.0488 6.78691 11.1309C6.93644 11.3318 7.20161 11.688 7.20161 11.688C7.09016 11.8998 6.91698 12.0728 6.70496 12.1841C6.70496 12.1841 6.34956 11.9202 6.14824 11.7706C6.06559 11.7092 5.95526 11.7002 5.86379 11.7475C5.77138 11.7952 5.67028 11.8475 5.67028 11.8475C5.54854 11.9104 5.42201 11.9638 5.29188 12.0069C5.29188 12.0069 5.19852 12.037 5.10836 12.066C5.00767 12.0984 4.93512 12.1867 4.92276 12.292C4.89338 12.5422 4.84253 12.9755 4.84253 12.9755C4.61159 13.0482 4.36398 13.0482 4.13303 12.9755C4.13303 12.9755 4.07267 12.5413 4.0382 12.2934C4.02389 12.1905 3.95205 12.1049 3.85332 12.0731C3.76203 12.0437 3.66595 12.0129 3.66595 12.0129C3.54173 11.9669 3.42111 11.9116 3.30529 11.8475C3.30529 11.8475 3.21045 11.8001 3.1223 11.7561C3.03142 11.7107 2.92281 11.7203 2.84122 11.7809C2.64025 11.9302 2.28243 12.1959 2.28243 12.1959C2.07041 12.0846 1.89723 11.9116 1.78578 11.6998C1.78578 11.6998 2.04912 11.346 2.19894 11.1448C2.26085 11.0616 2.26989 10.9504 2.22218 10.8583C2.17459 10.7663 2.12279 10.6662 2.12279 10.6662C2.06006 10.5445 2.00667 10.4181 1.96315 10.2882C1.96315 10.2882 1.93087 10.198 1.90007 10.1118C1.86613 10.0169 1.78247 9.94884 1.68296 9.93503C1.43594 9.90077 0.993508 9.83937 0.993508 9.83937C0.922086 9.61054 0.922086 9.36535 0.993508 9.13651C0.993508 9.13651 1.43074 9.0728 1.67853 9.0367C1.7804 9.02189 1.86495 8.95029 1.89658 8.85214C1.92608 8.76063 1.95724 8.66402 1.95724 8.66402C2.00348 8.54004 2.05882 8.4196 2.12279 8.30373C2.12279 8.30373 2.17009 8.2092 2.21414 8.12119C2.25967 8.03027 2.25044 7.92139 2.19031 7.83943C2.03954 7.63406 1.76804 7.26423 1.76804 7.26423C1.87849 7.05027 2.05178 6.87507 2.26469 6.76223C2.26469 6.76223 2.63115 7.03439 2.83057 7.18256C2.90844 7.2404 3.0112 7.25196 3.09989 7.2129C3.19608 7.17059 3.30529 7.12252 3.30529 7.12252C3.42703 7.05952 3.55355 7.00623 3.68369 6.96303C3.68369 6.96303 3.77704 6.93298 3.86721 6.904C3.9679 6.87158 4.04044 6.78321 4.0528 6.67795C4.08219 6.42778 4.13303 5.99441 4.13303 5.99441C4.36398 5.92186 4.61159 5.92186 4.84253 5.99441C4.84253 5.99441 4.9029 6.42861 4.93737 6.67653C4.95168 6.77947 5.02351 6.86506 5.12225 6.89683C5.21354 6.92622 5.30962 6.9571 5.30962 6.9571C5.43384 7.00303 5.55439 7.05833 5.67028 7.12252C5.67028 7.12252 5.76506 7.16987 5.85321 7.21385C5.94414 7.25925 6.05276 7.24971 6.13435 7.18908C6.33531 7.03984 6.69314 6.77402 6.69314 6.77402C6.90605 6.88687 7.07934 7.06207 7.18979 7.27608C7.18979 7.27608 6.92739 7.62861 6.77739 7.83006C6.71507 7.91375 6.70638 8.02594 6.75504 8.11828C6.80216 8.20772 6.85277 8.30373 6.85277 8.30373C6.91551 8.42553 6.9689 8.55189 7.01241 8.68175C7.01241 8.68175 7.04357 8.77835 7.07307 8.86986C7.10471 8.96801 7.18925 9.03961 7.29113 9.05442C7.53892 9.09052 7.97615 9.15423 7.97615 9.15423C8.04579 9.37702 8.04786 9.6154 7.98206 9.83937ZM4.48923 7.8856C3.60429 7.8856 2.88689 8.60271 2.88689 9.48721C2.88689 10.3717 3.60429 11.0888 4.48923 11.0888C5.37416 11.0888 6.09156 10.3717 6.09156 9.48721C6.09156 9.06241 5.92274 8.65503 5.62227 8.35469C5.32174 8.05435 4.91417 7.8856 4.48923 7.8856ZM4.48988 10.35C4.01493 10.35 3.62988 9.96493 3.62988 9.49C3.62988 9.01501 4.01493 8.63 4.48988 8.63C4.96483 8.63 5.34988 9.01501 5.34988 9.49C5.34988 9.96493 4.96483 10.35 4.48988 10.35Z" fill="#313E75"/>
<path fill-rule="evenodd" clip-rule="evenodd" d="M13.5359 1.88076L13.4494 1.77436C13.3915 1.70011 13.2965 1.66486 13.2041 1.68338C13.2041 1.68338 12.8505 1.75814 12.707 1.78851C12.6708 1.79598 12.6334 1.78282 12.6099 1.75425C12.5455 1.67738 12.4771 1.60389 12.4049 1.53436C12.3775 1.50812 12.3673 1.46869 12.3785 1.43253C12.4221 1.2913 12.5281 0.948454 12.5281 0.948454C12.5465 0.857082 12.5123 0.76316 12.4395 0.70498L12.3424 0.613052C12.1077 0.391101 11.8073 0.251129 11.4864 0.214134L11.3535 0.198861C11.2621 0.180561 11.1681 0.214763 11.1099 0.28752C11.1099 0.28752 10.9148 0.589768 10.8348 0.713669C10.8143 0.745123 10.7779 0.762308 10.7406 0.758217C10.6409 0.747949 10.5407 0.742847 10.4405 0.743297C10.403 0.743498 10.3685 0.722525 10.3512 0.689064C10.2851 0.560852 10.1265 0.253067 10.1265 0.253067C10.0813 0.170411 9.99326 0.120398 9.89908 0.123709L9.76665 0.124235C9.44272 0.132952 9.13036 0.24664 8.87662 0.448182L8.77014 0.53461C8.69582 0.592627 8.66059 0.687498 8.67906 0.779907C8.67906 0.779907 8.7537 1.13292 8.78406 1.27654C8.79155 1.31287 8.77838 1.35028 8.74988 1.37385C8.67278 1.43836 8.5991 1.5069 8.52938 1.57931C8.50333 1.6064 8.46424 1.61648 8.42832 1.6054C8.28736 1.56194 7.94366 1.45584 7.94366 1.45584C7.85228 1.43754 7.75831 1.47174 7.70007 1.5445L7.6081 1.64161C7.38503 1.87019 7.24105 2.16416 7.19723 2.48043L7.18192 2.61327C7.16361 2.70464 7.1978 2.79857 7.27054 2.85675C7.27054 2.85675 7.57216 3.05127 7.69636 3.13132C7.72802 3.15199 7.74536 3.18872 7.74122 3.2263C7.73088 3.32659 7.72574 3.42732 7.72625 3.52812C7.7265 3.56437 7.70703 3.5979 7.67551 3.61566C7.5516 3.6855 7.24725 3.85677 7.24725 3.85677C7.16458 3.90203 7.11448 3.99002 7.11782 4.08415L7.11996 4.22124C7.1286 4.54506 7.24223 4.85727 7.44375 5.11084L7.53022 5.21723C7.5882 5.29154 7.68313 5.32674 7.77555 5.30827C7.77555 5.30827 8.12917 5.23346 8.2727 5.20309C8.30887 5.19562 8.34623 5.20878 8.36979 5.23735C8.43416 5.31422 8.50255 5.38771 8.57481 5.45724C8.60213 5.48348 8.61234 5.52291 8.60115 5.55907C8.55753 5.70026 8.45151 6.04314 8.45151 6.04314C8.4332 6.13452 8.46739 6.22844 8.54013 6.28662L8.63725 6.37855C8.87193 6.60051 9.17231 6.74047 9.49331 6.77746L9.62618 6.79274C9.71757 6.81104 9.81153 6.77684 9.86977 6.70408C9.86977 6.70408 10.0649 6.40183 10.1449 6.27795C10.1654 6.24648 10.2018 6.22929 10.2391 6.23338C10.3391 6.24366 10.4395 6.2488 10.5401 6.24834C10.5771 6.2481 10.6113 6.2685 10.6287 6.30126C10.6979 6.43077 10.8676 6.74917 10.8676 6.74917C10.9129 6.83183 11.0008 6.88186 11.0951 6.87853L11.2322 6.8763C11.5561 6.86758 11.8685 6.75389 12.1222 6.55235L12.2287 6.46592C12.303 6.40792 12.3382 6.31303 12.3198 6.22062C12.3198 6.22062 12.2451 5.86761 12.2148 5.72399C12.2073 5.68766 12.2204 5.65025 12.2489 5.62668C12.326 5.56217 12.3997 5.49364 12.4694 5.42122C12.4955 5.39413 12.5345 5.38407 12.5705 5.39514C12.7114 5.43855 13.0552 5.54469 13.0552 5.54469C13.1465 5.56299 13.2405 5.52879 13.2988 5.45603L13.3907 5.35892C13.6128 5.12425 13.7529 4.82397 13.7901 4.50306L13.8054 4.37022C13.8237 4.27889 13.7895 4.18497 13.7168 4.12674C13.7168 4.12674 13.4151 3.93224 13.291 3.85217C13.2593 3.8315 13.242 3.79477 13.2461 3.75719C13.2564 3.65746 13.2615 3.55722 13.2611 3.45692C13.2609 3.41984 13.2811 3.38575 13.3138 3.36833C13.4433 3.29929 13.7622 3.1293 13.7622 3.1293C13.8449 3.08404 13.895 2.99605 13.8916 2.90187L13.8895 2.76478C13.8712 2.43943 13.747 2.12898 13.5359 1.88076ZM13.1354 2.82175C13.1354 2.82175 12.8328 2.98463 12.6613 3.07693C12.5907 3.11485 12.548 3.18967 12.551 3.26982C12.5538 3.34455 12.5567 3.42345 12.5567 3.42345C12.5551 3.52497 12.5462 3.62624 12.53 3.72648C12.53 3.72648 12.5206 3.8075 12.5119 3.88328C12.5027 3.96235 12.5389 4.03988 12.6054 4.08361C12.7682 4.19068 13.0567 4.38048 13.0567 4.38048C13.0316 4.56494 12.9511 4.73745 12.8257 4.87521C12.8257 4.87521 12.4957 4.77681 12.3088 4.72103C12.2321 4.69814 12.1491 4.72095 12.0948 4.77981C12.0399 4.8393 11.98 4.9044 11.98 4.9044C11.9077 4.98279 11.8294 5.05543 11.7458 5.12159C11.7458 5.12159 11.6856 5.16839 11.6274 5.21355C11.5624 5.26403 11.5329 5.34792 11.5519 5.42814C11.5969 5.61884 11.6751 5.94906 11.6751 5.94906C11.5256 6.06356 11.3446 6.12943 11.1565 6.1378C11.1565 6.1378 10.9969 5.83651 10.9057 5.66448C10.8679 5.59309 10.7926 5.54961 10.712 5.55265C10.6375 5.55545 10.559 5.55844 10.559 5.55844C10.456 5.55792 10.3532 5.54959 10.2514 5.53353C10.2514 5.53353 10.1695 5.52415 10.0934 5.51541C10.0149 5.5064 9.93807 5.54231 9.89455 5.60829C9.78738 5.77087 9.59656 6.06029 9.59656 6.06029C9.41199 6.03534 9.23939 5.95496 9.10159 5.82979C9.10159 5.82979 9.19995 5.50118 9.25591 5.31422C9.27903 5.23698 9.25605 5.15326 9.19668 5.09864C9.13742 5.04407 9.07295 4.98473 9.07295 4.98473C8.99472 4.91244 8.92209 4.83429 8.85572 4.75092C8.85572 4.75092 8.80813 4.69358 8.76268 4.63874C8.71265 4.57846 8.63339 4.55095 8.55699 4.56733C8.36733 4.608 8.02764 4.68082 8.02764 4.68082C7.91456 4.53257 7.84934 4.35336 7.84066 4.16711C7.84066 4.16711 8.14327 4.00424 8.31478 3.91194C8.38529 3.87401 8.42804 3.79919 8.42505 3.71905C8.42227 3.64432 8.41934 3.56542 8.41934 3.56542C8.42015 3.4625 8.42856 3.35976 8.44449 3.25805C8.44449 3.25805 8.45392 3.17638 8.4627 3.10034C8.47179 3.02178 8.43608 2.94466 8.37033 2.90074C8.20551 2.79076 7.90869 2.59268 7.90869 2.59268C7.9325 2.40692 8.01255 2.23278 8.13814 2.09366C8.13814 2.09366 8.47837 2.19509 8.66354 2.25034C8.73584 2.2719 8.81402 2.25301 8.86845 2.20087C8.9275 2.14436 8.99453 2.08018 8.99453 2.08018C9.06674 2.00174 9.14504 1.92914 9.22866 1.86295C9.22866 1.86295 9.2889 1.81615 9.34709 1.77098C9.41206 1.7205 9.44157 1.63662 9.4226 1.5564C9.37753 1.36574 9.29941 1.03548 9.29941 1.03548C9.4489 0.921023 9.62987 0.855153 9.81796 0.84674C9.81796 0.84674 9.97758 1.14802 10.0687 1.32005C10.1066 1.39149 10.1818 1.43493 10.2625 1.43188C10.337 1.42908 10.4154 1.42609 10.4154 1.42609C10.5184 1.42662 10.6213 1.43496 10.723 1.45105C10.723 1.45105 10.8049 1.46045 10.881 1.46914C10.9596 1.47813 11.0364 1.44226 11.0799 1.37625C11.1871 1.21371 11.3779 0.924247 11.3779 0.924247C11.5635 0.950087 11.7368 1.03203 11.8744 1.15907C11.8744 1.15907 11.7764 1.48653 11.7204 1.67366C11.6971 1.75141 11.7206 1.83572 11.7807 1.89026C11.839 1.94309 11.9015 1.9998 11.9015 1.9998C11.9798 2.07213 12.0524 2.15028 12.1187 2.23362C12.1187 2.23362 12.1672 2.29594 12.2131 2.35497C12.2623 2.41829 12.3432 2.44813 12.4216 2.43186C12.6123 2.39232 12.9488 2.32258 12.9488 2.32258C13.059 2.46688 13.1239 2.64055 13.1354 2.82175ZM10.0627 2.323C9.41593 2.55841 9.08236 3.27336 9.31766 3.91982C9.55295 4.56629 10.268 4.89951 10.9148 4.66411C11.5616 4.4287 11.8952 3.71379 11.6599 3.06733C11.5469 2.75686 11.3151 2.50403 11.0156 2.36444C10.7161 2.22488 10.3733 2.20996 10.0627 2.323ZM10.7189 4.12393C10.3717 4.25028 9.98789 4.07127 9.86155 3.72416C9.7352 3.377 9.9142 2.99318 10.2613 2.86683C10.6085 2.74049 10.9923 2.91945 11.1187 3.26661C11.245 3.61372 11.066 3.99759 10.7189 4.12393Z" fill="#313E75"/>
</svg>
