<svg width="14" height="14" viewBox="0 0 14 14" fill="none" xmlns="http://www.w3.org/2000/svg">
<path fill-rule="evenodd" clip-rule="evenodd" d="M11.5132 12.9991C10.6852 12.9991 10.0132 12.3271 10.0132 11.4991C10.0132 10.6711 10.6852 9.99909 11.5132 9.99909C12.3412 9.99909 13.0132 10.6711 13.0132 11.4991C13.0132 12.3271 12.3412 12.9991 11.5132 12.9991ZM2.50018 8.49909C1.67218 8.49909 1.00018 7.82709 1.00018 6.99909C1.00018 6.17109 1.67218 5.49909 2.50018 5.49909C3.32718 5.49909 4.00018 6.17109 4.00018 6.99909C4.00018 7.82709 3.32718 8.49909 2.50018 8.49909ZM11.5132 1.00009C12.3412 1.00009 13.0132 1.67209 13.0132 2.50009C13.0132 3.32809 12.3412 4.00009 11.5132 4.00009C10.6852 4.00009 10.0132 3.32809 10.0132 2.50009C10.0132 1.67209 10.6852 1.00009 11.5132 1.00009ZM11.5132 8.99909C10.8742 8.99909 10.2912 9.23909 9.85518 9.64009C9.69018 9.79509 9.44218 9.82409 9.24418 9.71109C8.35618 9.19809 5.98418 7.82809 5.22418 7.39009C5.08518 7.31009 5.00018 7.16109 5.00018 7.00109V6.99909C5.00018 6.83809 5.08518 6.69009 5.22418 6.61009C5.98418 6.17209 8.35718 4.80209 9.25018 4.29609C9.44418 4.18509 9.68718 4.21209 9.85018 4.36509C10.2912 4.76009 10.8742 5.00009 11.5132 5.00009C12.8932 5.00009 13.9992 3.88009 13.9992 2.50009C13.9992 1.12009 12.8932 9.15527e-05 11.5132 9.15527e-05C10.1332 9.15527e-05 9.01318 1.12009 9.01318 2.50009C9.01318 2.62609 9.02318 2.75109 9.04318 2.87209C9.07518 3.08209 8.97518 3.29009 8.79118 3.39609C7.98718 3.86109 5.90018 5.06509 5.04218 5.54809C4.84118 5.66509 4.58418 5.61309 4.44318 5.42809C3.98518 4.86109 3.28418 4.49909 2.50018 4.49909C1.12018 4.49909 0.000183105 5.61909 0.000183105 6.99909C0.000183105 8.37909 1.12018 9.49909 2.50018 9.49909C3.28418 9.49909 3.98418 9.13709 4.43518 8.56609C4.57818 8.37609 4.84018 8.32309 5.04718 8.44209C5.89918 8.93409 7.98718 10.1391 8.79018 10.6061C8.97318 10.7121 9.07318 10.9181 9.04118 11.1271C9.02318 11.2481 9.01318 11.3731 9.01318 11.4991C9.01318 12.8791 10.1332 13.9991 11.5132 13.9991C12.8932 13.9991 13.9992 12.8741 13.9992 11.4941C13.9992 10.1141 12.8932 8.99909 11.5132 8.99909Z" fill="#242E59"/>
</svg>
