<svg width="14" height="14" viewBox="0 0 14 14" fill="none" xmlns="http://www.w3.org/2000/svg">
<path fill-rule="evenodd" clip-rule="evenodd" d="M4.08868 5.15137L6.58881 1.23362C6.6232 1.17973 6.66628 1.13319 6.71597 1.09597C6.94308 0.926067 7.25436 0.98775 7.4113 1.23362L9.91143 5.15137C9.96911 5.24173 10 5.34908 10 5.45892C10 5.75781 9.77629 6 9.50019 6H4.49982C4.39836 6 4.2993 5.96656 4.21573 5.90412C3.98862 5.73422 3.93174 5.39724 4.08868 5.15137ZM9.9114 8.84862L7.41117 12.7664C7.37688 12.8202 7.3338 12.8669 7.28412 12.904C7.05701 13.0739 6.74563 13.0123 6.58879 12.7664L4.08857 8.84862C4.03089 8.75826 4 8.65091 4 8.54107C4 8.24229 4.22381 7.99999 4.49981 7.99999H9.50016C9.60162 7.99999 9.70078 8.03343 9.78425 8.09587C10.0114 8.26577 10.0682 8.60275 9.9114 8.84862Z" fill="#242E59"/>
</svg>
