<svg width="14" height="14" viewBox="0 0 14 14" fill="none" xmlns="http://www.w3.org/2000/svg">
<path fill-rule="evenodd" clip-rule="evenodd" d="M10.3302 11.7444C10.3874 11.8016 10.4734 11.8187 10.5481 11.7877C10.6229 11.7568 10.6716 11.6838 10.6716 11.6029C10.6716 10.0967 10.6716 5.4939 10.6716 3.9644C10.6716 3.6883 10.8954 3.4645 11.1716 3.4645C11.4477 3.4645 11.6716 3.6883 11.6716 3.9644C11.6716 5.4939 11.6716 10.0967 11.6716 11.6029C11.6716 11.6838 11.7203 11.7568 11.795 11.7877C11.8698 11.8187 11.9558 11.8016 12.013 11.7444C12.288 11.4694 12.6728 11.0846 12.9485 10.8088C13.1387 10.6186 13.4471 10.6186 13.6373 10.8088C13.6375 10.8091 13.6377 10.8093 13.638 10.8095C13.8379 11.0095 13.8379 11.3337 13.638 11.5336C13.0923 12.0792 12.0657 13.1058 11.5251 13.6464C11.4314 13.7402 11.3042 13.7929 11.1716 13.7929C11.039 13.7929 10.9118 13.7402 10.818 13.6464C10.2774 13.1058 9.2508 12.0792 8.7052 11.5336C8.5052 11.3337 8.5052 11.0095 8.7052 10.8095C8.7054 10.8093 8.7057 10.8091 8.7059 10.8088C8.8961 10.6186 9.2044 10.6186 9.3946 10.8088C9.6704 11.0846 10.0552 11.4694 10.3302 11.7444ZM5 13.5C5 13.6326 4.9473 13.7598 4.8535 13.8536C4.7598 13.9473 4.6326 14.0001 4.5 14C3.542 14 1.458 14 0.5 14C0.3674 14.0001 0.2402 13.9473 0.1465 13.8536C0.0527 13.7598 0 13.6326 0 13.5C0 13.3674 0.0527 13.2402 0.1465 13.1464C0.2402 13.0527 0.3674 13 0.5 13C1.458 13 3.542 13 4.5 13C4.6326 13 4.7598 13.0527 4.8535 13.1464C4.9473 13.2402 5 13.3674 5 13.5ZM7 7C7 7.2761 6.7761 7.5 6.5 7.5C5.2115 7.5 1.7885 7.5 0.5 7.5C0.2239 7.5 0 7.2761 0 7C0 6.7239 0.2239 6.5 0.5 6.5C1.7885 6.5 5.2115 6.5 6.5 6.5C6.7761 6.5 7 6.7239 7 7ZM14 0.501C14 0.7766 13.7766 1 13.501 1C11.3247 1 2.6753 1 0.499 1C0.2234 1 0.0001 0.7766 0 0.501C0 0.5003 0 0.4997 0 0.499C0.0001 0.2234 0.2234 0 0.499 0C2.6753 0 11.3247 0 13.501 0C13.7766 0 14 0.2234 14 0.499C14 0.4997 14 0.5003 14 0.501Z" fill="#242E59"/>
</svg>
