<svg width="14" height="14" viewBox="0 0 14 14" fill="none" xmlns="http://www.w3.org/2000/svg">
<path fill-rule="evenodd" clip-rule="evenodd" d="M7.41117 12.7665L9.9114 8.84863C10.0682 8.60276 10.0114 8.26578 9.78425 8.09588C9.70078 8.03344 9.60162 8 9.50016 8H4.49981C4.22381 8 4 8.24229 4 8.54108C4 8.65092 4.03089 8.75827 4.08857 8.84863L6.58879 12.7665C6.74563 13.0123 7.05701 13.0739 7.28412 12.904C7.3338 12.8669 7.37688 12.8202 7.41117 12.7665Z" fill="#313E75"/>
<path fill-rule="evenodd" clip-rule="evenodd" d="M6.58881 1.23362L4.08868 5.15137C3.93174 5.39724 3.98862 5.73422 4.21573 5.90412C4.2993 5.96656 4.39836 6 4.49982 6H9.50019C9.77629 6 10 5.75781 10 5.45892C10 5.34908 9.96911 5.24173 9.91143 5.15137L7.4113 1.23362C7.25436 0.98775 6.94308 0.926067 6.71597 1.09597C6.66628 1.13319 6.6232 1.17973 6.58881 1.23362Z" fill="#313E75"/>
</svg>
