<svg width="14" height="14" viewBox="0 0 14 14" fill="none" xmlns="http://www.w3.org/2000/svg">
<path fill-rule="evenodd" clip-rule="evenodd" d="M5 13.5C5 13.6326 4.9473 13.7598 4.8535 13.8536C4.7598 13.9473 4.6326 14.0001 4.5 14C3.542 14 1.458 14 0.5 14C0.3674 14.0001 0.2402 13.9473 0.1465 13.8536C0.0527 13.7598 0 13.6326 0 13.5C0 13.3674 0.0527 13.2402 0.1465 13.1464C0.2402 13.0527 0.3674 13 0.5 13C1.458 13 3.542 13 4.5 13C4.6326 13 4.7598 13.0527 4.8535 13.1464C4.9473 13.2402 5 13.3674 5 13.5ZM10.3302 5.7201C10.3874 5.6629 10.4734 5.6458 10.5481 5.6768C10.6229 5.7077 10.6716 5.7806 10.6716 5.8615C10.6716 7.3677 10.6716 11.9706 10.6716 13.5C10.6716 13.7762 10.8954 14 11.1716 14C11.4477 14 11.6716 13.7762 11.6716 13.5C11.6716 11.9706 11.6716 7.3677 11.6716 5.8615C11.6716 5.7806 11.7203 5.7077 11.795 5.6768C11.8698 5.6458 11.9558 5.6629 12.013 5.7201C12.2849 5.992 12.6643 6.3714 12.9393 6.6464C13.0331 6.7402 13.1603 6.7929 13.2929 6.7929C13.4255 6.7929 13.5527 6.7402 13.6464 6.6464C13.7402 6.5527 13.7929 6.4255 13.7929 6.2929C13.7929 6.1603 13.7402 6.0331 13.6464 5.9393C13.103 5.3959 12.0685 4.3614 11.5251 3.818C11.4314 3.7243 11.3042 3.6716 11.1716 3.6716C11.039 3.6716 10.9118 3.7243 10.818 3.818C10.2746 4.3614 9.2401 5.3959 8.6967 5.9393C8.6029 6.0331 8.5503 6.1603 8.5503 6.2929C8.5503 6.4255 8.6029 6.5527 8.6967 6.6464C8.6969 6.6467 8.6972 6.6469 8.6974 6.6472C8.8923 6.842 9.2082 6.842 9.4031 6.6472C9.6782 6.372 10.058 5.9923 10.3302 5.7201ZM7 7C7 7.2761 6.7761 7.5 6.5 7.5C5.2115 7.5 1.7885 7.5 0.5 7.5C0.2239 7.5 0 7.2761 0 7C0 6.7239 0.2239 6.5 0.5 6.5C1.7885 6.5 5.2115 6.5 6.5 6.5C6.7761 6.5 7 6.7239 7 7ZM14 0.501C14 0.7766 13.7766 1 13.501 1C11.3247 1 2.6753 1 0.499 1C0.2234 1 0.0001 0.7766 0 0.501C0 0.5003 0 0.4997 0 0.499C0.0001 0.2234 0.2234 0 0.499 0C2.6753 0 11.3247 0 13.501 0C13.7766 0 14 0.2234 14 0.499C14 0.4997 14 0.5003 14 0.501Z" fill="#242E59"/>
</svg>
