<svg width="14" height="14" viewBox="0 0 14 14" fill="none" xmlns="http://www.w3.org/2000/svg">
<rect width="14" height="14" fill="white"/>
<path fill-rule="evenodd" clip-rule="evenodd" d="M1 1.5C1 1.22386 1.22386 1 1.5 1H12.5C12.7761 1 13 1.22386 13 1.5V12.5C13 12.7761 12.7761 13 12.5 13H1.5C1.22386 13 1 12.7761 1 12.5L1 1.5ZM11.75 9C11.8881 9 12 8.88807 12 8.75V6.75C12 6.61193 11.8881 6.5 11.75 6.5H8C7.72386 6.5 7.5 6.27614 7.5 6V2.25C7.5 2.11193 7.38807 2 7.25 2H5.25C5.11193 2 5 2.11193 5 2.25V8.75C5 8.88807 5.11193 9 5.25 9H11.75ZM3.75 2C3.88807 2 4 2.11193 4 2.25V9.5C4 9.77614 4.22386 10 4.5 10H11.75C11.8881 10 12 10.1119 12 10.25V11.75C12 11.8881 11.8881 12 11.75 12H2.25C2.11193 12 2 11.8881 2 11.75V2.25C2 2.11193 2.11193 2 2.25 2H3.75ZM8.75 2C8.61193 2 8.5 2.11193 8.5 2.25V5.25C8.5 5.38807 8.61193 5.5 8.75 5.5H11.75C11.8881 5.5 12 5.38807 12 5.25V2.25C12 2.11193 11.8881 2 11.75 2H8.75Z" fill="#242E59"/>
</svg>
