<svg width="14" height="14" viewBox="0 0 14 14" fill="none" xmlns="http://www.w3.org/2000/svg">
<path d="M11.3536 0.146447C11.1583 -0.0488155 10.8417 -0.0488155 10.6464 0.146447C10.4512 0.341709 10.4512 0.658291 10.6464 0.853553L12.2929 2.5H10C7.42636 2.5 5.30687 4.25002 5.03052 6.5H0.5C0.223858 6.5 0 6.72386 0 7C0 7.27614 0.223858 7.5 0.5 7.5H5.03052C5.30687 9.74998 7.42636 11.5 10 11.5H12.2929L10.6464 13.1464C10.4512 13.3417 10.4512 13.6583 10.6464 13.8536C10.8417 14.0488 11.1583 14.0488 11.3536 13.8536L13.8536 11.3536C14.0488 11.1583 14.0488 10.8417 13.8536 10.6464L11.3536 8.14645C11.1583 7.95118 10.8417 7.95118 10.6464 8.14645C10.4512 8.34171 10.4512 8.65829 10.6464 8.85355L12.3929 10.6H10C7.79086 10.6 6 8.98822 6 7C6 5.01178 7.79086 3.4 10 3.4H12.3929L10.6464 5.14645C10.4512 5.34171 10.4512 5.65829 10.6464 5.85355C10.8417 6.04882 11.1583 6.04882 11.3536 5.85355L13.8536 3.35355C14.0488 3.15829 14.0488 2.84171 13.8536 2.64645L11.3536 0.146447Z" fill="#242E59"/>
</svg>
