<svg width="14" height="14" viewBox="0 0 14 14" fill="none" xmlns="http://www.w3.org/2000/svg">
<path d="M12.6 2.08333C12.8209 2.08333 13 2.27734 13 2.51667V3H14V2.08333C14 1.48502 13.5523 1 13 1H1C0.447715 1 0 1.48502 0 2.08333V3H1V2.51667C1 2.27734 1.17909 2.08333 1.4 2.08333H12.6Z" fill="#242E59"/>
<path d="M1 12H0V12.9167C0 13.515 0.447715 14 1 14H13C13.5523 14 14 13.515 14 12.9167V12H13V12.4833C13 12.7227 12.8209 12.9167 12.6 12.9167H1.4C1.17909 12.9167 1 12.7227 1 12.4833V12Z" fill="#242E59"/>
<path d="M1 3C1 3.27614 0.776142 3.5 0.5 3.5C0.223858 3.5 0 3.27614 0 3C0 2.72386 0.223858 2.5 0.5 2.5C0.776142 2.5 1 2.72386 1 3Z" fill="#242E59"/>
<path d="M14 3C14 3.27614 13.7761 3.5 13.5 3.5C13.2239 3.5 13 3.27614 13 3C13 2.72386 13.2239 2.5 13.5 2.5C13.7761 2.5 14 2.72386 14 3Z" fill="#242E59"/>
<path d="M14 12C14 12.2761 13.7761 12.5 13.5 12.5C13.2239 12.5 13 12.2761 13 12C13 11.7239 13.2239 11.5 13.5 11.5C13.7761 11.5 14 11.7239 14 12Z" fill="#242E59"/>
<path d="M1 12C1 12.2761 0.776142 12.5 0.5 12.5C0.223858 12.5 0 12.2761 0 12C0 11.7239 0.223858 11.5 0.5 11.5C0.776142 11.5 1 11.7239 1 12Z" fill="#242E59"/>
<path d="M2.044 4.9043C1.505 4.9043 1.064 5.0233 0.714 5.2683C0.336 5.5203 0.154 5.8703 0.154 6.3113C0.154 6.7523 0.343 7.0883 0.728 7.3193C0.875 7.4033 1.26 7.5433 1.876 7.7393C2.429 7.9073 2.751 8.0193 2.849 8.0683C3.157 8.2223 3.318 8.4323 3.318 8.6983C3.318 8.9083 3.206 9.0693 2.996 9.1953C2.786 9.3143 2.492 9.3773 2.128 9.3773C1.715 9.3773 1.414 9.3003 1.218 9.1603C1.07603 9.05497 0.970017 8.9017 0.897995 8.70245C0.826704 8.50522 0.656692 8.3483 0.446973 8.3483C0.204186 8.3483 0.00562358 8.55424 0.0621703 8.79035C0.161303 9.20427 0.370237 9.52026 0.686 9.7413C1.029 9.9793 1.512 10.0983 2.128 10.0983C2.765 10.0983 3.262 9.9653 3.612 9.7133C3.962 9.4543 4.137 9.0973 4.137 8.6493C4.137 8.1873 3.92 7.8303 3.486 7.5713C3.29 7.4593 2.856 7.2913 2.177 7.0813C1.715 6.9343 1.428 6.8293 1.323 6.7733C1.085 6.6473 0.973 6.4723 0.973 6.2623C0.973 6.0243 1.071 5.8493 1.281 5.7443C1.449 5.6533 1.687 5.6113 2.002 5.6113C2.366 5.6113 2.646 5.6743 2.828 5.8143C2.93856 5.89509 3.03103 6.00946 3.10229 6.15584C3.18999 6.33601 3.3552 6.4793 3.55558 6.4793C3.80775 6.4793 4.01191 6.25986 3.93738 6.01895C3.83849 5.6993 3.66624 5.4483 3.423 5.2683C3.094 5.0233 2.632 4.9043 2.044 4.9043Z" fill="#242E59"/>
<path d="M7.17897 4.90429C6.40897 4.90429 5.80697 5.14929 5.37297 5.65329C4.95297 6.12929 4.74997 6.74529 4.74997 7.50829C4.74997 8.26429 4.95297 8.88029 5.37297 9.35629C5.80697 9.84629 6.40897 10.0983 7.17897 10.0983C7.68297 10.0983 8.12397 9.98629 8.48797 9.77629C8.597 9.91887 8.70603 10.069 8.81657 10.2251C8.93737 10.3958 9.17892 10.4265 9.33678 10.2894C9.47139 10.1725 9.49729 9.97303 9.39306 9.82838C9.26838 9.65533 9.14258 9.48863 9.01997 9.32829C9.41197 8.86629 9.61497 8.25729 9.61497 7.50829C9.61497 6.73829 9.40497 6.11529 8.98497 5.64629C8.54397 5.14929 7.94197 4.90429 7.17897 4.90429ZM7.17897 5.62529C7.69697 5.62529 8.09597 5.78629 8.37597 6.12229C8.64897 6.45829 8.78897 6.92029 8.78897 7.50829C8.78897 7.99129 8.69097 8.39029 8.50897 8.69829C8.34519 8.5056 8.17809 8.31623 8.00995 8.13245C7.88509 7.99598 7.67245 7.99161 7.53972 8.12045C7.40952 8.24681 7.40518 8.45408 7.52629 8.58918C7.68779 8.76933 7.85361 8.96362 8.02597 9.17429C7.78797 9.30729 7.50797 9.37729 7.17897 9.37729C6.66097 9.37729 6.25497 9.20229 5.97497 8.85929C5.70197 8.52329 5.56897 8.07529 5.56897 7.50829C5.56897 6.93429 5.70197 6.48629 5.97497 6.15029C6.26197 5.80029 6.66097 5.62529 7.17897 5.62529Z" fill="#242E59"/>
<path d="M11.2286 4.90429C11.0044 4.90429 10.8226 5.08606 10.8226 5.31029L10.8286 9.6003C10.8286 9.82121 11.0077 10.0003 11.2286 10.0003H13.6473C13.8406 10.0003 13.9973 9.8436 13.9973 9.6503C13.9973 9.457 13.8406 9.3003 13.6473 9.3003H11.6406L11.6346 5.31029C11.6346 5.08606 11.4528 4.90429 11.2286 4.90429Z" fill="#242E59"/>
</svg>
