<svg width="14" height="14" viewBox="0 0 14 14" fill="none" xmlns="http://www.w3.org/2000/svg">
<path fill-rule="evenodd" clip-rule="evenodd" d="M1.1464 12.8536C1.0527 12.7598 1 12.6326 1 12.5V12V11.73L4.1293 9.04771L7.87873 9.98507C7.99452 10.014 8.11685 10.0006 8.22361 9.94721L11.5 8.30902V13H1.5C1.3674 13 1.2402 12.9473 1.1464 12.8536ZM12.5 14H13.5C13.7761 13.9999 14 13.7761 14 13.5C14 13.3674 13.9473 13.2402 13.8536 13.1464C13.7598 13.0527 13.6326 13 13.5 13H12.5V7.5V3.00001C12.5 2.79778 12.3782 2.61547 12.1913 2.53807C12.0045 2.46068 11.7894 2.50346 11.6464 2.64646L7.8741 6.4188L4.17556 5.03185C4.01966 4.97338 3.84487 4.99637 3.70938 5.09315L1 7.02842V0.5C1 0.3674 0.9473 0.2402 0.8536 0.1464C0.7598 0.0527 0.6326 0 0.5 0C0.2239 0 0.0001 0.2239 0 0.5V8.00002V11.5V12V13C0.0001 13.5523 0.4477 13.9999 1 14H11.5V14H12.5V14ZM1 8.25732V10.4129L3.6746 8.12037C3.79762 8.01493 3.96409 7.97563 4.12127 8.01493L7.94183 8.97007L11.5 7.19098V4.20712L8.35355 7.35357C8.21491 7.49221 8.00803 7.53702 7.82444 7.46818L4.07386 6.06171L1 8.25732Z" fill="#242E59"/>
</svg>
