<svg width="14" height="14" viewBox="0 0 14 14" fill="none" xmlns="http://www.w3.org/2000/svg">
<path fill-rule="evenodd" clip-rule="evenodd" d="M6.56188 11.3762L3.18678 13.1506C3.09478 13.199 2.98088 13.1636 2.93248 13.0715C2.91318 13.0349 2.90658 12.9929 2.91358 12.9521L3.55818 9.19391C3.61058 8.88851 3.50928 8.57681 3.28738 8.36051L0.556878 5.69891C0.482378 5.62631 0.480878 5.50711 0.553478 5.43261C0.582378 5.40301 0.620278 5.38371 0.661278 5.37771L4.43468 4.82941C4.74138 4.78491 5.00648 4.59221 5.14358 4.31431L6.83118 0.895107C6.87718 0.801807 6.99008 0.763507 7.08338 0.809507C7.12048 0.827907 7.15058 0.857907 7.16888 0.895107L8.85638 4.31431C8.99358 4.59221 9.25868 4.78491 9.56538 4.82941L13.3388 5.37771C13.4417 5.39271 13.513 5.48821 13.4981 5.59121C13.4921 5.63221 13.4728 5.67001 13.4431 5.69891L10.7127 8.36051C10.4908 8.57681 10.3895 8.88851 10.4419 9.19391L11.0865 12.9521C11.104 13.0546 11.0352 13.1519 10.9327 13.1695C10.8919 13.1765 10.8499 13.1699 10.8132 13.1506L7.43818 11.3762C7.16388 11.232 6.83618 11.232 6.56188 11.3762Z" stroke="#242E59"/>
</svg>
