<svg width="14" height="14" viewBox="0 0 14 14" fill="none" xmlns="http://www.w3.org/2000/svg">
<path fill-rule="evenodd" clip-rule="evenodd" d="M6.35326 0.690253C6.61003 0.169977 7.35192 0.169984 7.60869 0.690253L9.31671 4.15108C9.36041 4.23962 9.44488 4.30099 9.54259 4.31519L13.3618 4.87016C13.936 4.95359 14.1652 5.65917 13.7498 6.06415L10.9862 8.75803C10.9154 8.82695 10.8832 8.92625 10.8999 9.02356L11.5523 12.8274C11.6504 13.3992 11.0502 13.8353 10.5366 13.5653L7.12058 11.7694C7.03318 11.7234 6.92877 11.7234 6.84137 11.7694L3.42533 13.5653C2.91179 13.8353 2.31159 13.3992 2.40967 12.8274L3.06207 9.02356C3.07876 8.92625 3.0465 8.82695 2.97579 8.75802L0.212157 6.06415C-0.203307 5.65917 0.0259557 4.95359 0.600107 4.87016L4.41936 4.31519C4.51707 4.30099 4.60154 4.23962 4.64524 4.15108L6.35326 0.690253ZM6.98097 1.67791L5.54197 4.59365C5.35261 4.97733 4.98658 5.24327 4.56316 5.3048L1.34545 5.77236L3.6738 8.04194C3.9802 8.3406 4.12001 8.7709 4.04768 9.19261L3.49803 12.3973L6.37603 10.8843C6.75475 10.6851 7.2072 10.6851 7.58592 10.8843L10.4639 12.3973L9.91427 9.19261C9.84194 8.7709 9.98175 8.3406 10.2881 8.04194L12.6165 5.77236L9.39879 5.3048C8.97537 5.24327 8.60933 4.97733 8.41997 4.59365L6.98097 1.67791Z" fill="#242E59"/>
</svg>
