<svg width="14" height="14" viewBox="0 0 14 14" fill="none" xmlns="http://www.w3.org/2000/svg">
<path fill-rule="evenodd" clip-rule="evenodd" d="M14 1C14 0.4477 13.5523 0 13 0H1C0.4477 0 0.0001 0.4477 0 1V13C0.0001 13.5523 0.4477 13.9999 1 14H13C13.5523 13.9999 14 13.5523 14 13V1ZM13 1.5C13 1.3674 12.9473 1.2402 12.8536 1.1464C12.7598 1.0527 12.6326 1 12.5 1H1.5C1.3674 1 1.2402 1.0527 1.1464 1.1464C1.0527 1.2402 1 1.3674 1 1.5V12.5C1 12.6326 1.0527 12.7598 1.1464 12.8536C1.2402 12.9473 1.3674 13 1.5 13H12.5C12.6326 13 12.7598 12.9473 12.8536 12.8536C12.9473 12.7598 13 12.6326 13 12.5V1.5ZM5.4054 8.9495L4.9134 10.3295C4.8734 10.4415 4.8334 10.5495 4.7934 10.6535C4.7534 10.7575 4.7074 10.8535 4.6554 10.9415C4.6034 11.0295 4.5434 11.0995 4.4754 11.1515C4.4074 11.2035 4.3294 11.2295 4.2414 11.2295C4.0814 11.2295 3.9574 11.1795 3.8694 11.0795C3.7814 10.9795 3.7814 10.7935 3.8694 10.5215L6.3894 3.1895C6.4294 3.0615 6.4994 2.9595 6.5994 2.8835C6.6994 2.8075 6.8294 2.7695 6.9894 2.7695C7.1574 2.7695 7.2934 2.8075 7.3974 2.8835C7.5014 2.9595 7.5734 3.0615 7.6134 3.1895L10.1454 10.5455C10.2094 10.7375 10.2134 10.8995 10.1574 11.0315C10.1014 11.1635 9.9694 11.2295 9.7614 11.2295C9.6254 11.2375 9.5154 11.1995 9.4314 11.1155C9.3474 11.0315 9.2854 10.9215 9.2454 10.7855L8.5854 8.9495H5.4054ZM8.3694 8.1095L7.0014 3.9935L5.6334 8.1095H8.3694Z" fill="#242E59"/>
</svg>
