<svg width="14" height="14" viewBox="0 0 14 14" fill="none" xmlns="http://www.w3.org/2000/svg">
<path fill-rule="evenodd" clip-rule="evenodd" d="M7 0C10.8634 0 14 3.1366 14 7C14 10.8634 10.8634 14 7 14C3.1366 14 0 10.8634 0 7C0 3.1366 3.1366 0 7 0ZM5.7487 8.2616C5.7863 8.2991 5.8371 8.3202 5.8902 8.3202C5.9432 8.3202 5.9941 8.2991 6.0316 8.2616C6.6191 7.6741 8.8779 5.4153 9.7687 4.5246C9.8652 4.428 9.9962 4.3737 10.1328 4.3737C10.2694 4.3737 10.4004 4.428 10.497 4.5246C10.4974 4.5249 10.4977 4.5253 10.4981 4.5257C10.5947 4.6223 10.649 4.7533 10.649 4.8898C10.649 5.0264 10.5947 5.1574 10.4981 5.254C9.4701 6.2821 6.6196 9.1325 6.6196 9.1325C6.6196 9.1325 6.4545 9.2976 6.2839 9.4683C6.1948 9.5668 6.0702 9.6258 5.9375 9.6322C5.8048 9.6386 5.6751 9.5918 5.577 9.5023C5.3848 9.3119 5.1831 9.1101 5.1831 9.1101C5.1831 9.1101 4.0398 7.9669 3.4408 7.3679C3.2445 7.1696 3.2453 6.85 3.4426 6.6527C3.4428 6.6525 3.4431 6.6522 3.4433 6.652C3.5356 6.5597 3.6607 6.5079 3.7912 6.5079C3.9217 6.5079 4.0468 6.5597 4.1391 6.652C4.6082 7.121 5.4223 7.9351 5.7487 8.2616Z" fill="#242E59"/>
</svg>
