<svg width="14" height="14" viewBox="0 0 14 14" fill="none" xmlns="http://www.w3.org/2000/svg">
<path fill-rule="evenodd" clip-rule="evenodd" d="M14 7C14 3.1366 10.8634 0 7 0C3.1366 0 0 3.1366 0 7C0 10.8634 3.1366 14 7 14C10.8634 14 14 10.8634 14 7ZM13 7C13 3.6885 10.3115 1 7 1C3.6885 1 1 3.6885 1 7C1 10.3115 3.6885 13 7 13C10.3115 13 13 10.3115 13 7ZM6.32377 9.12809C6.45637 9.12809 6.58357 9.07549 6.67727 8.98169L9.80577 5.85319C10.0018 5.65819 10.0018 5.34119 9.80577 5.14619C9.61077 4.95119 9.29477 4.95119 9.09877 5.14619L6.32377 7.92119L5.11277 6.71019C4.91777 6.51519 4.60077 6.51519 4.40577 6.71019C4.21077 6.90519 4.21077 7.22219 4.40577 7.41719L5.97017 8.98169C6.06397 9.07549 6.19117 9.12809 6.32377 9.12809Z" fill="#242E59"/>
</svg>
