<svg width="14" height="14" viewBox="0 0 14 14" fill="none" xmlns="http://www.w3.org/2000/svg">
<path d="M10.6164 1.15978C10.4285 0.957421 10.1121 0.945704 9.90978 1.13361C9.70743 1.32151 9.69571 1.63787 9.88361 1.84023L12.3534 4.5H0.50001C0.223868 4.5 1.03956e-05 4.72386 1.03956e-05 5C1.03956e-05 5.27614 0.223868 5.5 0.50001 5.5H13.5C13.6989 5.5 13.8788 5.38215 13.9583 5.19986C14.0378 5.01757 14.0017 4.80551 13.8664 4.65978L10.6164 1.15978Z" fill="#242E59"/>
<path d="M3.38361 12.8402C3.57152 13.0426 3.88788 13.0543 4.09024 12.8664C4.29259 12.6785 4.30431 12.3621 4.11641 12.1598L1.64662 9.5H13.5C13.7762 9.5 14 9.27614 14 9C14 8.72386 13.7762 8.5 13.5 8.5H0.50001C0.301144 8.5 0.121182 8.61785 0.0416917 8.80014C-0.037799 8.98243 -0.00170526 9.1945 0.133613 9.34023L3.38361 12.8402Z" fill="#242E59"/>
</svg>
