<svg width="14" height="14" viewBox="0 0 14 14" fill="none" xmlns="http://www.w3.org/2000/svg">
<path fill-rule="evenodd" clip-rule="evenodd" d="M14 11C14 11.5523 13.5523 12 13 12C10.4229 12 3.5771 12 1 12C0.4477 12 0 11.5523 0 11C0 9.084 0 4.916 0 3C0 2.4477 0.4477 2 1 2C3.5771 2 10.4229 2 13 2C13.5523 2 14 2.4477 14 3C14 4.916 14 9.084 14 11ZM12.0318 3.2C12.0318 3.147 12.0107 3.0961 11.9732 3.0586C11.9357 3.0211 11.8848 3 11.8318 3C10.469 3 2.5628 3 1.2 3C1.147 3 1.0961 3.0211 1.0586 3.0586C1.0211 3.0961 1 3.147 1 3.2C1 4.3088 1 9.6912 1 10.8C1 10.853 1.0211 10.9039 1.0586 10.9414C1.0961 10.9789 1.147 11 1.2 11C2.5628 11 10.469 11 11.8318 11C11.8848 11 11.9357 10.9789 11.9732 10.9414C12.0107 10.9039 12.0318 10.853 12.0318 10.8C12.0318 9.6912 12.0318 4.3088 12.0318 3.2ZM13 6.5C13.276 6.5 13.5 6.724 13.5 7C13.5 7.276 13.276 7.5 13 7.5C12.724 7.5 12.5 7.276 12.5 7C12.5 6.724 12.724 6.5 13 6.5Z" fill="#242E59"/>
</svg>
