<svg width="14" height="14" viewBox="0 0 14 14" fill="none" xmlns="http://www.w3.org/2000/svg">
<mask id="mask0" mask-type="alpha" maskUnits="userSpaceOnUse" x="0" y="0" width="14" height="14">
<path d="M0 14H14V0H0V14Z" fill="white"/>
</mask>
<g mask="url(#mask0)">
<path fill-rule="evenodd" clip-rule="evenodd" d="M14 11C14 11.5523 13.5523 12 13 12C10.4229 12 3.5771 12 1 12C0.4477 12 0 11.5523 0 11C0 9.084 0 4.916 0 3C0 2.4477 0.4477 2 1 2C3.5771 2 10.4229 2 13 2C13.5523 2 14 2.4477 14 3C14 4.916 14 9.084 14 11ZM12.0318 3.5C12.0318 3.2239 11.8079 3 11.5318 3C9.6956 3 3.3362 3 1.5 3C1.2239 3 1 3.2239 1 3.5C1 4.9364 1 9.0636 1 10.5C1 10.7761 1.2239 11 1.5 11C3.3362 11 9.6956 11 11.5318 11C11.8079 11 12.0318 10.7761 12.0318 10.5C12.0318 9.0636 12.0318 4.9364 12.0318 3.5ZM11.5318 10C11.5318 10.1326 11.4791 10.2598 11.3853 10.3536C11.2916 10.4473 11.1644 10.5 11.0318 10.5C9.3207 10.5 3.7111 10.5 2 10.5C1.8674 10.5 1.7402 10.4473 1.6465 10.3536C1.5527 10.2598 1.5 10.1326 1.5 10C1.5 8.7115 1.5 5.2885 1.5 4C1.5 3.8674 1.5527 3.7402 1.6465 3.6464C1.7402 3.5527 1.8674 3.5 2 3.5C3.7111 3.5 9.3207 3.5 11.0318 3.5C11.1644 3.5 11.2916 3.5527 11.3853 3.6464C11.4791 3.7402 11.5318 3.8674 11.5318 4C11.5318 5.2885 11.5318 8.7115 11.5318 10ZM13 6.5C13.276 6.5 13.5 6.724 13.5 7C13.5 7.276 13.276 7.5 13 7.5C12.724 7.5 12.5 7.276 12.5 7C12.5 6.724 12.724 6.5 13 6.5Z" fill="#313E75"/>
</g>
</svg>
