<svg width="14" height="14" viewBox="0 0 14 14" fill="none" xmlns="http://www.w3.org/2000/svg">
<path fill-rule="evenodd" clip-rule="evenodd" d="M14 4V9.6667V10.6667C14 10.6667 14 12.0181 14 13C14 13.5523 13.5523 13.9999 13 14C10.4229 14 3.5771 14 1 14C0.4477 13.9999 0.0001 13.5523 0 13C0 10.4229 0 3.5771 0 1C0.0001 0.4477 0.4477 0 1 0C3.5771 0 10.4229 0 13 0C13.5523 0 14 0.4477 14 1C14 1.8725 14 3 14 3V4ZM3.8333 13C4.1095 13 4.3333 12.7761 4.3333 12.5C4.3333 11.9906 4.3333 11.226 4.3333 10.8667C4.3333 10.8136 4.3123 10.7627 4.2747 10.7252C4.2372 10.6877 4.1864 10.6667 4.1333 10.6667C3.5399 10.6667 1.7935 10.6667 1.2 10.6667C1.147 10.6667 1.0961 10.6877 1.0586 10.7252C1.0211 10.7627 1 10.8136 1 10.8667C1 11.226 1 11.9906 1 12.5C1 12.7761 1.2239 13 1.5 13C2.1293 13 3.204 13 3.8333 13ZM5.5334 10.6667C5.4803 10.6667 5.4294 10.6877 5.3919 10.7252C5.3544 10.7627 5.3333 10.8136 5.3333 10.8667C5.3333 11.226 5.3333 11.9906 5.3333 12.5C5.3333 12.7761 5.5572 13 5.8333 13C6.4627 13 7.5373 13 8.1667 13C8.4428 13 8.6667 12.7761 8.6667 12.5C8.6667 11.9906 8.6667 11.226 8.6667 10.8667C8.6667 10.8136 8.6456 10.7627 8.6081 10.7252C8.5706 10.6877 8.5197 10.6667 8.4666 10.6667C7.8732 10.6667 6.1268 10.6667 5.5334 10.6667ZM13 10.8667C13 10.8136 12.9789 10.7627 12.9414 10.7252C12.9039 10.6877 12.853 10.6667 12.8 10.6667C12.2065 10.6667 10.4601 10.6667 9.8667 10.6667C9.8136 10.6667 9.7628 10.6877 9.7253 10.7252C9.6877 10.7627 9.6667 10.8136 9.6667 10.8667C9.6667 11.226 9.6667 11.9906 9.6667 12.5C9.6667 12.7761 9.8905 13 10.1667 13C10.796 13 11.8707 13 12.5 13C12.7761 13 13 12.7761 13 12.5C13 11.9906 13 11.226 13 10.8667ZM1.2 7.3333C1.147 7.3333 1.0961 7.3544 1.0586 7.3919C1.0211 7.4294 1 7.4803 1 7.5333C1 7.9743 1 9.0257 1 9.4667C1 9.5197 1.0211 9.5706 1.0586 9.6081C1.0961 9.6456 1.147 9.6667 1.2 9.6667C1.7935 9.6667 3.5399 9.6667 4.1333 9.6667C4.1864 9.6667 4.2372 9.6456 4.2747 9.6081C4.3123 9.5706 4.3333 9.5197 4.3333 9.4667C4.3333 9.0257 4.3333 7.9743 4.3333 7.5333C4.3333 7.4803 4.3123 7.4294 4.2747 7.3919C4.2372 7.3544 4.1864 7.3333 4.1333 7.3333C3.5399 7.3333 1.7935 7.3333 1.2 7.3333ZM5.5334 7.3333C5.4803 7.3333 5.4294 7.3544 5.3919 7.3919C5.3544 7.4294 5.3333 7.4803 5.3333 7.5333C5.3333 7.9743 5.3333 9.0257 5.3333 9.4667C5.3333 9.5197 5.3544 9.5706 5.3919 9.6081C5.4294 9.6456 5.4803 9.6667 5.5334 9.6667C6.1268 9.6667 7.8732 9.6667 8.4666 9.6667C8.5197 9.6667 8.5706 9.6456 8.6081 9.6081C8.6456 9.5706 8.6667 9.5197 8.6667 9.4667C8.6667 9.0257 8.6667 7.9743 8.6667 7.5333C8.6667 7.4803 8.6456 7.4294 8.6081 7.3919C8.5706 7.3544 8.5197 7.3333 8.4666 7.3333C7.8732 7.3333 6.1268 7.3333 5.5334 7.3333ZM9.8667 7.3333C9.8136 7.3333 9.7628 7.3544 9.7253 7.3919C9.6877 7.4294 9.6667 7.4803 9.6667 7.5333C9.6667 7.9743 9.6667 9.0257 9.6667 9.4667C9.6667 9.5197 9.6877 9.5706 9.7253 9.6081C9.7628 9.6456 9.8136 9.6667 9.8667 9.6667C10.4601 9.6667 12.2065 9.6667 12.8 9.6667C12.853 9.6667 12.9039 9.6456 12.9414 9.6081C12.9789 9.5706 13 9.5197 13 9.4667C13 9.0257 13 7.9743 13 7.5333C13 7.4803 12.9789 7.4294 12.9414 7.3919C12.9039 7.3544 12.853 7.3333 12.8 7.3333C12.2065 7.3333 10.4601 7.3333 9.8667 7.3333ZM1.2 4C1.147 4 1.0961 4.0211 1.0586 4.0586C1.0211 4.0961 1 4.147 1 4.2C1 4.6409 1 5.6924 1 6.1333C1 6.1864 1.0211 6.2373 1.0586 6.2748C1.0961 6.3123 1.147 6.3333 1.2 6.3333C1.7935 6.3333 3.5399 6.3333 4.1333 6.3333C4.1864 6.3333 4.2372 6.3123 4.2747 6.2748C4.3123 6.2373 4.3333 6.1864 4.3333 6.1333C4.3333 5.6924 4.3333 4.6409 4.3333 4.2C4.3333 4.147 4.3123 4.0961 4.2747 4.0586C4.2372 4.0211 4.1864 4 4.1333 4C3.5399 4 1.7935 4 1.2 4ZM5.5334 4C5.4803 4 5.4294 4.0211 5.3919 4.0586C5.3544 4.0961 5.3333 4.147 5.3333 4.2C5.3333 4.6409 5.3333 5.6924 5.3333 6.1333C5.3333 6.1864 5.3544 6.2373 5.3919 6.2748C5.4294 6.3123 5.4803 6.3333 5.5334 6.3333C6.1268 6.3333 7.8732 6.3333 8.4666 6.3333C8.5197 6.3333 8.5706 6.3123 8.6081 6.2748C8.6456 6.2373 8.6667 6.1864 8.6667 6.1333C8.6667 5.6924 8.6667 4.6409 8.6667 4.2C8.6667 4.147 8.6456 4.0961 8.6081 4.0586C8.5706 4.0211 8.5197 4 8.4666 4C7.8732 4 6.1268 4 5.5334 4ZM9.8667 4C9.8136 4 9.7628 4.0211 9.7253 4.0586C9.6877 4.0961 9.6667 4.147 9.6667 4.2C9.6667 4.6409 9.6667 5.6924 9.6667 6.1333C9.6667 6.1864 9.6877 6.2373 9.7253 6.2748C9.7628 6.3123 9.8136 6.3333 9.8667 6.3333C10.4601 6.3333 12.2065 6.3333 12.8 6.3333C12.853 6.3333 12.9039 6.3123 12.9414 6.2748C12.9789 6.2373 13 6.1864 13 6.1333C13 5.6924 13 4.6409 13 4.2C13 4.147 12.9789 4.0961 12.9414 4.0586C12.9039 4.0211 12.853 4 12.8 4C12.2065 4 10.4601 4 9.8667 4ZM12.8 3C12.853 3 12.9039 2.9789 12.9414 2.9414C12.9789 2.9039 13 2.8531 13 2.8C13 2.4991 13 1.9202 13 1.5C13 1.3674 12.9473 1.2402 12.8536 1.1465C12.7598 1.0527 12.6326 1 12.5 1C10.5479 1 3.4521 1 1.5 1C1.3674 1 1.2402 1.0527 1.1464 1.1465C1.0527 1.2402 1 1.3674 1 1.5C1 1.9202 1 2.4991 1 2.8C1 2.8531 1.0211 2.9039 1.0586 2.9414C1.0961 2.9789 1.147 3 1.2 3C2.6364 3 11.3636 3 12.8 3Z" fill="#242E59"/>
</svg>
