<svg width="14" height="14" viewBox="0 0 14 14" fill="none" xmlns="http://www.w3.org/2000/svg">
    <path d="M2 5V1.5H5.5L11.5 7.5L8 11L2 5Z" stroke="#1248E9" stroke-linecap="round" stroke-linejoin="round" fill="#fff"/>
    <path fill-rule="evenodd" clip-rule="evenodd" d="M4.5 3C5.0519 3 5.5 3.4481 5.5 4C5.5 4.5519 5.0519 5 4.5 5C3.9481 5 3.5 4.5519 3.5 4C3.5 3.4481 3.9481 3 4.5 3ZM4.5 3.5C4.776 3.5 5 3.724 5 4C5 4.2759 4.776 4.5 4.5 4.5C4.224 4.5 4 4.2759 4 4C4 3.724 4.224 3.5 4.5 3.5Z" fill="#1248E9"/>
    <path d="M3.5 9L8 13.5L11 10.5" stroke="#1248E9" stroke-linecap="round" stroke-linejoin="round"/>
    </svg>
    