<svg width="13" height="13" viewBox="0 0 13 13" fill="none" xmlns="http://www.w3.org/2000/svg">
<path fill-rule="evenodd" clip-rule="evenodd" d="M11.0084 6.83701L5.45447 1.28306L2.01714 1.97052L1.32968 5.40785L6.88363 10.9618L11.0084 6.83701ZM5.37873 0.108437C5.66561 0.0510614 5.96218 0.140855 6.16905 0.347726L12.0396 6.21829C12.3813 6.56 12.3813 7.11402 12.0396 7.45573L7.50235 11.993C7.16064 12.3347 6.60662 12.3347 6.26491 11.993L0.394344 6.12243C0.187474 5.91556 0.0976791 5.61899 0.155054 5.33211L0.911267 1.55105C0.980542 1.20468 1.2513 0.933924 1.59767 0.864648L5.37873 0.108437ZM3.49843 3.76765C3.49843 3.92873 3.62901 4.05931 3.7901 4.05931C3.84227 4.05931 3.89125 4.04561 3.93362 4.02161C4.02136 3.97133 4.08047 3.87676 4.08047 3.76838C4.08047 3.6073 3.94989 3.47672 3.78881 3.47672C3.7366 3.47672 3.6876 3.49043 3.64521 3.51445C3.55751 3.56475 3.49843 3.6593 3.49843 3.76765ZM3.7901 2.89265C4.27334 2.89265 4.6651 3.2844 4.6651 3.76765C4.6651 4.09376 4.48669 4.3782 4.22217 4.5287C4.0944 4.60168 3.94647 4.64338 3.78881 4.64338C3.30556 4.64338 2.91381 4.25163 2.91381 3.76838C2.91381 3.44202 3.09248 3.15739 3.35735 3.00697C3.48497 2.93422 3.63268 2.89265 3.7901 2.89265Z" fill="#1248E9"/>
</svg>
