<svg width="14" height="14" viewBox="0 0 14 14" fill="none" xmlns="http://www.w3.org/2000/svg">
<path fill-rule="evenodd" clip-rule="evenodd" d="M6.2322 1.2825C6.2322 1.2825 11.3862 6.4364 13.3033 8.3536C13.6938 8.7441 13.6938 9.3772 13.3033 9.7678C12.3625 10.7086 10.7086 12.3624 9.7678 13.3033C9.5802 13.4908 9.3259 13.5962 9.0607 13.5962C8.7954 13.5962 8.5411 13.4908 8.3536 13.3033C6.5646 11.5144 2 6.9497 2 6.9497C2 6.9497 1.4242 6.3739 1.1464 6.0962C1.0527 6.0024 1 5.8752 1 5.7426C1 5.0153 1 2.5641 1 1.5C1 1.3674 1.0527 1.2402 1.1464 1.1464C1.2402 1.0527 1.3674 1 1.5 1C2.5642 1 5.0153 1 5.7426 1C5.8752 1 6.0024 1.0527 6.0962 1.1464C6.165 1.2153 6.2322 1.2825 6.2322 1.2825ZM2 5.3284C2 5.461 2.0527 5.5882 2.1464 5.682C3.1544 6.6899 9.0242 12.5598 9.0242 12.5598C9.0242 12.5598 11.3108 10.2732 12.2062 9.3778C12.3 9.284 12.3527 9.1569 12.3527 9.0242C12.3527 8.8916 12.3 8.7645 12.2062 8.6707C10.9228 7.3873 6.5401 3.0046 5.682 2.1464C5.5882 2.0527 5.461 2 5.3284 2C4.6998 2 2.819 2 2.2 2C2.0895 2 2 2.0895 2 2.2C2 2.819 2 4.6998 2 5.3284ZM4 3C4.5519 3 5 3.4481 5 4C5 4.5519 4.5519 5 4 5C3.4481 5 3 4.5519 3 4C3 3.4481 3.4481 3 4 3ZM4 3.5C4.276 3.5 4.5 3.724 4.5 4C4.5 4.2759 4.276 4.5 4 4.5C3.724 4.5 3.5 4.2759 3.5 4C3.5 3.724 3.724 3.5 4 3.5Z" fill="#242E59"/>
</svg>
