<svg width="14" height="14" viewBox="0 0 14 14" fill="none" xmlns="http://www.w3.org/2000/svg">
<path fill-rule="evenodd" clip-rule="evenodd" d="M4 0C1.79086 0 0 1.79086 0 4V10C0 12.2091 1.79086 14 4 14H10C12.2091 14 14 12.2091 14 10V4C14 1.79086 12.2091 0 10 0H4ZM4 1C2.34315 1 1 2.34315 1 4V10C1 11.6569 2.34315 13 4 13H10C11.6569 13 13 11.6569 13 10V4C13 2.34315 11.6569 1 10 1H4ZM3.64645 8.85355C3.45118 8.65829 3.45118 8.34171 3.64645 8.14645L4.79289 7L3.64645 5.85355C3.45118 5.65829 3.45118 5.34171 3.64645 5.14645C3.84171 4.95118 4.15829 4.95118 4.35355 5.14645L5.85355 6.64645C6.04882 6.84171 6.04882 7.15829 5.85355 7.35355L4.35355 8.85355C4.15829 9.04882 3.84171 9.04882 3.64645 8.85355ZM7 9.5C6.72386 9.5 6.5 9.72386 6.5 10C6.5 10.2761 6.72386 10.5 7 10.5H10C10.2761 10.5 10.5 10.2761 10.5 10C10.5 9.72386 10.2761 9.5 10 9.5H7Z" fill="#242E59"/>
</svg>
