<svg width="14" height="15" viewBox="0 0 14 15" fill="none" xmlns="http://www.w3.org/2000/svg">
<path fill-rule="evenodd" clip-rule="evenodd" d="M8.45118 2.43232C8.06781 2.14973 7.52883 2.22565 7.23845 2.60315L4.67114 5.94065H3.50004L3.50004 13.524L10.2868 13.524C10.6678 13.524 11.005 13.2774 11.1206 12.9143L12.8557 7.46105C13.0951 6.70862 12.5336 5.94065 11.744 5.94064L8.76316 5.95775L8.85735 5.71162C8.9053 5.58632 8.96399 5.45538 9.03189 5.30391L9.03192 5.30383C9.05341 5.25589 9.07582 5.20589 9.09911 5.15336C9.19 4.94832 9.29077 4.71165 9.36088 4.47385C9.42971 4.24039 9.48427 3.95729 9.44282 3.66825C9.39863 3.36013 9.24824 3.07194 8.96546 2.85741L8.46455 2.44218L8.45118 2.43232ZM1.45837 5.94065L1.45837 13.524H2.62504L2.62504 5.94065H1.45837Z" fill="#ADB2C2"/>
</svg>
