<svg width="14" height="15" viewBox="0 0 14 15" fill="none" xmlns="http://www.w3.org/2000/svg">
<path fill-rule="evenodd" clip-rule="evenodd" d="M5.54882 13.824C5.93219 14.1066 6.47117 14.0307 6.76155 13.6532L9.32886 10.3157H10.5L10.5 2.73237L3.71323 2.73237C3.33219 2.73237 2.99495 2.97896 2.87942 3.34206L1.1443 8.7953C0.90489 9.54773 1.46644 10.3157 2.25605 10.3157L5.23683 10.2986L5.14265 10.5447C5.0947 10.67 5.03601 10.801 4.96811 10.9524L4.96808 10.9525C4.94659 11.0005 4.92418 11.0505 4.90089 11.103C4.81 11.308 4.70923 11.5447 4.63912 11.7825C4.57029 12.016 4.51573 12.2991 4.55718 12.5881C4.60137 12.8962 4.75176 13.1844 5.03454 13.3989L5.53545 13.8142L5.54882 13.824ZM12.5416 10.3157L12.5416 2.73237H11.375L11.375 10.3157H12.5416Z" fill="#ADB2C2"/>
</svg>
