<svg width="14" height="14" viewBox="0 0 14 14" fill="none" xmlns="http://www.w3.org/2000/svg">
<path fill-rule="evenodd" clip-rule="evenodd" d="M7 0C10.8634 0 14 3.1366 14 7C14 10.8634 10.8634 14 7 14C3.1366 14 0 10.8634 0 7C0 3.1366 3.1366 0 7 0ZM8 8C8 8.1326 7.9473 8.2598 7.8536 8.3535C7.7598 8.4473 7.6326 8.5 7.5 8.5C7.25 8.5 7 8.5 7 8.5C6.9944 8.5 4.9658 8.5 4 8.5C3.7238 8.5 3.5 8.2761 3.5 8C3.5 7.7239 3.7238 7.5 4 7.5C4.7829 7.5 6.264 7.5 6.8 7.5C6.9105 7.5 7 7.4105 7 7.3C7 6.6975 7 4.8866 7 4C7 3.8674 7.0527 3.7402 7.1464 3.6465C7.2402 3.5527 7.3674 3.5 7.5 3.5C7.6326 3.5 7.7598 3.5527 7.8536 3.6465C7.9473 3.7402 8 3.8674 8 4C8 4.958 8 7.042 8 8Z" fill="#242E59"/>
</svg>
