<svg width="14" height="14" viewBox="0 0 14 14" fill="none" xmlns="http://www.w3.org/2000/svg">
<mask id="mask0" mask-type="alpha" maskUnits="userSpaceOnUse" x="0" y="0" width="14" height="14">
<rect width="14" height="14" fill="white"/>
</mask>
<g mask="url(#mask0)">
<path fill-rule="evenodd" clip-rule="evenodd" d="M13.3501 8.17865C13.4673 8.32945 13.4884 8.53375 13.4045 8.70535C13.3206 8.87685 13.1463 8.98565 12.9554 8.98565C12.1616 8.98565 11.0954 8.98565 10.4777 8.98565C10.3451 8.98565 10.2179 9.03835 10.1241 9.13205C10.0304 9.22585 9.97766 9.35305 9.97766 9.48565C9.97766 10.2998 9.97766 11.9272 9.97766 12.9856C9.97766 13.2508 9.87226 13.5052 9.68476 13.6927C9.49726 13.8802 9.24286 13.9857 8.97766 13.9856C7.86786 13.9856 6.08746 13.9856 4.97766 13.9856C4.71246 13.9857 4.45806 13.8802 4.27056 13.6927C4.08306 13.5052 3.97766 13.2508 3.97766 12.9856C3.97766 11.9272 3.97766 10.2998 3.97766 9.48565C3.97766 9.35305 3.92496 9.22585 3.83126 9.13205C3.73746 9.03835 3.61026 8.98565 3.47766 8.98565C2.85996 8.98565 1.79376 8.98565 0.999963 8.98565C0.809063 8.98565 0.634763 8.87685 0.550863 8.70535C0.466963 8.53375 0.488063 8.32945 0.605263 8.17865C2.01976 6.36005 5.42336 1.98395 6.58296 0.493049C6.67766 0.371249 6.82336 0.300049 6.97766 0.300049C7.13196 0.300049 7.27766 0.371249 7.37236 0.493049C8.53196 1.98395 11.9356 6.36005 13.3501 8.17865Z" fill="#313E75"/>
</g>
</svg>
