<svg width="14" height="14" viewBox="0 0 14 14" fill="none" xmlns="http://www.w3.org/2000/svg">
<path fill-rule="evenodd" clip-rule="evenodd" d="M13.8862 8.0596C14.0129 8.21386 14.0357 8.42285 13.945 8.5984C13.8544 8.77384 13.666 8.88513 13.4597 8.88513C12.6019 8.88513 11.4497 8.88513 10.7822 8.88513C10.6389 8.88513 10.5015 8.93904 10.4001 9.0349C10.2989 9.13085 10.2419 9.26098 10.2419 9.39662C10.2419 10.2295 10.2419 11.8943 10.2419 12.977C10.2419 13.2483 10.128 13.5086 9.92539 13.7004C9.72277 13.8922 9.44786 14.0001 9.16127 14C7.96198 14 6.03802 14 4.83873 14C4.55214 14.0001 4.27723 13.8922 4.07461 13.7004C3.87199 13.5086 3.75809 13.2483 3.75809 12.977C3.75809 11.8943 3.75809 10.2295 3.75809 9.39662C3.75809 9.26098 3.70114 9.13085 3.59988 9.0349C3.49852 8.93904 3.36106 8.88513 3.21777 8.88513C2.55026 8.88513 1.39809 8.88513 0.540278 8.88513C0.333984 8.88513 0.145629 8.77384 0.054964 8.5984C-0.0357015 8.42285 -0.0129 8.21386 0.113751 8.0596C1.64231 6.19922 5.32037 1.72258 6.57347 0.197434C6.67581 0.0728357 6.83326 0 7 0C7.16674 0 7.32419 0.0728357 7.42653 0.197434C8.67963 1.72258 12.3577 6.19922 13.8862 8.0596Z" fill="#242E59"/>
</svg>
