<svg width="14" height="14" viewBox="0 0 14 14" fill="none" xmlns="http://www.w3.org/2000/svg">
<path fill-rule="evenodd" clip-rule="evenodd" d="M6.5 0H1.5C0.672 0 0 0.672 0 1.5V6.5C0 7.328 0.672 8 1.5 8H1.6001V9.52743C1.6001 10.2714 2.2051 10.8834 2.9491 10.8904L3.67838 10.8974L3.28795 11.2878C3.17095 11.4048 3.17095 11.5948 3.28795 11.7118C3.34695 11.7708 3.42295 11.7998 3.49995 11.7998C3.57695 11.7998 3.65295 11.7708 3.71195 11.7118L4.71195 10.7118C4.82895 10.5948 4.82895 10.4048 4.71195 10.2878L3.71195 9.28782C3.59495 9.17082 3.40495 9.17082 3.28795 9.28782C3.17095 9.40482 3.17095 9.59482 3.28795 9.71182L3.67238 10.0963L2.9571 10.0894C2.6491 10.0884 2.4001 9.83543 2.4001 9.52743V8H6V12.5C6 13.328 6.672 14 7.5 14H12.5C13.328 14 14 13.328 14 12.5V6.5C14 5.672 13.328 5 12.5 5H12.4001V3.47243C12.4001 2.72843 11.7951 2.11643 11.0511 2.10943L10.3213 2.10246L10.7119 1.71182C10.8289 1.59482 10.8289 1.40482 10.7119 1.28782C10.5949 1.17082 10.4049 1.17082 10.2879 1.28782L9.28795 2.28782C9.17095 2.40482 9.17095 2.59482 9.28795 2.71182L10.2879 3.71182C10.3469 3.77082 10.4229 3.79982 10.4999 3.79982C10.5769 3.79982 10.6529 3.77082 10.7119 3.71182C10.8289 3.59482 10.8289 3.40482 10.7119 3.28782L10.3277 2.90359L11.0431 2.91043C11.3511 2.91243 11.6001 3.16543 11.6001 3.47243V5H8V1.5C8 0.672 7.328 0 6.5 0ZM11.6001 6H8V6.5C8 7.15271 7.58241 7.70848 7 7.91454V12.5C7 12.775 7.225 13 7.5 13H12.5C12.775 13 13 12.775 13 12.5V6.5C13 6.225 12.775 6 12.5 6H12.4001V7.50043C12.4001 7.72043 12.2211 7.90043 12.0001 7.90043C11.7791 7.90043 11.6001 7.72043 11.6001 7.50043V6ZM2.4001 7H6V6.5C6 5.84729 6.41759 5.29152 7 5.08546V1.5C7 1.225 6.775 1 6.5 1H1.5C1.225 1 1 1.225 1 1.5V6.5C1 6.775 1.225 7 1.5 7H1.6001V5.50043C1.6001 5.27943 1.7791 5.09943 2.0001 5.09943C2.2211 5.09943 2.4001 5.27943 2.4001 5.50043V7ZM2.0005 2.9C2.2205 2.9 2.4005 2.721 2.4005 2.5C2.4005 2.279 2.2205 2.1 2.0005 2.1C1.7795 2.1 1.5995 2.279 1.5995 2.5C1.5995 2.721 1.7795 2.9 2.0005 2.9ZM2.4005 4C2.4005 4.221 2.2205 4.4 2.0005 4.4C1.7795 4.4 1.5995 4.221 1.5995 4C1.5995 3.779 1.7795 3.6 2.0005 3.6C2.2205 3.6 2.4005 3.779 2.4005 4ZM12.0005 9.4C12.2205 9.4 12.4005 9.221 12.4005 9C12.4005 8.779 12.2205 8.6 12.0005 8.6C11.7795 8.6 11.5995 8.779 11.5995 9C11.5995 9.221 11.7795 9.4 12.0005 9.4Z" fill="#242E59"/>
</svg>
