<svg width="14" height="16" viewBox="0 0 14 16" fill="none" xmlns="http://www.w3.org/2000/svg">
<path fill-rule="evenodd" clip-rule="evenodd" d="M10.252 12.7889C10.3015 12.7889 10.3504 12.7773 10.3947 12.7552C10.3948 12.7551 10.3948 12.7551 10.3948 12.7551C10.4575 12.7246 10.5409 12.6782 10.648 12.6032C10.8623 12.4534 11.1383 12.2184 11.4075 11.8943C11.6947 11.5486 11.9781 11.1005 12.1871 10.5426C12.2292 10.4288 12.213 10.3016 12.1438 10.202C12.0745 10.1023 11.9609 10.0429 11.8395 10.0428C11.8395 10.0392 11.8395 10.0392 11.8395 10.0392C11.5408 10.0392 11.2994 9.7978 11.2994 9.4991V5.7182C11.2994 5.4697 11.4757 5.2747 11.7044 5.2118C11.7044 5.2118 11.8267 5.1561 12.3166 5.2655C12.3167 5.2656 12.3167 5.2656 12.3168 5.2656C12.3511 5.2725 12.3866 5.261 12.4102 5.2353C12.4339 5.2095 12.4424 5.1732 12.4326 5.1396C11.7331 2.8181 9.5787 1.1269 7.0292 1.1269C4.4622 1.1269 2.2957 2.8415 1.6124 5.1878C1.6068 5.2084 1.6121 5.2304 1.6265 5.2461C1.6409 5.2617 1.6623 5.2689 1.6833 5.2651C1.6834 5.2656 1.6834 5.2656 1.6834 5.2655C2.1734 5.1561 2.2956 5.2118 2.2956 5.2118C2.5244 5.2747 2.7007 5.4697 2.7007 5.7182V9.4991C2.7007 9.7978 2.4592 10.0392 2.1606 10.0392C0.8183 10.0392 0 8.9509 0 7.6087C0 6.8134 0.2944 6.1179 0.8098 5.6774C0.8444 5.6479 0.868 5.6075 0.8765 5.5629C1.4389 2.6778 3.9797 0.5 7.0292 0.5C10.1 0.5 12.6549 2.7083 13.1928 5.6235C13.2008 5.666 13.2224 5.7048 13.2544 5.734C13.7299 6.1766 14 6.8469 14 7.6086C14 8.3758 13.7327 9.0599 13.2531 9.5054C13.2195 9.5363 13.1976 9.5778 13.1909 9.6229C13.0113 10.8267 12.5214 11.7372 11.9984 12.3669C11.6835 12.746 11.3572 13.0217 11.0869 13.2109C10.9517 13.3054 10.8241 13.3776 10.7156 13.4303C10.607 13.483 10.5606 13.5316 10.3781 13.5316H9.446C9.3664 13.532 9.2946 13.5795 9.2632 13.6526C9.0284 14.1543 8.4468 14.5106 7.7617 14.5106C6.8667 14.5106 6.1412 13.906 6.1412 13.1603C6.1412 12.4145 6.8667 11.8099 7.7617 11.8099C8.4468 11.8099 9.0284 12.1662 9.265 12.6671C9.2962 12.7393 9.3674 12.7861 9.446 12.7861C9.661 12.7889 10.0809 12.7889 10.252 12.7889ZM2.9211 5.5838C2.8181 5.4392 2.8075 5.2484 2.8938 5.0933C3.6917 3.6559 5.2353 2.7012 7 2.7012C8.7648 2.7012 10.3083 3.6559 11.1368 5.0763C11.2294 5.2432 11.2179 5.4484 11.1072 5.6039C11.0244 5.6596 10.9923 5.752 10.9923 5.8542V9.3652C10.9923 9.4467 11.0117 9.5236 11.0464 9.5908C11.1235 9.7379 11.1173 9.9148 11.0301 10.0562C10.5766 10.8169 9.9014 11.4235 9.1027 11.8126C8.9424 11.8881 8.754 11.8726 8.6082 11.7719C8.3619 11.606 8.0484 11.5108 7.7073 11.5108C7.2153 11.5108 6.7785 11.7076 6.5059 12.0116C6.394 12.1517 6.2139 12.2184 6.0378 12.1852C4.7389 11.9336 3.6329 11.1471 2.9473 10.0686C2.8563 9.9197 2.8502 9.734 2.9312 9.5795C2.9883 9.524 3.0077 9.4469 3.0077 9.3652V5.8542C3.0077 5.752 2.9756 5.6596 2.9211 5.5838Z" fill="#242E59"/>
</svg>
