<svg width="12" height="12" viewBox="0 0 12 12" fill="none" xmlns="http://www.w3.org/2000/svg">
<path fill-rule="evenodd" clip-rule="evenodd" d="M4.25004 3.37498C4.25004 2.40848 5.03354 1.62498 6.00004 1.62498C6.96654 1.62498 7.75004 2.40848 7.75004 3.37498C7.75004 4.34148 6.96654 5.12498 6.00004 5.12498C5.03354 5.12498 4.25004 4.34148 4.25004 3.37498ZM6.00004 0.458313C4.38921 0.458313 3.08337 1.76415 3.08337 3.37498C3.08337 4.98581 4.38921 6.29165 6.00004 6.29165C7.61087 6.29165 8.91671 4.98581 8.91671 3.37498C8.91671 1.76415 7.61087 0.458313 6.00004 0.458313ZM3.66671 6.87498C2.82716 6.87498 2.03057 7.13081 1.43366 7.63609C0.827496 8.14921 0.458374 8.89549 0.458374 9.79165V10.6666C0.458374 11.1499 0.850126 11.5416 1.33337 11.5416H10.6667C11.15 11.5416 11.5417 11.1499 11.5417 10.6666V9.79165C11.5417 8.89549 11.1726 8.14921 10.5664 7.63609C9.96951 7.13081 9.17292 6.87498 8.33337 6.87498H3.66671ZM1.62504 9.79165C1.62504 9.23806 1.84354 8.81767 2.18744 8.52656C2.54059 8.22761 3.0565 8.04165 3.66671 8.04165H8.33337C8.94358 8.04165 9.45949 8.22761 9.81264 8.52656C10.1565 8.81767 10.375 9.23806 10.375 9.79165V10.375H1.62504V9.79165Z" fill="#313E75"/>
</svg>
