<svg width="14" height="14" viewBox="0 0 14 14" fill="none" xmlns="http://www.w3.org/2000/svg">
<path fill-rule="evenodd" clip-rule="evenodd" d="M2.78231 5.27494C2.87859 5.38489 2.84663 5.56695 2.7252 5.64829C1.20905 6.66387 0 10.7227 0 12.5C0 12.7761 0.223858 13 0.5 13C0.776142 13 1 12.7761 1 12.5C1 10.567 2.567 6 4.5 6C6.433 6 8 10.567 8 12.5C8 12.7761 8.22386 13 8.5 13C8.77614 13 9 12.7761 9 12.5C9 10.7227 7.79095 6.66387 6.2748 5.64829C6.15337 5.56695 6.12141 5.38489 6.21769 5.27494C6.63101 4.80297 7 4.11675 7 3.5C7 2.11929 5.88071 1 4.5 1C3.11929 1 2 2.11929 2 3.5C2 4.11675 2.36899 4.80297 2.78231 5.27494ZM4.5 5C5.32843 5 6 4.32843 6 3.5C6 2.67157 5.32843 2 4.5 2C3.67157 2 3 2.67157 3 3.5C3 4.32843 3.67157 5 4.5 5Z" fill="#313E75"/>
<path fill-rule="evenodd" clip-rule="evenodd" d="M8.25957 7.01966C8.1197 6.85299 8.10505 6.60713 8.25773 6.45212C8.44868 6.25826 8.65346 6.08683 8.86948 5.94476C8.48925 5.58069 8.25248 5.06799 8.25248 4.5C8.25248 3.39543 9.14791 2.5 10.2525 2.5C11.3571 2.5 12.2525 3.39543 12.2525 4.5C12.2525 5.06799 12.0157 5.58069 11.6355 5.94476C12.8807 6.76368 13.7525 9.5582 13.7525 11C13.7525 11.2761 13.5286 11.5 13.2525 11.5C12.9763 11.5 12.7525 11.2761 12.7525 11C12.7525 9.61929 11.6332 6.5 10.2525 6.5C9.81106 6.5 9.39637 6.71661 9.03642 7.05645C8.81933 7.26142 8.45149 7.24837 8.25957 7.01966ZM11.2525 4.5C11.2525 5.05228 10.8048 5.5 10.2525 5.5C9.7002 5.5 9.25248 5.05228 9.25248 4.5C9.25248 3.94772 9.7002 3.5 10.2525 3.5C10.8048 3.5 11.2525 3.94772 11.2525 4.5Z" fill="#313E75"/>
</svg>
