<svg width="14" height="14" viewBox="0 0 14 14" fill="none" xmlns="http://www.w3.org/2000/svg">
<path fill-rule="evenodd" clip-rule="evenodd" d="M6.99992 2.62501C6.1945 2.62501 5.54159 3.27793 5.54159 4.08334C5.54159 4.88876 6.1945 5.54168 6.99992 5.54168C7.80533 5.54168 8.45825 4.88876 8.45825 4.08334C8.45825 3.27793 7.80533 2.62501 6.99992 2.62501ZM4.37492 4.08334C4.37492 2.6336 5.55017 1.45834 6.99992 1.45834C8.44967 1.45834 9.62492 2.6336 9.62492 4.08334C9.62492 5.53309 8.44967 6.70834 6.99992 6.70834C5.55017 6.70834 4.37492 5.53309 4.37492 4.08334ZM4.95825 8.45834C3.66959 8.45834 2.62492 9.50301 2.62492 10.7917V11.375H7.29159V12.5417H1.45825V10.7917C1.45825 8.85868 3.02526 7.29168 4.95825 7.29168H7.29159V8.45834H4.95825ZM9.91659 9.62501V7.87501H11.0833V9.62501H12.8333V10.7917H11.0833V12.5417H9.91659V10.7917H8.16659V9.62501H9.91659Z" fill="#242E59"/>
</svg>
