<svg width="14" height="14" viewBox="0 0 14 14" fill="none" xmlns="http://www.w3.org/2000/svg">
<path fill-rule="evenodd" clip-rule="evenodd" d="M10.8058 5.19314C10.6763 5.60762 10.2342 5.8 9.8 5.8C9.63733 5.8 9.52691 5.6047 9.6064 5.46278C9.84884 5.02993 9.9871 4.53098 9.9871 4C9.9871 2.3442 8.6428 1 6.9871 1C5.3313 1 3.9871 2.3442 3.9871 4C3.9871 5.27821 4.78823 6.37082 5.91539 6.8026C6.28556 6.94441 6.50859 7.49208 6.31381 7.83733C6.23951 7.96901 6.11032 8.06365 5.96139 8.08965C3.292 8.55566 1.2179 10.7855 1.0052 13.5309C0.9877 13.7928 0.7694 14.0001 0.5032 14.0001C0.2255 14.0001 0 13.7746 0 13.4969C0 13.4807 0.0008 13.4646 0.0023 13.4487L0.0025 13.4463C0.211 10.857 1.8263 8.6614 4.0829 7.6299C4.2257 7.5689 4.3277 7.4395 4.3535 7.2863C4.3793 7.1332 4.3254 6.9774 4.2105 6.873C3.4554 6.1483 2.9871 5.1284 2.9871 4C2.9871 1.7923 4.7794 0 6.9871 0C9.1948 0 10.9871 1.7923 10.9871 4C10.9871 4.41548 10.9236 4.81626 10.8058 5.19314ZM13.4552 14H13.4754L13.4653 14.0001L13.4552 14ZM11.0565 12.4173C11.2714 12.316 11.5326 12.338 11.7006 12.506L13.0947 13.8995C13.2614 14.066 13.5766 14.021 13.7988 13.7989C14.021 13.5768 14.066 13.2617 13.8994 13.0952L12.5067 11.7031C12.3383 11.5348 12.3165 11.273 12.4183 11.0578C12.5925 10.6896 12.6899 10.278 12.6899 9.84363C12.6899 8.27314 11.4162 7 9.84497 7C8.27374 7 7 8.27314 7 9.84363C7 11.4141 8.27374 12.6873 9.84497 12.6873C10.2783 12.6873 10.6889 12.5905 11.0565 12.4173ZM9.84497 11.7394C10.8925 11.7394 11.7416 10.8906 11.7416 9.84363C11.7416 8.79664 10.8925 7.94788 9.84497 7.94788C8.79748 7.94788 7.94832 8.79664 7.94832 9.84363C7.94832 10.8906 8.79748 11.7394 9.84497 11.7394Z" fill="#313E75"/>
</svg>
