<svg width="14" height="14" viewBox="0 0 14 14" fill="none" xmlns="http://www.w3.org/2000/svg">
<path fill-rule="evenodd" clip-rule="evenodd" d="M7 0C3.134 0 0 3.134 0 7C0 10.866 3.134 14 7 14C10.866 14 14 10.866 14 7C14 3.134 10.866 0 7 0ZM7 1C10.309 1 13 3.691 13 7C13 10.309 10.309 13 7 13C3.691 13 1 10.309 1 7C1 3.691 3.691 1 7 1ZM10.084 4.57517L8.13201 7.61717C8.09401 7.67617 8.01601 7.69317 7.95701 7.65617C7.94701 7.64917 7.93801 7.64117 7.93101 7.63217L6.43901 5.91717C6.39401 5.86417 6.39901 5.78417 6.45201 5.73917C6.46101 5.73117 6.47101 5.72417 6.48101 5.71917L9.76701 4.20917C9.89401 4.15117 10.043 4.20617 10.102 4.33317C10.138 4.41117 10.131 4.50217 10.084 4.57517ZM3.90459 9.71931C3.97759 9.76631 4.06859 9.77231 4.14659 9.73631L7.43159 8.22631C7.49459 8.19731 7.52259 8.12231 7.49359 8.05931C7.48859 8.04831 7.48159 8.03831 7.47359 8.02931L5.98259 6.31431C5.93759 6.26131 5.85759 6.25631 5.80459 6.30131C5.79559 6.30931 5.78859 6.31831 5.78159 6.32831L3.82959 9.37131C3.75259 9.48831 3.78759 9.64431 3.90459 9.71931Z" fill="#313E75"/>
</svg>
