<?xml version="1.0" encoding="utf-8"?>
<!-- Generator: Adobe Illustrator 25.0.1, SVG Export Plug-In . SVG Version: 6.00 Build 0)  -->
<svg version="1.1" id="图层_1" xmlns="http://www.w3.org/2000/svg" xmlns:xlink="http://www.w3.org/1999/xlink" x="0px"
     y="0px"
     viewBox="0 0 14 14" style="enable-background:new 0 0 14 14;" xml:space="preserve">
    <defs>
        <style type="text/css">
            .st2{fill-rule:evenodd;clip-rule:evenodd;}
        </style>
    </defs>
    <path id="user" class="st2" d="M13,13.6C13,13.6,13,13.5,13,13.6C12.8,10.4,10.2,8,7,8c-3.2,0-5.8,2.4-6,5.5C1,13.8,0.8,14,0.5,14
        C0.2,14,0,13.8,0,13.5c0,0,0,0,0,0l0,0c0.2-2.6,1.8-4.8,4.1-5.8c0.1-0.1,0.2-0.2,0.3-0.3c0-0.2,0-0.3-0.1-0.4C3.5,6.1,3,5.1,3,4
        c0-2.2,1.8-4,4-4s4,1.8,4,4c0,1.1-0.5,2.1-1.2,2.9C9.7,7,9.6,7.1,9.6,7.3c0,0.2,0.1,0.3,0.3,0.3c2.3,1,3.9,3.2,4.1,5.8
        c0,0,0,0,0,0.1c0,0.3-0.2,0.5-0.5,0.5C13.2,14,13,13.8,13,13.6z M7,1c1.7,0,3,1.3,3,3c0,1.7-1.3,3-3,3C5.3,7,4,5.7,4,4
        C4,2.3,5.3,1,7,1z"
    />
</svg>
