<svg width="14" height="14" viewBox="0 0 14 14" fill="none" xmlns="http://www.w3.org/2000/svg">
<path fill-rule="evenodd" clip-rule="evenodd" d="M12.9669 13.5668C12.9647 13.5516 12.9631 13.5363 12.9622 13.5207C12.7235 10.4327 10.1501 8 7 8C3.8463 8 1.2448 10.4383 1.0052 13.5309C0.9877 13.7928 0.7694 14.0001 0.5032 14.0001C0.2255 14.0001 0 13.7746 0 13.4969C0 13.4807 0.0008 13.4646 0.0023 13.4487L0.0025 13.4463C0.211 10.857 1.8263 8.6614 4.0829 7.6299C4.2257 7.5689 4.3277 7.4395 4.3535 7.2863C4.3793 7.1332 4.3254 6.9774 4.2105 6.873C3.4554 6.1483 2.9871 5.1284 2.9871 4C2.9871 1.7923 4.7794 0 6.9871 0C9.1948 0 10.9871 1.7923 10.9871 4C10.9871 5.1284 10.5188 6.1483 9.7662 6.8758C9.6526 6.9793 9.5995 7.1336 9.6252 7.2851C9.651 7.4366 9.752 7.5647 9.8934 7.6249C12.1439 8.6596 13.7569 10.8493 13.9644 13.433C13.9671 13.454 13.9684 13.4753 13.9684 13.4969C13.9684 13.7746 13.743 14.0001 13.4653 14.0001C13.2113 14.0001 13.001 13.8115 12.9669 13.5668ZM6.9871 1C8.6428 1 9.9871 2.3442 9.9871 4C9.9871 5.6557 8.6428 7 6.9871 7C5.3313 7 3.9871 5.6557 3.9871 4C3.9871 2.3442 5.3313 1 6.9871 1Z" fill="#242E59"/>
</svg>
