<svg width="14" height="14" viewBox="0 0 14 14" fill="none" xmlns="http://www.w3.org/2000/svg">
<path fill-rule="evenodd" clip-rule="evenodd" d="M1 2V5C1 5.27614 1.22386 5.5 1.5 5.5C1.77614 5.5 2 5.27614 2 5V2.5C2 2.22386 2.22386 2 2.5 2H11.5C11.7761 2 12 2.22386 12 2.5V5C12 5.27614 12.2239 5.5 12.5 5.5C12.7761 5.5 13 5.27614 13 5V2C13 1.44772 12.5523 1 12 1H2C1.44772 1 1 1.44772 1 2ZM3.75 7.5C3.75 8.32843 3.07843 9 2.25 9C1.42157 9 0.75 8.32843 0.75 7.5C0.75 6.67157 1.42157 6 2.25 6C3.07843 6 3.75 6.67157 3.75 7.5ZM2.75 7.5C2.75 7.77614 2.52614 8 2.25 8C1.97386 8 1.75 7.77614 1.75 7.5C1.75 7.22386 1.97386 7 2.25 7C2.52614 7 2.75 7.22386 2.75 7.5ZM2.25 9.5C3.49264 9.5 4.5 10.8431 4.5 12.5C4.5 12.7761 4.29853 13 4.05 13C3.80147 13 3.6 12.7761 3.6 12.5C3.6 11.3954 2.99558 10.5 2.25 10.5C1.50442 10.5 0.9 11.3954 0.9 12.5C0.9 12.7761 0.698528 13 0.45 13C0.201472 13 0 12.7761 0 12.5C0 10.8431 1.00736 9.5 2.25 9.5ZM7 9C7.82843 9 8.5 8.32843 8.5 7.5C8.5 6.67157 7.82843 6 7 6C6.17157 6 5.5 6.67157 5.5 7.5C5.5 8.32843 6.17157 9 7 9ZM7 8C7.27614 8 7.5 7.77614 7.5 7.5C7.5 7.22386 7.27614 7 7 7C6.72386 7 6.5 7.22386 6.5 7.5C6.5 7.77614 6.72386 8 7 8ZM9.25 12.5C9.25 10.8431 8.24264 9.5 7 9.5C5.75736 9.5 4.75 10.8431 4.75 12.5C4.75 12.7761 4.95147 13 5.2 13C5.44853 13 5.65 12.7761 5.65 12.5C5.65 11.3954 6.25442 10.5 7 10.5C7.74558 10.5 8.35 11.3954 8.35 12.5C8.35 12.7761 8.55147 13 8.8 13C9.04853 13 9.25 12.7761 9.25 12.5ZM11.75 9C12.5784 9 13.25 8.32843 13.25 7.5C13.25 6.67157 12.5784 6 11.75 6C10.9216 6 10.25 6.67157 10.25 7.5C10.25 8.32843 10.9216 9 11.75 9ZM11.75 8C12.0261 8 12.25 7.77614 12.25 7.5C12.25 7.22386 12.0261 7 11.75 7C11.4739 7 11.25 7.22386 11.25 7.5C11.25 7.77614 11.4739 8 11.75 8ZM14 12.5C14 10.8431 12.9926 9.5 11.75 9.5C10.5074 9.5 9.5 10.8431 9.5 12.5C9.5 12.7761 9.70147 13 9.95 13C10.1985 13 10.4 12.7761 10.4 12.5C10.4 11.3954 11.0044 10.5 11.75 10.5C12.4956 10.5 13.1 11.3954 13.1 12.5C13.1 12.7761 13.3015 13 13.55 13C13.7985 13 14 12.7761 14 12.5Z" fill="#242E59"/>
</svg>
