<svg width="14" height="15" viewBox="0 0 14 15" fill="none" xmlns="http://www.w3.org/2000/svg">
<path fill-rule="evenodd" clip-rule="evenodd" d="M10.252 12.2889C10.3015 12.2889 10.3504 12.2773 10.3947 12.2552C10.3948 12.2551 10.3948 12.2551 10.3948 12.2551C10.4575 12.2246 10.5409 12.1782 10.648 12.1032C10.8623 11.9534 11.1383 11.7184 11.4075 11.3943C11.6947 11.0486 11.9781 10.6005 12.1871 10.0426C12.2292 9.9288 12.213 9.8016 12.1438 9.702C12.0745 9.6023 11.9609 9.5429 11.8395 9.5428C11.8395 9.5392 11.8395 9.5392 11.8395 9.5392C11.5408 9.5392 11.2994 9.2978 11.2994 8.9991V5.2182C11.2994 4.9697 11.4757 4.7747 11.7044 4.7118C11.7044 4.7118 11.8267 4.6561 12.3166 4.7655C12.3167 4.7656 12.3167 4.7656 12.3168 4.7656C12.3511 4.7725 12.3866 4.761 12.4102 4.7353C12.4339 4.7095 12.4424 4.6732 12.4326 4.6396C11.7331 2.3181 9.5787 0.6269 7.0292 0.6269C4.4622 0.6269 2.2957 2.3415 1.6124 4.6878C1.6068 4.7084 1.6121 4.7304 1.6265 4.7461C1.6409 4.7617 1.6623 4.7689 1.6833 4.7651C1.6834 4.7656 1.6834 4.7656 1.6834 4.7655C2.1734 4.6561 2.2956 4.7118 2.2956 4.7118C2.5244 4.7747 2.7007 4.9697 2.7007 5.2182V8.9991C2.7007 9.2978 2.4592 9.5392 2.1606 9.5392C0.8183 9.5392 0 8.4509 0 7.1087C0 6.3134 0.2944 5.6179 0.8098 5.1774C0.8444 5.1479 0.868 5.1075 0.8765 5.0629C1.4389 2.1778 3.9797 0 7.0292 0C10.1 0 12.6549 2.2083 13.1928 5.1235C13.2008 5.166 13.2224 5.2048 13.2544 5.234C13.7299 5.6766 14 6.3469 14 7.1086C14 7.8758 13.7327 8.5599 13.2531 9.0054C13.2195 9.0363 13.1976 9.0778 13.1909 9.1229C13.0113 10.3267 12.5214 11.2372 11.9984 11.8669C11.6835 12.246 11.3572 12.5217 11.0869 12.7109C10.9517 12.8054 10.8241 12.8776 10.7156 12.9303C10.607 12.983 10.5606 13.0316 10.3781 13.0316H9.446C9.3664 13.032 9.2946 13.0795 9.2632 13.1526C9.0284 13.6543 8.4468 14.0106 7.7617 14.0106C6.8667 14.0106 6.1412 13.406 6.1412 12.6603C6.1412 11.9145 6.8667 11.3099 7.7617 11.3099C8.4468 11.3099 9.0284 11.6662 9.265 12.1671C9.2962 12.2393 9.3674 12.2861 9.446 12.2861C9.661 12.2889 10.0809 12.2889 10.252 12.2889ZM2.9211 5.0838C2.8181 4.9392 2.8075 4.7484 2.8938 4.5933C3.6917 3.1559 5.2353 2.2012 7 2.2012C8.7648 2.2012 10.3083 3.1559 11.1368 4.5763C11.2294 4.7432 11.2179 4.9484 11.1072 5.1039C11.0244 5.1596 10.9923 5.252 10.9923 5.3542V8.8652C10.9923 8.9467 11.0117 9.0236 11.0464 9.0908C11.1235 9.2379 11.1173 9.4148 11.0301 9.5562C10.5766 10.3169 9.9014 10.9235 9.1027 11.3126C8.9424 11.3881 8.754 11.3726 8.6082 11.2719C8.3619 11.106 8.0484 11.0108 7.7073 11.0108C7.2153 11.0108 6.7785 11.2076 6.5059 11.5116C6.394 11.6517 6.2139 11.7184 6.0378 11.6852C4.7389 11.4336 3.6329 10.6471 2.9473 9.5686C2.8563 9.4197 2.8502 9.234 2.9312 9.0795C2.9883 9.024 3.0077 8.9469 3.0077 8.8652V5.3542C3.0077 5.252 2.9756 5.1596 2.9211 5.0838Z" fill="#313E75"/>
</svg>
