<svg width="14" height="14" viewBox="0 0 14 14" fill="none" xmlns="http://www.w3.org/2000/svg">
<path fill-rule="evenodd" clip-rule="evenodd" d="M11.8213 9.273C12.2073 9.563 13.6013 10.718 13.8463 11.687C14.0903 12.658 14.1463 13.738 13.2163 14H0.780315C-0.145685 13.739 -0.0916846 12.659 0.154315 11.688C0.398315 10.719 1.79032 9.564 2.17832 9.274C2.43712 9.08089 2.83992 9.09299 3.24499 9.10516C3.45034 9.11133 3.65627 9.11752 3.84432 9.097C4.40332 9.038 4.80132 8.356 4.87232 8.231C4.94532 8.106 4.94832 7.63 4.93732 7.553C4.92732 7.477 4.83432 7.315 4.83432 7.315C4.45332 6.872 4.01732 5.783 4.01732 5.783C3.23832 4.768 3.92732 4.177 3.92732 4.177C3.90032 4.038 3.84032 2.791 3.88932 2.506C3.89409 2.47913 3.89878 2.44944 3.90389 2.41705L3.90389 2.41703L3.90389 2.41702C3.9534 2.10337 4.04293 1.53621 4.63932 0.822C5.29732 0.0330001 6.50032 0 6.50032 0L7.00032 0.001L7.50032 0C7.50032 0 8.70331 0.031 9.36232 0.821C9.96009 1.53779 10.0486 2.10601 10.0973 2.41846C10.1022 2.44994 10.1067 2.47882 10.1113 2.505C10.1603 2.791 10.1023 4.038 10.0753 4.176C10.0753 4.176 10.7653 4.767 9.98431 5.782C9.98431 5.782 9.54932 6.871 9.16632 7.314C9.16632 7.314 9.07432 7.476 9.06332 7.552C9.05332 7.628 9.05632 8.105 9.12831 8.23C9.19932 8.355 9.59732 9.037 10.1563 9.096C10.344 9.11652 10.5498 9.11022 10.7551 9.10394C11.1601 9.09155 11.5632 9.07922 11.8213 9.273ZM7.00044 13.2292C7.54344 13.2412 12.3064 13.2432 12.7154 13.1392C13.0814 13.0467 13.0241 12.7376 12.9408 12.2875C12.925 12.2026 12.9084 12.1127 12.8934 12.0182C12.7984 11.4222 11.7774 10.4542 11.3684 10.1902C11.1014 10.0187 10.9564 10.0066 10.5908 9.97605H10.5908C10.3979 9.95994 10.1436 9.93869 9.77744 9.88619C8.71344 9.73419 8.29144 8.73919 8.17444 8.37919C8.05744 8.01819 8.12444 7.15119 8.22044 7.05719C8.31444 6.96419 8.71044 6.26919 8.75044 6.15519C8.79144 6.04019 8.97544 5.60919 8.97544 5.60919C9.60044 4.86119 9.26744 4.51019 9.21144 4.47319C9.15644 4.43519 9.14844 4.18619 9.15644 3.70719C9.15819 3.62314 9.16133 3.54617 9.16438 3.47118C9.17875 3.11794 9.19133 2.80869 9.04944 2.01019C8.87644 1.04119 7.36144 0.82019 7.36144 0.82019H6.63844C6.63844 0.82019 5.12344 1.04119 4.95044 2.01019C4.80858 2.80859 4.82046 3.11787 4.83403 3.47106L4.83403 3.47109C4.83691 3.5461 4.83987 3.6231 4.84144 3.70719C4.85044 4.18619 4.84144 4.43619 4.78744 4.47319C4.73344 4.51019 4.39844 4.86219 5.02544 5.60919C5.02544 5.60919 5.20844 6.04019 5.25044 6.15419C5.29044 6.26919 5.68544 6.96419 5.77944 7.05719C5.87444 7.15119 5.94344 8.01819 5.82544 8.37919C5.70744 8.73819 5.28644 9.73419 4.22544 9.88619C3.85655 9.93929 3.60098 9.96059 3.40746 9.97672C3.04333 10.0071 2.89886 10.0191 2.63244 10.1902C2.22444 10.4542 1.20344 11.4222 1.10844 12.0182C1.09329 12.1141 1.0763 12.2053 1.06027 12.2914C0.976842 12.7393 0.919556 13.0469 1.28444 13.1392C1.69544 13.2432 6.45844 13.2412 7.00044 13.2292ZM7.15886 9.60601H6.84687C6.77787 9.60601 6.71287 9.57001 6.67687 9.50901L6.41187 9.07201C6.41187 8.88301 6.54487 8.73201 6.78387 8.73201H7.22087C7.46087 8.73201 7.59986 8.88401 7.59986 9.07201L7.32887 9.51101C7.29287 9.57001 7.22787 9.60601 7.15886 9.60601ZM7.11035 12.2384L7.58935 11.8784C7.64935 11.8334 7.67935 11.7584 7.66535 11.6844L7.35135 9.89937C7.33335 9.80437 7.25035 9.73438 7.15335 9.73438H6.85735C6.76035 9.73438 6.67735 9.80338 6.65935 9.89837L6.32735 11.6844C6.31435 11.7584 6.34235 11.8334 6.40235 11.8794L6.86835 12.2374C6.94035 12.2924 7.03935 12.2934 7.11035 12.2384Z" fill="#242E59"/>
</svg>
