<svg width="14" height="14" viewBox="0 0 14 14" fill="none" xmlns="http://www.w3.org/2000/svg">
<path fill-rule="evenodd" clip-rule="evenodd" d="M13.9144 9.63609C13.7761 9.09096 12.9921 8.44084 12.7742 8.27809C12.5555 8.11447 12.1521 8.21247 11.838 8.17834C11.5239 8.14509 11.2999 7.76184 11.2596 7.69097C11.2194 7.62097 11.2176 7.35322 11.2237 7.31034C11.2299 7.26747 11.2815 7.17559 11.2815 7.17559C11.4967 6.92622 11.7417 6.31372 11.7417 6.31372C12.181 5.74322 11.7925 5.41072 11.7925 5.41072C11.8074 5.33285 11.8406 4.63197 11.8126 4.47097C11.7846 4.30997 11.7619 3.96785 11.3909 3.52422C11.0207 3.07973 10.3444 3.06223 10.3444 3.06223H10.0635H9.78175C9.78175 3.06223 9.10537 3.0806 8.73525 3.52422C8.36425 3.96785 8.3415 4.30997 8.3135 4.47185C8.2855 4.63197 8.31875 5.33285 8.3345 5.4116C8.3345 5.4116 7.94688 5.7441 8.38525 6.31459C8.38525 6.31459 8.63025 6.92709 8.84462 7.17647C8.84462 7.17647 8.89712 7.26747 8.90237 7.31122C8.90762 7.35409 8.90587 7.62184 8.86562 7.69184C8.82625 7.76184 8.60225 8.14597 8.28725 8.17922C7.97313 8.21247 7.56975 8.11447 7.351 8.27809C7.13313 8.44172 6.34913 9.09184 6.21175 9.63609C6.0735 10.1821 6.04288 10.7902 6.56438 10.9372H13.56C14.0815 10.7893 14.0509 10.1821 13.9144 9.63609Z" fill="#EDF2FC"/>
<path fill-rule="evenodd" clip-rule="evenodd" d="M7.78898 9.63609C7.65073 9.09096 6.86673 8.44084 6.64973 8.27809C6.43098 8.11447 6.02761 8.21247 5.71261 8.17834C5.39848 8.14509 5.17448 7.76184 5.13511 7.69097C5.09398 7.62097 5.09223 7.35322 5.09836 7.31034C5.10448 7.26747 5.15698 7.17559 5.15698 7.17559C5.37136 6.92622 5.61636 6.31372 5.61636 6.31372C6.05561 5.74322 5.66711 5.41072 5.66711 5.41072C5.68286 5.33285 5.71523 4.63197 5.68811 4.47097C5.65923 4.30997 5.63648 3.96785 5.26636 3.52422C4.89623 3.07973 4.21899 3.06223 4.21899 3.06223H3.93811H3.65636C3.65636 3.06223 2.97999 3.0806 2.60986 3.52422C2.23886 3.96785 2.21611 4.30997 2.18811 4.47185C2.16011 4.63197 2.19336 5.33285 2.20999 5.4116C2.20999 5.4116 1.82149 5.7441 2.25986 6.31459C2.25986 6.31459 2.50486 6.92709 2.72011 7.17647C2.72011 7.17647 2.77174 7.26747 2.77699 7.31122C2.78311 7.35409 2.78136 7.62184 2.74111 7.69184C2.70086 7.76184 2.47686 8.14597 2.16274 8.17922C1.84861 8.21247 1.44437 8.11447 1.22562 8.27809C1.00774 8.44172 0.223743 9.09184 0.0863682 9.63609C-0.0510065 10.1821 -0.0825065 10.7902 0.438993 10.9372H7.4346C7.95698 10.7893 7.92635 10.1821 7.78898 9.63609Z" fill="#EDF2FC"/>
<path fill-rule="evenodd" clip-rule="evenodd" d="M2.29784 12.4687C1.75796 12.3244 1.26009 11.8676 1.61621 10.4615C1.84196 9.56723 3.15971 8.57149 3.21571 8.52949C3.42134 8.37549 3.68996 8.35449 3.92533 8.35449L4.37071 8.36411C4.44071 8.36411 4.50808 8.36236 4.57283 8.35449C4.80646 8.32999 5.03833 8.05961 5.17746 7.81549C5.19496 7.76299 5.20546 7.51099 5.19846 7.44099C5.19583 7.43574 5.17046 7.38324 5.14858 7.34474C4.86683 7.02099 4.53696 6.20287 4.52296 6.16787C4.05396 5.56937 4.22371 5.05487 4.43108 4.80374C4.40658 4.50537 4.37946 3.7975 4.41446 3.59187C4.46346 3.2795 4.53608 2.8105 5.02433 2.226C5.57471 1.56537 6.54158 1.53212 6.58183 1.53125H7.33783C7.3842 1.53212 8.35195 1.56362 8.9032 2.22512C9.38882 2.80962 9.46232 3.27775 9.5017 3.52887C9.54545 3.7835 9.52095 4.50274 9.49732 4.80287C9.70295 5.05487 9.8692 5.57462 9.37395 6.21862C9.3827 6.21862 9.05807 7.02536 8.75358 7.37799C8.75533 7.38324 8.72995 7.43661 8.7247 7.45499C8.72033 7.51011 8.73083 7.76211 8.75358 7.82336C8.88045 8.04736 9.11757 8.32911 9.35295 8.35361C9.4177 8.36149 9.48595 8.36324 9.55507 8.36324L10.0004 8.35361C10.2349 8.35361 10.5036 8.37461 10.7092 8.52861C10.7661 8.57149 12.0856 9.57073 12.3096 10.4606C12.6639 11.8676 12.1652 12.3244 11.6857 12.46C11.6656 12.4661 11.6463 12.4687 11.6253 12.4687H2.29784Z" fill="#313E75"/>
<path fill-rule="evenodd" clip-rule="evenodd" d="M7.33762 1.3125H7.33675L6.96137 1.31337L6.58862 1.3125C6.53087 1.31337 5.46863 1.351 4.85613 2.086C4.32938 2.716 4.24713 3.24362 4.20775 3.4965L4.199 3.55425C4.16313 3.7625 4.18238 4.38812 4.206 4.73899C3.98638 5.06099 3.84988 5.62887 4.34163 6.30349C4.42475 6.50474 4.69775 7.13736 4.97513 7.48386L4.98213 7.49699C4.98213 7.55999 4.97688 7.67986 4.96725 7.74024C4.83513 7.95811 4.66013 8.12524 4.549 8.13749C4.49213 8.14361 4.43175 8.14536 4.3705 8.14536C4.30225 8.14536 4.23138 8.14274 4.16138 8.14099C4.08263 8.13836 4.003 8.13574 3.926 8.13574C3.65388 8.13574 3.34151 8.16199 3.08426 8.35536C2.93813 8.46386 1.64488 9.45261 1.40338 10.409C0.983385 12.068 1.70876 12.5379 2.17863 12.67C2.21713 12.6814 2.25738 12.6875 2.29763 12.6875H11.6251C11.6654 12.6875 11.7056 12.6814 11.7441 12.67C12.2131 12.5379 12.9394 12.068 12.5211 10.4081C12.2805 9.45436 10.9864 8.46386 10.8394 8.35449C10.583 8.16111 10.2706 8.13574 9.99937 8.13574C9.92149 8.13574 9.84274 8.13749 9.76399 8.14011C9.69312 8.14274 9.62312 8.14449 9.55399 8.14449C9.49274 8.14449 9.43324 8.14274 9.37637 8.13661C9.26262 8.12436 9.09024 7.95986 8.95812 7.73936C8.94849 7.68161 8.94324 7.56699 8.94324 7.49611C8.94587 7.49174 8.94762 7.48736 8.95024 7.48386C9.22849 7.13736 9.50149 6.50387 9.58462 6.30262C10.0764 5.62799 9.93987 5.06099 9.72024 4.73899C9.74387 4.38899 9.76399 3.76512 9.72637 3.55337L9.71674 3.49562C9.67737 3.24275 9.59599 2.716 9.07012 2.08512C8.45675 1.34837 7.39362 1.31337 7.349 1.3125H7.33762ZM7.33765 1.75C7.33765 1.75 8.24064 1.77187 8.73414 2.36512C9.22764 2.9575 9.25827 3.41337 9.29589 3.62775C9.33352 3.843 9.28889 4.77749 9.26877 4.88074C9.26877 4.88074 9.78589 5.32437 9.19964 6.08562C9.19964 6.08562 8.87414 6.90286 8.58714 7.23536C8.58714 7.23536 8.51802 7.35611 8.50927 7.41386C8.50227 7.47074 8.50402 7.82774 8.55827 7.92224C8.61164 8.01586 8.91002 8.52686 9.32914 8.57149C9.40177 8.57936 9.47702 8.58199 9.55402 8.58199C9.70102 8.58199 9.85327 8.57324 9.99939 8.57324C10.2225 8.57324 10.4316 8.59424 10.5786 8.70361C10.8683 8.92149 11.9139 9.78861 12.0976 10.5149C12.2805 11.2429 12.3216 12.0522 11.6251 12.25H2.29766C1.60291 12.0531 1.64316 11.2437 1.82778 10.5157C2.01066 9.78948 3.0554 8.92236 3.3459 8.70449C3.4929 8.59511 3.70203 8.57324 3.92603 8.57324C4.07215 8.57324 4.2244 8.58286 4.37053 8.58286C4.4484 8.58286 4.52365 8.58024 4.59628 8.57236C5.01453 8.52686 5.31378 8.01674 5.36715 7.92311C5.42053 7.82861 5.42315 7.47161 5.41528 7.41474C5.4074 7.35699 5.33828 7.23624 5.33828 7.23624C5.05303 6.90286 4.72578 6.08649 4.72578 6.08649C4.1404 5.32524 4.65753 4.88162 4.65753 4.88162C4.6374 4.77749 4.59278 3.843 4.62953 3.62862C4.66715 3.41337 4.69778 2.9575 5.19215 2.366C5.68565 1.77362 6.58777 1.75 6.58777 1.75L6.96227 1.75087L7.33765 1.75Z" fill="#F2F4FD"/>
<path fill-rule="evenodd" clip-rule="evenodd" d="M11.2492 11.604C10.9412 11.6818 7.37035 11.6801 6.9626 11.6705C6.5566 11.6801 2.98399 11.6818 2.67599 11.604C2.34961 11.5208 2.47299 11.2093 2.54386 10.7622C2.61561 10.316 3.38036 9.58972 3.68661 9.39197C3.99373 9.1951 4.08473 9.2791 4.88098 9.16447C5.67723 9.04985 5.99398 8.3026 6.08236 8.03397C6.16985 7.76272 6.11911 7.1126 6.04736 7.0426C5.97648 6.9726 5.67986 6.4511 5.65011 6.36535C5.61861 6.2796 5.48123 5.95585 5.48123 5.95585C5.01136 5.39585 5.26248 5.1316 5.30361 5.1036C5.34386 5.07648 5.35086 4.88923 5.34386 4.5296C5.33686 4.16998 5.29573 3.98361 5.42523 3.25648C5.55561 2.53023 6.69135 2.36398 6.69135 2.36398H7.23298C7.23298 2.36398 8.3696 2.53023 8.4991 3.25648C8.6286 3.98361 8.58748 4.16998 8.5796 4.5296C8.57348 4.88923 8.5796 5.0756 8.6216 5.1036C8.66273 5.1316 8.91298 5.39498 8.44398 5.95585C8.44398 5.95585 8.30573 6.2796 8.2751 6.36623C8.24448 6.4511 7.94873 6.9726 7.87785 7.0426C7.8061 7.1126 7.75535 7.76272 7.84285 8.03397C7.93123 8.30347 8.2471 9.04985 9.04422 9.16447C9.84135 9.2791 9.93322 9.1951 10.2395 9.39197C10.5448 9.58972 11.3113 10.316 11.3822 10.7622C11.4531 11.2093 11.5756 11.5208 11.2492 11.604Z" fill="#F2F4FD"/>
<path fill-rule="evenodd" clip-rule="evenodd" d="M7.08148 8.95422H6.84786C6.79623 8.95422 6.74723 8.9271 6.72011 8.8816L6.52148 8.5526C6.52148 8.41172 6.62123 8.29797 6.80061 8.29797H7.12786C7.30811 8.29797 7.41311 8.4126 7.41311 8.5526L7.20923 8.88247C7.18211 8.9271 7.13398 8.95422 7.08148 8.95422Z" fill="#313E75"/>
<path fill-rule="evenodd" clip-rule="evenodd" d="M7.40456 10.6581L7.04581 10.9293C6.99243 10.9687 6.91806 10.9687 6.86468 10.9285L6.51381 10.659C6.47006 10.6248 6.44818 10.568 6.45781 10.5128L6.70806 9.17321C6.72118 9.10234 6.78331 9.04984 6.85506 9.04984H7.07818C7.15081 9.04984 7.21293 9.10321 7.22606 9.17408L7.46143 10.512C7.47193 10.5671 7.44918 10.624 7.40456 10.6581Z" fill="#313E75"/>
</svg>
