<svg width="14" height="14" viewBox="0 0 14 14" fill="none" xmlns="http://www.w3.org/2000/svg">
<path fill-rule="evenodd" clip-rule="evenodd" d="M8.96325 7.63352C9.04548 7.68496 9.13994 7.71423 9.23693 7.71423C9.67669 7.71423 9.87188 7.20298 9.50355 6.96274C9.25752 6.80227 8.99907 6.65929 8.73 6.53558C8.6088 6.48398 8.52223 6.37418 8.50011 6.24433C8.47809 6.11447 8.5236 5.98221 8.62097 5.8935C9.26605 5.26993 9.66745 4.39574 9.66745 3.42855C9.66745 1.53625 8.1312 0 6.2389 0C4.3466 0 2.81035 1.53625 2.81035 3.42855C2.81035 4.39574 3.21175 5.26993 3.85897 5.8911C3.95746 5.98059 4.00366 6.11413 3.98154 6.24536C3.95943 6.37667 3.872 6.48758 3.7496 6.53987C1.81539 7.424 0.430856 9.30593 0.252143 11.5253L0.251971 11.5274C0.250686 11.541 0.25 11.5548 0.25 11.5687C0.25 11.8067 0.443284 12 0.681311 12C0.909481 12 1.09659 11.8223 1.11159 11.5978C1.31696 8.94705 3.54681 6.85709 6.24996 6.85709C7.24711 6.85709 8.17684 7.14148 8.96325 7.63352ZM11.7948 11.9999H11.8003L11.7948 12V12.7983C11.7948 13.0055 11.751 13.1828 11.6635 13.3301C11.5759 13.4774 11.4621 13.5994 11.322 13.6961C11.1761 13.7974 11.0127 13.8734 10.8318 13.924C10.6567 13.9747 10.4787 14 10.2978 14C10.1168 14 9.9359 13.9747 9.75498 13.924C9.57988 13.8734 9.4223 13.7974 9.28223 13.6961C9.13632 13.5994 9.0196 13.4774 8.93205 13.3301C8.8445 13.1828 8.80073 13.0055 8.80073 12.7983V10.2017C8.80073 10.0037 8.8445 9.82873 8.93205 9.6768C9.0196 9.52486 9.13632 9.39825 9.28223 9.29696C9.4223 9.20028 9.57988 9.12661 9.75498 9.07597C9.9359 9.02532 10.1168 9 10.2978 9C10.4787 9 10.6567 9.02532 10.8318 9.07597C11.0127 9.12661 11.1761 9.20028 11.322 9.29696C11.4621 9.39825 11.5759 9.52486 11.6635 9.6768C11.751 9.82873 11.7948 10.0037 11.7948 10.2017C11.7948 10.339 11.6835 10.4503 11.5462 10.4503H11.1504C11.0131 10.4503 10.9018 10.339 10.9018 10.2017C10.9018 10.0313 10.8405 9.907 10.718 9.82873C10.6012 9.74586 10.4612 9.70442 10.2978 9.70442C10.1343 9.70442 9.99135 9.74586 9.86878 9.82873C9.75206 9.907 9.69369 10.0313 9.69369 10.2017V12.7983C9.69369 12.9687 9.75206 13.0953 9.86878 13.1782C9.99135 13.2564 10.1343 13.2956 10.2978 13.2956C10.4612 13.2956 10.6012 13.2564 10.718 13.1782C10.8405 13.0953 10.9018 12.9687 10.9018 12.7983V11.9911C10.9018 11.9258 10.8489 11.8729 10.7836 11.8729H10.5035C10.3318 11.8729 10.1927 11.7338 10.1927 11.5622C10.1927 11.3905 10.3318 11.2514 10.5035 11.2514H11.2948C11.5709 11.2514 11.7948 11.4752 11.7948 11.7514V11.9999ZM6.2389 0.857137C7.65806 0.857137 8.81031 2.0093 8.81031 3.42855C8.81031 4.84771 7.65806 5.99996 6.2389 5.99996C4.81965 5.99996 3.66749 4.84771 3.66749 3.42855C3.66749 2.0093 4.81965 0.857137 6.2389 0.857137ZM6.97952 13.9586C6.73293 13.9586 6.53303 13.7587 6.53303 13.5121V9.87659C6.53303 9.7815 6.45595 9.70442 6.36086 9.70442H5.83149C5.64841 9.70442 5.5 9.55601 5.5 9.37293C5.5 9.18985 5.64841 9.04144 5.83149 9.04144H8.12754C8.31062 9.04144 8.45903 9.18985 8.45903 9.37293C8.45903 9.55601 8.31062 9.70442 8.12754 9.70442H7.59817C7.50308 9.70442 7.426 9.7815 7.426 9.87659V13.5121C7.426 13.7587 7.2261 13.9586 6.97952 13.9586ZM12.607 13.5121C12.607 13.7587 12.8069 13.9586 13.0535 13.9586C13.3001 13.9586 13.5 13.7587 13.5 13.5121V9.48792C13.5 9.24133 13.3001 9.04144 13.0535 9.04144C12.8069 9.04144 12.607 9.24133 12.607 9.48792V13.5121Z" fill="#242E59"/>
</svg>
