<svg width="14" height="14" viewBox="0 0 14 14" fill="none" xmlns="http://www.w3.org/2000/svg">
<g clip-path="url(#clip0_7670_79820)">
<path fill-rule="evenodd" clip-rule="evenodd" d="M10.4848 9C10.3717 9 10.2615 8.96585 10.1655 8.90584C9.24804 8.33179 8.16335 8 7 8C3.8463 8 1.2448 10.4383 1.0052 13.5309C0.9877 13.7928 0.7694 14.0001 0.5032 14.0001C0.2255 14.0001 0 13.7746 0 13.4969C0 13.4807 0.0008 13.4646 0.0023 13.4487L0.0025 13.4463C0.211 10.857 1.8263 8.6614 4.0829 7.6299C4.2257 7.5689 4.3277 7.4395 4.3535 7.2863C4.3793 7.1332 4.3254 6.9774 4.2105 6.873C3.4554 6.1483 2.9871 5.1284 2.9871 4C2.9871 1.7923 4.7794 0 6.9871 0C9.1948 0 10.9871 1.7923 10.9871 4C10.9871 5.1284 10.5188 6.1483 9.7662 6.8758C9.6526 6.9793 9.5995 7.1336 9.6252 7.2851C9.651 7.4366 9.752 7.5647 9.8934 7.6249C10.2073 7.76923 10.5088 7.93604 10.7959 8.12325C11.2256 8.40354 10.9979 9 10.4848 9ZM13.4754 14H13.4552L13.4653 14.0001L13.4754 14ZM9.9871 4C9.9871 2.3442 8.6428 1 6.9871 1C5.3313 1 3.9871 2.3442 3.9871 4C3.9871 5.6557 5.3313 7 6.9871 7C8.6428 7 9.9871 5.6557 9.9871 4ZM8 10.5C8 10.2239 8.22386 10 8.5 10H13.5C13.7761 10 14 10.2239 14 10.5C14 10.7761 13.7761 11 13.5 11H8.5C8.22386 11 8 10.7761 8 10.5ZM8.50002 12C8.22388 12 8.00002 12.2239 8.00002 12.5C8.00002 12.7761 8.22388 13 8.50002 13H13.5C13.7762 13 14 12.7761 14 12.5C14 12.2239 13.7762 12 13.5 12H8.50002Z" fill="#242E59"/>
</g>
<defs>
<clipPath id="clip0_7670_79820">
<rect width="14" height="14" fill="white"/>
</clipPath>
</defs>
</svg>
