<svg width="14" height="14" viewBox="0 0 14 14" fill="none" xmlns="http://www.w3.org/2000/svg">
<path fill-rule="evenodd" clip-rule="evenodd" d="M4.96219 5.8333C3.35249 5.8333 2.04559 4.5264 2.04559 2.9167C2.04559 1.3069 3.35249 0 4.96219 0C6.57199 0 7.87889 1.3069 7.87889 2.9167C7.87889 4.5264 6.57199 5.8333 4.96219 5.8333Z" fill="#313E75"/>
<path fill-rule="evenodd" clip-rule="evenodd" d="M13.4167 5.25C13.4167 5.25 12.7834 5.25 12.45 5.25C12.3395 5.25 12.25 5.1605 12.25 5.05C12.25 4.7166 12.25 4.0833 12.25 4.0833C12.25 3.7612 11.9888 3.5 11.6667 3.5C11.3445 3.5 11.0833 3.7612 11.0833 4.0833C11.0833 4.0833 11.0833 4.7166 11.0833 5.05C11.0833 5.1605 10.9938 5.25 10.8833 5.25C10.5499 5.25 9.91671 5.25 9.91671 5.25C9.59451 5.25 9.33331 5.5112 9.33331 5.8333C9.33331 6.1555 9.59451 6.4167 9.91671 6.4167C9.91671 6.4167 10.5499 6.4167 10.8833 6.4167C10.9938 6.4167 11.0833 6.5062 11.0833 6.6167C11.0833 6.9501 11.0833 7.5833 11.0833 7.5833C11.0833 7.9055 11.3445 8.1667 11.6667 8.1667C11.9888 8.1667 12.25 7.9055 12.25 7.5833C12.25 7.5833 12.25 6.9501 12.25 6.6167C12.25 6.5062 12.3395 6.4167 12.45 6.4167C12.7834 6.4167 13.4167 6.4167 13.4167 6.4167C13.7388 6.4167 14 6.1555 14 5.8333C14 5.5112 13.7388 5.25 13.4167 5.25Z" fill="#313E75"/>
<path fill-rule="evenodd" clip-rule="evenodd" d="M7 7.06219H2.9167C1.3144 7.06219 7.10925e-08 8.61779 7.10925e-08 10.5389C7.10925e-08 10.5389 7.10925e-08 11.9777 7.10925e-08 13C-9.99289e-05 13.2652 0.1053 13.5196 0.2929 13.7071C0.4804 13.8946 0.7348 13.9999 1 14C2.901 14 7.0157 14 8.9167 14C9.1819 13.9999 9.4362 13.8946 9.6238 13.7071C9.8113 13.5196 9.9167 13.2652 9.9167 13C9.9167 11.9777 9.9167 10.5389 9.9167 10.5389C9.9167 8.62559 8.6022 7.06219 7 7.06219Z" fill="#313E75"/>
</svg>
