<svg width="14" height="14" viewBox="0 0 14 14" fill="none" xmlns="http://www.w3.org/2000/svg">
<path fill-rule="evenodd" clip-rule="evenodd" d="M0 2V12C0.0001 12.5523 0.4477 12.9999 1 13H13C13.5523 12.9999 14 12.5523 14 12V2C14 1.4477 13.5523 1 13 1H1C0.4477 1 0.0001 1.4477 0 2ZM12.9414 4.0586C12.9789 4.0961 13 4.147 13 4.2V11.5C13 11.6326 12.9473 11.7598 12.8536 11.8536C12.7598 11.9473 12.6326 12 12.5 12H1.5C1.3674 12 1.2402 11.9473 1.1464 11.8536C1.0527 11.7598 1 11.6326 1 11.5V4.2C1 4.147 1.0211 4.0961 1.0586 4.0586C1.0961 4.0211 1.147 4 1.2 4H12.8C12.853 4 12.9039 4.0211 12.9414 4.0586ZM1.5 2H2.8162H4.2162H9.8H11.2H12.5C12.6326 2 12.7598 2.0527 12.8536 2.1464C12.9473 2.2402 13 2.3674 13 2.5V2.8C13 2.853 12.9789 2.9039 12.9414 2.9414C12.9039 2.9789 12.853 3 12.8 3H1.2C1.147 3 1.0961 2.9789 1.0586 2.9414C1.0211 2.9039 1 2.853 1 2.8V2.5C1 2.3674 1.0527 2.2402 1.1464 2.1464C1.2402 2.0527 1.3674 2 1.5 2ZM8.46437 5.68571C8.56693 5.42931 8.44222 5.13833 8.18583 5.03577C7.92944 4.93322 7.63845 5.05792 7.53589 5.31432L5.53589 10.3143C5.43334 10.5707 5.55805 10.8617 5.81444 10.9642C6.07083 11.0668 6.36181 10.9421 6.46437 10.6857L8.46437 5.68571ZM4.35355 5.14645C4.54882 5.34171 4.54882 5.65829 4.35355 5.85355L3.20711 7L4.35355 8.14645C4.54882 8.34171 4.54882 8.65829 4.35355 8.85355C4.15829 9.04882 3.84171 9.04882 3.64645 8.85355L2.14645 7.35355C1.95118 7.15829 1.95118 6.84171 2.14645 6.64645L3.64645 5.14645C3.84171 4.95118 4.15829 4.95118 4.35355 5.14645ZM10.3536 7.14645C10.1583 6.95118 9.84171 6.95118 9.64645 7.14645C9.45118 7.34171 9.45118 7.65829 9.64645 7.85355L10.7929 9L9.64645 10.1464C9.45118 10.3417 9.45118 10.6583 9.64645 10.8536C9.84171 11.0488 10.1583 11.0488 10.3536 10.8536L11.8536 9.35355C12.0488 9.15829 12.0488 8.84171 11.8536 8.64645L10.3536 7.14645Z" fill="#313E75"/>
</svg>
