<svg width="14" height="14" viewBox="0 0 14 14" fill="none" xmlns="http://www.w3.org/2000/svg">
<path fill-rule="evenodd" clip-rule="evenodd" d="M0 2C0 1.447 0.447 1 1 1H13C13.553 1 14 1.447 14 2V4V12C14 12.553 13.553 13 13 13H1C0.447 13 0 12.553 0 12V4V2ZM1 4V12H13V4H1ZM2 2C1.724 2 1.5 2.224 1.5 2.5C1.5 2.776 1.724 3 2 3C2.276 3 2.5 2.776 2.5 2.5C2.5 2.224 2.276 2 2 2ZM3.7998 2C3.5238 2 3.2998 2.224 3.2998 2.5C3.2998 2.776 3.5238 3 3.7998 3C4.0758 3 4.2998 2.776 4.2998 2.5C4.2998 2.224 4.0758 2 3.7998 2ZM5.59961 2C5.87561 2 6.09961 2.224 6.09961 2.5C6.09961 2.776 5.87561 3 5.59961 3C5.32461 3 5.09961 2.776 5.09961 2.5C5.09961 2.224 5.32461 2 5.59961 2ZM6.99902 9.3975C5.75802 9.3975 4.77702 8.7025 4.41402 7.9905C4.77302 7.2895 5.75302 6.6025 6.99902 6.6025C8.24402 6.6025 9.22402 7.2895 9.58402 7.9905C9.22002 8.7025 8.23902 9.3975 6.99902 9.3975ZM9.96402 7.9145C9.52002 6.9195 8.30002 6.2265 6.99902 6.2265C5.69702 6.2265 4.47802 6.9195 4.03302 7.9145L3.99902 7.9905L4.03302 8.0675C4.41302 8.9155 5.55402 9.7735 6.99902 9.7735C8.44402 9.7735 9.58502 8.9155 9.96402 8.0675L9.99902 7.9905L9.96402 7.9145ZM7 8.75C7.414 8.75 7.75 8.414 7.75 8C7.75 7.586 7.414 7.25 7 7.25C6.586 7.25 6.25 7.586 6.25 8C6.25 8.414 6.586 8.75 7 8.75Z" fill="#313E75"/>
</svg>
