<svg width="14" height="14" viewBox="0 0 14 14" fill="none" xmlns="http://www.w3.org/2000/svg">
<path fill-rule="evenodd" clip-rule="evenodd" d="M7 0C10.8634 0 14 3.1366 14 7C14 10.8634 10.8634 14 7 14C3.1366 14 0 10.8634 0 7C0 3.1366 3.1366 0 7 0ZM7 9C7.5519 9 8 9.4481 8 10C8 10.5519 7.5519 11 7 11C6.4481 11 6 10.5519 6 10C6 9.4481 6.4481 9 7 9ZM7.89763 3.5498C7.91102 3.4092 7.86723 3.2692 7.77719 3.1645C7.68714 3.0598 7.55928 3 7.42507 3C7.16024 3 6.83976 3 6.57493 3C6.44071 3 6.31277 3.0598 6.22281 3.1645C6.13277 3.2692 6.08898 3.4092 6.10237 3.5498C6.208 4.6623 6.44271 7.1333 6.50797 7.8199C6.51765 7.9221 6.59934 8 6.69699 8C6.86873 8 7.13127 8 7.30301 8C7.40066 8 7.48235 7.9221 7.49203 7.8199C7.55729 7.1333 7.792 4.6623 7.89763 3.5498Z" fill="#242E59"/>
</svg>
