<svg width="14" height="14" viewBox="0 0 14 14" fill="none" xmlns="http://www.w3.org/2000/svg">
<path fill-rule="evenodd" clip-rule="evenodd" d="M14 7C14 3.1366 10.8634 0 7 0C3.1366 0 0 3.1366 0 7C0 10.8634 3.1366 14 7 14C10.8634 14 14 10.8634 14 7ZM7 13C10.3137 13 13 10.3137 13 7C13 3.68629 10.3137 1 7 1C3.68629 1 1 3.68629 1 7C1 10.3137 3.68629 13 7 13ZM7 9C7.5519 9 8 9.4481 8 10C8 10.5519 7.5519 11 7 11C6.4481 11 6 10.5519 6 10C6 9.4481 6.4481 9 7 9ZM7.77719 3.1645C7.86723 3.2692 7.91102 3.4092 7.89763 3.5498L7.49203 7.8199C7.48235 7.9221 7.40066 8 7.30301 8H6.69699C6.59934 8 6.51765 7.9221 6.50797 7.8199L6.10237 3.5498C6.08898 3.4092 6.13277 3.2692 6.22281 3.1645C6.31277 3.0598 6.44071 3 6.57493 3H7.42507C7.55928 3 7.68714 3.0598 7.77719 3.1645Z" fill="#242E59"/>
</svg>
