<svg width="14" height="14" viewBox="0 0 14 14" fill="none" xmlns="http://www.w3.org/2000/svg">
<path fill-rule="evenodd" clip-rule="evenodd" d="M7 0C10.8634 0 14 3.1366 14 7C14 10.8634 10.8634 14 7 14C3.1366 14 0 10.8634 0 7C0 3.1366 3.1366 0 7 0ZM7 0.75C10.4495 0.75 13.25 3.5505 13.25 7C13.25 10.4495 10.4495 13.25 7 13.25C3.5505 13.25 0.75 10.4495 0.75 7C0.75 3.5505 3.5505 0.75 7 0.75ZM11.3107 7.9884C11.3107 6.7568 10.079 5.7715 8.7181 5.7715C7.3572 5.7715 6.1256 6.7691 6.1256 7.9884C6.1256 9.2077 7.2648 10.2053 8.7181 10.2053C9.0279 10.1976 9.3358 10.1542 9.6357 10.076L10.4732 10.5317L10.2392 9.7681C10.8595 9.3795 11.2575 8.7185 11.3107 7.9884ZM8.5272 5.6113C8.6236 5.605 8.7203 5.605 8.8166 5.6113C8.558 4.3797 7.2402 3.4683 5.7376 3.4683C4.0626 3.4868 2.6893 4.6261 2.6893 6.0794C2.722 6.9318 3.1861 7.7091 3.921 8.1423L3.6192 9.0599L4.6846 8.5241C5.0396 8.6123 5.4028 8.6639 5.7684 8.6781H6.0578C5.996 8.4785 5.9629 8.2712 5.9593 8.0623C5.9722 7.3959 6.2506 6.7622 6.7328 6.302C7.215 5.8418 7.8609 5.5932 8.5272 5.6113ZM9.5556 7.6127C9.3931 7.598 9.2653 7.4676 9.2539 7.3048C9.2627 7.1409 9.3919 7.0091 9.5556 6.9969C9.7433 6.9786 9.9118 7.1119 9.9374 7.2987C9.918 7.4904 9.7475 7.6306 9.5556 7.6127ZM7.8744 7.6127C7.7119 7.598 7.5841 7.4676 7.5727 7.3048C7.5841 7.1421 7.7119 7.0116 7.8744 6.9969C8.0539 6.9891 8.2093 7.1204 8.2316 7.2987C8.2153 7.4818 8.0582 7.62 7.8744 7.6127ZM4.7461 5.5436C4.6334 5.5521 4.5219 5.5153 4.4364 5.4413C4.3508 5.3673 4.2983 5.2623 4.2904 5.1495C4.3132 4.9195 4.5157 4.7498 4.7461 4.7677C4.8535 4.7524 4.962 4.7867 5.0411 4.861C5.1201 4.9352 5.1611 5.0414 5.1526 5.1495C5.1652 5.2596 5.126 5.3694 5.0464 5.4466C4.9668 5.5238 4.8558 5.5596 4.7461 5.5436ZM6.883 4.78C6.9841 4.7729 7.0834 4.8092 7.1563 4.8796C7.2291 4.9501 7.2685 5.0482 7.2648 5.1495C7.2722 5.2528 7.2344 5.3543 7.1611 5.4276C7.0878 5.5009 6.9864 5.5387 6.883 5.5313C6.6525 5.5492 6.4501 5.3795 6.4273 5.1495C6.4562 4.9244 6.6568 4.7617 6.883 4.78Z" fill="#313E75"/>
</svg>
