<svg width="14" height="14" viewBox="0 0 14 14" fill="none" xmlns="http://www.w3.org/2000/svg">
<mask id="mask0" mask-type="alpha" maskUnits="userSpaceOnUse" x="0" y="0" width="14" height="14">
<path fill-rule="evenodd" clip-rule="evenodd" d="M0 14H14V0H0V14Z" fill="white"/>
</mask>
<g mask="url(#mask0)">
<path fill-rule="evenodd" clip-rule="evenodd" d="M9.48 4.745C9.6365 4.7347 9.7935 4.7347 9.95 4.745C9.53 2.745 7.39 1.265 4.95 1.265C2.23 1.295 0 3.145 0 5.505C0.0531 6.8893 0.8067 8.1515 2 8.855L1.51 10.345L3.24 9.475C3.8166 9.6182 4.4063 9.702 5 9.725H5.47C5.3697 9.4009 5.3158 9.0642 5.31 8.725C5.3309 7.6428 5.7831 6.6138 6.5661 5.8665C7.3491 5.1192 8.398 4.7155 9.48 4.745ZM6.81 3.395C6.9742 3.3835 7.1355 3.4424 7.2537 3.5568C7.372 3.6712 7.4361 3.8305 7.43 3.995C7.442 4.1628 7.3806 4.3276 7.2616 4.4466C7.1426 4.5656 6.9778 4.627 6.81 4.615C6.4358 4.644 6.107 4.3685 6.07 3.995C6.1169 3.6295 6.4427 3.3653 6.81 3.395ZM3.34 4.635C3.1569 4.6488 2.9758 4.5889 2.837 4.4688C2.6981 4.3487 2.6128 4.1782 2.6 3.995C2.637 3.6214 2.9658 3.346 3.34 3.375C3.5144 3.3502 3.6906 3.4059 3.8189 3.5265C3.9473 3.647 4.0139 3.8194 4 3.995C4.0205 4.1739 3.9568 4.3521 3.8275 4.4775C3.6983 4.6028 3.5182 4.661 3.34 4.635ZM14 8.605C14 6.605 12 5.005 9.79 5.005C7.58 5.005 5.58 6.625 5.58 8.605C5.58 10.585 7.43 12.205 9.79 12.205C10.2931 12.1926 10.7931 12.1221 11.28 11.995L12.64 12.735L12.26 11.495C13.2674 10.864 13.9136 9.7906 14 8.605ZM8.42 7.995C8.1561 7.9711 7.9485 7.7593 7.93 7.495C7.9485 7.2307 8.1561 7.0189 8.42 6.995C8.7115 6.9823 8.9638 7.1955 9 7.485C8.9736 7.7825 8.7184 8.0068 8.42 7.995ZM11.15 7.995C10.8861 7.9711 10.6785 7.7593 10.66 7.495C10.6744 7.2288 10.8842 7.0147 11.15 6.995C11.4547 6.9653 11.7285 7.1817 11.77 7.485C11.7384 7.7964 11.4616 8.0241 11.15 7.995Z" fill="#313E75"/>
</g>
</svg>
