<svg width="14" height="14" viewBox="0 0 14 14" fill="none" xmlns="http://www.w3.org/2000/svg">
<path fill-rule="evenodd" clip-rule="evenodd" d="M9.48 4.74489C9.6365 4.73459 9.7935 4.73459 9.95 4.74489C9.53 2.74489 7.39 1.26489 4.95 1.26489C2.23 1.29489 0 3.14489 0 5.50489C0.0531 6.88919 0.8067 8.15139 2 8.85489L1.51 10.3449L3.24 9.47489C3.8166 9.61809 4.4063 9.70189 5 9.72489H5.47C5.3697 9.40079 5.3158 9.06409 5.31 8.72489C5.3309 7.64269 5.7831 6.61369 6.5661 5.86639C7.3491 5.11909 8.398 4.71539 9.48 4.74489ZM6.81 3.39489C6.9742 3.38339 7.1355 3.44229 7.2537 3.55669C7.372 3.67109 7.4361 3.83039 7.43 3.99489C7.442 4.16269 7.3806 4.32749 7.2616 4.44649C7.1426 4.56549 6.9778 4.62689 6.81 4.61489C6.4358 4.64389 6.107 4.36839 6.07 3.99489C6.1169 3.62939 6.4427 3.36519 6.81 3.39489ZM3.34 4.63489C3.1569 4.64869 2.9758 4.58879 2.837 4.46869C2.6981 4.34859 2.6128 4.17809 2.6 3.99489C2.637 3.62129 2.9658 3.34589 3.34 3.37489C3.5144 3.35009 3.6906 3.40579 3.8189 3.52639C3.9473 3.64689 4.0139 3.81929 4 3.99489C4.0205 4.17379 3.9568 4.35199 3.8275 4.47739C3.6983 4.60269 3.5182 4.66089 3.34 4.63489ZM14 8.60489C14 6.60489 12 5.00489 9.79 5.00489C7.58 5.00489 5.58 6.62489 5.58 8.60489C5.58 10.5849 7.43 12.2049 9.79 12.2049C10.2931 12.1925 10.7931 12.122 11.28 11.9949L12.64 12.7349L12.26 11.4949C13.2674 10.8639 13.9136 9.79049 14 8.60489ZM8.42 7.99489C8.1561 7.97099 7.9485 7.75919 7.93 7.49489C7.9485 7.23059 8.1561 7.01879 8.42 6.99489C8.7115 6.98219 8.9638 7.19539 9 7.48489C8.9736 7.78239 8.7184 8.00669 8.42 7.99489ZM11.15 7.99489C10.8861 7.97099 10.6785 7.75919 10.66 7.49489C10.6744 7.22869 10.8842 7.01459 11.15 6.99489C11.4547 6.96519 11.7285 7.18159 11.77 7.48489C11.7384 7.79629 11.4616 8.02399 11.15 7.99489Z" fill="#242E59"/>
</svg>
