<svg width="15" height="15" viewBox="0 0 15 15" fill="none" xmlns="http://www.w3.org/2000/svg">
<path fill-rule="evenodd" clip-rule="evenodd" d="M1 8.48336V11.2704L4.59999 11.7995V8.49627L1 8.48336ZM0.301076 7.48085C0.134971 7.48025 0 7.61474 0 7.78085V11.8751C0 12.0239 0.109125 12.1502 0.256381 12.1719L5.25637 12.9067C5.43748 12.9333 5.59999 12.7929 5.59999 12.6098V7.79878C5.59999 7.63352 5.46633 7.49938 5.30107 7.49878L0.301076 7.48085Z" fill="#242E59"/>
<path fill-rule="evenodd" clip-rule="evenodd" d="M7.46002 8.48311L7.46002 12.2161L13.01 13.0063V8.50104L7.46002 8.48311ZM6.76099 7.48085C6.59493 7.48031 6.46002 7.61478 6.46002 7.78085V12.7367C6.46002 12.9358 6.60649 13.1046 6.80364 13.1327L13.6677 14.1101C13.8484 14.1358 14.01 13.9956 14.01 13.8131V7.8033C14.01 7.63799 13.8763 7.50384 13.711 7.5033L6.76099 7.48085Z" fill="#242E59"/>
<path fill-rule="evenodd" clip-rule="evenodd" d="M7.41998 5.57676L7.41998 1.92857L12.97 1.15002V5.55909L7.41998 5.57676ZM6.72094 6.57899C6.55488 6.57952 6.41998 6.44505 6.41998 6.27899V1.40686C6.41998 1.20741 6.56691 1.03844 6.76442 1.01074L13.6283 0.0478852C13.8088 0.0225661 13.97 0.162718 13.97 0.344977V6.25687C13.97 6.42218 13.8362 6.55634 13.6709 6.55687L6.72094 6.57899Z" fill="#242E59"/>
<path fill-rule="evenodd" clip-rule="evenodd" d="M3.15249 2.4586C2.31723 2.59386 1 2.7062 1 2.7062V5.46962H4.58V2.18195C4.58 2.18195 3.71304 2.36782 3.15249 2.4586ZM3 1.46961L0.354289 1.77389C0.152392 1.79711 0 1.96804 0 2.17126V6.06962C0 6.29053 0.179086 6.46962 0.4 6.46962H5.18C5.40091 6.46962 5.58 6.29053 5.58 6.06962V1.45451C5.58 1.20306 5.46484 1.07972 5.1039 1.07972L3 1.46961Z" fill="#242E59"/>
</svg>
