<svg width="14" height="14" viewBox="0 0 14 14" fill="none" xmlns="http://www.w3.org/2000/svg">
<path fill-rule="evenodd" clip-rule="evenodd" d="M9.02059 6.49143C9.3795 6.49337 9.74602 6.49535 10.1342 6.49535C10.8962 6.50675 11.6581 6.50293 12.415 6.49913C12.7915 6.49723 13.1668 6.49535 13.5402 6.49535C13.8297 6.49535 14 6.42702 14 6.10248V0.330912C14 0.0746965 13.8978 -0.0277897 13.6253 0.00637242C12.7399 0.129541 11.8815 0.252709 11.0295 0.374944C9.63669 0.574789 8.26125 0.772138 6.81362 0.962911C6.52411 0.997073 6.42193 1.4241 6.42193 1.4241C6.42193 1.4241 6.43896 4.3773 6.42193 6C6.42193 6.3587 6.52411 6.49535 6.9158 6.49535C7.65733 6.48408 8.32466 6.48768 9.02059 6.49143ZM11.2764 7.38889H11.2763H11.2762C10.8959 7.38699 10.515 7.38508 10.1341 7.38508C9.76309 7.38508 9.41698 7.38706 9.07816 7.389C8.42168 7.39276 7.79254 7.39636 7.06243 7.38509C6.75901 7.38509 6.60575 7.38509 6.52835 7.46172C6.44936 7.53991 6.44936 7.69789 6.44936 8.01709L6.44943 12.2194C6.44943 12.9538 6.50052 12.988 7.19874 13.0905C7.99519 13.2037 8.76479 13.31 9.52731 13.4153L9.52802 13.4154L9.5282 13.4154C10.836 13.596 12.123 13.7737 13.489 13.9787C13.8807 14.047 13.9999 13.9616 13.9999 13.5688C13.9829 11.6215 13.9828 9.79351 13.9999 7.84627C13.9999 7.50465 13.8977 7.38508 13.5401 7.38508C12.7914 7.39646 12.0352 7.39268 11.2764 7.38889H11.2764H11.2764ZM2.14486 6.54279H2.14479H2.14477C1.6055 6.53899 1.0637 6.53518 0.529479 6.54658C0.103736 6.56366 -0.0154725 6.39285 0.00155722 5.99998C0.018587 4.71891 0.018587 3.62754 0.00155722 2.34646C-0.0154725 1.95359 0.154825 1.85111 0.47839 1.81694C0.756184 1.78416 1.03224 1.75313 1.30766 1.72217L1.30772 1.72216C1.89338 1.65632 2.47621 1.59081 3.06691 1.50949C3.54718 1.44526 3.91682 1.36761 4.31031 1.28495C4.54469 1.23572 4.78752 1.18471 5.06723 1.1337C5.44188 1.06538 5.57812 1.16786 5.57812 1.57781C5.56109 3.14926 5.56109 4.49685 5.57812 6.05122C5.57812 6.42701 5.44189 6.56366 5.08426 6.54658C4.56128 6.53541 4.15127 6.53884 3.70661 6.54255H3.70659H3.70658C3.47072 6.54453 3.2251 6.54658 2.9477 6.54658C2.68155 6.54658 2.41352 6.54469 2.14486 6.54279ZM3.69412 7.41025C3.45458 7.4083 3.20644 7.40627 2.93058 7.40627C2.51335 7.40627 2.09612 7.41054 1.67889 7.41481C1.26166 7.41908 0.844432 7.42335 0.427204 7.42335C0.103639 7.42335 0.00146048 7.52584 0.00146048 7.8333C0.0184902 9.1827 0.0184902 10.3746 0.00146048 11.724C0.00146048 11.9802 0.103639 12.0827 0.359085 12.1169C1.34611 12.2482 2.24558 12.3855 3.16106 12.5252C3.79352 12.6217 4.43362 12.7194 5.11551 12.8172C5.49016 12.8684 5.60937 12.7317 5.60937 12.356C5.59234 10.8187 5.59234 9.4218 5.60937 7.8845C5.60937 7.49164 5.4561 7.38915 5.09848 7.40623C4.57394 7.41743 4.1496 7.41397 3.69412 7.41025Z" fill="#242E59"/>
</svg>
