<svg width="14" height="14" viewBox="0 0 14 14" fill="none" xmlns="http://www.w3.org/2000/svg">
<path d="M0.518811 6.04677L0.518809 6.04668L0.509435 6.04705C0.5063 6.04718 0.503236 6.04729 0.500241 6.04738C0.500418 6.0393 0.500696 6.03075 0.501088 6.02171L0.501413 6.01421L0.501513 6.00671C0.518602 4.7212 0.518602 3.6254 0.501513 2.33989L0.501413 2.33238L0.501088 2.32488C0.500984 2.32247 0.500892 2.32011 0.500812 2.3178C0.510034 2.31659 0.520038 2.3154 0.530888 2.31426L0.530892 2.31429L0.536984 2.31357C0.808914 2.28149 1.08189 2.2508 1.35581 2.22C1.94452 2.15381 2.53761 2.08713 3.13414 2.00502C3.62826 1.9389 4.03212 1.85435 4.44062 1.76883C4.64758 1.7255 4.85574 1.68192 5.07743 1.64037C5.06112 3.18299 5.06133 4.51516 5.07804 6.04641C4.55609 6.03553 4.13788 6.039 3.69294 6.0427C3.45833 6.04464 3.2163 6.04665 2.9477 6.04665C2.68913 6.04665 2.42497 6.0448 2.15814 6.04293C1.61454 6.03911 1.05987 6.03522 0.518811 6.04677Z" stroke="#242E59"/>
<path d="M10.1417 5.9954L10.1417 5.99535H10.1342C9.75179 5.99535 9.38791 5.99339 9.03008 5.99147C8.33508 5.98773 7.66287 5.98411 6.92195 5.9952C6.9304 5.18101 6.93038 4.03978 6.92826 3.10241C6.92719 2.6314 6.9256 2.21117 6.92426 1.90869L6.92257 1.55159L6.9223 1.50041C6.9289 1.48371 6.93687 1.46604 6.94587 1.44979C8.37112 1.26148 9.73135 1.06632 11.1053 0.869186C11.894 0.756028 12.6873 0.642219 13.4999 0.528682V0.530792V0.542495V0.554193V0.565885V0.577571V0.589251V0.600925V0.612594V0.624257V0.635915V0.647566V0.659212V0.670853V0.682488V0.694117V0.705741V0.717359V0.728972V0.740579V0.752181V0.763778V0.775369V0.786954V0.798535V0.81011V0.82168V0.833244V0.844804V0.856358V0.867907V0.87945V0.890989V0.902522V0.914051V0.925574V0.937092V0.948606V0.960114V0.971617V0.983115V0.994609V1.0061V1.01758V1.02906V1.04053V1.052V1.06347V1.07493V1.08638V1.09783V1.10928V1.12072V1.13216V1.14359V1.15501V1.16644V1.17785V1.18927V1.20068V1.21208V1.22348V1.23488V1.24627V1.25766V1.26904V1.28042V1.29179V1.30316V1.31453V1.32589V1.33725V1.3486V1.35995V1.37129V1.38263V1.39397V1.4053V1.41663V1.42796V1.43928V1.45059V1.46191V1.47322V1.48452V1.49582V1.50712V1.51841V1.5297V1.54099V1.55227V1.56355V1.57483V1.5861V1.59737V1.60863V1.61989V1.63115V1.6424V1.65365V1.6649V1.67614V1.68738V1.69862V1.70985V1.72108V1.73231V1.74353V1.75475V1.76597V1.77718V1.78839V1.7996V1.8108V1.822V1.8332V1.84439V1.85559V1.86677V1.87796V1.88914V1.90032V1.9115V1.92267V1.93384V1.94501V1.95618V1.96734V1.9785V1.98966V2.00081V2.01196V2.02311V2.03426V2.0454V2.05654V2.06768V2.07881V2.08995V2.10108V2.11221V2.12333V2.13445V2.14558V2.15669V2.16781V2.17892V2.19004V2.20114V2.21225V2.22336V2.23446V2.24556V2.25666V2.26775V2.27885V2.28994V2.30103V2.31212V2.3232V2.33428V2.34537V2.35645V2.36752V2.3786V2.38967V2.40075V2.41182V2.42289V2.43395V2.44502V2.45608V2.46714V2.4782V2.48926V2.50032V2.51137V2.52243V2.53348V2.54453V2.55558V2.56662V2.57767V2.58872V2.59976V2.6108V2.62184V2.63288V2.64392V2.65495V2.66599V2.67702V2.68806V2.69909V2.71012V2.72115V2.73218V2.7432V2.75423V2.76525V2.77628V2.7873V2.79832V2.80935V2.82037V2.83138V2.8424V2.85342V2.86444V2.87545V2.88647V2.89748V2.9085V2.91951V2.93052V2.94154V2.95255V2.96356V2.97457V2.98558V2.99659V3.0076V3.0186V3.02961V3.04062V3.05163V3.06263V3.07364V3.08464V3.09565V3.10665V3.11766V3.12866V3.13967V3.15067V3.16168V3.17268V3.18369V3.19469V3.20569V3.2167V3.2277V3.23871V3.24971V3.26071V3.27172V3.28272V3.29373V3.30473V3.31574V3.32674V3.33775V3.34875V3.35976V3.37076V3.38177V3.39278V3.40379V3.41479V3.4258V3.43681V3.44782V3.45883V3.46984V3.48085V3.49186V3.50287V3.51389V3.5249V3.53591V3.54693V3.55794V3.56896V3.57998V3.59099V3.60201V3.61303V3.62405V3.63507V3.64609V3.65712V3.66814V3.67917V3.69019V3.70122V3.71225V3.72328V3.73431V3.74534V3.75637V3.76741V3.77844V3.78948V3.80052V3.81156V3.8226V3.83364V3.84468V3.85573V3.86677V3.87782V3.88887V3.89992V3.91097V3.92202V3.93308V3.94414V3.95519V3.96625V3.97732V3.98838V3.99944V4.01051V4.02158V4.03265V4.04372V4.0548V4.06587V4.07695V4.08803V4.09911V4.1102V4.12128V4.13237V4.14346V4.15455V4.16564V4.17674V4.18784V4.19894V4.21004V4.22115V4.23225V4.24336V4.25447V4.26559V4.2767V4.28782V4.29894V4.31007V4.32119V4.33232V4.34345V4.35458V4.36572V4.37686V4.388V4.39914V4.41029V4.42144V4.43259V4.44374V4.4549V4.46606V4.47722V4.48839V4.49955V4.51072V4.5219V4.53307V4.54425V4.55544V4.56662V4.57781V4.589V4.6002V4.61139V4.62259V4.6338V4.64501V4.65622V4.66743V4.67865V4.68987V4.70109V4.71232V4.72355V4.73478V4.74601V4.75725V4.7685V4.77974V4.79099V4.80225V4.81351V4.82477V4.83603V4.8473V4.85857V4.86985V4.88112V4.89241V4.90369V4.91498V4.92628V4.93757V4.94888V4.96018V4.97149V4.9828V4.99412V5.00544V5.01676V5.02809V5.03943V5.05076V5.0621V5.07345V5.0848V5.09615V5.10751V5.11887V5.13023V5.1416V5.15298V5.16436V5.17574V5.18713V5.19852V5.20991V5.22131V5.23272V5.24413V5.25554V5.26696V5.27838V5.28981V5.30124V5.31268V5.32412V5.33556V5.34701V5.35847V5.36993V5.38139V5.39286V5.40434V5.41582V5.4273V5.43879V5.45028V5.46178V5.47328V5.48479V5.4963V5.50782V5.51935V5.53087V5.54241V5.55395V5.56549V5.57704V5.58859V5.60015V5.61172V5.62329V5.63486V5.64644V5.65803V5.66962V5.68122V5.69282V5.70442V5.71604V5.72766V5.73928V5.75091V5.76254V5.77418V5.78583V5.79748V5.80914V5.8208V5.83247V5.84415V5.85583V5.86751V5.8792V5.8909V5.90261V5.91431V5.92603V5.93775V5.94948V5.96121V5.97295V5.9847V5.99536C13.1346 5.99548 12.77 5.99732 12.4055 5.99915C11.6518 6.00295 10.8988 6.00674 10.1417 5.9954Z" stroke="#242E59"/>
<path d="M13.4993 7.88566C13.4829 9.78661 13.4828 11.5757 13.4989 13.4745C12.1543 13.2733 10.8815 13.0975 9.59177 12.9194C8.8299 12.8142 8.0621 12.7082 7.27005 12.5956C7.11919 12.5734 7.02421 12.5578 6.95858 12.5424C6.95199 12.4747 6.94925 12.3755 6.94925 12.2193L6.94922 10.1181L6.94919 8.01702C6.94919 7.96727 6.94919 7.92393 6.94945 7.88521C6.98196 7.88503 7.0179 7.88502 7.05841 7.88502C7.79185 7.89629 8.429 7.89266 9.08777 7.8889C9.42552 7.88697 9.76894 7.88501 10.1339 7.88501C10.5094 7.88501 10.8877 7.8869 11.2667 7.88879C12.0124 7.89251 12.7614 7.89624 13.4993 7.88566Z" stroke="#242E59"/>
<path d="M5.10911 7.9062C5.09252 9.41969 5.09243 10.799 5.10885 12.3111C4.46604 12.2186 3.8535 12.1251 3.24566 12.0324C2.34849 11.8955 1.46156 11.7602 0.502644 11.6317C0.518111 10.3504 0.518102 9.20484 0.502615 7.92338C0.897202 7.92291 1.29128 7.91888 1.68272 7.91487L1.68401 7.91486C2.10167 7.91059 2.51634 7.90635 2.93058 7.90635C3.19782 7.90635 3.44236 7.90833 3.68056 7.91026C4.14097 7.914 4.57774 7.91754 5.10911 7.9062Z" stroke="#242E59"/>
</svg>
