<?xml version="1.0" encoding="utf-8"?>
<!-- Generator: Adobe Illustrator 22.0.0, SVG Export Plug-In . SVG Version: 6.00 Build 0)  -->
<svg version="1.1" id="图层_1" xmlns="http://www.w3.org/2000/svg" xmlns:xlink="http://www.w3.org/1999/xlink" x="0px" y="0px"
	 viewBox="0 0 100 100" style="enable-background:new 0 0 100 100;" xml:space="preserve">
<g>
	<path d="M68.4,48.6c-6.7,0-13.4-0.1-20,0c-2.3,0-2.9-0.8-2.9-2.9c0.1-9.5,0.1-18.9,0-28.4c0-1.7,0.6-2.5,2.3-2.7
		c13.7-1.8,27.4-3.7,41.1-5.6c1.6-0.2,2.2,0.4,2.2,1.9c0,11.8,0,23.6,0,35.4c0,1.9-1,2.3-2.7,2.3C81.8,48.6,75.1,48.7,68.4,48.6
		C68.4,48.7,68.4,48.7,68.4,48.6z"/>
	<path d="M68.4,51.5c6.7,0,13.4,0.1,20,0c2.1,0,2.7,0.7,2.7,2.7c-0.1,11.4-0.1,22.8,0,34.2c0,2.3-0.7,2.8-3,2.4
		c-12.7-1.9-25.5-3.5-38.2-5.3c-4.1-0.6-4.4-0.8-4.4-5.1c0-8.4,0-16.9,0-25.3c0-3.7,0-3.7,3.6-3.7C55.6,51.5,62,51.5,68.4,51.5
		C68.4,51.5,68.4,51.5,68.4,51.5z"/>
	<path d="M26.2,48.6c-4.7,0-9.5-0.1-14.2,0c-2.5,0.1-3.2-0.9-3.1-3.2C9,37.9,9,30.2,8.9,22.7c-0.1-2.3,0.9-2.9,2.8-3.1
		c5.1-0.6,10.1-1.1,15.2-1.8c4.5-0.6,9-1.3,13.4-2.1c2.2-0.4,3,0.2,3,2.6c-0.1,9.2-0.1,18.4,0,27.5c0,2.2-0.8,3-2.9,2.9
		C35.7,48.6,30.9,48.6,26.2,48.6C26.2,48.6,26.2,48.6,26.2,48.6z"/>
	<path d="M26.1,51.5c4.7,0,9.5,0.1,14.2,0c2.1-0.1,3,0.5,3,2.8c-0.1,9-0.1,18,0,27c0,2.2-0.7,3-2.9,2.7c-9.8-1.4-19.6-2.8-29.4-4.1
		c-1.5-0.2-2.1-0.8-2.1-2.3c0.1-7.9,0.1-15.7,0-23.6c0-1.8,0.6-2.4,2.5-2.4C16.3,51.6,21.2,51.5,26.1,51.5
		C26.1,51.5,26.1,51.5,26.1,51.5z"/>
</g>
</svg>
