<svg width="14" height="14" viewBox="0 0 14 14" fill="none" xmlns="http://www.w3.org/2000/svg">
<g clip-path="url(#clip0_7670_80096)">
<path fill-rule="evenodd" clip-rule="evenodd" d="M11.5201 0.310007L13.6901 2.48001C13.7998 2.57389 13.888 2.69043 13.9484 2.82163C14.0088 2.95283 14.0401 3.09556 14.0401 3.24001C14.0401 3.38445 14.0088 3.52719 13.9484 3.65838C13.888 3.78958 13.7998 3.90613 13.6901 4.00001L7.80005 9.85001C7.75351 9.89832 7.69754 9.93657 7.63562 9.96237C7.57369 9.98817 7.50713 10.001 7.44005 10H4.50005C4.36744 10 4.24027 9.94733 4.1465 9.85356C4.05273 9.75979 4.00005 9.63262 4.00005 9.50001V6.56001C3.99908 6.49293 4.01189 6.42637 4.03769 6.36444C4.06349 6.30252 4.10174 6.24655 4.15005 6.20001L10.0001 0.310007C10.0939 0.200228 10.2105 0.112089 10.3417 0.0516565C10.4729 -0.00877653 10.6156 -0.0400696 10.7601 -0.0400696C10.9045 -0.0400696 11.0472 -0.00877653 11.1784 0.0516565C11.3096 0.112089 11.4262 0.200228 11.5201 0.310007ZM7.2072 8.96845C7.273 8.94248 7.33208 8.90199 7.38005 8.85001L10.8901 5.30001C10.9379 5.25512 10.976 5.2009 11.0021 5.1407C11.0281 5.0805 11.0416 5.0156 11.0416 4.95001C11.0416 4.88441 11.0281 4.81951 11.0021 4.75931C10.976 4.69911 10.9379 4.6449 10.8901 4.60001L9.38005 3.09001C9.33357 3.04314 9.27827 3.00595 9.21734 2.98056C9.15641 2.95518 9.09106 2.94211 9.02505 2.94211C8.95905 2.94211 8.89369 2.95518 8.83276 2.98056C8.77183 3.00595 8.71653 3.04314 8.67005 3.09001L5.15005 6.65001C5.10201 6.69465 5.06385 6.74886 5.03802 6.80914C5.01218 6.86941 4.99925 6.93443 5.00005 7.00001V8.80001C5.00005 8.85305 5.02112 8.90392 5.05863 8.94143C5.09614 8.97894 5.14701 9.00001 5.20005 9.00001H7.00005C7.0706 9.00521 7.14141 8.99443 7.2072 8.96845ZM10.0901 2.35001L11.5901 3.85001V3.88001C11.6385 3.92496 11.6953 3.95987 11.7574 3.98271C11.8194 4.00556 11.8853 4.01588 11.9513 4.01309C12.0173 4.0103 12.0821 3.99445 12.142 3.96646C12.2019 3.93847 12.2556 3.89889 12.3001 3.85001L12.6301 3.52001C12.6769 3.47353 12.7141 3.41823 12.7395 3.3573C12.7649 3.29637 12.778 3.23101 12.778 3.16501C12.778 3.099 12.7649 3.03365 12.7395 2.97272C12.7141 2.91179 12.6769 2.85649 12.6301 2.81001L11.1001 1.33001C11.0066 1.23839 10.8809 1.18708 10.7501 1.18708C10.6192 1.18708 10.4935 1.23839 10.4001 1.33001L10.0901 1.64001C10.0432 1.68649 10.006 1.74179 9.98061 1.80272C9.95522 1.86365 9.94215 1.929 9.94215 1.99501C9.94215 2.06101 9.95522 2.12637 9.98061 2.1873C10.006 2.24823 10.0432 2.30353 10.0901 2.35001ZM9.14645 9.64645C9.24021 9.55268 9.36739 9.5 9.5 9.5C9.63261 9.5 9.75979 9.55268 9.85355 9.64645C9.94732 9.74021 10 9.86739 10 10V13C10 13.2652 9.89464 13.5196 9.70711 13.7071C9.51957 13.8946 9.26522 14 9 14H1C0.734784 14 0.48043 13.8946 0.292893 13.7071C0.105357 13.5196 0 13.2652 0 13V5C0 4.73478 0.105357 4.48043 0.292893 4.29289C0.48043 4.10536 0.734784 4 1 4H4C4.13261 4 4.25979 4.05268 4.35355 4.14645C4.44732 4.24021 4.5 4.36739 4.5 4.5C4.5 4.63261 4.44732 4.75979 4.35355 4.85355C4.25979 4.94732 4.13261 5 4 5H1.5C1.36819 5.00256 1.2425 5.05606 1.14928 5.14928C1.05606 5.2425 1.00256 5.36819 1 5.5V12.5C1.00256 12.6318 1.05606 12.7575 1.14928 12.8507C1.2425 12.9439 1.36819 12.9974 1.5 13H8.5C8.63261 13 8.75979 12.9473 8.85355 12.8536C8.94732 12.7598 9 12.6326 9 12.5V10C9 9.86739 9.05268 9.74021 9.14645 9.64645Z" fill="#242E59"/>
</g>
<defs>
<clipPath id="clip0_7670_80096">
<rect width="14" height="14" fill="white"/>
</clipPath>
</defs>
</svg>
