<svg width="14" height="14" viewBox="0 0 14 14" fill="none" xmlns="http://www.w3.org/2000/svg">
<path fill-rule="evenodd" clip-rule="evenodd" d="M7 0C3.134 0 0 3.134 0 7C0 10.866 3.134 14 7 14C10.866 14 14 10.866 14 7C14 5.1435 13.2625 3.363 11.9497 2.0503C10.637 0.7375 8.8565 0 7 0ZM7 13C3.6863 13 1 10.3137 1 7C1 3.6863 3.6863 1 7 1C10.3137 1 13 3.6863 13 7C13 8.5913 12.3679 10.1174 11.2426 11.2426C10.1174 12.3679 8.5913 13 7 13ZM9.85 3.15C9.7593 3.0533 9.6326 2.9985 9.5 2.9985C9.3674 2.9985 9.2407 3.0533 9.15 3.15C9.15 3.15 7.9627 4.3318 7.3527 4.9389C7.1577 5.1331 6.8423 5.1331 6.6473 4.9389C6.0373 4.3318 4.85 3.15 4.85 3.15C4.6567 2.9567 4.3433 2.9567 4.15 3.15C3.9567 3.3433 3.9567 3.6567 4.15 3.85C4.15 3.85 5.3469 5.0525 5.9505 5.6589C6.0075 5.7162 6.0244 5.8021 5.9934 5.8768C5.9624 5.9514 5.8896 6 5.8087 6C5.2786 6 4.5 6 4.5 6C4.2239 6 4 6.2239 4 6.5C4 6.7761 4.2239 7 4.5 7C4.5 7 5.7935 7 6.3 7C6.4105 7 6.5 7.0895 6.5 7.2C6.5 7.3743 6.5 7.6257 6.5 7.8C6.5 7.9105 6.4105 8 6.3 8C5.7935 8 4.5 8 4.5 8C4.2239 8 4 8.2239 4 8.5C4 8.7761 4.2239 9 4.5 9C4.5 9 5.7935 9 6.3 9C6.4105 9 6.5 9.0896 6.5 9.2C6.5 9.6084 6.5 10.5 6.5 10.5C6.5 10.7761 6.7239 11 7 11C7.2761 11 7.5 10.7761 7.5 10.5C7.5 10.5 7.5 9.6084 7.5 9.2C7.5 9.0896 7.5895 9 7.7 9C8.2065 9 9.5 9 9.5 9C9.7761 9 10 8.7761 10 8.5C10 8.2239 9.7761 8 9.5 8C9.5 8 8.2065 8 7.7 8C7.5895 8 7.5 7.9105 7.5 7.8C7.5 7.6257 7.5 7.3743 7.5 7.2C7.5 7.0895 7.5895 7 7.7 7C8.2065 7 9.5 7 9.5 7C9.7761 7 10 6.7761 10 6.5C10 6.2239 9.7761 6 9.5 6C9.5 6 8.7214 6 8.1913 6C8.1104 6 8.0376 5.9514 8.0066 5.8768C7.9756 5.8021 7.9925 5.7162 8.0495 5.6589C8.6531 5.0525 9.85 3.85 9.85 3.85C9.9467 3.7593 10.0015 3.6326 10.0015 3.5C10.0015 3.3674 9.9467 3.2407 9.85 3.15Z" fill="#242E59"/>
</svg>
