<svg width="14" height="14" viewBox="0 0 14 14" fill="none" xmlns="http://www.w3.org/2000/svg">
<path fill-rule="evenodd" clip-rule="evenodd" d="M9.1991 11.0599C9.6025 10.7923 10.1384 10.8459 10.4808 11.188L13.1465 13.8537C13.3417 14.0488 13.6585 14.0488 13.8537 13.8537C14.0488 13.6585 14.0488 13.3417 13.8537 13.1465C13.8537 13.1465 12.1347 11.4276 11.1972 10.4716C10.8593 10.1336 10.8062 9.6044 11.0704 9.2061C11.6594 8.2783 12 7.1786 12 6C12 2.6885 9.3115 0 6 0C2.6885 0 0 2.6885 0 6C0 9.3115 2.6885 12 6 12C7.1786 12 8.2783 11.6594 9.1991 11.0599ZM11 6C11 3.2404 8.7596 1 6 1C3.2404 1 1 3.2404 1 6C1 8.7596 3.2404 11 6 11C8.7596 11 11 8.7596 11 6ZM5.5 3.5C5.5 3.22386 5.72386 3 6 3C6.27614 3 6.5 3.22386 6.5 3.5V5.5H8.5C8.77614 5.5 9 5.72386 9 6C9 6.27614 8.77614 6.5 8.5 6.5H6.5V8.5C6.5 8.77614 6.27614 9 6 9C5.72386 9 5.5 8.77614 5.5 8.5V6.5H3.5C3.22386 6.5 3 6.27614 3 6C3 5.72386 3.22386 5.5 3.5 5.5H5.5V3.5Z" fill="#242E59"/>
</svg>
